<?xml version="1.0" encoding="utf-8"?>
<!-- Generator: Adobe Illustrator 16.0.0, SVG Export Plug-In . SVG Version: 6.00 Build 0)  -->
<!DOCTYPE svg PUBLIC "-//W3C//DTD SVG 1.1 Tiny//EN" "http://www.w3.org/Graphics/SVG/1.1/DTD/svg11-tiny.dtd">
<svg version="1.1" baseProfile="tiny" id="Layer_1" xmlns="http://www.w3.org/2000/svg" xmlns:xlink="http://www.w3.org/1999/xlink"
	 x="0px" y="0px" width="30px" height="30px" viewBox="0 0 30 30" overflow="scroll" xml:space="preserve">
<g>
	<path fill="#FFFFFF" d="M27.882,24.542c-2.518-2.483-3.793-5.423-3.793-8.737V10.98c0.023-3.678-2.467-6.117-4.608-7.088
		c-0.612-0.279-1.245-0.493-1.887-0.653V2.932c0-1.479-1.212-2.682-2.702-2.682c-1.489,0-2.7,1.203-2.7,2.682v0.354
		c-0.579,0.155-1.148,0.357-1.7,0.61C8.127,4.979,5.73,7.588,5.709,10.978v4.827c0,3.426-1.219,6.367-3.622,8.737
		c-0.143,0.143-0.195,0.351-0.134,0.542c0.061,0.192,0.224,0.333,0.424,0.367l5.126,0.879c0.956,0.164,1.835,0.297,2.671,0.408
		c0.943,1.835,2.794,3.012,4.817,3.012c2.023,0,3.875-1.179,4.816-3.014c0.833-0.11,1.709-0.243,2.658-0.406l5.127-0.879
		c0.198-0.034,0.362-0.176,0.423-0.368C28.077,24.893,28.025,24.685,27.882,24.542z M13.271,2.932c0-0.887,0.727-1.609,1.621-1.609
		c0.893,0,1.62,0.722,1.62,1.609V3.03c-1.075-0.154-2.168-0.147-3.241,0.025V2.932z M14.991,28.678
		c-1.368,0-2.646-0.676-3.466-1.779c1.207,0.123,2.333,0.186,3.46,0.186c1.13,0,2.261-0.063,3.473-0.186
		C17.637,28.001,16.358,28.678,14.991,28.678z M22.281,25.273c-1.036,0.178-1.986,0.321-2.884,0.435h-0.004
		c-0.396,0.051-0.779,0.094-1.155,0.131c-0.004,0.001-0.008,0.001-0.012,0.002c-0.345,0.033-0.681,0.062-1.015,0.085
		c-0.063,0.005-0.124,0.009-0.188,0.013c-0.288,0.021-0.572,0.035-0.857,0.045c-0.059,0.001-0.116,0.006-0.174,0.007
		c-0.673,0.023-1.335,0.023-2.007,0.001c-0.059-0.002-0.12-0.006-0.179-0.008c-0.279-0.01-0.562-0.024-0.847-0.044
		c-0.066-0.005-0.133-0.009-0.201-0.014c-0.324-0.022-0.652-0.05-0.988-0.082c-0.011-0.002-0.023-0.003-0.034-0.004
		c-0.374-0.037-0.756-0.081-1.148-0.13h-0.005c-0.901-0.113-1.854-0.259-2.896-0.437l-4.139-0.71
		c2.152-2.443,3.241-5.385,3.241-8.759V10.98c0.02-2.915,2.102-5.169,4.155-6.11c0.611-0.279,1.245-0.487,1.888-0.634
		c0.005-0.001,0.012,0,0.018-0.002c1.331-0.297,2.748-0.311,4.094-0.037c0.007,0.002,0.015-0.001,0.021,0
		c0.704,0.146,1.397,0.367,2.065,0.67c1.993,0.905,3.995,3.144,3.977,6.11v4.827c0,3.236,1.175,6.245,3.411,8.76L22.281,25.273z"/>
</g>
</svg>
