<?xml version="1.0" encoding="utf-8"?>
<!-- Generator: Adobe Illustrator 16.0.0, SVG Export Plug-In . SVG Version: 6.00 Build 0)  -->
<!DOCTYPE svg PUBLIC "-//W3C//DTD SVG 1.1 Tiny//EN" "http://www.w3.org/Graphics/SVG/1.1/DTD/svg11-tiny.dtd">
<svg version="1.1" baseProfile="tiny" id="Layer_1" xmlns="http://www.w3.org/2000/svg" xmlns:xlink="http://www.w3.org/1999/xlink"
	 x="0px" y="0px" width="16px" height="16px" viewBox="0 0 16 16" overflow="scroll" xml:space="preserve">
<g>
	<path fill="#1B2224" d="M13.039,2.112c-1.138-0.974-2.478-1.561-3.856-1.772C6.622-0.053,3.921,0.847,2.113,2.96
		c-2.784,3.252-2.404,8.143,0.848,10.926C4.1,14.86,5.438,15.449,6.817,15.66c2.561,0.394,5.262-0.507,7.069-2.621
		C16.672,9.787,16.291,4.896,13.039,2.112z M1.459,10.244C1.272,9.698,1.153,9.125,1.107,8.535C1.033,7.578,1.156,6.634,1.459,5.751
		l2.368,0.817C3.509,7.499,3.512,8.508,3.826,9.43L1.459,10.244z M6.673,14.786c-1.167-0.229-2.257-0.753-3.169-1.534
		c-0.259-0.221-0.5-0.46-0.72-0.713l1.89-1.642c0.139,0.159,0.292,0.313,0.457,0.454c0.6,0.513,1.297,0.836,2.02,0.978L6.673,14.786
		z M4.676,5.101L2.788,3.459C3.561,2.572,4.548,1.9,5.647,1.504C5.984,1.383,6.329,1.29,6.679,1.222l0.475,2.449
		C6.224,3.853,5.345,4.333,4.676,5.101z M9.324,1.227c1.168,0.227,2.26,0.748,3.171,1.527c0.258,0.221,0.497,0.458,0.717,0.71
		l-1.885,1.638c-0.14-0.16-0.292-0.312-0.459-0.454c-0.6-0.513-1.297-0.836-2.02-0.978L9.324,1.227z M10.351,14.502
		c-0.335,0.122-0.679,0.217-1.028,0.284l-0.476-2.457c0.93-0.182,1.808-0.663,2.478-1.431l1.889,1.643
		C12.439,13.43,11.452,14.105,10.351,14.502z M12.173,9.433c0.319-0.932,0.315-1.941,0.001-2.862l2.365-0.814
		c0.188,0.546,0.307,1.12,0.353,1.711c0.075,0.958-0.047,1.899-0.351,2.781L12.173,9.433z M5.131,2.628
		c-0.23,0-0.418,0.188-0.418,0.418s0.188,0.418,0.418,0.418c0.231,0,0.418-0.187,0.418-0.418S5.363,2.628,5.131,2.628z M2.276,7.589
		c-0.23,0-0.418,0.188-0.418,0.418c0,0.231,0.188,0.418,0.418,0.418c0.232,0,0.419-0.188,0.419-0.418
		C2.695,7.777,2.508,7.589,2.276,7.589z M4.727,12.961c0,0.231,0.188,0.418,0.418,0.418s0.418-0.187,0.418-0.418
		c0-0.23-0.187-0.419-0.418-0.419S4.727,12.73,4.727,12.961z M10.868,12.533c-0.23,0-0.418,0.188-0.418,0.419
		c0,0.232,0.188,0.418,0.418,0.418c0.231,0,0.418-0.186,0.418-0.418C11.286,12.722,11.1,12.533,10.868,12.533z M13.724,7.574
		c-0.23,0-0.418,0.187-0.418,0.418c0,0.23,0.188,0.418,0.418,0.418s0.418-0.188,0.418-0.418C14.142,7.761,13.954,7.574,13.724,7.574
		z M11.273,3.039c0-0.231-0.188-0.418-0.418-0.418c-0.232,0-0.419,0.187-0.419,0.418c0,0.231,0.187,0.418,0.419,0.418
		C11.086,3.457,11.273,3.271,11.273,3.039z"/>
</g>
</svg>
