<?xml version="1.0" encoding="utf-8"?>
<!-- Generator: Adobe Illustrator 16.0.0, SVG Export Plug-In . SVG Version: 6.00 Build 0)  -->
<!DOCTYPE svg PUBLIC "-//W3C//DTD SVG 1.1 Tiny//EN" "http://www.w3.org/Graphics/SVG/1.1/DTD/svg11-tiny.dtd">
<svg version="1.1" baseProfile="tiny" id="Layer_1" xmlns="http://www.w3.org/2000/svg" xmlns:xlink="http://www.w3.org/1999/xlink"
	 x="0px" y="0px" width="16px" height="16px" viewBox="0 0 16 16" overflow="scroll" xml:space="preserve">
<path fill="#1B2224" d="M12.903,3.762c-0.064-0.066-0.147-0.099-0.247-0.099h-1.855c-0.122-0.609-0.353-1.138-0.692-1.585h2.523
	c0.103,0,0.186-0.033,0.25-0.099c0.065-0.066,0.098-0.15,0.098-0.253V0.603c0-0.103-0.032-0.187-0.098-0.253
	c-0.064-0.066-0.147-0.1-0.25-0.1H3.618c-0.101,0-0.185,0.033-0.25,0.1S3.271,0.5,3.271,0.603v1.464
	c0,0.095,0.035,0.178,0.104,0.248c0.068,0.069,0.149,0.104,0.244,0.104h1.571c1.524,0,2.493,0.415,2.904,1.244H3.618
	c-0.101,0-0.185,0.033-0.25,0.099c-0.065,0.066-0.098,0.15-0.098,0.253v1.123c0,0.103,0.033,0.187,0.098,0.253
	S3.517,5.49,3.618,5.49h4.627c-0.16,0.603-0.53,1.061-1.112,1.376C6.553,7.182,5.785,7.34,4.832,7.34H3.618
	c-0.094,0-0.176,0.035-0.244,0.104C3.305,7.514,3.271,7.597,3.271,7.691V9.09c0,0.097,0.033,0.176,0.098,0.242
	c1.387,1.496,3.186,3.593,5.396,6.285c0.065,0.089,0.155,0.133,0.272,0.133h2.112c0.151,0,0.257-0.064,0.313-0.199
	c0.073-0.13,0.059-0.257-0.043-0.372c-2.109-2.628-3.766-4.594-4.973-5.901c1.228-0.147,2.225-0.55,2.99-1.211
	c0.766-0.66,1.231-1.519,1.397-2.575h1.822c0.1,0,0.183-0.033,0.247-0.099c0.064-0.066,0.098-0.151,0.098-0.253V4.016
	C13.001,3.912,12.968,3.828,12.903,3.762z"/>
</svg>
