<?xml version="1.0" standalone="no"?>
<!DOCTYPE svg PUBLIC "-//W3C//DTD SVG 1.1//EN" "http://www.w3.org/Graphics/SVG/1.1/DTD/svg11.dtd" >
<svg xmlns="http://www.w3.org/2000/svg">
<metadata></metadata>
<defs>
<font id="titilliumtext14l250_wt" horiz-adv-x="1085" >
<font-face units-per-em="2048" ascent="1536" descent="-512" />
<missing-glyph horiz-adv-x="481" />
<glyph horiz-adv-x="0" />
<glyph horiz-adv-x="682" />
<glyph unicode=" "  horiz-adv-x="481" />
<glyph unicode="&#x09;" horiz-adv-x="481" />
<glyph unicode="&#xa0;" horiz-adv-x="481" />
<glyph unicode="!" d="M485 0v207h136v-207h-136zM487 1432h131l-4 -971h-122z" />
<glyph unicode="&#x22;" horiz-adv-x="612" d="M94 995v435h119l-2 -435h-117zM395 1430h121l-2 -435h-117z" />
<glyph unicode="#" d="M20 377v106h234v402h-234v106h234v375h115v-375h342v375h114v-375h234v-106h-234v-402h234v-106h-234v-377h-114v377h-342v-377h-115v377h-234zM369 483h342v402h-342v-402z" />
<glyph unicode="$" d="M125 1034q0 97 30.5 164t90.5 105t138 54.5t185 16.5h41l33 244h72l-33 -248q63 -4 135 -11.5t113 -12.5l41 -5l-6 -69q-162 18 -291 28l-74 -567q57 -10 95.5 -18.5t82 -20.5t71.5 -26t57 -33.5t46 -44t31.5 -56.5t20.5 -73t6 -92q0 -199 -110.5 -291t-326.5 -92 q-44 0 -71 2l-29 -234q-72 7 -72 15l29 223q-64 4 -137.5 10.5t-115.5 11.5l-42 4l8 72q156 -21 295 -31l80 611q-83 15 -136.5 30t-107 41.5t-83 63.5t-48 94t-18.5 135zM205 1038q0 -63 13.5 -108t36 -74.5t65.5 -50.5t88.5 -33.5t119.5 -26.5l74 560h-33 q-183 0 -273.5 -60t-90.5 -207zM512 55h59q359 0 359 312q0 48 -7.5 84.5t-18.5 63.5t-35 47.5t-46.5 34t-63.5 25t-76 18.5t-93 17z" />
<glyph unicode="%" d="M45 1159q0 143 55 211t172 68q116 0 171 -69t55 -216q0 -283 -226 -283q-115 0 -171 71.5t-56 217.5zM150 1159q0 -102 26.5 -150t95.5 -48t96 47t27 149q0 100 -27 145.5t-96 45.5t-95.5 -45t-26.5 -144zM336 12l346 1434l100 -27l-348 -1433zM618 289q0 143 55.5 210.5 t172.5 67.5q116 0 171.5 -68t55.5 -212q0 -287 -227 -287q-228 0 -228 289zM723 289q0 -101 27 -150t96 -49t96 48t27 149t-26.5 145.5t-96.5 44.5q-68 0 -95.5 -44.5t-27.5 -143.5z" />
<glyph unicode="&#x26;" horiz-adv-x="1433" d="M104 420q0 173 77.5 265t244.5 149q-65 75 -84.5 135.5t-19.5 156.5q0 140 89 223t251 83q171 0 255 -83t84 -231q0 -144 -73.5 -228t-247.5 -157l328 -325q41 132 59 284l121 -2q-29 -218 -86 -364l272 -265l-78 -86l-254 246q-83 -130 -192.5 -189t-267.5 -59 q-250 0 -364 114.5t-114 332.5zM229 422q0 -164 86 -248t271 -84q126 0 213 50t151 163l-442 445q-151 -45 -215 -117.5t-64 -208.5zM444 1116q0 -146 93 -239l63 -64q155 61 216 123.5t61 175.5q0 101 -51.5 153t-163.5 52q-106 0 -162 -50.5t-56 -150.5z" />
<glyph unicode="'" horiz-adv-x="204" d="M35 1425h129l-10 -450h-115z" />
<glyph unicode="(" horiz-adv-x="532" d="M88 616q0 115 20.5 252t50 250.5t58.5 210.5t49 152l21 55h129q-8 -22 -21 -60t-46.5 -151t-59.5 -219.5t-47 -244t-21 -245.5q0 -107 20 -236t48.5 -237t57.5 -200.5t49 -145.5l20 -53h-129q-8 19 -21.5 52.5t-48 135.5t-60.5 201t-47.5 233.5t-21.5 249.5z" />
<glyph unicode=")" horiz-adv-x="532" d="M84 -246q8 22 21 60t46.5 151t59.5 219.5t47 244t21 245.5q0 107 -20 236t-48.5 237t-57.5 200.5t-49 145.5l-20 53h129q8 -19 21.5 -52.5t48 -135.5t60.5 -201t47.5 -233.5t21.5 -249.5t-20.5 -252t-50 -250.5t-58.5 -210.5t-49 -152l-21 -55h-129z" />
<glyph unicode="*" d="M262 938l223 162l-219 162l53 73l220 -159l86 258l88 -29l-84 -262h270v-90h-274l84 -260l-86 -27l-86 262l-222 -162z" />
<glyph unicode="+" horiz-adv-x="901" d="M-68 477v115h453v452h119v-452h457v-115h-457v-457h-119v457h-453z" />
<glyph unicode="," horiz-adv-x="348" d="M70 -252l90 455h135l-109 -455h-116z" />
<glyph unicode="-" horiz-adv-x="901" d="M127 516v119h645v-119h-645z" />
<glyph unicode="." horiz-adv-x="507" d="M174 0v207h135v-207h-135z" />
<glyph unicode="/" d="M197 29l569 1417l117 -43l-572 -1417z" />
<glyph unicode="0" d="M61 651q0 168 21 292.5t59.5 206.5t99 131.5t133 70t167.5 20.5q123 0 208 -33.5t148 -114.5t93 -223t30 -352q0 -154 -21 -269t-59.5 -191t-99 -123t-132 -66.5t-165.5 -19.5t-166.5 19.5t-133.5 66.5t-100 123t-60.5 192t-21.5 270zM197 649q0 -132 15 -228t41.5 -158 t70.5 -98.5t96 -50.5t123 -14t122.5 14t95.5 50.5t70.5 98.5t41 158.5t14.5 229.5q0 179 -19.5 295.5t-63.5 184.5t-106 95t-157 27q-74 0 -127 -16.5t-96 -57t-68.5 -109.5t-39 -172.5t-13.5 -248.5z" />
<glyph unicode="1" d="M152 1069l423 283h121v-1352h-125v1208l-360 -239z" />
<glyph unicode="2" d="M104 0v117l435 436q72 73 112.5 118.5t82 104t59.5 114t18 116.5q0 133 -76.5 189t-236.5 56q-68 0 -161 -12.5t-153 -24.5l-59 -12l-10 117q213 53 403 53q214 0 319 -84t105 -272q0 -78 -20 -146.5t-61.5 -131.5t-83 -110t-107.5 -112l-396 -395h707v-121h-877z" />
<glyph unicode="3" d="M102 27l17 116q219 -43 420 -43q161 1 238 70t77 205q0 76 -23 129t-66 82.5t-93.5 43t-116.5 15.5h-274v117h272q41 0 86 17t85.5 47.5t66.5 80.5t26 109q0 128 -68 181.5t-227 53.5q-84 0 -180.5 -10.5t-150.5 -20.5l-54 -10l-16 115q210 47 405 47q229 0 325.5 -82 t96.5 -264q0 -54 -14.5 -100.5t-34 -76t-48.5 -55.5t-48 -37t-43 -23l-25 -13q61 -20 101 -41.5t76.5 -59t54.5 -97t18 -142.5q0 -202 -106.5 -301.5t-329.5 -99.5q-96 0 -207.5 11.5t-175.5 23.5z" />
<glyph unicode="4" d="M59 252v102l416 998h139l-407 -981h518v362h125v-362h172v-119h-172v-258h-125v258h-666z" />
<glyph unicode="5" d="M106 37l17 115q236 -50 420 -50q149 0 236 89t87 253q0 285 -309 285q-75 0 -157 -23t-126 -46l-45 -23l-106 18l39 697h778v-121h-661l-37 -471q19 10 50.5 24.5t117.5 39t157 24.5q208 0 319 -94t111 -305q0 -229 -117.5 -347t-332.5 -118q-91 0 -201.5 13.5 t-175.5 26.5z" />
<glyph unicode="6" d="M82 684q0 154 23.5 271t66.5 196t107.5 128.5t142 71t174.5 21.5q76 0 162.5 -10t135.5 -20l48 -9l-12 -116q-162 36 -334 36q-191 0 -286.5 -118.5t-96.5 -380.5q22 10 58.5 24t130.5 38t165 24q221 0 329 -102.5t108 -311.5q0 -215 -115 -330.5t-338 -115.5 q-245 0 -357 172.5t-112 531.5zM211 639q3 -268 81.5 -404.5t258.5 -136.5q321 0 321 328q0 152 -78.5 224.5t-234.5 72.5q-75 -3 -162 -24t-137 -41z" />
<glyph unicode="7" d="M100 1231v121h834v-181l-535 -1194l-118 39l522 1168v47h-703z" />
<glyph unicode="8" d="M43 344q0 63 13 114.5t33.5 87t55 66.5t68 52t82.5 45q-118 53 -173.5 124t-55.5 195q0 173 123.5 258.5t359.5 85.5q235 0 363 -86t128 -260q0 -127 -58.5 -197.5t-190.5 -119.5q64 -24 109 -50.5t83.5 -66.5t58 -96t19.5 -129q0 -110 -37.5 -187t-109 -120t-160 -61.5 t-205.5 -18.5q-506 0 -506 364zM178 362q0 -140 97 -201t274 -61q185 0 281 62t96 213q0 53 -15 94.5t-37 68t-60.5 48.5t-73.5 34.5t-87 26.5h-225q-124 -33 -187 -98.5t-63 -186.5zM199 1016q0 -102 55.5 -160.5t173.5 -95.5h225q125 36 188.5 95t63.5 159q0 129 -87 184 t-269 55q-179 0 -264.5 -54t-85.5 -183z" />
<glyph unicode="9" d="M80 938q0 206 124.5 320t336.5 114q245 0 352.5 -178.5t107.5 -529.5q0 -192 -33.5 -326.5t-100.5 -212t-156.5 -111.5t-212.5 -34q-76 0 -167.5 11t-144.5 21l-53 11l14 114q179 -37 351 -37q187 0 279 116.5t93 367.5l-53 -16q-53 -17 -141.5 -35.5t-159.5 -18.5 q-212 0 -324 107.5t-112 316.5zM211 938q0 -307 315 -307q67 0 153.5 17.5t139.5 35.5l53 18q-2 104 -12.5 186t-34.5 152t-61 116t-93 71.5t-130 25.5q-154 0 -242 -81.5t-88 -233.5z" />
<glyph unicode=":" horiz-adv-x="333" d="M135 0v207h135v-207h-135zM135 676v209h135v-209h-135z" />
<glyph unicode=";" horiz-adv-x="385" d="M59 -248h111l121 461h-137zM143 676v209h136v-209h-136z" />
<glyph unicode="&#x3c;" d="M129 573v127l711 445v-131l-594 -373l594 -391v-135q-26 14 -177 111.5t-322.5 209.5t-211.5 137z" />
<glyph unicode="=" d="M74 696v115h925v-115h-925zM76 326v114h925v-114h-925z" />
<glyph unicode="&#x3e;" d="M129 115v135l594 391l-594 373v131l711 -445v-127q-44 -27 -213 -137.5t-320.5 -209t-177.5 -111.5z" />
<glyph unicode="?" horiz-adv-x="790" d="M18 1399q231 55 342 55q213 0 317.5 -79t104.5 -265q0 -70 -22 -132t-56.5 -108t-77 -88t-84.5 -78t-76.5 -70.5t-56.5 -74.5t-22 -82v-78h-129v84q0 53 22 101.5t56.5 87.5t76.5 77t84.5 76.5t77 79t56.5 91.5t22 106q0 126 -70.5 177.5t-226.5 51.5q-44 0 -124.5 -13.5 t-139.5 -26.5l-59 -13zM256 2v207h135v-207h-135z" />
<glyph unicode="@" horiz-adv-x="2017" d="M113 535q0 253 59 434.5t177.5 293t286.5 163t396 51.5q458 0 665.5 -207.5t207.5 -644.5v-35q0 -118 -9 -209.5t-23.5 -155.5t-39.5 -109t-51.5 -71.5t-66 -41t-75.5 -19t-86 -4.5q-99 0 -149.5 22t-79.5 96q-220 -116 -371 -116q-38 0 -69.5 4t-69.5 17t-67.5 35 t-58.5 61t-48 92t-31 131.5t-12 175.5q0 136 19.5 232t66.5 168.5t129.5 108t204.5 35.5q45 0 108 -13t104 -27l40 -13v35h121v-410q0 -131 2 -213.5t10.5 -144.5t17 -92t30.5 -47.5t42.5 -21t60.5 -3.5q34 0 56.5 3t48.5 14t42 31.5t32.5 56.5t25 89t14 129t5.5 175v37 q0 196 -40.5 332.5t-130 227.5t-230.5 133t-345 42q-205 0 -351 -44.5t-246.5 -143t-148.5 -256.5t-48 -383q0 -191 30.5 -330.5t90.5 -236.5t157 -155.5t222 -84t294 -25.5q36 0 109.5 5.5t128.5 10.5l55 5l6 -117q-201 -21 -299 -21q-156 0 -279 19t-228.5 62.5t-180 116 t-127.5 177t-78.5 247.5t-25.5 327zM721 492q0 -85 10 -150.5t28.5 -107.5t40 -70t50 -42t53.5 -19t55 -5q140 0 332 101q-20 107 -20 385v297q-136 47 -236 47q-76 0 -130.5 -18t-90 -51t-56 -88.5t-28.5 -121t-8 -157.5z" />
<glyph unicode="A" horiz-adv-x="1236" d="M63 0l410 1427h297l404 -1425h-127l-119 387h-623l-115 -389h-127zM336 510h563l-227 801h-107z" />
<glyph unicode="B" horiz-adv-x="1271" d="M195 0v1427h503q207 0 312.5 -84.5t105.5 -265.5q0 -143 -47.5 -223t-138.5 -119q109 -35 172 -111.5t63 -222.5q0 -112 -30.5 -191t-89.5 -124.5t-136 -65.5t-180 -20h-534zM319 117h406q150 0 230.5 66t80.5 223q0 262 -323 262h-394v-551zM319 782h394q143 0 208.5 71 t65.5 212q0 130 -71 188t-222 58h-375v-529z" />
<glyph unicode="C" horiz-adv-x="1097" d="M109 709q0 124 9 218.5t30 181t59 146.5t94.5 105t137.5 66.5t186 21.5q84 0 181 -11t152 -21l54 -11l-8 -117q-217 39 -369 39q-101 0 -172 -27t-114.5 -74t-68 -128t-32.5 -170t-8 -219q0 -90 4 -158t15 -134t29.5 -112.5t48.5 -87t71.5 -64.5t98.5 -37.5t130 -13.5 q60 0 151.5 9t153.5 19l62 9l6 -114q-223 -45 -385 -45q-105 0 -185.5 21t-137 65.5t-94.5 104t-59.5 144.5t-30.5 178.5t-9 215.5z" />
<glyph unicode="D" horiz-adv-x="1323" d="M195 0v1427h514q115 0 203.5 -35.5t145.5 -96t93 -150t51 -189.5t15 -221q0 -123 -14.5 -226.5t-51 -199.5t-93 -163t-145.5 -106.5t-204 -39.5h-514zM319 119h390q87 0 154 35.5t108 93.5t67.5 140t36.5 166t10 181q0 574 -376 574h-390v-1190z" />
<glyph unicode="E" horiz-adv-x="1161" d="M195 0v1427h852v-118h-728v-523h605v-118h-605v-549h728v-119h-852z" />
<glyph unicode="F" horiz-adv-x="1140" d="M195 0v1427h854v-118h-730v-588h607v-119h-607v-602h-124z" />
<glyph unicode="G" horiz-adv-x="1251" d="M113 711q0 145 15 254.5t52 203t98 153.5t155.5 93t221.5 33q96 0 210.5 -13t181.5 -27l67 -13l-6 -115q-256 47 -442 47q-103 0 -177.5 -27t-121.5 -75t-74.5 -126.5t-38 -170t-10.5 -217.5q0 -125 10.5 -216t38 -169t74.5 -125.5t120.5 -74t176.5 -26.5q58 0 136.5 8 t133 16.5t55.5 8.5v471h-262v117h387v-690q-291 -51 -457 -51q-127 0 -221 32.5t-155.5 91.5t-99 151.5t-53 202t-15.5 253.5z" />
<glyph unicode="H" horiz-adv-x="1411" d="M195 0v1427h124v-649h773v649h125v-1427h-125v659h-773v-659h-124z" />
<glyph unicode="I" horiz-adv-x="489" d="M182 0v1427h125v-1427h-125z" />
<glyph unicode="J" horiz-adv-x="626" d="M70 -31q44 0 69 1t54.5 5t44 10.5t31.5 20.5t24 33t13.5 48.5t8.5 65.5t2 87v1190h127q0 -216 1 -603.5t1 -607.5q0 -52 -3 -94.5t-11 -77t-17.5 -61t-26 -46.5t-32.5 -34.5t-41.5 -24t-48 -15t-57.5 -8.5t-65 -4t-74 -1v116z" />
<glyph unicode="K" horiz-adv-x="1220" d="M195 0v1427h124v-667l244 4l395 663h148l-430 -714l457 -713h-152l-414 643l-248 -4v-639h-124z" />
<glyph unicode="L" horiz-adv-x="1062" d="M195 0v1427h124v-1306h652v-121h-776z" />
<glyph unicode="M" horiz-adv-x="1740" d="M195 0v1427h229l446 -1243l449 1243h227v-1427h-125v1286h-28l-451 -1239h-147l-447 1239h-29v-1286h-124z" />
<glyph unicode="N" horiz-adv-x="1413" d="M195 0v1427h241l608 -1286h50v1286h127v-1427h-240l-614 1286h-48v-1286h-124z" />
<glyph unicode="O" horiz-adv-x="1337" d="M113 707q0 147 15.5 258t54 204.5t101 153t158.5 92.5t226 33t226 -32.5t159.5 -91.5t101.5 -152.5t54 -205t16 -259.5q0 -152 -15.5 -264t-53.5 -202.5t-102 -146t-159.5 -85t-226.5 -29.5q-163 0 -272 45.5t-171 141.5t-87 224.5t-25 315.5zM244 707q0 -105 7 -184 t24.5 -150t48.5 -119.5t77.5 -84.5t113 -52.5t153.5 -16.5q88 0 154.5 15.5t113.5 50.5t77.5 82t48.5 118t25 151.5t7 189.5q0 125 -11 217t-39.5 171t-76 128t-122.5 76.5t-177 27.5q-103 0 -177.5 -27t-122 -76t-75.5 -128t-38.5 -171t-10.5 -218z" />
<glyph unicode="P" horiz-adv-x="1247" d="M195 0v1427h518q228 0 335 -108.5t107 -337.5q0 -234 -109 -359.5t-333 -125.5h-394v-496h-124zM319 616h394q313 0 313 365q0 169 -74.5 248.5t-238.5 79.5h-394v-693z" />
<glyph unicode="Q" horiz-adv-x="1337" d="M113 707q0 147 15.5 258t54 204.5t101 153t158.5 92.5t226 33t226 -32.5t159.5 -91.5t101.5 -152.5t54 -205t16 -259.5q0 -269 -53.5 -427.5t-186.5 -232.5l174 -283l-119 -57l-180 295q-86 -22 -192 -22q-163 0 -272 45.5t-171 141.5t-87 224.5t-25 315.5zM244 707 q0 -105 7 -184t24.5 -150t48.5 -119.5t77.5 -84.5t113 -52.5t153.5 -16.5q88 0 154.5 15.5t113.5 50.5t77.5 82t48.5 118t25 151.5t7 189.5q0 125 -11 217t-39.5 171t-76 128t-122.5 76.5t-177 27.5q-103 0 -177.5 -27t-122 -76t-75.5 -128t-38.5 -171t-10.5 -218z" />
<glyph unicode="R" horiz-adv-x="1282" d="M195 0v1427h520q226 0 334 -101t108 -322q0 -172 -65 -275.5t-209 -140.5l293 -588h-142l-280 559h-41h-394v-559h-124zM319 678h396q170 0 240.5 84t70.5 242t-75.5 231.5t-235.5 73.5h-396v-631z" />
<glyph unicode="S" horiz-adv-x="1093" d="M106 1079q0 192 118 282.5t331 90.5q70 0 170.5 -10t165.5 -20l65 -9l-10 -117q-272 33 -391 33q-319 0 -319 -246q0 -45 7.5 -79.5t18.5 -60.5t35.5 -46.5t47 -34t66 -27t79 -22.5t98.5 -22q87 -19 144.5 -37.5t110 -47.5t81.5 -67t46 -94t17 -131q0 -228 -109.5 -329 t-328.5 -101q-69 0 -178 10t-183 20l-75 9l12 116q277 -35 422 -35q156 0 233.5 72t77.5 232q0 45 -7 78.5t-24.5 59.5t-40.5 44t-62 33.5t-80.5 26.5t-104.5 24q-54 12 -91.5 22t-79.5 23t-70 26t-58 31t-49 38.5t-36.5 47.5t-27.5 59t-15.5 71.5t-5.5 86.5z" />
<glyph unicode="T" horiz-adv-x="1013" d="M-6 1309v118h1024v-118h-447v-1309h-125v1309h-452z" />
<glyph unicode="U" horiz-adv-x="1312" d="M168 418v1009h127v-1009q0 -168 91.5 -242t262.5 -74q181 0 275 73t94 243v1009h125v-1009q0 -231 -124 -333.5t-370 -102.5q-236 0 -358.5 103t-122.5 333z" />
<glyph unicode="V" horiz-adv-x="1202" d="M63 1427h130l356 -1308h113l348 1308h129l-379 -1427h-309z" />
<glyph unicode="W" horiz-adv-x="1820" d="M82 1427h127l272 -1302h68l291 1288h141l299 -1288h66l266 1302h127l-299 -1427h-252l-279 1237l-268 -1237h-252z" />
<glyph unicode="X" horiz-adv-x="1189" d="M70 0l442 709l-442 718h143l383 -622l381 622h143l-436 -718l436 -709h-143l-379 616l-385 -616h-143z" />
<glyph unicode="Y" horiz-adv-x="1122" d="M43 1427h141l379 -673l373 673h141l-450 -815v-612h-127v612z" />
<glyph unicode="Z" horiz-adv-x="1167" d="M123 -2v174l774 1092v45h-774v118h921v-174l-774 -1093v-41h774v-121h-921z" />
<glyph unicode="[" horiz-adv-x="614" d="M88 1534h410v-117h-285v-1552h285v-117h-408z" />
<glyph unicode="\" horiz-adv-x="1705" d="M473 1415l131 21l619 -1416l-129 -20z" />
<glyph unicode="]" horiz-adv-x="614" d="M43 -135h285v1552h-285v117h410l-2 -1786h-408v117z" />
<glyph unicode="^" horiz-adv-x="1550" d="M33 899l370 711h287l373 -711h-287l-225 440l-232 -440h-286z" />
<glyph unicode="_" horiz-adv-x="1064" d="M55 -45h877v-115h-877v115z" />
<glyph unicode="`" horiz-adv-x="1116" d="M274 1409l50 111l426 -195l-48 -102z" />
<glyph unicode="a" horiz-adv-x="1064" d="M104 289q0 141 72.5 213.5t229.5 85.5l348 35v92q0 211 -197 211q-67 0 -164 -8t-161 -16l-64 -9l-8 111q241 38 401 38t236.5 -79.5t76.5 -247.5v-535q7 -77 134 -92l-7 -106q-85 0 -139 17.5t-92 59.5q-21 -9 -57 -22t-139.5 -35t-196.5 -22q-130 0 -201.5 79.5 t-71.5 229.5zM231 291q0 -97 42 -150t118 -53q77 0 168 17.5t143 34.5l52 18v362l-334 -31q-189 -17 -189 -198z" />
<glyph unicode="b" horiz-adv-x="1105" d="M188 0v1479h123v-508q18 8 49 20t115.5 31.5t155.5 19.5q205 0 284.5 -117t79.5 -395q0 -154 -21.5 -253.5t-76.5 -168.5t-146.5 -98.5t-232.5 -29.5q-57 0 -139.5 5t-136.5 10zM311 102q144 -12 205 -12q76 0 131.5 11t94.5 36.5t63.5 59t38.5 85.5t19 109t5 137 q0 220 -51 311t-194 91q-68 0 -146 -16.5t-122 -33.5l-44 -16v-762z" />
<glyph unicode="c" horiz-adv-x="894" d="M111 530q0 280 96 396t325 116q39 0 106 -6t114 -12l47 -6l-4 -109q-164 19 -242 19q-182 0 -249.5 -87.5t-67.5 -310.5q0 -126 12 -203t46.5 -132.5t96.5 -78t162 -22.5q35 0 96 5t105 9l43 5l6 -109q-185 -24 -273 -24q-126 0 -206 28.5t-128 96.5t-66.5 168t-18.5 257 z" />
<glyph unicode="d" horiz-adv-x="1107" d="M111 504q0 277 97 407.5t331 130.5q102 0 258 -24v416h123v-1434h-123v74q-7 -4 -18.5 -10t-48.5 -22.5t-74 -29t-89 -22.5t-98 -10q-58 0 -104 9.5t-96 42t-82.5 87.5t-54 153t-21.5 232zM233 500q0 -103 15 -179t37.5 -119t57.5 -68.5t66 -33t72 -8.5q68 1 147 23 t124 43l45 22v729q-6 1 -60.5 7.5t-105.5 11t-88 4.5q-90 0 -151 -27t-95.5 -84t-49 -133.5t-14.5 -187.5z" />
<glyph unicode="e" horiz-adv-x="1038" d="M111 508q0 534 421 534q203 0 303.5 -115t100.5 -368l-4 -98h-696q0 -189 64 -279t220 -90q67 0 160.5 5t153.5 9l61 5l4 -103q-231 -28 -391 -28q-113 1 -190.5 34.5t-122.5 102.5t-64.5 163.5t-19.5 227.5zM236 563h577q0 200 -67 285.5t-214 85.5q-145 0 -220.5 -88.5 t-75.5 -282.5z" />
<glyph unicode="f" horiz-adv-x="679" d="M61 911v113h136v104q0 111 14 182.5t47.5 113.5t82 58.5t124.5 16.5q32 0 82 -3t85 -6l34 -3l-2 -103q-122 5 -181 5q-64 0 -98.5 -22t-51 -78.5t-16.5 -162.5v-102h312v-113h-312v-911h-120v911h-136z" />
<glyph unicode="g" horiz-adv-x="1048" d="M102 -170q0 87 37 139t129 119q-51 34 -51 139q0 16 16.5 56t32.5 72l17 32q-166 70 -166 309q0 348 368 348q47 0 101 -6.5t84 -13.5l30 -6l295 6v-109h-198q35 -35 52 -84t17 -135q0 -191 -92 -266.5t-295 -75.5q-58 0 -104 8q-41 -99 -41 -126q0 -25 2 -38.5 t11.5 -26.5t24.5 -18.5t46.5 -10.5t71 -6t104.5 -1q111 0 179 -11.5t117 -44t69 -90.5t20 -151q0 -170 -111.5 -248.5t-337.5 -78.5q-168 0 -259 29.5t-130 97t-39 192.5zM225 -162q0 -63 12.5 -102t46.5 -66t93.5 -38t154.5 -11q168 0 244 50t76 163q0 52 -10 87t-27.5 56 t-52.5 32t-73.5 14.5t-102.5 3.5l-232 8q-76 -54 -102.5 -93.5t-26.5 -103.5zM240 696q0 -124 52.5 -179.5t186.5 -55.5q142 0 202 52t60 183q0 144 -55.5 192t-202.5 48q-126 0 -184.5 -54t-58.5 -186z" />
<glyph unicode="h" horiz-adv-x="1157" d="M188 0v1509h123v-538q20 8 53 20t121 31.5t158 19.5q85 0 143.5 -17t98 -52t61 -98t30.5 -143t9 -200v-532h-123v530q0 96 -5 157t-19 112t-40.5 77.5t-67 40t-101.5 13.5q-68 0 -147.5 -17t-125.5 -34l-45 -17v-862h-123z" />
<glyph unicode="i" horiz-adv-x="466" d="M172 0v1024h123v-1024h-123zM172 1280v154h123v-154h-123z" />
<glyph unicode="j" horiz-adv-x="495" d="M-63 -358q86 49 133.5 83t79 77t41.5 89.5t10 120.5v1012h123v-1014q0 -183 -66.5 -276.5t-269.5 -196.5zM201 1284v154h123v-154h-123z" />
<glyph unicode="k" horiz-adv-x="1007" d="M188 0v1479h123v-873l170 6l332 412h139l-360 -469l364 -555h-141l-332 492l-172 -7v-485h-123z" />
<glyph unicode="l" horiz-adv-x="483" d="M180 0v1479h123v-1479h-123z" />
<glyph unicode="m" horiz-adv-x="1777" d="M188 0v1024h123v-74q15 9 42 23t102.5 38t142.5 27q27 1 49 1q38 0 66 -3q117 -15 172 -88q2 1 34 13t53 19.5t62.5 20.5t75 21t75 14t77.5 6q85 0 143 -17t97.5 -51t61.5 -96.5t31 -143.5t9 -202v-532h-123v502q0 75 -2 126.5t-8 100t-17 79t-28 56t-42.5 39t-58.5 20.5 t-78 7q-69 0 -147 -21.5t-116 -38.5t-48 -24q29 -86 29 -314v-532h-121v528q0 82 -3.5 137t-13 103t-25.5 76.5t-42.5 49t-63 28.5t-88.5 8q-68 0 -142.5 -21.5t-114.5 -42.5l-40 -22v-844h-123z" />
<glyph unicode="n" horiz-adv-x="1167" d="M188 0v1024h123v-74q20 10 53.5 25.5t121.5 41t157 25.5q85 0 143.5 -17t98 -52t61 -98t30.5 -143t9 -200v-532h-121v530q0 96 -5 157t-19 112t-40.5 77.5t-67.5 40t-103 13.5q-68 0 -147.5 -21.5t-125.5 -42.5l-45 -22v-844h-123z" />
<glyph unicode="o" horiz-adv-x="1079" d="M111 528q0 274 98.5 394t333.5 120q222 0 324 -123.5t102 -392.5q0 -145 -18.5 -241.5t-66 -168t-131 -104t-210.5 -32.5q-129 0 -212.5 30t-132.5 99.5t-68 168.5t-19 250zM236 528q0 -100 6.5 -166t25.5 -122t53 -86.5t88.5 -47t133.5 -16.5q56 0 99.5 9t75 25.5t54 45 t36 61.5t21.5 81t10.5 97t2.5 117q0 218 -70.5 312t-228.5 94q-176 0 -241.5 -87t-65.5 -317z" />
<glyph unicode="p" horiz-adv-x="1107" d="M188 -461v1485h123v-78q7 4 18.5 10.5t48 23t73 29t87.5 23t97 10.5q191 0 277.5 -123.5t86.5 -394.5q0 -294 -102.5 -419t-339.5 -125q-132 0 -246 26v-467h-123zM311 115q146 -25 240 -25q178 0 249.5 99t71.5 339q0 215 -63 309.5t-186 94.5q-67 0 -145 -23t-122 -46 l-45 -23v-725z" />
<glyph unicode="q" horiz-adv-x="1099" d="M111 492q0 143 23 242.5t76.5 170t144 104t223.5 33.5q45 0 128.5 -4.5t143.5 -9.5l61 -4v-1485h-123v506q-14 -7 -39 -18t-99.5 -29t-145.5 -18q-212 0 -302.5 127t-90.5 385zM236 496q0 -205 60 -305.5t208 -100.5q68 0 139 18t108 36l37 18v760q-142 10 -210 10 q-101 0 -168 -26t-105 -83t-53.5 -134.5t-15.5 -192.5z" />
<glyph unicode="r" horiz-adv-x="727" d="M188 0v1024h123v-145q19 14 52 36t131.5 67t191.5 62v-124q-87 -17 -180.5 -56t-143.5 -70l-51 -30v-764h-123z" />
<glyph unicode="s" horiz-adv-x="995" d="M117 754q0 65 20.5 115.5t54.5 82.5t81.5 52.5t97.5 29t106 8.5q69 0 160.5 -8.5t148.5 -17.5l56 -8l-4 -109q-222 33 -355 33q-241 0 -241 -174q0 -80 52.5 -113.5t213.5 -58.5q86 -14 142 -28t103 -35.5t72 -51.5t38.5 -72.5t13.5 -101.5q0 -172 -100.5 -244.5 t-295.5 -72.5q-56 0 -144.5 9t-148.5 18l-61 9l8 109q232 -35 336 -35q143 0 212 43.5t69 157.5q0 89 -54.5 122t-226.5 60q-101 16 -160.5 33t-107 48t-67 79t-19.5 121z" />
<glyph unicode="t" horiz-adv-x="749" d="M61 911v113h152v322h123v-322h342v-113h-342v-497q0 -84 3 -133t12 -90t27.5 -60t46.5 -29t73 -10q25 0 72.5 3.5t82.5 6.5l35 4l6 -108q-135 -21 -207 -21q-104 0 -161.5 31.5t-85 111.5t-27.5 228v563h-152z" />
<glyph unicode="u" horiz-adv-x="1142" d="M174 489v535h121v-530q0 -99 5 -161t18.5 -113t40.5 -77t68 -39.5t103 -13.5q68 0 143.5 21.5t116.5 42.5l41 22v848h121v-1024h-121v72q-18 -10 -48.5 -25.5t-114 -41t-152.5 -25.5q-72 0 -124 10.5t-91 36.5t-63 63t-38.5 96.5t-20 130.5t-5.5 172z" />
<glyph unicode="v" horiz-adv-x="985" d="M57 1024h129l267 -918h79l269 918h127l-303 -1024h-269z" />
<glyph unicode="w" horiz-adv-x="1552" d="M63 1024h125l228 -913h28l267 893h131l264 -893h31l227 913h125l-258 -1024h-215l-242 844l-242 -844h-213z" />
<glyph unicode="x" horiz-adv-x="940" d="M63 0l330 512l-330 512h136l270 -422l272 422h136l-330 -512l330 -512h-138l-270 420l-270 -420h-136z" />
<glyph unicode="y" horiz-adv-x="985" d="M57 1024h125l273 -907h73l275 907h125q-59 -202 -170 -570t-150 -501l-123 -414h-123l136 461h-140z" />
<glyph unicode="z" horiz-adv-x="983" d="M111 0v111l612 802h-612v111h759v-111l-610 -802h610v-111h-759z" />
<glyph unicode="{" horiz-adv-x="610" d="M12 584v106q116 29 161.5 82t45.5 148q0 26 -7 124t-7 138q0 186 88.5 269t292.5 91l4 -117q-149 -7 -202.5 -64.5t-53.5 -184.5q0 -35 7 -127.5t7 -120.5q0 -129 -45 -190t-160 -99q114 -37 159.5 -101t45.5 -190q-1 -21 -7 -107.5t-7 -131.5q0 -125 54 -185t202 -67 l-4 -117q-203 7 -292 91.5t-89 268.5q0 44 7 137t7 115q0 93 -46 146t-161 86z" />
<glyph unicode="|" d="M469 -209v1667h125v-1667h-125z" />
<glyph unicode="}" horiz-adv-x="610" d="M4 -150q149 7 202.5 65t53.5 185q0 35 -7 127.5t-7 120.5q0 129 45 190t160 99q-114 37 -159.5 101t-45.5 190q1 21 7 107.5t7 131.5q0 125 -54 185t-202 67l4 117q203 -7 292 -91.5t89 -268.5q0 -44 -7 -137t-7 -115q0 -93 46 -146t161 -86v-106q-116 -29 -161.5 -82 t-45.5 -148q0 -26 7 -124t7 -138q0 -186 -88.5 -269t-292.5 -91z" />
<glyph unicode="~" horiz-adv-x="1705" />
<glyph unicode="&#xa2;" horiz-adv-x="894" d="M96 508q0 221 92 326.5t269 113.5v252h110v-256q40 -2 94.5 -7t89.5 -9l35 -4l-6 -113q-194 16 -272 16q-156 0 -218.5 -71.5t-62.5 -247.5q0 -180 61.5 -244.5t235.5 -64.5q35 0 100 3.5t112 7.5l48 3l4 -113q-133 -16 -219 -20v-250h-110v248q-97 4 -162 25.5 t-112 70.5t-68 130.5t-21 203.5z" />
<glyph unicode="&#xa3;" horiz-adv-x="1167" d="M233 0v115h168v624h-120v113h120v125q0 102 11.5 174t33 119.5t58 74.5t81 37.5t107.5 10.5q35 0 100 -7.5t112 -15.5l48 -8v-119q-157 29 -225 29q-46 0 -75.5 -6t-53.5 -24.5t-37 -45.5t-22 -77.5t-11.5 -111t-3.5 -155.5h342v-113h-342v-624h326l160 32l22 -110 l-166 -35q-106 0 -317 -1t-316 -1z" />
<glyph unicode="&#xa5;" horiz-adv-x="1105" d="M35 1352h141l379 -584l373 584h143l-366 -586h303v-109h-369l-21 -41v-153h392v-111h-392v-352h-126v352h-394v111h394v153l-19 41h-377v109h310z" />
<glyph unicode="&#xa6;" d="M465 -211v762h123v-762h-123zM465 772v764h123v-764h-123z" />
<glyph unicode="&#xa7;" d="M168 514q0 114 106 225q-90 69 -90 234q0 156 91.5 224.5t267.5 68.5q57 0 137 -7t131 -13l51 -7l-4 -65q-217 26 -315 26q-141 0 -214 -53t-73 -170q0 -42 6.5 -74t17.5 -55.5t32 -42t42 -30t57 -22t67 -16.5t81 -14q73 -12 120 -23.5t92.5 -32.5t71 -50t41 -74 t15.5 -107q0 -64 -23.5 -135.5t-56.5 -124.5q74 -59 74 -190q0 -324 -354 -324q-55 0 -141 7t-144 13l-59 7l6 65q225 -28 338 -28q139 0 210.5 62t71.5 196q0 36 -7 64t-17.5 48t-32.5 35.5t-41 25t-55.5 18t-63 13t-76.5 11.5q-55 8 -93 15t-79 19.5t-67.5 27.5t-51.5 38 t-38.5 52.5t-22 70.5t-8.5 92zM240 518q0 -48 7.5 -84t26.5 -62t41 -43t60 -29.5t74.5 -20t93.5 -15.5q161 -24 223 -55q25 35 43 100.5t18 120.5q0 50 -14 86.5t-35 59t-60.5 39t-76 25t-96.5 17.5q-158 25 -219 54q-33 -37 -59.5 -92.5t-26.5 -100.5z" />
<glyph unicode="&#xa8;" horiz-adv-x="1705" d="M190 1278v170h125v-170h-125zM561 1278v170h125v-170h-125z" />
<glyph unicode="&#xa9;" d="M20 889q0 149 67.5 274t188 198t267.5 73q148 0 268.5 -73t188 -198t67.5 -274t-67.5 -273.5t-188 -197t-268.5 -72.5t-268 72.5t-187.5 197t-67.5 273.5zM86 889q0 -200 130.5 -338.5t326.5 -138.5t327 138.5t131 338.5t-131 339.5t-327 139.5t-326.5 -139.5 t-130.5 -339.5zM319 887q0 59 5.5 104.5t20.5 86.5t39.5 67t64.5 41.5t94 15.5q35 0 72.5 -3.5t58.5 -6.5l20 -4l-2 -66q-83 15 -149 15q-42 0 -71 -11.5t-46 -30.5t-26.5 -52.5t-12 -68t-2.5 -87.5q0 -127 32.5 -186.5t125.5 -59.5q25 0 62.5 4t62.5 8l24 4l2 -65 q-88 -17 -151 -17q-66 0 -111 22t-69 65t-34 97t-10 128z" />
<glyph unicode="&#xaa;" horiz-adv-x="1060" d="M283 954q0 74 37.5 112t115.5 44l209 14v47q0 65 -24 89t-82 24q-31 0 -84.5 -3.5t-90.5 -6.5l-38 -4l-4 63q141 17 217 17q89 0 129.5 -42.5t40.5 -138.5v-274q7 -24 24 -34t51 -13l-4 -57q-38 1 -61.5 11t-48.5 34q-129 -45 -244 -45q-64 0 -103.5 44.5t-39.5 118.5z M350 950q0 -94 82 -94q41 0 94 9t86 17l33 9v174l-199 -12q-52 -4 -74 -28t-22 -75z" />
<glyph unicode="&#xab;" horiz-adv-x="1705" d="M451 520v74l342 264v-80l-277 -217l277 -239v-84q-272 231 -342 282zM874 520v74l343 264v-80l-277 -217l277 -239v-84q-273 231 -343 282z" />
<glyph unicode="&#xad;" horiz-adv-x="901" d="M127 516v119h645v-119h-645z" />
<glyph unicode="&#xae;" d="M20 889q0 149 67.5 274t188 198t267.5 73q148 0 268.5 -73t188 -198t67.5 -274t-67.5 -273.5t-188 -197t-268.5 -72.5t-268 72.5t-187.5 197t-67.5 273.5zM86 889q0 -200 130.5 -338.5t326.5 -138.5t327 138.5t131 338.5t-131 339.5t-327 139.5t-326.5 -139.5 t-130.5 -339.5zM334 565v645h186q130 0 183 -41.5t53 -142.5q0 -155 -121 -186l133 -275h-72l-135 269h-162v-269h-65zM399 899h164q69 0 98 27.5t29 99.5q0 67 -39 93t-125 26h-127v-246z" />
<glyph unicode="&#xaf;" horiz-adv-x="1705" />
<glyph unicode="&#xb0;" d="M213 1155q0 127 79.5 206t207.5 79q127 0 205.5 -78.5t78.5 -206.5t-78.5 -206.5t-205.5 -78.5q-128 0 -207.5 79t-79.5 206zM305 1155q0 -89 53 -143t142 -54t143.5 54t54.5 143t-54.5 144t-143.5 55t-142 -54.5t-53 -144.5z" />
<glyph unicode="&#xb1;" d="M92 659v115h393v273h119v-273h404v-115h-404v-276h-119v276h-393zM94 137v115h914v-115h-914z" />
<glyph unicode="&#xb4;" horiz-adv-x="1705" d="M270 1325l426 195l49 -111l-428 -186z" />
<glyph unicode="&#xb6;" horiz-adv-x="1550" d="M162 1061q0 164 109 268.5t272 104.5h739v-119h-180v-1315h-123v1315h-297v-1315h-125v694h-14q-163 0 -272 102.5t-109 264.5z" />
<glyph unicode="&#xb8;" horiz-adv-x="1705" d="M791 -342l4 53q18 -4 57 -4t48 14.5t9 59.5q0 43 -8.5 54t-48.5 11h-49v156h67v-98q63 -1 86 -27.5t23 -95.5q0 -74 -26 -102.5t-99 -28.5q-24 0 -63 8z" />
<glyph unicode="&#xba;" horiz-adv-x="1077" d="M295 1073q0 143 58.5 210t176.5 67t175 -67t57 -210q0 -144 -57 -213t-175 -69t-176.5 69t-58.5 213zM365 1073q0 -117 38.5 -167t126.5 -50t125 50t37 167q0 116 -37 163.5t-125 47.5q-89 0 -127 -47.5t-38 -163.5z" />
<glyph unicode="&#xbb;" horiz-adv-x="1705" d="M492 238v84l276 239l-276 217v80l342 -264v-74q-31 -23 -116.5 -93.5t-155.5 -129.5zM915 238v84l277 239l-277 217v80l342 -264v-74q-31 -23 -116.5 -93.5t-155.5 -129.5z" />
<glyph unicode="&#xc0;" horiz-adv-x="1236" d="M66 0l409 1427h297l404 -1425h-127l-119 387h-623l-114 -389h-127zM338 510h563l-227 801h-107zM354 1819l49 110l426 -194l-47 -103z" />
<glyph unicode="&#xc1;" horiz-adv-x="1236" d="M66 0l409 1427h297l404 -1425h-127l-119 387h-623l-114 -389h-127zM338 510h563l-227 801h-107zM391 1735l426 194l49 -110l-428 -187z" />
<glyph unicode="&#xc2;" horiz-adv-x="1236" d="M66 0l409 1427h297l404 -1425h-127l-119 387h-623l-114 -389h-127zM315 1622l254 297h99l254 -297h-131l-170 190l-172 -190h-134zM338 510h563l-227 801h-107z" />
<glyph unicode="&#xc3;" horiz-adv-x="1236" d="M66 0l409 1427h297l404 -1425h-127l-119 387h-623l-114 -389h-127zM305 1763q115 111 195 111q43 0 82.5 -17t64 -37.5t56 -37.5t59.5 -17q38 0 125 82l45 -35q-104 -112 -170 -112q-41 0 -79.5 17t-63 38t-57 38t-64.5 17q-53 0 -142 -84zM338 510h563l-227 801h-107z " />
<glyph unicode="&#xc4;" horiz-adv-x="1236" d="M66 0l409 1427h297l404 -1425h-127l-119 387h-623l-114 -389h-127zM338 510h563l-227 801h-107zM371 1688v170h125v-170h-125zM741 1688v170h125v-170h-125z" />
<glyph unicode="&#xc5;" horiz-adv-x="1236" d="M66 0l409 1427h297l404 -1425h-127l-119 387h-623l-114 -389h-127zM338 510h563l-227 801h-107zM428 1737q0 82 55 137t138 55q82 0 137 -55t55 -137q0 -83 -55 -138t-137 -55q-83 0 -138 55t-55 138zM498 1737q0 -54 35.5 -90.5t89.5 -36.5q52 0 87 36.5t35 90.5 q0 53 -35 89t-87 36q-54 0 -89.5 -36t-35.5 -89z" />
<glyph unicode="&#xc6;" horiz-adv-x="1839" d="M78 0l479 1427h1174v-118h-727v-516h604v-119h-604v-555h727v-119h-852v389h-535l-133 -389h-133zM381 510h498v786h-232z" />
<glyph unicode="&#xc7;" horiz-adv-x="1099" d="M109 709q0 124 9 218.5t30 181t59 146.5t94.5 105t137.5 66.5t186 21.5q84 0 181 -11t152 -21l54 -11l-8 -117q-217 39 -369 39q-101 0 -172 -27t-114.5 -74t-68 -128t-32.5 -170t-8 -219q0 -90 4 -158t15 -134t29.5 -112.5t48.5 -87t71.5 -64.5t98.5 -37.5t130 -13.5 q60 0 151.5 9t153.5 19l62 9l6 -114q-223 -45 -385 -45q-105 0 -185.5 21t-137 65.5t-94.5 104t-59.5 144.5t-30.5 178.5t-9 215.5zM510 -342l4 53q18 -4 57 -4t48.5 14.5t9.5 59.5q0 43 -9 54t-49 11h-49v156h68v-98q63 -1 85.5 -27.5t22.5 -95.5q0 -74 -26 -102.5 t-99 -28.5q-24 0 -63 8z" />
<glyph unicode="&#xc8;" horiz-adv-x="1171" d="M211 0v1434h838v-70h-764v-592h641v-70h-641v-632h764v-70h-838zM412 1845l32 64l394 -197l-31 -55z" />
<glyph unicode="&#xc9;" horiz-adv-x="1171" d="M197 0v1427h852v-118h-727v-523h604v-118h-604v-549h727v-119h-852zM422 1735l426 194l49 -110l-428 -187z" />
<glyph unicode="&#xca;" horiz-adv-x="1171" d="M197 0v1427h852v-118h-727v-523h604v-118h-604v-549h727v-119h-852zM328 1622l254 297h98l254 -297h-131l-170 190l-172 -190h-133z" />
<glyph unicode="&#xcb;" horiz-adv-x="1171" d="M197 0v1427h852v-118h-727v-523h604v-118h-604v-549h727v-119h-852zM383 1688v170h125v-170h-125zM754 1688v170h125v-170h-125z" />
<glyph unicode="&#xcc;" horiz-adv-x="462" d="M-14 1819l49 110l426 -194l-47 -103zM182 0v1427h125v-1427h-125z" />
<glyph unicode="&#xcd;" horiz-adv-x="462" d="M-18 1735l426 194l49 -110l-428 -187zM182 0v1427h125v-1427h-125z" />
<glyph unicode="&#xce;" horiz-adv-x="473" d="M-68 1622l254 297h99l254 -297h-131l-170 190l-172 -190h-134zM186 0v1427h125v-1427h-125z" />
<glyph unicode="&#xcf;" horiz-adv-x="462" d="M-16 1688v170h125v-170h-125zM182 0v1427h125v-1427h-125zM354 1688v170h125v-170h-125z" />
<glyph unicode="&#xd0;" horiz-adv-x="1323" d="M47 641v119h594v-119h-594zM195 0v1427h514q115 0 203.5 -35.5t145.5 -96t93 -150t51 -189.5t15 -221q0 -123 -14.5 -226.5t-51 -199.5t-93 -163t-145.5 -106.5t-204 -39.5h-514zM319 119h390q87 0 154 35.5t108 93.5t67.5 140t36.5 166t10 181q0 574 -376 574h-390 v-1190z" />
<glyph unicode="&#xd1;" horiz-adv-x="1406" d="M188 0v1427h242l608 -1286h49v1286h127v-1427h-239l-615 1286h-47v-1286h-125zM387 1763q115 111 195 111q43 0 82.5 -17t64 -37.5t56 -37.5t59.5 -17q38 0 125 82l45 -35q-104 -112 -170 -112q-41 0 -79.5 17t-63 38t-57 38t-64.5 17q-53 0 -142 -84z" />
<glyph unicode="&#xd2;" horiz-adv-x="1343" d="M115 707q0 147 15.5 258t54 204.5t101 153t158.5 92.5t226 33t226 -32.5t159.5 -91.5t101.5 -152.5t54 -205t16 -259.5q0 -152 -15.5 -264t-53.5 -202.5t-102 -146t-159.5 -85t-226.5 -29.5q-163 0 -272 45.5t-171 141.5t-87 224.5t-25 315.5zM246 707q0 -105 7 -184 t24.5 -150t48.5 -119.5t77.5 -84.5t113 -52.5t153.5 -16.5q88 0 154.5 15.5t113.5 50.5t77.5 82t48.5 118t25 151.5t7 189.5q0 125 -11 217t-39.5 171t-76 128t-122.5 76.5t-177 27.5q-103 0 -177.5 -27t-122 -76t-75.5 -128t-38.5 -171t-10.5 -218zM426 1819l49 110 l426 -194l-47 -103z" />
<glyph unicode="&#xd3;" horiz-adv-x="1343" d="M115 707q0 147 15.5 258t54 204.5t101 153t158.5 92.5t226 33t226 -32.5t159.5 -91.5t101.5 -152.5t54 -205t16 -259.5q0 -152 -15.5 -264t-53.5 -202.5t-102 -146t-159.5 -85t-226.5 -29.5q-163 0 -272 45.5t-171 141.5t-87 224.5t-25 315.5zM246 707q0 -105 7 -184 t24.5 -150t48.5 -119.5t77.5 -84.5t113 -52.5t153.5 -16.5q88 0 154.5 15.5t113.5 50.5t77.5 82t48.5 118t25 151.5t7 189.5q0 125 -11 217t-39.5 171t-76 128t-122.5 76.5t-177 27.5q-103 0 -177.5 -27t-122 -76t-75.5 -128t-38.5 -171t-10.5 -218zM422 1735l426 194 l49 -110l-428 -187z" />
<glyph unicode="&#xd4;" horiz-adv-x="1343" d="M115 707q0 147 15.5 258t54 204.5t101 153t158.5 92.5t226 33t226 -32.5t159.5 -91.5t101.5 -152.5t54 -205t16 -259.5q0 -152 -15.5 -264t-53.5 -202.5t-102 -146t-159.5 -85t-226.5 -29.5q-163 0 -272 45.5t-171 141.5t-87 224.5t-25 315.5zM246 707q0 -105 7 -184 t24.5 -150t48.5 -119.5t77.5 -84.5t113 -52.5t153.5 -16.5q88 0 154.5 15.5t113.5 50.5t77.5 82t48.5 118t25 151.5t7 189.5q0 125 -11 217t-39.5 171t-76 128t-122.5 76.5t-177 27.5q-103 0 -177.5 -27t-122 -76t-75.5 -128t-38.5 -171t-10.5 -218zM369 1622l254 297h98 l254 -297h-131l-170 190l-172 -190h-133z" />
<glyph unicode="&#xd5;" horiz-adv-x="1343" d="M115 707q0 147 15.5 258t54 204.5t101 153t158.5 92.5t226 33t226 -32.5t159.5 -91.5t101.5 -152.5t54 -205t16 -259.5q0 -152 -15.5 -264t-53.5 -202.5t-102 -146t-159.5 -85t-226.5 -29.5q-163 0 -272 45.5t-171 141.5t-87 224.5t-25 315.5zM246 707q0 -105 7 -184 t24.5 -150t48.5 -119.5t77.5 -84.5t113 -52.5t153.5 -16.5q88 0 154.5 15.5t113.5 50.5t77.5 82t48.5 118t25 151.5t7 189.5q0 125 -11 217t-39.5 171t-76 128t-122.5 76.5t-177 27.5q-103 0 -177.5 -27t-122 -76t-75.5 -128t-38.5 -171t-10.5 -218zM358 1763 q115 111 195 111q43 0 82.5 -17t64 -37.5t56 -37.5t59.5 -17q38 0 125 82l45 -35q-104 -112 -170 -112q-41 0 -79.5 17t-63 38t-57 38t-64.5 17q-52 0 -141 -84z" />
<glyph unicode="&#xd6;" horiz-adv-x="1343" d="M115 707q0 147 15.5 258t54 204.5t101 153t158.5 92.5t226 33t226 -32.5t159.5 -91.5t101.5 -152.5t54 -205t16 -259.5q0 -152 -15.5 -264t-53.5 -202.5t-102 -146t-159.5 -85t-226.5 -29.5q-163 0 -272 45.5t-171 141.5t-87 224.5t-25 315.5zM246 707q0 -105 7 -184 t24.5 -150t48.5 -119.5t77.5 -84.5t113 -52.5t153.5 -16.5q88 0 154.5 15.5t113.5 50.5t77.5 82t48.5 118t25 151.5t7 189.5q0 125 -11 217t-39.5 171t-76 128t-122.5 76.5t-177 27.5q-103 0 -177.5 -27t-122 -76t-75.5 -128t-38.5 -171t-10.5 -218zM424 1688v170h125v-170 h-125zM795 1688v170h125v-170h-125z" />
<glyph unicode="&#xd7;" horiz-adv-x="1550" d="M383 123l397 414l-393 407l86 82l389 -408l391 408l86 -82l-395 -407l399 -414l-86 -80l-395 410l-395 -410z" />
<glyph unicode="&#xd8;" horiz-adv-x="1343" d="M117 707q0 147 15.5 258t54 204.5t101 153t158.5 92.5t226 33q151 0 260 -47l108 231l115 -45l-119 -248q104 -87 148.5 -242.5t44.5 -389.5q0 -152 -15.5 -264t-53.5 -202.5t-102 -146t-159.5 -85t-226.5 -29.5q-151 0 -252 40l-121 -258l-113 50l125 266 q-107 81 -150.5 233.5t-43.5 395.5zM248 707q0 -191 27.5 -309t101.5 -183l500 1071q-45 19 -99 31q-75 10 -131 8q-97 -4 -167.5 -33t-115 -78t-70.5 -127.5t-36 -168t-10 -211.5zM471 133q76 -33 201 -33q88 0 154.5 15.5t113.5 50.5t77.5 82t48.5 118t25 151.5t7 189.5 q0 180 -28 301.5t-95 193.5z" />
<glyph unicode="&#xd9;" horiz-adv-x="1314" d="M170 418v1009h127v-1009q0 -168 91.5 -242t262.5 -74q181 0 275 73t94 243v1009h125v-1009q0 -231 -124 -333.5t-370 -102.5q-236 0 -358.5 103t-122.5 333zM414 1819l49 110l426 -194l-47 -103z" />
<glyph unicode="&#xda;" horiz-adv-x="1314" d="M170 418v1009h127v-1009q0 -168 91.5 -242t262.5 -74q181 0 275 73t94 243v1009h125v-1009q0 -231 -124 -333.5t-370 -102.5q-236 0 -358.5 103t-122.5 333zM410 1735l426 194l49 -110l-428 -187z" />
<glyph unicode="&#xdb;" horiz-adv-x="1314" d="M170 418v1009h127v-1009q0 -168 91.5 -242t262.5 -74q181 0 275 73t94 243v1009h125v-1009q0 -231 -124 -333.5t-370 -102.5q-236 0 -358.5 103t-122.5 333zM356 1622l254 297h99l254 -297h-132l-169 190l-173 -190h-133z" />
<glyph unicode="&#xdc;" horiz-adv-x="1314" d="M170 418v1009h127v-1009q0 -168 91.5 -242t262.5 -74q181 0 275 73t94 243v1009h125v-1009q0 -231 -124 -333.5t-370 -102.5q-236 0 -358.5 103t-122.5 333zM414 1688v170h125v-170h-125zM784 1688v170h125v-170h-125z" />
<glyph unicode="&#xdd;" horiz-adv-x="1105" d="M35 1427h141l379 -673l373 673h141l-451 -815v-612h-126v612zM295 1735l426 194l49 -110l-428 -187z" />
<glyph unicode="&#xde;" horiz-adv-x="1216" d="M170 0v1427h125v-237h393q228 0 336.5 -109t108.5 -338q0 -233 -110.5 -359t-334.5 -126h-393v-258h-125zM295 379h393q160 0 236.5 95t76.5 269q0 170 -74 249t-239 79h-393v-692z" />
<glyph unicode="&#xdf;" horiz-adv-x="1705" d="M436 0v1090q0 212 64.5 288t249.5 76q211 0 300 -64.5t89 -211.5q0 -87 -31 -132t-100 -73q-16 -6 -35 -13.5t-29.5 -11t-23.5 -9t-19 -8.5t-13.5 -8t-10.5 -8.5t-6 -9t-4 -11t-1 -13.5q0 -20 22.5 -37.5t149.5 -93.5q28 -17 67.5 -40.5t58.5 -35t46 -29t39 -27 t27.5 -23.5t21.5 -25.5t10.5 -25.5t4.5 -30q0 -96 -7.5 -165.5t-27.5 -132.5t-54.5 -104t-88.5 -72t-130.5 -44.5t-179.5 -13.5l-159 8l8 69q116 -8 151 -8q80 0 141 10t104.5 27t73.5 48.5t48 65t27.5 86t12.5 103t3 123.5q0 24 -54 63.5t-194 118.5q-98 55 -136.5 81.5 t-50.5 47t-12 56.5q0 26 5.5 44t13.5 29.5t26.5 22t33.5 16.5t46 17.5t54 21.5q66 28 80 51.5t14 94.5q0 115 -70.5 160.5t-240.5 45.5q-77 0 -120.5 -12t-72 -48.5t-38 -96.5t-9.5 -164v-1063h-74z" />
<glyph unicode="&#xe0;" horiz-adv-x="1097" d="M94 289q0 141 72.5 213.5t228.5 85.5l348 35v92q0 211 -196 211q-67 0 -164 -8t-161 -16l-64 -9l-8 111q241 38 401 38t236.5 -79.5t76.5 -247.5v-535q7 -77 133 -92l-6 -106q-85 0 -139 17.5t-92 59.5q-21 -9 -57 -22t-139.5 -35t-196.5 -22q-130 0 -201.5 79.5 t-71.5 229.5zM221 291q0 -97 42 -150t118 -53q77 0 167.5 17.5t142.5 34.5l52 18v362l-333 -31q-189 -17 -189 -198zM252 1409l49 111l426 -195l-47 -102z" />
<glyph unicode="&#xe1;" horiz-adv-x="1097" d="M94 289q0 -150 71.5 -229.5t201.5 -79.5q93 0 191 20t150 40l52 19q38 -42 92 -59.5t139 -17.5l6 106q-126 15 -133 92v535q0 168 -76.5 247.5t-236.5 79.5q-71 0 -171.5 -9.5t-165.5 -18.5l-64 -10l8 -111q239 33 389 33q196 0 196 -211v-92l-348 -35 q-156 -13 -228.5 -85.5t-72.5 -213.5zM221 291q0 181 189 198l333 31v-362q-21 -8 -57 -19.5t-132 -31t-173 -19.5q-76 0 -118 53t-42 150zM371 1325l426 195l49 -111l-428 -186z" />
<glyph unicode="&#xe2;" horiz-adv-x="1097" d="M94 289q0 -150 71.5 -229.5t201.5 -79.5q93 0 191 20t150 40l52 19q38 -42 92 -59.5t139 -17.5l6 106q-126 15 -133 92v535q0 168 -76.5 247.5t-236.5 79.5q-71 0 -171.5 -9.5t-165.5 -18.5l-64 -10l8 -111q239 33 389 33q196 0 196 -211v-92l-348 -35 q-156 -13 -228.5 -85.5t-72.5 -213.5zM199 1212l254 297h98l254 -297h-131l-170 191l-172 -191h-133zM221 291q0 181 189 198l333 31v-362q-21 -8 -57 -19.5t-132 -31t-173 -19.5q-76 0 -118 53t-42 150z" />
<glyph unicode="&#xe3;" horiz-adv-x="1097" d="M94 289q0 -150 71.5 -229.5t201.5 -79.5q93 0 191 20t150 40l52 19q38 -42 92 -59.5t139 -17.5l6 106q-126 15 -133 92v535q0 168 -76.5 247.5t-236.5 79.5q-71 0 -171.5 -9.5t-165.5 -18.5l-64 -10l8 -111q239 33 389 33q196 0 196 -211v-92l-348 -35 q-156 -13 -228.5 -85.5t-72.5 -213.5zM188 1354q114 110 195 110q43 0 82.5 -17t64 -37t56 -37t59.5 -17q38 0 125 82l45 -35q-105 -113 -170 -113q-41 0 -79.5 17.5t-63 38t-57 38t-64.5 17.5q-52 0 -141 -84zM221 291q0 181 189 198l333 31v-362q-21 -8 -57 -19.5 t-132 -31t-173 -19.5q-76 0 -118 53t-42 150z" />
<glyph unicode="&#xe4;" horiz-adv-x="1097" d="M94 289q0 -150 71.5 -229.5t201.5 -79.5q93 0 191 20t150 40l52 19q38 -42 92 -59.5t139 -17.5l6 106q-126 15 -133 92v535q0 168 -76.5 247.5t-236.5 79.5q-71 0 -171.5 -9.5t-165.5 -18.5l-64 -10l8 -111q239 33 389 33q196 0 196 -211v-92l-348 -35 q-156 -13 -228.5 -85.5t-72.5 -213.5zM221 291q0 181 189 198l333 31v-362q-21 -8 -57 -19.5t-132 -31t-173 -19.5q-76 0 -118 53t-42 150zM250 1278v170h125v-170h-125zM621 1278v170h124v-170h-124z" />
<glyph unicode="&#xe5;" horiz-adv-x="1097" d="M94 289q0 -150 71.5 -229.5t201.5 -79.5q93 0 191 20t150 40l52 19q38 -42 92 -59.5t139 -17.5l6 106q-126 15 -133 92v535q0 168 -76.5 247.5t-236.5 79.5q-71 0 -171.5 -9.5t-165.5 -18.5l-64 -10l8 -111q239 33 389 33q196 0 196 -211v-92l-348 -35 q-156 -13 -228.5 -85.5t-72.5 -213.5zM221 291q0 181 189 198l333 31v-362q-21 -8 -57 -19.5t-132 -31t-173 -19.5q-76 0 -118 53t-42 150zM309 1327q0 82 55 137.5t138 55.5q82 0 137 -55.5t55 -137.5q0 -83 -55 -137.5t-137 -54.5q-83 0 -138 54.5t-55 137.5zM379 1327 q0 -54 35.5 -90.5t89.5 -36.5q52 0 87.5 36.5t35.5 90.5q0 53 -35.5 89t-87.5 36q-54 0 -89.5 -36t-35.5 -89z" />
<glyph unicode="&#xe6;" horiz-adv-x="1695" d="M111 289q0 85 20.5 140t70 88.5t113 50t168.5 28.5l277 27v92q0 211 -197 211q-68 0 -165 -5t-160 -11l-64 -5l-4 111q237 26 397 26q222 0 279 -165q101 165 334 165q202 0 302.5 -115t100.5 -368l-6 -98h-696q2 -189 66 -279t220 -90q67 0 160 5t153 9l60 5l4 -103 q-229 -28 -389 -28q-205 0 -299 114l-70 -31q-27 -12 -67 -26.5t-141 -35.5t-195 -21q-134 0 -203 78.5t-69 230.5zM238 291q0 -99 41.5 -151t117.5 -52q74 0 174 21t149.5 37t82.5 28q-47 112 -47 346l-330 -31q-99 -9 -143.5 -55.5t-44.5 -142.5zM881 563h577 q0 199 -66.5 285t-211.5 86q-299 0 -299 -371z" />
<glyph unicode="&#xe7;" horiz-adv-x="894" d="M111 530q0 280 96 396t325 116q39 0 106 -6t114 -12l47 -6l-4 -109q-164 19 -242 19q-182 0 -249.5 -87.5t-67.5 -310.5q0 -126 12 -203t46.5 -132.5t96.5 -78t162 -22.5q35 0 96 5t105 9l43 5l6 -109q-185 -24 -273 -24q-126 0 -206 28.5t-128 96.5t-66.5 168t-18.5 257 zM438 -342l4 53q18 -4 58 -4q39 0 48 14.5t9 59.5q0 43 -8.5 54t-48.5 11h-49v156h67v-98q63 -1 86 -27.5t23 -95.5q0 -74 -26 -102.5t-99 -28.5q-25 0 -64 8z" />
<glyph unicode="&#xe8;" horiz-adv-x="1017" d="M109 508q0 534 421 534q203 0 303.5 -115t100.5 -368l-4 -98h-697q0 -189 64.5 -279t220.5 -90q67 0 160.5 5t153.5 9l61 5l4 -103q-231 -28 -391 -28q-113 1 -190.5 34.5t-122.5 102.5t-64.5 163.5t-19.5 227.5zM233 563h578q0 200 -67 285.5t-214 85.5q-145 0 -221 -89 t-76 -282zM236 1409l49 111l426 -195l-47 -102z" />
<glyph unicode="&#xe9;" horiz-adv-x="1017" d="M109 508q0 534 421 534q203 0 303.5 -115t100.5 -368l-4 -98h-697q0 -189 64.5 -279t220.5 -90q67 0 160.5 5t153.5 9l61 5l4 -103q-231 -28 -391 -28q-113 1 -190.5 34.5t-122.5 102.5t-64.5 163.5t-19.5 227.5zM233 563h578q0 200 -67 285.5t-214 85.5q-145 0 -221 -89 t-76 -282zM317 1325l426 195l50 -111l-428 -186z" />
<glyph unicode="&#xea;" horiz-adv-x="1017" d="M109 508q0 534 421 534q203 0 303.5 -115t100.5 -368l-4 -98h-697q0 -189 64.5 -279t220.5 -90q67 0 160.5 5t153.5 9l61 5l4 -103q-231 -28 -391 -28q-113 1 -190.5 34.5t-122.5 102.5t-64.5 163.5t-19.5 227.5zM233 563h578q0 200 -67 285.5t-214 85.5q-145 0 -221 -89 t-76 -282zM240 1212l254 297h98l254 -297h-131l-170 191l-172 -191h-133z" />
<glyph unicode="&#xeb;" horiz-adv-x="1017" d="M109 508q0 534 421 534q203 0 303.5 -115t100.5 -368l-4 -98h-697q0 -189 64.5 -279t220.5 -90q67 0 160.5 5t153.5 9l61 5l4 -103q-231 -28 -391 -28q-113 1 -190.5 34.5t-122.5 102.5t-64.5 163.5t-19.5 227.5zM233 563h578q0 200 -67 285.5t-214 85.5q-145 0 -221 -89 t-76 -282zM299 1278v170h125v-170h-125zM670 1278v170h125v-170h-125z" />
<glyph unicode="&#xec;" horiz-adv-x="534" d="M-43 1409l49 111l426 -195l-47 -102zM207 0v1024h123v-1024h-123z" />
<glyph unicode="&#xed;" horiz-adv-x="534" d="M80 1325l426 195l49 -111l-428 -186zM207 0v1024h123v-1024h-123z" />
<glyph unicode="&#xee;" horiz-adv-x="534" d="M-37 1212l254 297h98l254 -297h-131l-170 191l-172 -191h-133zM207 0v1024h123v-1024h-123z" />
<glyph unicode="&#xef;" horiz-adv-x="534" d="M18 1278v170h125v-170h-125zM207 0v1024h123v-1024h-123zM389 1278v170h125v-170h-125z" />
<glyph unicode="&#xf0;" />
<glyph unicode="&#xf1;" horiz-adv-x="1175" d="M193 0h122v844q18 10 49.5 24t116 38t152.5 24q62 0 103 -13.5t67.5 -40t40.5 -77.5t19 -112t5 -157v-530h121v532q0 120 -9 200t-30.5 143t-61 98t-98 52t-143.5 17q-69 0 -152 -23t-131 -46l-49 -23v74h-122v-1024zM297 1354q114 110 195 110q43 0 82.5 -17t64 -37 t56 -37t59.5 -17q38 0 125 82l45 -35q-105 -113 -170 -113q-41 0 -79.5 17.5t-63 38t-57.5 38t-65 17.5q-52 0 -141 -84z" />
<glyph unicode="&#xf2;" horiz-adv-x="1097" d="M137 528q0 274 98.5 394t333.5 120q222 0 324 -123.5t102 -392.5q0 -145 -18.5 -241.5t-66 -168t-131 -104t-210.5 -32.5q-129 0 -212.5 30t-132.5 99.5t-68 168.5t-19 250zM252 1409l49 111l426 -195l-47 -102zM262 528q0 -100 6.5 -166t25.5 -122t53 -86.5t88.5 -47 t133.5 -16.5q56 0 99.5 9t75 25.5t54 45t36 61.5t21.5 81t10.5 97t2.5 117q0 218 -70.5 312t-228.5 94q-176 0 -241.5 -87t-65.5 -317z" />
<glyph unicode="&#xf3;" horiz-adv-x="1097" d="M137 528q0 -151 19 -250t68 -168.5t132.5 -99.5t212.5 -30q127 0 210.5 32.5t131 104t66 168t18.5 241.5q0 269 -102 392.5t-324 123.5q-235 0 -333.5 -120t-98.5 -394zM262 528q0 230 65.5 317t241.5 87q158 0 228.5 -94t70.5 -312q0 -68 -2.5 -117t-10.5 -97t-21.5 -81 t-36 -61.5t-54 -45t-75 -25.5t-99.5 -9q-79 0 -133.5 16.5t-88.5 47t-53 86.5t-25.5 122t-6.5 166zM330 1325l426 195l49 -111l-428 -186z" />
<glyph unicode="&#xf4;" horiz-adv-x="1097" d="M137 528q0 -151 19 -250t68 -168.5t132.5 -99.5t212.5 -30q127 0 210.5 32.5t131 104t66 168t18.5 241.5q0 269 -102 392.5t-324 123.5q-235 0 -333.5 -120t-98.5 -394zM236 1212l253 297h99l254 -297h-131l-170 191l-172 -191h-133zM262 528q0 230 65.5 317t241.5 87 q158 0 228.5 -94t70.5 -312q0 -68 -2.5 -117t-10.5 -97t-21.5 -81t-36 -61.5t-54 -45t-75 -25.5t-99.5 -9q-79 0 -133.5 16.5t-88.5 47t-53 86.5t-25.5 122t-6.5 166z" />
<glyph unicode="&#xf5;" horiz-adv-x="1097" d="M137 528q0 -151 19 -250t68 -168.5t132.5 -99.5t212.5 -30q127 0 210.5 32.5t131 104t66 168t18.5 241.5q0 269 -102 392.5t-324 123.5q-235 0 -333.5 -120t-98.5 -394zM225 1354q114 110 195 110q43 0 82.5 -17t64 -37t56 -37t59.5 -17q38 0 125 82l45 -35 q-105 -113 -170 -113q-41 0 -79.5 17.5t-63 38t-57 38t-64.5 17.5q-53 0 -142 -84zM262 528q0 230 65.5 317t241.5 87q158 0 228.5 -94t70.5 -312q0 -68 -2.5 -117t-10.5 -97t-21.5 -81t-36 -61.5t-54 -45t-75 -25.5t-99.5 -9q-79 0 -133.5 16.5t-88.5 47t-53 86.5 t-25.5 122t-6.5 166z" />
<glyph unicode="&#xf6;" horiz-adv-x="1097" d="M137 528q0 -151 19 -250t68 -168.5t132.5 -99.5t212.5 -30q127 0 210.5 32.5t131 104t66 168t18.5 241.5q0 269 -102 392.5t-324 123.5q-235 0 -333.5 -120t-98.5 -394zM262 528q0 230 65.5 317t241.5 87q158 0 228.5 -94t70.5 -312q0 -68 -2.5 -117t-10.5 -97t-21.5 -81 t-36 -61.5t-54 -45t-75 -25.5t-99.5 -9q-79 0 -133.5 16.5t-88.5 47t-53 86.5t-25.5 122t-6.5 166zM291 1278v170h125v-170h-125zM662 1278v170h124v-170h-124z" />
<glyph unicode="&#xf7;" d="M154 719v123h583v-123h-583zM283 858v186h321v-186h-321zM381 238v190h129v-190h-129z" />
<glyph unicode="&#xf8;" horiz-adv-x="1077" d="M123 535q0 191 42.5 301t132.5 158t245 48q97 0 170 -24l82 196l61 -22l-82 -201q91 -53 135.5 -165.5t44.5 -295.5q0 -121 -10.5 -205t-37 -152.5t-73 -108.5t-118 -61t-172.5 -21t-174 18l-86 -213l-62 20l86 213q-105 48 -144.5 167t-39.5 348zM199 535 q0 -201 27 -303.5t108 -145.5l354 868q-71 23 -145 23q-134 0 -207 -39.5t-105 -133.5t-32 -269zM395 61q57 -14 148 -14q75 0 129.5 12.5t91.5 41t60 64.5t35 95.5t16 120t4 149.5q0 300 -134 394z" />
<glyph unicode="&#xf9;" horiz-adv-x="1046" d="M178 489v535h121v-530q0 -99 5 -161t19 -113t41 -77t68 -39.5t103 -13.5q68 0 143.5 21.5t116.5 42.5l41 22v848h120v-1024h-120v72q-18 -10 -49 -25.5t-114.5 -41t-152.5 -25.5q-72 0 -124 10.5t-91 36.5t-63 63t-38.5 96.5t-20 130.5t-5.5 172zM270 1409l49 111 l426 -195l-47 -102z" />
<glyph unicode="&#xfa;" horiz-adv-x="1046" d="M178 489q0 -101 5.5 -172t20 -130.5t38.5 -96.5t63 -63t91 -36.5t124 -10.5q69 0 148 23t124 46l44 23v-72h120v1024h-120v-848q-6 -3 -17 -9t-44.5 -21t-67.5 -26t-81.5 -20.5t-90.5 -9.5q-62 0 -103 13.5t-68 39.5t-41 77t-19 113t-5 161v530h-121v-535zM348 1325 l426 195l49 -111l-428 -186z" />
<glyph unicode="&#xfb;" horiz-adv-x="1046" d="M178 489q0 -101 5.5 -172t20 -130.5t38.5 -96.5t63 -63t91 -36.5t124 -10.5q69 0 148 23t124 46l44 23v-72h120v1024h-120v-848q-6 -3 -17 -9t-44.5 -21t-67.5 -26t-81.5 -20.5t-90.5 -9.5q-62 0 -103 13.5t-68 39.5t-41 77t-19 113t-5 161v530h-121v-535zM254 1212 l254 297h98l254 -297h-131l-170 191l-172 -191h-133z" />
<glyph unicode="&#xfc;" horiz-adv-x="1046" d="M178 489q0 -101 5.5 -172t20 -130.5t38.5 -96.5t63 -63t91 -36.5t124 -10.5q69 0 148 23t124 46l44 23v-72h120v1024h-120v-848q-6 -3 -17 -9t-44.5 -21t-67.5 -26t-81.5 -20.5t-90.5 -9.5q-62 0 -103 13.5t-68 39.5t-41 77t-19 113t-5 161v530h-121v-535zM309 1278v170 h125v-170h-125zM680 1278v170h125v-170h-125z" />
<glyph unicode="&#xfd;" horiz-adv-x="983" d="M45 1024h125l272 -907h74l275 907h124q-60 -205 -172 -579.5t-147 -491.5l-123 -414h-123l135 461h-139zM295 1325l426 195l49 -111l-428 -186z" />
<glyph unicode="&#xfe;" horiz-adv-x="1101" d="M254 -461v1940h123v-508q18 8 48.5 20t115 31.5t155.5 19.5q205 0 285 -117.5t80 -394.5q0 -154 -21.5 -253.5t-76.5 -168.5t-147 -98.5t-234 -29.5q-62 0 -205 10v-451h-123zM377 102q144 -12 205 -12q76 0 131.5 11t94.5 36.5t63.5 59t38.5 85.5t19 109t5 137 q0 219 -52.5 310.5t-195.5 91.5q-68 0 -145.5 -16.5t-120.5 -33.5l-43 -16v-762z" />
<glyph unicode="&#xff;" horiz-adv-x="983" d="M61 1024l318 -1024h125l-148 -471h76l469 1495h-76l-303 -958h-84l-301 958h-76zM281 1307v127h71v-127h-71zM629 1307v127h71v-127h-71z" />
<glyph unicode="&#x152;" horiz-adv-x="1933" d="M123 707q0 151 15.5 264t53 205.5t99.5 151t156 89.5t221 31q168 0 301 -21h837v-122h-712v-512h589v-123h-589v-547h712v-125h-835q-189 -18 -303 -18q-131 0 -225.5 30.5t-156 87t-98 148.5t-51 201.5t-14.5 259.5zM254 709q0 -108 7 -188t24.5 -151t48 -118.5 t77.5 -82.5t113.5 -51t155.5 -16q85 0 289 17v1186q-264 22 -291 22q-103 0 -177 -25.5t-122 -72t-75.5 -125t-38.5 -171.5t-11 -224z" />
<glyph unicode="&#x153;" horiz-adv-x="1794" d="M121 528q0 274 99 394t335 120q280 0 365 -211q95 211 358 211q202 0 302.5 -115t100.5 -368l-6 -98h-694q0 -189 64.5 -279t220.5 -90q67 0 160.5 5t153.5 9l60 5l5 -103q-232 -28 -392 -28q-253 0 -338 188q-42 -98 -127 -143t-233 -45q-104 0 -177.5 20.5t-123.5 60.5 t-79.5 107.5t-41.5 153.5t-12 206zM248 528q0 -100 6.5 -166t25.5 -122t53 -86.5t88.5 -47t133.5 -16.5q78 0 131.5 18t86.5 50t51 89t24 120t6 159q0 217 -71 311.5t-228 94.5q-176 0 -241.5 -87t-65.5 -317zM979 563h577q0 200 -65.5 285.5t-212.5 85.5q-299 0 -299 -371z " />
<glyph unicode="&#x178;" horiz-adv-x="1105" d="M51 1434h84l420 -736l414 736h86l-463 -818v-616h-74v616zM342 1716v127h72v-127h-72zM690 1716v127h72v-127h-72z" />
<glyph unicode="&#x2c6;" horiz-adv-x="1705" d="M537 1212l254 297h98l254 -297h-131l-170 191l-172 -191h-133z" />
<glyph unicode="&#x2dc;" horiz-adv-x="1705" d="M160 1354q114 110 194 110q43 0 82.5 -17t64 -37t56 -37t59.5 -17q38 0 125 82l45 -35q-105 -113 -170 -113q-41 0 -79.5 17.5t-63 38t-57 38t-64.5 17.5q-52 0 -141 -84z" />
<glyph unicode="&#x2000;" horiz-adv-x="964" />
<glyph unicode="&#x2001;" horiz-adv-x="1929" />
<glyph unicode="&#x2002;" horiz-adv-x="964" />
<glyph unicode="&#x2003;" horiz-adv-x="1929" />
<glyph unicode="&#x2004;" horiz-adv-x="643" />
<glyph unicode="&#x2005;" horiz-adv-x="482" />
<glyph unicode="&#x2006;" horiz-adv-x="321" />
<glyph unicode="&#x2007;" horiz-adv-x="321" />
<glyph unicode="&#x2008;" horiz-adv-x="241" />
<glyph unicode="&#x2009;" horiz-adv-x="385" />
<glyph unicode="&#x200a;" horiz-adv-x="107" />
<glyph unicode="&#x2010;" horiz-adv-x="901" d="M127 516v119h645v-119h-645z" />
<glyph unicode="&#x2011;" horiz-adv-x="901" d="M127 516v119h645v-119h-645z" />
<glyph unicode="&#x2012;" horiz-adv-x="901" d="M127 516v119h645v-119h-645z" />
<glyph unicode="&#x2013;" horiz-adv-x="1705" />
<glyph unicode="&#x2014;" horiz-adv-x="1705" />
<glyph unicode="&#x2018;" horiz-adv-x="348" d="M45 1057l105 432h110l-86 -432h-129z" />
<glyph unicode="&#x2019;" horiz-adv-x="348" d="M86 1079l86 432h129l-104 -432h-111z" />
<glyph unicode="&#x201c;" horiz-adv-x="1705" />
<glyph unicode="&#x2022;" d="M506 0v164h82v-164h-82z" />
<glyph unicode="&#x202f;" horiz-adv-x="385" />
<glyph unicode="&#x2039;" horiz-adv-x="1705" />
<glyph unicode="&#x205f;" horiz-adv-x="482" />
<glyph unicode="&#x20ac;" horiz-adv-x="1118" d="M43 473v107h121v98v108h-121v107h129q9 101 29 176t57.5 136.5t93.5 99.5t136 58.5t186 20.5q84 0 174 -9.5t138 -18.5l48 -10l-6 -117q-192 33 -344 33q-102 0 -172.5 -22.5t-113.5 -71.5t-64.5 -114.5t-30.5 -162.5h586v-105h-594v-108v-98l594 -2v-105h-586 q9 -98 30.5 -163.5t64.5 -114t113.5 -71t174.5 -22.5q60 0 145.5 8t140.5 16l56 9l6 -117q-198 -38 -360 -38q-133 0 -225.5 30t-150 94t-86.5 152.5t-40 216.5h-129z" />
<glyph unicode="&#x2122;" d="M14 1208v64h410v-64h-170v-528h-68v528h-172zM496 678v594h102l172 -496l178 496h103v-594h-66v528l-180 -506h-72l-172 506v-528h-65z" />
<glyph unicode="&#x25fc;" horiz-adv-x="1024" d="M0 0v1024h1024v-1024h-1024z" />
</font>
</defs>
</svg>
