<?xml version="1.0" standalone="no"?>
<!DOCTYPE svg PUBLIC "-//W3C//DTD SVG 1.1//EN" "http://www.w3.org/Graphics/SVG/1.1/DTD/svg11.dtd" >
<svg xmlns="http://www.w3.org/2000/svg">
<metadata></metadata>
<defs>
<font id="titilliumtext14l800_wt" horiz-adv-x="1085" >
<font-face units-per-em="2048" ascent="1536" descent="-512" />
<missing-glyph horiz-adv-x="481" />
<glyph horiz-adv-x="0" />
<glyph horiz-adv-x="682" />
<glyph unicode=" "  horiz-adv-x="481" />
<glyph unicode="&#x09;" horiz-adv-x="481" />
<glyph unicode="&#xa0;" horiz-adv-x="481" />
<glyph unicode="!" d="M428 1434h256l-8 -920h-240zM430 0v305h252v-305h-252z" />
<glyph unicode="&#x22;" horiz-adv-x="696" d="M74 1417h227l-8 -491h-215zM408 1417h225l-8 -491h-213z" />
<glyph unicode="#" d="M6 348v197h207v266h-207v197h207v348h205v-348h248v348h204v-348h207v-197h-207v-266h207v-197h-207v-348h-204v348h-248v-348h-205v348h-207zM418 545h248v266h-248v-266z" />
<glyph unicode="$" d="M125 1034q0 97 30.5 164t90.5 105t138 54.5t185 16.5h41l33 244h72l-33 -248q63 -4 135 -11.5t113 -12.5l41 -5l-6 -69q-162 18 -291 28l-74 -567q57 -10 95.5 -18.5t82 -20.5t71.5 -26t57 -33.5t46 -44t31.5 -56.5t20.5 -73t6 -92q0 -199 -110.5 -291t-326.5 -92 q-44 0 -71 2l-29 -234q-72 7 -72 15l29 223q-64 4 -137.5 10.5t-115.5 11.5l-42 4l8 72q156 -21 295 -31l80 611q-83 15 -136.5 30t-107 41.5t-83 63.5t-48 94t-18.5 135zM205 1038q0 -63 13.5 -108t36 -74.5t65.5 -50.5t88.5 -33.5t119.5 -26.5l74 560h-33 q-183 0 -273.5 -60t-90.5 -207zM512 55h59q359 0 359 312q0 48 -7.5 84.5t-18.5 63.5t-35 47.5t-46.5 34t-63.5 25t-76 18.5t-93 17z" />
<glyph unicode="%" d="M14 1145q0 139 61 215t187 76q248 0 248 -301q0 -134 -62 -210.5t-186 -76.5q-125 0 -186.5 78t-61.5 219zM188 1145q0 -83 15 -118.5t59 -35.5q42 0 58 36t16 116q0 81 -15.5 115t-58.5 34t-58.5 -33.5t-15.5 -113.5zM238 12l460 1454l156 -51l-461 -1454zM584 299 q0 141 60.5 217t186.5 76t188 -76.5t62 -216.5t-62 -217.5t-188 -77.5q-124 0 -185.5 77t-61.5 218zM760 299q0 -82 14.5 -117t56.5 -35q44 0 59 35.5t15 116.5t-15 114t-59 33q-42 0 -56.5 -33t-14.5 -114z" />
<glyph unicode="&#x26;" horiz-adv-x="1433" d="M76 410q0 102 39.5 183.5t101.5 135t154 98.5q-63 82 -84 141.5t-21 157.5q0 153 106 240.5t290 87.5q194 0 295.5 -89t101.5 -257q0 -93 -30.5 -163.5t-89.5 -126.5t-165 -124l205 -207q42 154 51 250l227 -4q-13 -94 -41 -207t-55 -186l240 -225l-141 -158l-222 199 q-112 -105 -216.5 -151t-260.5 -46q-230 0 -357.5 117.5t-127.5 333.5zM317 412q0 -109 67.5 -171.5t184.5 -62.5q92 0 157 27.5t136 95.5l-348 365q-93 -43 -145 -107.5t-52 -146.5zM502 1094q0 -65 20.5 -113t69.5 -100l39 -39q106 63 148 112.5t42 128.5t-39.5 115.5 t-119.5 36.5q-160 0 -160 -141z" />
<glyph unicode="'" horiz-adv-x="204" d="M-20 1417h227l-10 -495h-213z" />
<glyph unicode="(" horiz-adv-x="532" d="M31 616q0 115 20.5 252t49.5 250.5t58 210.5t49 152l21 55h254q-8 -22 -21 -60t-46.5 -151t-59 -219.5t-46.5 -244t-21 -245.5q0 -107 20 -236t48.5 -237t57 -200.5t48.5 -145.5l20 -53h-254q-8 19 -21.5 52.5t-47.5 135.5t-60 201t-47.5 233.5t-21.5 249.5z" />
<glyph unicode=")" horiz-adv-x="532" d="M16 -246q8 22 21 60t46.5 151t59.5 219.5t47 244t21 245.5q0 107 -20 236t-48.5 237t-57.5 200.5t-49 145.5l-20 53h254q8 -19 21.5 -52.5t48 -135.5t60.5 -201t47.5 -233.5t21.5 -249.5t-20.5 -252t-49.5 -250.5t-58.5 -210.5t-50.5 -152l-20 -55h-254z" />
<glyph unicode="*" d="M227 938l217 160l-211 153l84 115l207 -147l84 245l135 -45l-77 -254h256v-135h-258l79 -250l-133 -39l-84 250l-213 -162z" />
<glyph unicode="+" horiz-adv-x="1036" d="M6 473v213h406v404h213v-404h409v-213h-409v-407h-213v407h-406z" />
<glyph unicode="," horiz-adv-x="348" d="M10 -252l103 512h252l-121 -512h-234z" />
<glyph unicode="-" horiz-adv-x="901" d="M139 461v229h623v-229h-623z" />
<glyph unicode="." horiz-adv-x="507" d="M115 0v305h252v-305h-252z" />
<glyph unicode="/" d="M137 37l576 1429l223 -77l-576 -1428z" />
<glyph unicode="0" d="M27 664q0 195 33.5 333t101 221t160.5 120.5t219 37.5q127 0 220 -37.5t160 -120.5t100.5 -221t33.5 -333q0 -190 -33.5 -323.5t-101 -213t-160 -115t-219.5 -35.5q-126 0 -218.5 35.5t-160 114.5t-101.5 213t-34 324zM285 664q0 -179 28 -279.5t82 -139t148 -38.5 t147 38.5t80 138.5t27 280q0 186 -26 290.5t-79.5 147.5t-148.5 43t-149.5 -43t-81.5 -148t-27 -290z" />
<glyph unicode="1" d="M82 1061l438 291h225v-1352h-241v1071l-309 -203z" />
<glyph unicode="2" d="M104 0v221l322 320q81 81 120 122.5t83 99t61 104.5t17 98q0 93 -58.5 132.5t-187.5 39.5q-64 0 -147 -8.5t-134 -17.5l-51 -9l-16 221q215 53 405 53q224 0 330 -94t106 -285q0 -151 -62 -260.5t-218 -263.5l-248 -242h555v-231h-877z" />
<glyph unicode="3" d="M96 25l25 217q225 -31 393 -31q240 0 240 184q0 173 -224 176h-274v220h272q73 0 135 57t62 127q0 89 -57.5 128.5t-169.5 39.5q-75 0 -165.5 -7.5t-144.5 -15.5l-53 -8l-22 211q229 53 401 53q252 0 356.5 -87.5t104.5 -278.5q0 -60 -15 -108.5t-43.5 -83.5t-53.5 -57 t-62 -46q51 -24 83.5 -46.5t61 -58t42 -87t13.5 -122.5q0 -215 -108 -319.5t-346 -104.5q-91 0 -204 12t-180 24z" />
<glyph unicode="4" d="M49 211v197l357 944h266l-350 -910h329v351h242v-351h137v-231h-137v-227h-242v227h-602z" />
<glyph unicode="5" d="M82 41l27 215q258 -49 432 -49q99 0 160 60t61 163q0 104 -58.5 153.5t-162.5 49.5q-60 0 -121.5 -11.5t-93.5 -23.5l-31 -12l-186 39l43 729h813v-232h-596l-33 -313q139 49 229 49q221 0 333 -100t112 -316q0 -223 -120 -344t-339 -121q-94 0 -211 16t-188 32z" />
<glyph unicode="6" d="M55 674q0 196 35.5 333.5t106 217.5t166.5 115.5t227 35.5q76 0 173.5 -11t156.5 -23l59 -11l-21 -219q-196 31 -368 31q-150 0 -218.5 -84t-68.5 -260l41 15q42 14 109 30t118 16q229 0 343 -105.5t114 -326.5q0 -222 -125.5 -336.5t-357.5 -114.5q-258 0 -374 173.5 t-116 523.5zM301 590q1 -89 12.5 -155t37.5 -120.5t75 -83t119 -28.5q235 0 235 225q0 211 -229 211q-56 -3 -118.5 -15t-96.5 -23z" />
<glyph unicode="7" d="M100 1122v232h856v-285l-499 -1102l-224 64l476 1042v49h-609z" />
<glyph unicode="8" d="M39 344q0 94 25 161t62 106.5t105 88.5q-95 65 -132.5 133t-37.5 181q0 173 130.5 267.5t357.5 94.5t361 -94.5t134 -269.5q0 -83 -17 -136.5t-52.5 -92t-104.5 -83.5q68 -46 106 -84t63.5 -100.5t25.5 -148.5q0 -85 -26.5 -151.5t-72.5 -111t-112 -73.5t-141 -41.5 t-164 -12.5q-510 0 -510 367zM297 397q0 -190 252 -190q258 0 258 194q0 69 -41.5 112t-120.5 69h-190q-80 -27 -119 -71.5t-39 -113.5zM319 977q0 -62 33.5 -104.5t102.5 -77.5h190q71 36 106 78t35 104q0 89 -57.5 128.5t-175.5 39.5t-176 -39t-58 -129z" />
<glyph unicode="9" d="M43 928q0 216 131.5 332t355.5 116q488 0 488 -712q0 -158 -23.5 -276t-66.5 -196t-110 -126.5t-147.5 -68.5t-185.5 -20q-76 0 -175 10.5t-160 21.5l-60 11l23 222q200 -33 372 -33q149 0 217 81.5t68 246.5l-42 -10q-41 -10 -108 -21.5t-118 -11.5q-221 0 -340 109.5 t-119 324.5zM293 928q0 -215 229 -215q54 0 116.5 9.5t97.5 19.5l36 10q-4 397 -242 397q-111 0 -174 -57t-63 -164z" />
<glyph unicode=":" horiz-adv-x="434" d="M88 0v305h254v-305h-254zM88 614v306h254v-306h-254z" />
<glyph unicode=";" horiz-adv-x="464" d="M23 -236h217l153 529h-254zM123 614v306h252v-306h-252z" />
<glyph unicode="&#x3c;" d="M129 508v246l711 391v-246l-482 -264l482 -275v-245q-102 52 -360 198t-351 195z" />
<glyph unicode="=" d="M51 262v213h961v-213h-961zM51 686v213h961v-213h-961z" />
<glyph unicode="&#x3e;" d="M129 115v245l481 275l-481 264v246l711 -391v-246q-93 -49 -351 -195t-360 -198z" />
<glyph unicode="?" horiz-adv-x="790" d="M12 1403q237 57 348 57q237 0 344 -88.5t107 -300.5q0 -74 -20.5 -137.5t-53 -107.5t-72 -82t-79.5 -67.5t-72.5 -56.5t-53 -57.5t-20.5 -62.5v-78h-252v84q0 56 20 103t52.5 81.5t72 65.5t78.5 61t71.5 61.5t52.5 73t20 90.5q0 94 -41.5 133t-163.5 39q-45 0 -122.5 -10 t-131.5 -20l-55 -10zM188 0v305h252v-305h-252z" />
<glyph unicode="@" horiz-adv-x="2017" d="M90 535q0 243 66 426.5t190.5 298.5t296 172t389.5 57q895 0 895 -864v-35q0 -176 -25 -296t-76 -188.5t-118.5 -97t-163.5 -28.5q-94 0 -156 22t-100 74q-188 -94 -325 -94q-70 0 -126 15t-104 51.5t-79.5 94t-49.5 147t-18 206.5q0 133 18 228t61.5 169.5t123 111.5 t196.5 37q31 0 83 -12t88 -24l36 -11v29h233v-410q0 -143 5 -223t20.5 -122.5t35.5 -53t58 -10.5q39 0 64 13.5t45.5 53.5t29.5 117.5t9 200.5v37q0 342 -155 488.5t-505 146.5q-706 0 -706 -727q0 -202 38 -339.5t124 -226t218 -127.5t326 -39q36 0 109.5 4.5t128.5 9.5 l55 5l10 -225q-205 -21 -303 -21q-188 0 -331.5 28.5t-261 96t-193 177.5t-116 274t-40.5 383zM823 496q0 -160 40 -222.5t116 -62.5q99 0 229 49q-16 91 -16 256v279q-103 26 -158 26q-129 0 -170 -67.5t-41 -257.5z" />
<glyph unicode="A" horiz-adv-x="1239" d="M47 0l338 1417h473l334 -1417h-242l-78 279h-514l-69 -279h-242zM410 510h415l-157 686h-97z" />
<glyph unicode="B" horiz-adv-x="1247" d="M158 0v1417h532q203 0 316.5 -86.5t113.5 -269.5q0 -137 -38 -211t-126 -123q100 -40 147.5 -114.5t47.5 -213.5q0 -399 -446 -399h-547zM395 221h297q105 0 158 46t53 151q0 186 -215 186h-293v-383zM395 821h289q98 0 143 49.5t45 149.5q0 93 -47 134.5t-147 41.5h-283 v-375z" />
<glyph unicode="C" horiz-adv-x="1095" d="M90 707q0 199 25.5 333t87 226t162 133t251.5 41q79 0 180 -14t162 -28l62 -14l-8 -210q-240 30 -363 30q-184 0 -247.5 -104.5t-63.5 -392.5q0 -115 7.5 -190.5t27 -138t56 -96.5t91.5 -51.5t137 -17.5q49 0 138 8.5t153 16.5l64 8l6 -217q-240 -52 -402 -52 q-127 0 -219 30.5t-151 86.5t-94 148.5t-48.5 202.5t-13.5 262z" />
<glyph unicode="D" horiz-adv-x="1292" d="M158 0v1417h477q137 0 236 -29t163.5 -82.5t102 -140t52.5 -189t15 -243.5q0 -146 -13.5 -252.5t-50.5 -201t-100 -153.5t-164 -92.5t-241 -33.5h-477zM395 229h240q69 0 121.5 16.5t87 50t57.5 75t34.5 102.5t16 120.5t4.5 139.5q0 67 -3 117t-11.5 100t-23.5 84.5 t-39 65.5t-57.5 49t-80 28.5t-106.5 10.5h-240v-959z" />
<glyph unicode="E" horiz-adv-x="1140" d="M158 0v1417h884v-229h-647v-371h525v-225h-525v-363h647v-229h-884z" />
<glyph unicode="F" horiz-adv-x="1112" d="M158 0v1417h884v-229h-647v-457h525v-227h-525v-504h-237z" />
<glyph unicode="G" horiz-adv-x="1226" d="M90 711q0 191 28 324t92.5 225.5t171.5 136t263 43.5q96 0 215 -14.5t190 -29.5l72 -14l-6 -208q-250 32 -436 32q-103 0 -167.5 -24t-104.5 -84t-55 -151t-15 -236q0 -115 8.5 -193t29.5 -140t59.5 -97t96.5 -52.5t142 -17.5q27 0 58.5 1.5t57 3.5t47.5 4t35 4l13 1v301 h-162v215h399v-716q-291 -48 -469 -48q-130 0 -226.5 32t-161 90.5t-103.5 150.5t-55.5 203t-16.5 258z" />
<glyph unicode="H" horiz-adv-x="1380" d="M158 0v1417h239v-581h586v581h242v-1417h-242v604h-586v-604h-239z" />
<glyph unicode="I" horiz-adv-x="548" d="M154 0v1417h241v-1417h-241z" />
<glyph unicode="J" horiz-adv-x="638" d="M63 80q100 0 140.5 33.5t40.5 134.5v1169h239q0 -217 1 -592t1 -594q0 -117 -23.5 -191t-78 -114.5t-128.5 -55.5t-192 -15v225z" />
<glyph unicode="K" horiz-adv-x="1216" d="M158 0v1417h239v-622l201 16l274 606h277l-336 -706l350 -711h-280l-281 580l-205 -17v-563h-239z" />
<glyph unicode="L" horiz-adv-x="1015" d="M158 0v1417h239v-1186h549v-231h-788z" />
<glyph unicode="M" horiz-adv-x="1738" d="M158 0v1417h391l321 -1077l322 1077h389v-1417h-242v1118h-28l-318 -1061h-245l-320 1061h-31v-1118h-239z" />
<glyph unicode="N" horiz-adv-x="1429" d="M158 0v1417h389l450 -1118h35v1118h242v-1417h-379l-463 1118h-35v-1118h-239z" />
<glyph unicode="O" horiz-adv-x="1323" d="M90 698q0 147 17.5 260t58 206t106 152.5t163 91.5t227.5 32q162 0 273.5 -48t176.5 -146t93 -230.5t28 -317.5q0 -148 -17.5 -259.5t-57.5 -201t-106 -145.5t-162.5 -85.5t-227.5 -29.5q-163 0 -274 45t-176.5 138.5t-93.5 223.5t-28 314zM338 698q0 -130 14 -216.5 t49.5 -150.5t99.5 -93t161 -29q98 0 161 28.5t99 92t49.5 150t13.5 218.5q0 104 -8.5 180.5t-30.5 141t-58 104.5t-92.5 62t-133.5 22t-133.5 -22t-93 -62t-58.5 -104.5t-30.5 -141t-8.5 -180.5z" />
<glyph unicode="P" horiz-adv-x="1222" d="M158 0v1417h514q481 0 481 -481q0 -245 -121.5 -376.5t-359.5 -131.5h-275v-428h-239zM397 659h273q119 0 178 72.5t59 204.5q0 128 -58 189t-179 61h-273v-527z" />
<glyph unicode="Q" horiz-adv-x="1323" d="M90 698q0 147 17.5 260t58 206t106 152.5t163 91.5t227.5 32q162 0 273.5 -48t176.5 -146t93 -230.5t28 -317.5q0 -245 -50 -399t-167 -233l168 -275l-221 -102l-185 297q-52 -9 -116 -9q-163 0 -274 45t-176.5 138.5t-93.5 223.5t-28 314zM338 698q0 -130 14 -216.5 t49.5 -150.5t99.5 -93t161 -29q98 0 161 28.5t99 92t49.5 150t13.5 218.5q0 104 -8.5 180.5t-30.5 141t-58 104.5t-92.5 62t-133.5 22t-133.5 -22t-93 -62t-58.5 -104.5t-30.5 -141t-8.5 -180.5z" />
<glyph unicode="R" horiz-adv-x="1263" d="M158 0v1417h534q246 0 362.5 -108t116.5 -348q0 -156 -55.5 -254.5t-167.5 -153.5l223 -553h-264l-194 483h-27h-289v-483h-239zM397 713h299q228 0 228 243q0 232 -232 232h-295v-475z" />
<glyph unicode="S" horiz-adv-x="1087" d="M102 31l25 217q260 -35 405 -35q105 0 158 44t53 144q0 81 -45 118.5t-192 88.5q-82 30 -137 54t-103.5 53.5t-76.5 59.5t-48.5 70.5t-28.5 88.5t-8 113q0 195 124 295t335 100q70 0 168 -13t161 -25l62 -13l-18 -217q-254 32 -373 32q-104 0 -160.5 -38.5t-56.5 -116.5 q0 -32 4.5 -54t19 -42.5t31.5 -34.5t53.5 -32t71.5 -32t99 -37q83 -31 136 -55.5t100 -58.5t71.5 -74t38.5 -94.5t14 -128.5q0 -218 -115.5 -324.5t-334.5 -106.5q-69 0 -177.5 13.5t-181.5 27.5z" />
<glyph unicode="T" horiz-adv-x="991" d="M-16 1186v231h1024v-231h-390v-1186h-241v1186h-393z" />
<glyph unicode="U" horiz-adv-x="1308" d="M135 457v960h242v-960q0 -131 71 -185.5t203 -54.5q135 0 208 55t73 185v960h242v-960q0 -249 -130.5 -362t-392.5 -113q-258 0 -387 113t-129 362z" />
<glyph unicode="V" horiz-adv-x="1241" d="M47 1417h252l272 -1188h99l272 1188h252l-342 -1417h-465z" />
<glyph unicode="W" horiz-adv-x="1898" d="M57 1417h252l230 -1171h41l233 1167h272l238 -1167h39l227 1171h252l-311 -1417h-375l-207 1061l-203 -1061h-374z" />
<glyph unicode="X" horiz-adv-x="1189" d="M41 0l397 702l-397 715h268l287 -528l285 528h268l-391 -715l391 -702h-268l-285 520l-287 -520h-268z" />
<glyph unicode="Y" horiz-adv-x="1157" d="M27 1417h268l285 -543l282 543h268l-428 -813v-604h-241v606z" />
<glyph unicode="Z" horiz-adv-x="1167" d="M123 0v246l616 905v35h-616v231h921v-246l-616 -907v-33h616v-231h-921z" />
<glyph unicode="[" horiz-adv-x="614" d="M66 1534h489v-229h-248v-1328h248v-229h-487z" />
<glyph unicode="\" horiz-adv-x="1705" d="M406 1432l260 6l626 -1432l-258 -6z" />
<glyph unicode="]" horiz-adv-x="614" d="M-92 -23h248v1328h-248v229h489l-2 -1786h-487v229z" />
<glyph unicode="^" horiz-adv-x="1210" d="M33 899l370 711h287l373 -711h-287l-225 440l-232 -440h-286z" />
<glyph unicode="_" horiz-adv-x="1064" d="M55 10h877v-213h-877v213z" />
<glyph unicode="`" horiz-adv-x="1116" d="M205 1350l86 219l497 -191l-81 -211z" />
<glyph unicode="a" horiz-adv-x="1077" d="M88 305q0 158 84 228t258 83l254 21v61q0 59 -34 91t-93 32q-68 0 -166.5 -6t-163.5 -12l-65 -6l-8 204q263 46 415 46q174 0 261.5 -81.5t87.5 -265.5v-421q1 -53 19.5 -74t63.5 -29l-8 -199q-112 0 -167.5 16.5t-106.5 55.5q-20 -8 -53.5 -20t-122 -32t-158.5 -20 q-144 0 -220.5 86.5t-76.5 241.5zM324 311q0 -65 26.5 -99t77.5 -34q48 0 112 10t104 20l40 11v236l-225 -13q-135 -12 -135 -131z" />
<glyph unicode="b" horiz-adv-x="1114" d="M152 4v1442h233v-455q139 56 248 56q212 0 305.5 -119.5t93.5 -403.5q0 -161 -26 -265.5t-88 -167.5t-153.5 -88.5t-232.5 -25.5q-47 0 -142 6.5t-166 13.5zM385 199q106 -11 145 -11q82 0 133.5 17.5t81 60.5t40 102.5t10.5 155.5q0 165 -46 235t-147 70q-40 0 -94.5 -7 t-88.5 -14l-34 -7v-602z" />
<glyph unicode="c" horiz-adv-x="892" d="M82 524q0 276 101 399.5t329 123.5q49 0 127 -9.5t131 -19.5l53 -10l-8 -203q-162 18 -240 18q-153 0 -204.5 -64t-51.5 -235q0 -97 10 -155.5t39 -98.5t78.5 -55.5t131.5 -15.5q35 0 94.5 4.5t101.5 8.5l43 5l6 -203q-208 -37 -317 -37q-231 0 -327.5 126.5t-96.5 420.5 z" />
<glyph unicode="d" horiz-adv-x="1122" d="M82 518q0 274 103.5 401.5t322.5 127.5q94 0 229 -27v414h236v-1434h-236v49q-16 -8 -43.5 -20t-98 -32t-124.5 -20q-205 0 -297 126t-92 415zM319 516q0 -179 45 -248.5t144 -72.5q44 1 101.5 12t92.5 22l35 11v575q-2 0 -38 4.5t-86.5 9.5t-88.5 5q-107 0 -156 -75 t-49 -243z" />
<glyph unicode="e" horiz-adv-x="1038" d="M82 500q0 276 113.5 411.5t330.5 135.5q219 0 328 -115t109 -352l-17 -168h-629q2 -115 55 -168.5t175 -53.5q72 0 166 5t153 9l58 5l4 -182q-234 -50 -416 -50q-229 0 -329.5 125t-100.5 398zM317 594h414q0 132 -47.5 188t-157.5 56q-109 0 -159 -58.5t-50 -185.5z" />
<glyph unicode="f" horiz-adv-x="696" d="M43 811v211h117v63q0 149 28.5 231t90 116t172.5 34q30 0 86 -5.5t97 -10.5l40 -6l-2 -193q-99 4 -162 4q-67 0 -92 -36.5t-25 -135.5v-61h264v-211h-264v-811h-233v811h-117z" />
<glyph unicode="g" horiz-adv-x="1087" d="M80 -182q0 75 35.5 131.5t115.5 118.5q-32 21 -49.5 61t-17.5 88q0 21 19 61.5t38 70.5l19 30q-68 42 -108 112.5t-40 194.5q0 95 31 165t88 111.5t130.5 61.5t164.5 20q42 0 94 -6.5t84 -13.5l31 -6l311 6v-190h-147q43 -58 43 -148q0 -104 -26 -174t-81.5 -109.5 t-130 -56t-182.5 -16.5q-50 0 -90 8q-25 -65 -25 -92q0 -33 14 -47.5t58.5 -21.5t142.5 -7q248 0 339 -65t91 -242q0 -181 -130 -268t-347 -87q-121 0 -204.5 14t-147 48t-93.5 95t-30 153zM311 -158q0 -66 56.5 -94.5t189.5 -28.5q121 0 179.5 31t58.5 100q0 39 -9 61.5 t-36.5 35t-63 16t-102.5 4.5q-28 0 -78 3.5t-86 6.5l-35 3q-40 -35 -57 -65t-17 -73zM328 686q0 -84 39 -122t135 -38q100 0 144 36t44 124q0 89 -42 123.5t-144 34.5q-93 0 -134.5 -36.5t-41.5 -121.5z" />
<glyph unicode="h" horiz-adv-x="1150" d="M152 0v1454h233v-467q161 60 274 60q106 0 176 -30.5t109.5 -97t55.5 -157.5t16 -225v-537h-236v535q0 158 -32.5 225t-133.5 67q-41 0 -98 -8.5t-94 -16.5l-37 -9v-793h-233z" />
<glyph unicode="i" horiz-adv-x="526" d="M147 0v1022h234v-1022h-234zM147 1188v248h234v-248h-234z" />
<glyph unicode="j" horiz-adv-x="538" d="M-68 -301q52 31 81.5 49.5t59 42.5t43 43t25.5 46.5t15.5 58t3.5 73.5v1010h233v-1012q0 -139 -32 -224t-104.5 -146.5t-219.5 -135.5zM160 1202v248h233v-248h-233z" />
<glyph unicode="k" horiz-adv-x="1046" d="M152 0v1446h233v-819l123 16l235 379h263l-289 -479l301 -543h-264l-242 414l-127 -17v-397h-233z" />
<glyph unicode="l" horiz-adv-x="530" d="M150 0v1446h233v-1446h-233z" />
<glyph unicode="m" horiz-adv-x="1746" d="M152 0v1022h231v-55q86 47 178 63q65 14 107 14q152 -6 229 -86q229 89 356 89q105 0 173.5 -29t109.5 -93.5t57.5 -157.5t16.5 -232v-535h-234v442q0 62 -0.5 96.5t-2.5 79.5t-6.5 68t-13 51.5t-20.5 41.5t-29.5 26t-41 17.5t-54.5 4.5q-45 0 -100.5 -12.5t-88 -24.5 t-34.5 -14q5 -11 9.5 -93.5t4.5 -152.5v-530h-233v526q0 70 -3.5 115t-13.5 84t-28.5 59.5t-48.5 31.5t-74 11q-40 0 -93 -11.5t-87 -23.5l-33 -12v-780h-233z" />
<glyph unicode="n" horiz-adv-x="1153" d="M152 0v1022h233v-51q18 9 48 21.5t103 33.5t123 21q106 0 176 -30.5t109.5 -97.5t55.5 -158t16 -226v-535h-234v532q0 158 -33.5 226.5t-134.5 68.5q-40 0 -97 -11.5t-95 -23.5l-37 -12v-780h-233z" />
<glyph unicode="o" horiz-adv-x="1083" d="M82 516q0 127 24 222t76.5 166t143 107t217.5 36q244 0 351 -136.5t107 -394.5q0 -129 -22.5 -224.5t-74 -168t-142 -109.5t-219.5 -37q-130 0 -220.5 36.5t-142.5 108.5t-75 168t-23 226zM319 516q0 -175 46.5 -251.5t177.5 -76.5q130 0 175.5 77t45.5 251 q0 166 -50 242t-171 76q-127 0 -175.5 -74t-48.5 -244z" />
<glyph unicode="p" horiz-adv-x="1116" d="M152 -438v1460h233v-55q16 9 42 22.5t94 35.5t120 22q204 0 298.5 -121.5t94.5 -403.5q0 -159 -27 -265t-86 -167.5t-141.5 -87t-204.5 -25.5q-95 0 -190 19v-434h-233zM385 203q5 -1 32.5 -4.5t69 -7t72.5 -3.5q136 0 187 74t51 260q0 166 -51 237.5t-148 71.5 q-40 0 -93 -13.5t-87 -26.5l-33 -13v-575z" />
<glyph unicode="q" horiz-adv-x="1097" d="M82 498q0 131 24 229t77.5 171.5t145 111t220.5 37.5q51 0 151 -6.5t174 -12.5l74 -6v-1462h-235v452q-72 -35 -185 -35q-235 0 -340.5 132.5t-105.5 388.5zM317 498q0 -153 50.5 -231.5t160.5 -78.5q41 0 87 11t72 21l26 11v598q-109 5 -164 5q-124 0 -178 -82t-54 -254 z" />
<glyph unicode="r" horiz-adv-x="735" d="M152 0v1022h233v-109q15 11 42.5 29t108.5 54t158 51v-250q-82 -16 -159 -43t-113 -46l-37 -18v-690h-233z" />
<glyph unicode="s" horiz-adv-x="1011" d="M102 723q0 84 31 148t86 101.5t122.5 56t147.5 18.5q67 0 164.5 -12t161.5 -24l64 -12l-5 -198q-245 33 -368 33q-92 0 -131 -23.5t-39 -81.5q0 -46 41 -65.5t172 -40.5q205 -33 282.5 -100t77.5 -218q0 -173 -104.5 -250.5t-302.5 -77.5q-64 0 -161.5 12t-162.5 24 l-65 12l8 198q254 -35 358 -35q108 0 152.5 25t44.5 86q0 49 -37 70t-160 41q-105 17 -170.5 37t-115 55t-70.5 88.5t-21 132.5z" />
<glyph unicode="t" horiz-adv-x="724" d="M39 811v211h129v297h233v-297h277v-211h-277v-418q0 -116 17.5 -155t89.5 -39l166 6l10 -201q-137 -29 -209 -29q-177 0 -242 82t-65 303v451h-129z" />
<glyph unicode="u" horiz-adv-x="1146" d="M137 487v535h234v-533q0 -74 2.5 -116t11.5 -82.5t27.5 -60t49 -31t77.5 -11.5q40 0 95.5 12t91.5 24l36 12v786h233v-1022h-233v51q-18 -8 -47.5 -20.5t-101.5 -33t-121 -20.5q-110 0 -179.5 28t-108.5 94t-53 156t-14 232z" />
<glyph unicode="v" horiz-adv-x="989" d="M27 1022h243l195 -827h61l199 827h238l-263 -1022h-413z" />
<glyph unicode="w" horiz-adv-x="1540" d="M35 1022h231l152 -811h45l184 793h246l184 -793h45l152 811h231l-209 -1022h-378l-150 684l-150 -684h-374z" />
<glyph unicode="x" horiz-adv-x="952" d="M33 0l291 510l-291 512h250l192 -344l195 344h250l-293 -512l293 -510h-250l-195 342l-192 -342h-250z" />
<glyph unicode="y" horiz-adv-x="991" d="M27 1022h231l211 -795h53l211 795h232q-159 -608 -273 -1034l-108 -424h-232l113 436h-172z" />
<glyph unicode="z" horiz-adv-x="978" d="M109 0v211l479 602h-479v211h759v-211l-477 -602h477v-211h-759z" />
<glyph unicode="{" horiz-adv-x="671" d="M39 541v196q114 28 155.5 73t41.5 124q0 26 -7.5 124t-7.5 138q0 191 99.5 270.5t326.5 87.5l2 -229q-108 -7 -142 -37t-34 -108q0 -35 7 -133.5t7 -126.5q0 -123 -45 -182.5t-159 -96.5q113 -37 158.5 -102t45.5 -189q0 -34 -6.5 -120t-7.5 -117q0 -80 35 -113.5 t141 -40.5l-2 -229q-223 8 -324.5 90.5t-101.5 263.5q0 44 7.5 135t7.5 113q0 80 -42.5 129t-154.5 80z" />
<glyph unicode="|" d="M412 -401v1917h241v-1917h-241z" />
<glyph unicode="}" horiz-adv-x="671" d="M18 -49q108 7 142.5 37t34.5 108q0 35 -7.5 133.5t-7.5 126.5q0 122 45 182t160 97q-113 37 -159 102t-46 189q0 34 7 119.5t8 117.5q0 80 -35.5 113.5t-141.5 40.5l2 229q223 -8 324.5 -90.5t101.5 -263.5q0 -44 -7 -135t-7 -113q0 -80 42.5 -129t154.5 -80v-196 q-114 -28 -155.5 -73t-41.5 -124q0 -26 7 -124t7 -138q0 -191 -99.5 -271t-326.5 -88z" />
<glyph unicode="~" horiz-adv-x="1705" />
<glyph unicode="&#xa2;" horiz-adv-x="894" d="M43 510q0 422 371 448v220h196v-228l174 -20l-6 -203q-172 8 -250 8q-138 0 -191.5 -47.5t-53.5 -177.5t54 -176.5t198 -46.5l243 10l8 -203q-92 -12 -174 -22v-230h-198v221q-185 12 -278 117.5t-93 329.5z" />
<glyph unicode="&#xa3;" horiz-adv-x="1167" d="M233 0v217h127v467h-79v213h79v117q0 113 21.5 189t65 117t97.5 57t130 16q35 0 107.5 -11.5t128.5 -22.5l55 -11v-236q-115 37 -183 37q-40 0 -63 -2t-46.5 -11t-35.5 -24.5t-23 -44.5t-15.5 -69.5t-6.5 -100.5h274v-217h-274q0 -77 -1 -231.5t-1 -231.5h258l147 33 l37 -213l-166 -35q-106 0 -317 -1t-316 -1z" />
<glyph unicode="&#xa5;" horiz-adv-x="1105" d="M2 1352h268l285 -473l283 473h268l-313 -543h215v-197h-326l-4 -37v-67h330v-197h-330v-311h-242v311h-338v197h338v67l-6 37h-332v197h221z" />
<glyph unicode="&#xa6;" d="M412 -401v833h239v-833h-239zM412 698v838h239v-838h-239z" />
<glyph unicode="&#xa7;" d="M180 512q0 116 94 227q-90 66 -90 234q0 156 91.5 224.5t267.5 68.5q57 0 137 -7t131 -13l51 -7l-4 -65q-217 26 -315 26q-141 0 -214 -53t-73 -170q0 -42 6.5 -74t17.5 -55.5t32 -42t42 -30t57 -22t67 -16.5t81 -14q73 -12 120 -23.5t92.5 -32.5t71 -50t41 -74 t15.5 -107q0 -64 -23.5 -135t-54.5 -123q72 -63 72 -192q0 -324 -354 -324q-55 0 -141 7t-144 13l-59 7l6 65q225 -28 338 -28q139 0 210.5 62t71.5 196q0 28 -4.5 51t-10 41t-19.5 33t-24.5 25t-33 19t-37 14.5t-45.5 11.5t-49.5 9t-56.5 9q-57 9 -93.5 16.5t-78.5 20 t-67.5 27t-51.5 37.5t-39.5 52.5t-22 70t-8.5 91.5zM252 516q0 -42 6.5 -74t17.5 -55.5t32 -42t42 -30t57 -22t67 -16.5t81 -14q158 -25 213 -51q24 36 41.5 100.5t17.5 118.5q0 50 -14 86.5t-35 59t-60.5 39t-76 25t-96.5 17.5q-158 25 -219 54q-29 -35 -51.5 -92 t-22.5 -103z" />
<glyph unicode="&#xa8;" horiz-adv-x="1705" d="M109 1214v269h241v-269h-241zM528 1214v269h242v-269h-242z" />
<glyph unicode="&#xa9;" d="M20 889q0 149 67.5 274t188 198t267.5 73q148 0 268.5 -73t188 -198t67.5 -274t-67.5 -273.5t-188 -197t-268.5 -72.5t-268 72.5t-187.5 197t-67.5 273.5zM86 889q0 -200 130.5 -338.5t326.5 -138.5t327 138.5t131 338.5t-131 339.5t-327 139.5t-326.5 -139.5 t-130.5 -339.5zM319 887q0 59 5.5 104.5t20.5 86.5t39.5 67t64.5 41.5t94 15.5q35 0 72.5 -3.5t58.5 -6.5l20 -4l-2 -66q-83 15 -149 15q-42 0 -71 -11.5t-46 -30.5t-26.5 -52.5t-12 -68t-2.5 -87.5q0 -127 32.5 -186.5t125.5 -59.5q25 0 62.5 4t62.5 8l24 4l2 -65 q-88 -17 -151 -17q-66 0 -111 22t-69 65t-34 97t-10 128z" />
<glyph unicode="&#xaa;" horiz-adv-x="1060" d="M283 954q0 74 37.5 112t115.5 44l209 14v47q0 65 -24 89t-82 24q-31 0 -84.5 -3.5t-90.5 -6.5l-38 -4l-4 63q141 17 217 17q89 0 129.5 -42.5t40.5 -138.5v-274q7 -24 24 -34t51 -13l-4 -57q-38 1 -61.5 11t-48.5 34q-129 -45 -244 -45q-64 0 -103.5 44.5t-39.5 118.5z M350 950q0 -94 82 -94q41 0 94 9t86 17l33 9v174l-199 -12q-52 -4 -74 -28t-22 -75z" />
<glyph unicode="&#xab;" horiz-adv-x="1705" d="M451 520v74l342 264v-80l-277 -217l277 -239v-84q-272 231 -342 282zM874 520v74l343 264v-80l-277 -217l277 -239v-84q-273 231 -343 282z" />
<glyph unicode="&#xad;" horiz-adv-x="901" d="M139 461v229h623v-229h-623z" />
<glyph unicode="&#xae;" d="M20 889q0 149 67.5 274t188 198t267.5 73q148 0 268.5 -73t188 -198t67.5 -274t-67.5 -273.5t-188 -197t-268.5 -72.5t-268 72.5t-187.5 197t-67.5 273.5zM86 889q0 -200 130.5 -338.5t326.5 -138.5t327 138.5t131 338.5t-131 339.5t-327 139.5t-326.5 -139.5 t-130.5 -339.5zM334 565v645h186q130 0 183 -41.5t53 -142.5q0 -155 -121 -186l133 -275h-72l-135 269h-162v-269h-65zM399 899h164q69 0 98 27.5t29 99.5q0 67 -39 93t-125 26h-127v-246z" />
<glyph unicode="&#xaf;" horiz-adv-x="1705" />
<glyph unicode="&#xb0;" d="M199 1155q0 133 83.5 217t217.5 84t217.5 -84t83.5 -217t-83.5 -216t-217.5 -83t-217.5 83t-83.5 216zM336 1155q0 -74 45.5 -120t118.5 -46q74 0 121 46.5t47 119.5t-47 120.5t-121 47.5q-73 0 -118.5 -47t-45.5 -121z" />
<glyph unicode="&#xb1;" d="M49 82v213h998v-213h-998zM49 627v213h389v250h213v-250h396v-213h-396v-240h-213v240h-389z" />
<glyph unicode="&#xb4;" horiz-adv-x="1705" d="M188 1378l500 191l84 -219l-500 -183z" />
<glyph unicode="&#xb6;" horiz-adv-x="1210" d="M-6 1036q0 174 106 286t275 112h794v-232h-137v-1202h-233v1202h-176v-1202h-234v645h-14q-170 0 -275.5 108.5t-105.5 282.5z" />
<glyph unicode="&#xb8;" horiz-adv-x="1705" d="M791 -342l4 53q18 -4 57 -4t48 14.5t9 59.5q0 43 -8.5 54t-48.5 11h-49v156h67v-98q63 -1 86 -27.5t23 -95.5q0 -74 -26 -102.5t-99 -28.5q-24 0 -63 8z" />
<glyph unicode="&#xba;" horiz-adv-x="1077" d="M295 1073q0 143 58.5 210t176.5 67t175 -67t57 -210q0 -144 -57 -213t-175 -69t-176.5 69t-58.5 213zM365 1073q0 -117 38.5 -167t126.5 -50t125 50t37 167q0 116 -37 163.5t-125 47.5q-89 0 -127 -47.5t-38 -163.5z" />
<glyph unicode="&#xbb;" horiz-adv-x="1705" d="M492 238v84l276 239l-276 217v80l342 -264v-74q-31 -23 -116.5 -93.5t-155.5 -129.5zM915 238v84l277 239l-277 217v80l342 -264v-74q-31 -23 -116.5 -93.5t-155.5 -129.5z" />
<glyph unicode="&#xc0;" horiz-adv-x="1236" d="M53 0l338 1417h473l334 -1417h-242l-77 279h-514l-70 -279h-242zM289 1759l86 219l497 -190l-81 -211zM416 510h415l-157 686h-96z" />
<glyph unicode="&#xc1;" horiz-adv-x="1236" d="M53 0l338 1417h473l334 -1417h-242l-77 279h-514l-70 -279h-242zM313 1788l500 190l84 -219l-500 -182zM416 510h415l-157 686h-96z" />
<glyph unicode="&#xc2;" horiz-adv-x="1236" d="M53 0l338 1417h473l334 -1417h-242l-77 279h-514l-70 -279h-242zM264 1589l264 353h189l266 -353h-233l-125 168l-127 -168h-234zM416 510h415l-157 686h-96z" />
<glyph unicode="&#xc3;" horiz-adv-x="1236" d="M53 0l338 1417h473l334 -1417h-242l-77 279h-514l-70 -279h-242zM309 1763q115 111 195 111q43 0 82.5 -17t64 -37.5t56 -37.5t59.5 -17q38 0 125 82l45 -35q-104 -112 -170 -112q-41 0 -79.5 17t-63 38t-57 38t-64.5 17q-53 0 -142 -84zM416 510h415l-157 686h-96z" />
<glyph unicode="&#xc4;" horiz-adv-x="1236" d="M53 0l338 1417h473l334 -1417h-242l-77 279h-514l-70 -279h-242zM293 1624v268h242v-268h-242zM416 510h415l-157 686h-96zM713 1624v268h241v-268h-241z" />
<glyph unicode="&#xc5;" horiz-adv-x="1236" d="M53 0l338 1417h473l334 -1417h-242l-77 279h-514l-70 -279h-242zM416 510h415l-157 686h-96zM432 1737q0 82 55 137t138 55q82 0 137 -55t55 -137q0 -83 -55 -138t-137 -55q-83 0 -138 55t-55 138zM502 1737q0 -54 35.5 -90.5t89.5 -36.5q52 0 87.5 36.5t35.5 90.5 q0 53 -35.5 89t-87.5 36q-54 0 -89.5 -36t-35.5 -89z" />
<glyph unicode="&#xc6;" horiz-adv-x="1839" d="M92 0l406 1417h1263v-229h-647v-352h524v-230h-524v-377h647v-229h-884v279h-461l-80 -279h-244zM475 510h402v641h-220z" />
<glyph unicode="&#xc7;" horiz-adv-x="1099" d="M90 707q0 199 25.5 333t87 226t162 133t251.5 41q79 0 180 -14t162 -28l62 -14l-8 -210q-240 30 -363 30q-184 0 -247.5 -104.5t-63.5 -392.5q0 -115 7.5 -190.5t27 -138t56 -96.5t91.5 -51.5t137 -17.5q49 0 138 8.5t153 16.5l64 8l6 -217q-240 -52 -402 -52 q-127 0 -219 30.5t-151 86.5t-94 148.5t-48.5 202.5t-13.5 262zM510 -342l4 53q18 -4 57 -4t48.5 14.5t9.5 59.5q0 43 -9 54t-49 11h-49v156h68v-98q63 -1 85.5 -27.5t22.5 -95.5q0 -74 -26 -102.5t-99 -28.5q-24 0 -63 8z" />
<glyph unicode="&#xc8;" horiz-adv-x="1171" d="M211 0v1434h838v-70h-764v-592h641v-70h-641v-632h764v-70h-838zM416 1845l33 64l393 -197l-31 -55z" />
<glyph unicode="&#xc9;" horiz-adv-x="1171" d="M166 0v1417h885v-229h-648v-371h525v-225h-525v-363h648v-229h-885zM346 1788l500 190l84 -219l-500 -182z" />
<glyph unicode="&#xca;" horiz-adv-x="1171" d="M166 0v1417h885v-229h-648v-371h525v-225h-525v-363h648v-229h-885zM279 1589l264 353h188l266 -353h-233l-125 168l-127 -168h-233z" />
<glyph unicode="&#xcb;" horiz-adv-x="1171" d="M166 0v1417h885v-229h-648v-371h525v-225h-525v-363h648v-229h-885zM307 1624v268h242v-268h-242zM727 1624v268h242v-268h-242z" />
<glyph unicode="&#xcc;" horiz-adv-x="462" d="M-84 1759l86 219l498 -190l-82 -211zM154 0v1417h241v-1417h-241z" />
<glyph unicode="&#xcd;" horiz-adv-x="462" d="M-100 1788l499 190l84 -219l-499 -182zM154 0v1417h241v-1417h-241z" />
<glyph unicode="&#xce;" horiz-adv-x="473" d="M-123 1589l264 353h189l266 -353h-234l-124 168l-127 -168h-234zM158 0v1417h241v-1417h-241z" />
<glyph unicode="&#xcf;" horiz-adv-x="462" d="M-98 1624v268h241v-268h-241zM154 0v1417h241v-1417h-241zM322 1624v268h241v-268h-241z" />
<glyph unicode="&#xd0;" horiz-adv-x="1292" d="M37 590v229h639v-229h-639zM158 0v1417h477q137 0 236 -29t163.5 -82.5t102 -140t52.5 -189t15 -243.5q0 -146 -13.5 -252.5t-50.5 -201t-100 -153.5t-164 -92.5t-241 -33.5h-477zM395 229h240q69 0 121.5 16.5t87 50t57.5 75t34.5 102.5t16 120.5t4.5 139.5q0 67 -3 117 t-11.5 100t-23.5 84.5t-39 65.5t-57.5 49t-80 28.5t-106.5 10.5h-240v-959z" />
<glyph unicode="&#xd1;" horiz-adv-x="1406" d="M139 0v1417h389l451 -1118h35v1118h241v-1417h-378l-463 1118h-35v-1118h-240zM387 1763q115 111 195 111q43 0 82.5 -17t64 -37.5t56 -37.5t59.5 -17q38 0 125 82l45 -35q-104 -112 -170 -112q-41 0 -79.5 17t-63 38t-57 38t-64.5 17q-53 0 -142 -84z" />
<glyph unicode="&#xd2;" horiz-adv-x="1343" d="M100 698q0 147 17.5 260t58 206t106 152.5t163 91.5t227.5 32q162 0 273.5 -48t176.5 -146t93 -230.5t28 -317.5q0 -148 -17.5 -259.5t-57.5 -201t-106 -145.5t-162.5 -85.5t-227.5 -29.5q-163 0 -274 45t-176.5 138.5t-93.5 223.5t-28 314zM348 698q0 -130 14 -216.5 t49.5 -150.5t99.5 -93t161 -29q98 0 161 28.5t99 92t49.5 150t13.5 218.5q0 104 -8.5 180.5t-30.5 141t-58 104.5t-92.5 62t-133.5 22t-133.5 -22t-93 -62t-58.5 -104.5t-30.5 -141t-8.5 -180.5zM356 1759l86 219l498 -190l-82 -211z" />
<glyph unicode="&#xd3;" horiz-adv-x="1343" d="M100 698q0 147 17.5 260t58 206t106 152.5t163 91.5t227.5 32q162 0 273.5 -48t176.5 -146t93 -230.5t28 -317.5q0 -148 -17.5 -259.5t-57.5 -201t-106 -145.5t-162.5 -85.5t-227.5 -29.5q-163 0 -274 45t-176.5 138.5t-93.5 223.5t-28 314zM340 1788l500 190l84 -219 l-500 -182zM348 698q0 -130 14 -216.5t49.5 -150.5t99.5 -93t161 -29q98 0 161 28.5t99 92t49.5 150t13.5 218.5q0 104 -8.5 180.5t-30.5 141t-58 104.5t-92.5 62t-133.5 22t-133.5 -22t-93 -62t-58.5 -104.5t-30.5 -141t-8.5 -180.5z" />
<glyph unicode="&#xd4;" horiz-adv-x="1343" d="M100 698q0 147 17.5 260t58 206t106 152.5t163 91.5t227.5 32q162 0 273.5 -48t176.5 -146t93 -230.5t28 -317.5q0 -148 -17.5 -259.5t-57.5 -201t-106 -145.5t-162.5 -85.5t-227.5 -29.5q-163 0 -274 45t-176.5 138.5t-93.5 223.5t-28 314zM313 1589l265 353h188 l266 -353h-233l-125 168l-127 -168h-234zM348 698q0 -130 14 -216.5t49.5 -150.5t99.5 -93t161 -29q98 0 161 28.5t99 92t49.5 150t13.5 218.5q0 104 -8.5 180.5t-30.5 141t-58 104.5t-92.5 62t-133.5 22t-133.5 -22t-93 -62t-58.5 -104.5t-30.5 -141t-8.5 -180.5z" />
<glyph unicode="&#xd5;" horiz-adv-x="1343" d="M100 698q0 147 17.5 260t58 206t106 152.5t163 91.5t227.5 32q162 0 273.5 -48t176.5 -146t93 -230.5t28 -317.5q0 -148 -17.5 -259.5t-57.5 -201t-106 -145.5t-162.5 -85.5t-227.5 -29.5q-163 0 -274 45t-176.5 138.5t-93.5 223.5t-28 314zM348 698q0 -130 14 -216.5 t49.5 -150.5t99.5 -93t161 -29q98 0 161 28.5t99 92t49.5 150t13.5 218.5q0 104 -8.5 180.5t-30.5 141t-58 104.5t-92.5 62t-133.5 22t-133.5 -22t-93 -62t-58.5 -104.5t-30.5 -141t-8.5 -180.5zM358 1763q115 111 195 111q43 0 82.5 -17t64 -37.5t56 -37.5t59.5 -17 q38 0 125 82l45 -35q-104 -112 -170 -112q-41 0 -79.5 17t-63 38t-57 38t-64.5 17q-52 0 -141 -84z" />
<glyph unicode="&#xd6;" horiz-adv-x="1343" d="M100 698q0 147 17.5 260t58 206t106 152.5t163 91.5t227.5 32q162 0 273.5 -48t176.5 -146t93 -230.5t28 -317.5q0 -148 -17.5 -259.5t-57.5 -201t-106 -145.5t-162.5 -85.5t-227.5 -29.5q-163 0 -274 45t-176.5 138.5t-93.5 223.5t-28 314zM342 1624v268h242v-268h-242z M348 698q0 -130 14 -216.5t49.5 -150.5t99.5 -93t161 -29q98 0 161 28.5t99 92t49.5 150t13.5 218.5q0 104 -8.5 180.5t-30.5 141t-58 104.5t-92.5 62t-133.5 22t-133.5 -22t-93 -62t-58.5 -104.5t-30.5 -141t-8.5 -180.5zM762 1624v268h242v-268h-242z" />
<glyph unicode="&#xd7;" horiz-adv-x="1210" d="M346 219l365 371l-365 371l152 151l364 -371l367 371l153 -151l-366 -371l366 -371l-153 -149l-367 368l-364 -368z" />
<glyph unicode="&#xd8;" horiz-adv-x="1343" d="M102 698q0 147 17.5 260t58 206t106 152.5t163 91.5t227.5 32q106 0 198 -25l113 244l217 -82l-127 -274q90 -89 130 -239t40 -366q0 -148 -17.5 -259.5t-57.5 -201t-106 -145.5t-162.5 -85.5t-227.5 -29.5q-115 0 -207 25l-119 -258l-213 94l129 275 q-87 86 -124.5 229.5t-37.5 355.5zM350 698q0 -210 47 -299l371 795q-29 9 -66 12q-50 2 -108 -8q-72 -14 -120 -52.5t-75 -104.5t-38 -147.5t-11 -195.5zM569 221q46 -12 105 -12q98 0 161 28.5t99 92t49.5 150t13.5 218.5q0 226 -51 328z" />
<glyph unicode="&#xd9;" horiz-adv-x="1314" d="M143 457v960h242v-960q0 -131 71 -185.5t203 -54.5q135 0 208 55t73 185v960h242v-960q0 -249 -130.5 -362t-392.5 -113q-258 0 -387 113t-129 362zM350 1759l86 219l498 -190l-82 -211z" />
<glyph unicode="&#xda;" horiz-adv-x="1314" d="M143 457v960h242v-960q0 -131 71 -185.5t203 -54.5q135 0 208 55t73 185v960h242v-960q0 -249 -130.5 -362t-392.5 -113q-258 0 -387 113t-129 362zM334 1788l500 190l84 -219l-500 -182z" />
<glyph unicode="&#xdb;" horiz-adv-x="1314" d="M143 457v960h242v-960q0 -131 71 -185.5t203 -54.5q135 0 208 55t73 185v960h242v-960q0 -249 -130.5 -362t-392.5 -113q-258 0 -387 113t-129 362zM307 1589l264 353h189l266 -353h-233l-125 168l-127 -168h-234z" />
<glyph unicode="&#xdc;" horiz-adv-x="1314" d="M143 457v960h242v-960q0 -131 71 -185.5t203 -54.5q135 0 208 55t73 185v960h242v-960q0 -249 -130.5 -362t-392.5 -113q-258 0 -387 113t-129 362zM338 1624v268h242v-268h-242zM758 1624v268h241v-268h-241z" />
<glyph unicode="&#xdd;" horiz-adv-x="1105" d="M2 1417h268l285 -543l283 543h268l-428 -813v-604h-242v606zM197 1788l499 190l84 -219l-499 -182z" />
<glyph unicode="&#xde;" horiz-adv-x="1120" d="M78 0v1417h241v-211h273q485 0 485 -477q0 -245 -123.5 -378.5t-361.5 -133.5h-273v-217h-241zM319 451h271q120 0 180.5 73t60.5 205q0 127 -59 187.5t-182 60.5h-271v-526z" />
<glyph unicode="&#xdf;" horiz-adv-x="1705" d="M436 0v1090q0 212 64.5 288t249.5 76q211 0 300 -64.5t89 -211.5q0 -87 -31 -132t-100 -73q-16 -6 -35 -13.5t-29.5 -11t-23.5 -9t-19 -8.5t-13.5 -8t-10.5 -8.5t-6 -9t-4 -11t-1 -13.5q0 -20 22.5 -37.5t149.5 -93.5q28 -17 67.5 -40.5t58.5 -35t46 -29t39 -27 t27.5 -23.5t21.5 -25.5t10.5 -25.5t4.5 -30q0 -96 -7.5 -165.5t-27.5 -132.5t-54.5 -104t-88.5 -72t-130.5 -44.5t-179.5 -13.5l-159 8l8 69q116 -8 151 -8q80 0 141 10t104.5 27t73.5 48.5t48 65t27.5 86t12.5 103t3 123.5q0 24 -54 63.5t-194 118.5q-98 55 -136.5 81.5 t-50.5 47t-12 56.5q0 26 5.5 44t13.5 29.5t26.5 22t33.5 16.5t46 17.5t54 21.5q66 28 80 51.5t14 94.5q0 115 -70.5 160.5t-240.5 45.5q-77 0 -120.5 -12t-72 -48.5t-38 -96.5t-9.5 -164v-1063h-74z" />
<glyph unicode="&#xe0;" horiz-adv-x="1097" d="M57 305q0 158 84 228t258 83l254 21v61q0 59 -34 91t-93 32q-68 0 -166.5 -6t-163.5 -12l-65 -6l-8 204q264 46 416 46q174 0 261 -81.5t87 -265.5v-421q1 -53 19.5 -74t64.5 -29l-8 -199q-112 0 -168 16.5t-107 55.5q-20 -8 -53.5 -20t-122 -32t-158.5 -20 q-144 0 -220.5 86.5t-76.5 241.5zM182 1350l86 219l498 -191l-82 -211zM293 311q0 -65 26.5 -99t77.5 -34q48 0 112 10t104 20l40 11v236l-225 -13q-135 -12 -135 -131z" />
<glyph unicode="&#xe1;" horiz-adv-x="1097" d="M57 305q0 -155 76.5 -241.5t220.5 -86.5q70 0 153.5 18t132.5 36l48 18q51 -39 107 -55.5t168 -16.5l8 199q-46 8 -64.5 29t-19.5 74v421q0 184 -87 265.5t-261 81.5q-68 0 -172 -11.5t-174 -23.5l-70 -11l8 -204q243 24 395 24q59 0 93 -32t34 -91v-61l-254 -21 q-174 -13 -258 -83t-84 -228zM289 1378l499 191l84 -219l-499 -183zM293 311q0 119 135 131l225 13v-236q-147 -41 -256 -41q-51 0 -77.5 34t-26.5 99z" />
<glyph unicode="&#xe2;" horiz-adv-x="1097" d="M57 305q0 -155 76.5 -241.5t220.5 -86.5q70 0 153.5 18t132.5 36l48 18q51 -39 107 -55.5t168 -16.5l8 199q-46 8 -64.5 29t-19.5 74v421q0 184 -87 265.5t-261 81.5q-68 0 -172 -11.5t-174 -23.5l-70 -11l8 -204q243 24 395 24q59 0 93 -32t34 -91v-61l-254 -21 q-174 -13 -258 -83t-84 -228zM143 1180l265 352h188l266 -352h-233l-125 168l-127 -168h-234zM293 311q0 119 135 131l225 13v-236q-147 -41 -256 -41q-51 0 -77.5 34t-26.5 99z" />
<glyph unicode="&#xe3;" horiz-adv-x="1097" d="M57 305q0 -155 76.5 -241.5t220.5 -86.5q70 0 153.5 18t132.5 36l48 18q51 -39 107 -55.5t168 -16.5l8 199q-46 8 -64.5 29t-19.5 74v421q0 184 -87 265.5t-261 81.5q-68 0 -172 -11.5t-174 -23.5l-70 -11l8 -204q243 24 395 24q59 0 93 -32t34 -91v-61l-254 -21 q-174 -13 -258 -83t-84 -228zM188 1354q114 110 195 110q43 0 82.5 -17t64 -37t56 -37t59.5 -17q38 0 125 82l45 -35q-105 -113 -170 -113q-41 0 -79.5 17.5t-63 38t-57 38t-64.5 17.5q-52 0 -141 -84zM293 311q0 119 135 131l225 13v-236q-147 -41 -256 -41q-51 0 -77.5 34 t-26.5 99z" />
<glyph unicode="&#xe4;" horiz-adv-x="1097" d="M57 305q0 -155 76.5 -241.5t220.5 -86.5q70 0 153.5 18t132.5 36l48 18q51 -39 107 -55.5t168 -16.5l8 199q-46 8 -64.5 29t-19.5 74v421q0 184 -87 265.5t-261 81.5q-68 0 -172 -11.5t-174 -23.5l-70 -11l8 -204q243 24 395 24q59 0 93 -32t34 -91v-61l-254 -21 q-174 -13 -258 -83t-84 -228zM168 1214v269h242v-269h-242zM293 311q0 119 135 131l225 13v-236q-147 -41 -256 -41q-51 0 -77.5 34t-26.5 99zM588 1214v269h241v-269h-241z" />
<glyph unicode="&#xe5;" horiz-adv-x="1097" d="M57 305q0 -155 76.5 -241.5t220.5 -86.5q70 0 153.5 18t132.5 36l48 18q51 -39 107 -55.5t168 -16.5l8 199q-46 8 -64.5 29t-19.5 74v421q0 184 -87 265.5t-261 81.5q-68 0 -172 -11.5t-174 -23.5l-70 -11l8 -204q243 24 395 24q59 0 93 -32t34 -91v-61l-254 -21 q-174 -13 -258 -83t-84 -228zM293 311q0 119 135 131l225 13v-236q-147 -41 -256 -41q-51 0 -77.5 34t-26.5 99zM309 1327q0 82 55 137.5t138 55.5q82 0 137 -55.5t55 -137.5q0 -83 -55 -137.5t-137 -54.5q-83 0 -138 54.5t-55 137.5zM379 1327q0 -54 35.5 -90.5t89.5 -36.5 q52 0 87.5 36.5t35.5 90.5q0 53 -35.5 89t-87.5 36q-54 0 -89.5 -36t-35.5 -89z" />
<glyph unicode="&#xe6;" horiz-adv-x="1695" d="M109 305q0 164 87.5 232t272.5 81l236 19v61q0 59 -34.5 91t-92.5 32q-68 0 -167 -5t-164 -10l-65 -5l-8 205q264 41 416 41q186 0 268 -101q104 101 289 101q219 0 326.5 -115t107.5 -352l-16 -168h-627q2 -115 53.5 -168.5t173.5 -53.5q73 0 167.5 5t153.5 9l58 5 l4 -182q-236 -50 -418 -50q-206 0 -309 103l-53 -25q-61 -28 -158.5 -53t-206.5 -25q-144 0 -219 86t-75 242zM344 311q0 -133 105 -133q46 0 113 11.5t105 21t48 12.5q-13 114 -13 232l-223 -13q-68 -5 -101.5 -36t-33.5 -95zM938 594h412q0 133 -47 188.5t-156 55.5 q-110 0 -159.5 -58t-49.5 -186z" />
<glyph unicode="&#xe7;" horiz-adv-x="892" d="M82 524q0 276 101 399.5t329 123.5q49 0 127 -9.5t131 -19.5l53 -10l-8 -203q-162 18 -240 18q-153 0 -204.5 -64t-51.5 -235q0 -97 10 -155.5t39 -98.5t78.5 -55.5t131.5 -15.5q35 0 94.5 4.5t101.5 8.5l43 5l6 -203q-208 -37 -317 -37q-231 0 -327.5 126.5t-96.5 420.5 zM436 -342l4 53q18 -4 58 -4q39 0 48 14.5t9 59.5q0 43 -8.5 54t-48.5 11h-49v156h67v-98q63 -1 86 -27.5t23 -95.5q0 -74 -26 -102.5t-99 -28.5q-25 0 -64 8z" />
<glyph unicode="&#xe8;" horiz-adv-x="1017" d="M78 500q0 276 113.5 411.5t330.5 135.5q219 0 327.5 -115t108.5 -352l-16 -168h-629q2 -115 55 -168.5t175 -53.5q72 0 166 5t153 9l58 5l4 -182q-234 -50 -416 -50q-229 0 -329.5 125t-100.5 398zM166 1350l86 219l498 -191l-82 -211zM313 594h414q0 132 -47.5 188 t-157.5 56q-109 0 -159 -58.5t-50 -185.5z" />
<glyph unicode="&#xe9;" horiz-adv-x="1017" d="M78 500q0 276 113.5 411.5t330.5 135.5q219 0 327.5 -115t108.5 -352l-16 -168h-629q2 -115 55 -168.5t175 -53.5q72 0 166 5t153 9l58 5l4 -182q-234 -50 -416 -50q-229 0 -329.5 125t-100.5 398zM236 1378l499 191l84 -219l-500 -183zM313 594h414q0 132 -47.5 188 t-157.5 56q-109 0 -159 -58.5t-50 -185.5z" />
<glyph unicode="&#xea;" horiz-adv-x="1017" d="M78 500q0 276 113.5 411.5t330.5 135.5q219 0 327.5 -115t108.5 -352l-16 -168h-629q2 -115 55 -168.5t175 -53.5q72 0 166 5t153 9l58 5l4 -182q-234 -50 -416 -50q-229 0 -329.5 125t-100.5 398zM184 1180l265 352h188l266 -352h-233l-125 168l-127 -168h-234zM313 594 h414q0 132 -47.5 188t-157.5 56q-109 0 -159 -58.5t-50 -185.5z" />
<glyph unicode="&#xeb;" horiz-adv-x="1017" d="M78 500q0 276 113.5 411.5t330.5 135.5q219 0 327.5 -115t108.5 -352l-16 -168h-629q2 -115 55 -168.5t175 -53.5q72 0 166 5t153 9l58 5l4 -182q-234 -50 -416 -50q-229 0 -329.5 125t-100.5 398zM217 1214v269h242v-269h-242zM313 594h414q0 132 -47.5 188t-157.5 56 q-109 0 -159 -58.5t-50 -185.5zM637 1214v269h242v-269h-242z" />
<glyph unicode="&#xec;" horiz-adv-x="534" d="M-113 1350l86 219l498 -191l-82 -211zM156 0v1022h233v-1022h-233z" />
<glyph unicode="&#xed;" horiz-adv-x="534" d="M-2 1378l500 191l84 -219l-500 -183zM156 0v1022h233v-1022h-233z" />
<glyph unicode="&#xee;" horiz-adv-x="534" d="M-92 1180l264 352h188l267 -352h-234l-125 168l-127 -168h-233zM156 0v1022h233v-1022h-233z" />
<glyph unicode="&#xef;" horiz-adv-x="534" d="M-63 1214v269h241v-269h-241zM156 0v1022h233v-1022h-233zM356 1214v269h242v-269h-242z" />
<glyph unicode="&#xf0;" />
<glyph unicode="&#xf1;" horiz-adv-x="1175" d="M168 0h233v780q140 47 230 47q101 0 134.5 -68.5t33.5 -226.5v-532h233v535q0 135 -15.5 226t-55.5 158t-109.5 97.5t-175.5 30.5q-50 0 -119 -19t-113 -38l-43 -19v51h-233v-1022zM297 1354q114 110 195 110q43 0 82.5 -17t64 -37t56 -37t59.5 -17q38 0 125 82l45 -35 q-105 -113 -170 -113q-41 0 -79.5 17.5t-63 38t-57.5 38t-65 17.5q-52 0 -141 -84z" />
<glyph unicode="&#xf2;" horiz-adv-x="1097" d="M168 516q0 127 24 222t76.5 166t143 107t217.5 36q244 0 351 -136.5t107 -394.5q0 -129 -22.5 -224.5t-74 -168t-142 -109.5t-219.5 -37q-130 0 -220.5 36.5t-142.5 108.5t-75 168t-23 226zM182 1350l86 219l498 -191l-82 -211zM406 516q0 -176 46 -252t177 -76 q130 0 175.5 77t45.5 251q0 166 -50 242t-171 76q-127 0 -175 -74t-48 -244z" />
<glyph unicode="&#xf3;" horiz-adv-x="1097" d="M168 516q0 -130 23 -226t75 -168t142.5 -108.5t220.5 -36.5q129 0 219.5 37t142 109.5t74 168t22.5 224.5q0 258 -107 394.5t-351 136.5q-127 0 -217.5 -36t-143 -107t-76.5 -166t-24 -222zM248 1378l500 191l83 -219l-499 -183zM406 516q0 170 48 244t175 74 q121 0 171 -76t50 -242q0 -174 -45.5 -251t-175.5 -77q-131 0 -177 76t-46 252z" />
<glyph unicode="&#xf4;" horiz-adv-x="1097" d="M168 516q0 -130 23 -226t75 -168t142.5 -108.5t220.5 -36.5q129 0 219.5 37t142 109.5t74 168t22.5 224.5q0 258 -107 394.5t-351 136.5q-127 0 -217.5 -36t-143 -107t-76.5 -166t-24 -222zM180 1180l264 352h189l266 -352h-233l-125 168l-127 -168h-234zM406 516 q0 170 48 244t175 74q121 0 171 -76t50 -242q0 -174 -45.5 -251t-175.5 -77q-131 0 -177 76t-46 252z" />
<glyph unicode="&#xf5;" horiz-adv-x="1097" d="M168 516q0 -130 23 -226t75 -168t142.5 -108.5t220.5 -36.5q129 0 219.5 37t142 109.5t74 168t22.5 224.5q0 258 -107 394.5t-351 136.5q-127 0 -217.5 -36t-143 -107t-76.5 -166t-24 -222zM225 1354q114 110 195 110q43 0 82.5 -17t64 -37t56 -37t59.5 -17q38 0 125 82 l45 -35q-105 -113 -170 -113q-41 0 -79.5 17.5t-63 38t-57 38t-64.5 17.5q-53 0 -142 -84zM406 516q0 170 48 244t175 74q121 0 171 -76t50 -242q0 -174 -45.5 -251t-175.5 -77q-131 0 -177 76t-46 252z" />
<glyph unicode="&#xf6;" horiz-adv-x="1097" d="M168 516q0 -130 23 -226t75 -168t142.5 -108.5t220.5 -36.5q129 0 219.5 37t142 109.5t74 168t22.5 224.5q0 258 -107 394.5t-351 136.5q-127 0 -217.5 -36t-143 -107t-76.5 -166t-24 -222zM209 1214v269h242v-269h-242zM406 516q0 170 48 244t175 74q121 0 171 -76 t50 -242q0 -174 -45.5 -251t-175.5 -77q-131 0 -177 76t-46 252zM629 1214v269h241v-269h-241z" />
<glyph unicode="&#xf7;" d="M90 573v232h846v-232h-846zM342 795v231h354v-231h-354zM403 133v248h234v-248h-234z" />
<glyph unicode="&#xf8;" horiz-adv-x="1077" d="M123 535q0 191 42.5 301t132.5 158t245 48q97 0 170 -24l82 196l61 -22l-82 -201q91 -53 135.5 -165.5t44.5 -295.5q0 -121 -10.5 -205t-37 -152.5t-73 -108.5t-118 -61t-172.5 -21t-174 18l-86 -213l-62 20l86 213q-105 48 -144.5 167t-39.5 348zM199 535 q0 -201 27 -303.5t108 -145.5l354 868q-71 23 -145 23q-134 0 -207 -39.5t-105 -133.5t-32 -269zM395 61q57 -14 148 -14q75 0 129.5 12.5t91.5 41t60 64.5t35 95.5t16 120t4 149.5q0 300 -134 394z" />
<glyph unicode="&#xf9;" horiz-adv-x="1046" d="M164 487v535h233v-533q0 -74 2.5 -116t11.5 -82.5t27.5 -60t49 -31t77.5 -11.5q40 0 95.5 12t91.5 24l36 12v786h234v-1022h-234v51q-18 -8 -47.5 -20.5t-101.5 -33t-121 -20.5q-110 0 -179.5 28t-108 94t-52.5 155.5t-14 232.5zM201 1350l86 219l497 -191l-82 -211z" />
<glyph unicode="&#xfa;" horiz-adv-x="1046" d="M164 487q0 -143 14 -232.5t52.5 -155.5t108 -94t179.5 -28q49 0 116.5 18.5t110.5 36.5l43 19v-51h234v1022h-234v-786q-133 -48 -223 -48q-47 0 -77.5 11.5t-49 31t-27.5 60t-11.5 82.5t-2.5 116v533h-233v-535zM266 1378l500 191l84 -219l-500 -183z" />
<glyph unicode="&#xfb;" horiz-adv-x="1046" d="M164 487q0 -143 14 -232.5t52.5 -155.5t108 -94t179.5 -28q49 0 116.5 18.5t110.5 36.5l43 19v-51h234v1022h-234v-786q-133 -48 -223 -48q-47 0 -77.5 11.5t-49 31t-27.5 60t-11.5 82.5t-2.5 116v533h-233v-535zM199 1180l264 352h188l267 -352h-234l-125 168l-127 -168 h-233z" />
<glyph unicode="&#xfc;" horiz-adv-x="1046" d="M164 487q0 -143 14 -232.5t52.5 -155.5t108 -94t179.5 -28q49 0 116.5 18.5t110.5 36.5l43 19v-51h234v1022h-234v-786q-133 -48 -223 -48q-47 0 -77.5 11.5t-49 31t-27.5 60t-11.5 82.5t-2.5 116v533h-233v-535zM227 1214v269h242v-269h-242zM647 1214v269h242v-269 h-242z" />
<glyph unicode="&#xfd;" horiz-adv-x="983" d="M10 1022h232l211 -795h53l211 795h231q-204 -780 -272 -1034l-109 -424h-231l113 436h-173zM213 1378l500 191l84 -219l-500 -183z" />
<glyph unicode="&#xfe;" horiz-adv-x="1101" d="M178 -438v1884h234v-455q138 56 247 56q212 0 306 -119.5t94 -403.5q0 -161 -26.5 -265.5t-88.5 -167.5t-154 -88.5t-233 -25.5q-22 0 -74.5 3t-70.5 4v-422h-234zM412 199q106 -11 145 -11q82 0 133.5 17.5t80.5 60.5t39.5 102.5t10.5 155.5q0 166 -46 235.5t-146 69.5 q-40 0 -94.5 -7t-88.5 -14l-34 -7v-602z" />
<glyph unicode="&#xff;" horiz-adv-x="983" d="M61 1024l318 -1024h125l-148 -471h76l469 1495h-76l-303 -958h-84l-301 958h-76zM281 1307v127h71v-127h-71zM629 1307v127h71v-127h-71z" />
<glyph unicode="&#x152;" horiz-adv-x="1933" d="M123 707q0 200 27 335t90 226t165 131.5t254 40.5q110 0 256 -23h881v-231h-643v-350h520v-230h-520v-375h643v-231h-878q-150 -23 -259 -23q-108 0 -190.5 19.5t-141.5 62t-98.5 100.5t-63 143t-33 181.5t-9.5 223.5zM371 707q0 -115 8 -192t28.5 -138.5t58 -95.5 t94 -51t138.5 -17q49 0 217 14v963q-168 14 -223 14q-96 0 -156 -23t-98 -82.5t-52.5 -151.5t-14.5 -240z" />
<glyph unicode="&#x153;" horiz-adv-x="1794" d="M119 516q0 260 107 395.5t354 135.5q235 0 342 -140q108 140 325 140q219 0 326.5 -115t107.5 -352l-16 -168h-627q2 -115 54 -168.5t174 -53.5q73 0 167 5t151 9l58 5l5 -182q-234 -50 -416 -50q-220 0 -320 121q-106 -121 -331 -121q-130 0 -220.5 36.5t-142.5 108.5 t-75 168t-23 226zM358 516q0 -175 46.5 -251.5t175.5 -76.5q130 0 175.5 77t45.5 251q0 167 -49.5 242.5t-171.5 75.5q-125 0 -173.5 -74t-48.5 -244zM1036 594h414q0 133 -47 188.5t-156 55.5q-110 0 -160.5 -59t-50.5 -185z" />
<glyph unicode="&#x178;" horiz-adv-x="1105" d="M51 1434h84l420 -736l414 736h86l-463 -818v-616h-74v616zM342 1716v127h72v-127h-72zM690 1716v127h72v-127h-72z" />
<glyph unicode="&#x2c6;" horiz-adv-x="1705" d="M481 1180l264 352h189l266 -352h-233l-125 168l-127 -168h-234z" />
<glyph unicode="&#x2dc;" horiz-adv-x="1705" d="M160 1354q114 110 194 110q43 0 82.5 -17t64 -37t56 -37t59.5 -17q38 0 125 82l45 -35q-105 -113 -170 -113q-41 0 -79.5 17.5t-63 38t-57 38t-64.5 17.5q-52 0 -141 -84z" />
<glyph unicode="&#x2000;" horiz-adv-x="989" />
<glyph unicode="&#x2001;" horiz-adv-x="1978" />
<glyph unicode="&#x2002;" horiz-adv-x="989" />
<glyph unicode="&#x2003;" horiz-adv-x="1978" />
<glyph unicode="&#x2004;" horiz-adv-x="659" />
<glyph unicode="&#x2005;" horiz-adv-x="494" />
<glyph unicode="&#x2006;" horiz-adv-x="329" />
<glyph unicode="&#x2007;" horiz-adv-x="329" />
<glyph unicode="&#x2008;" horiz-adv-x="247" />
<glyph unicode="&#x2009;" horiz-adv-x="395" />
<glyph unicode="&#x200a;" horiz-adv-x="109" />
<glyph unicode="&#x2010;" horiz-adv-x="901" d="M139 461v229h623v-229h-623z" />
<glyph unicode="&#x2011;" horiz-adv-x="901" d="M139 461v229h623v-229h-623z" />
<glyph unicode="&#x2012;" horiz-adv-x="901" d="M139 461v229h623v-229h-623z" />
<glyph unicode="&#x2013;" horiz-adv-x="1705" />
<glyph unicode="&#x2014;" horiz-adv-x="1705" />
<glyph unicode="&#x2018;" horiz-adv-x="348" d="M-20 1001l114 488h221l-96 -488h-239z" />
<glyph unicode="&#x2019;" horiz-adv-x="348" d="M31 1079l96 488h240l-115 -488h-221z" />
<glyph unicode="&#x201c;" horiz-adv-x="1705" />
<glyph unicode="&#x2022;" d="M506 0v164h82v-164h-82z" />
<glyph unicode="&#x202f;" horiz-adv-x="395" />
<glyph unicode="&#x2039;" horiz-adv-x="1705" />
<glyph unicode="&#x205f;" horiz-adv-x="494" />
<glyph unicode="&#x20ac;" horiz-adv-x="1187" d="M113 412v184h112v80v72h-112v184h125q29 243 141.5 344.5t357.5 101.5q79 0 170.5 -10t142.5 -20l52 -9l-8 -213q-203 15 -324 15q-136 0 -197.5 -46t-83.5 -165h469v-182h-485v-72v-80h485v-184h-466q22 -110 84.5 -154.5t199.5 -44.5q49 0 128.5 4t134.5 8l55 4l6 -217 q-201 -35 -363 -35q-128 0 -217 25.5t-147 80.5t-89.5 134t-45.5 195h-125z" />
<glyph unicode="&#x2122;" d="M14 1208v64h410v-64h-170v-528h-68v528h-172zM496 678v594h102l172 -496l178 496h103v-594h-66v528l-180 -506h-72l-172 506v-528h-65z" />
<glyph unicode="&#x25fc;" horiz-adv-x="1024" d="M0 0v1024h1024v-1024h-1024z" />
</font>
</defs>
</svg>
