<?xml version="1.0" standalone="no"?>
<!DOCTYPE svg PUBLIC "-//W3C//DTD SVG 1.1//EN" "http://www.w3.org/Graphics/SVG/1.1/DTD/svg11.dtd" >
<svg xmlns="http://www.w3.org/2000/svg">
<metadata></metadata>
<defs>
<font id="titilliumtext14l600_wt" horiz-adv-x="1085" >
<font-face units-per-em="2048" ascent="1536" descent="-512" />
<missing-glyph horiz-adv-x="481" />
<glyph horiz-adv-x="0" />
<glyph horiz-adv-x="682" />
<glyph unicode=" "  horiz-adv-x="481" />
<glyph unicode="&#x09;" horiz-adv-x="481" />
<glyph unicode="&#xa0;" horiz-adv-x="481" />
<glyph unicode="!" d="M451 0v270h208v-270h-208zM451 1434h208l-6 -940h-196z" />
<glyph unicode="&#x22;" horiz-adv-x="665" d="M82 1421h186l-6 -471h-178zM403 1421h187l-6 -471h-178z" />
<glyph unicode="#" d="M12 358v164h215v316h-215v163h215v359h172v-359h283v359h172v-359h217v-163h-217v-316h217v-164h-217v-358h-172v358h-283v-358h-172v358h-215zM399 522h283v316h-283v-316z" />
<glyph unicode="$" d="M125 1034q0 97 30.5 164t90.5 105t138 54.5t185 16.5h41l33 244h72l-33 -248q63 -4 135 -11.5t113 -12.5l41 -5l-6 -69q-162 18 -291 28l-74 -567q57 -10 95.5 -18.5t82 -20.5t71.5 -26t57 -33.5t46 -44t31.5 -56.5t20.5 -73t6 -92q0 -199 -110.5 -291t-326.5 -92 q-44 0 -71 2l-29 -234q-72 7 -72 15l29 223q-64 4 -137.5 10.5t-115.5 11.5l-42 4l8 72q156 -21 295 -31l80 611q-83 15 -136.5 30t-107 41.5t-83 63.5t-48 94t-18.5 135zM205 1038q0 -63 13.5 -108t36 -74.5t65.5 -50.5t88.5 -33.5t119.5 -26.5l74 560h-33 q-183 0 -273.5 -60t-90.5 -207zM512 55h59q359 0 359 312q0 48 -7.5 84.5t-18.5 63.5t-35 47.5t-46.5 34t-63.5 25t-76 18.5t-93 17z" />
<glyph unicode="%" d="M25 1149q0 287 241 287q240 0 240 -295q0 -137 -60 -211t-180 -74q-241 0 -241 293zM174 1149q0 -89 19.5 -128.5t72.5 -39.5q52 0 71 39.5t19 128.5t-19 126.5t-71 37.5q-53 0 -72.5 -37.5t-19.5 -126.5zM272 12l420 1446l135 -41l-419 -1448zM596 295q0 289 242 289 q239 0 239 -289q0 -293 -239 -293q-242 0 -242 293zM745 295q0 -88 20 -128t73 -40t71.5 39t18.5 129q0 89 -18.5 126.5t-71.5 37.5q-54 0 -73.5 -38t-19.5 -126z" />
<glyph unicode="&#x26;" horiz-adv-x="1433" d="M86 414q0 107 39 188t103 133t163 94q-63 80 -83.5 140.5t-20.5 156.5q0 149 99.5 234.5t275.5 85.5q186 0 281 -86.5t95 -247.5q0 -96 -32 -165.5t-94 -122.5t-173 -115l250 -250q37 121 55 262l189 -4q-31 -224 -94 -381l252 -240l-117 -133l-234 217 q-101 -114 -208 -164.5t-263 -50.5q-237 0 -360 116.5t-123 332.5zM285 416q0 -129 74.5 -200t215.5 -71q103 0 177 36t143 120l-383 393q-113 -42 -170 -109.5t-57 -168.5zM481 1102q0 -67 20 -118.5t70 -104.5l47 -48q124 62 174 117t50 146q0 87 -43.5 129.5t-136.5 42.5 q-181 0 -181 -164z" />
<glyph unicode="'" horiz-adv-x="204" d="M0 1419h190l-10 -479h-176z" />
<glyph unicode="(" horiz-adv-x="532" d="M51 616q0 115 20.5 252t49.5 250.5t58.5 210.5t50.5 152l20 55h209q-8 -22 -21 -60t-46.5 -151t-59.5 -219.5t-47 -244t-21 -245.5q0 -107 20 -236t49 -237t57.5 -200.5t48.5 -145.5l20 -53h-209q-8 19 -21.5 52.5t-48 135.5t-60.5 201t-47.5 233.5t-21.5 249.5z" />
<glyph unicode=")" horiz-adv-x="532" d="M41 -246q8 22 21 60t46.5 151t59.5 219.5t47 244t21 245.5q0 107 -20 236t-49 237t-57.5 200.5t-48.5 145.5l-20 53h209q8 -19 21.5 -52.5t48 -135.5t60.5 -201t47.5 -233.5t21.5 -249.5t-20.5 -252t-49.5 -250.5t-58.5 -210.5t-50.5 -152l-20 -55h-209z" />
<glyph unicode="*" d="M240 938l219 162l-213 155l71 99l213 -152l84 250l119 -39l-82 -256h262v-119h-264l82 -254l-117 -34l-84 256l-217 -162z" />
<glyph unicode="+" horiz-adv-x="987" d="M-20 475v176h421v422h181v-422h426v-176h-426v-426h-181v426h-421z" />
<glyph unicode="," horiz-adv-x="348" d="M31 -252l98 492h211l-117 -492h-192z" />
<glyph unicode="-" horiz-adv-x="901" d="M135 481v189h631v-189h-631z" />
<glyph unicode="." horiz-adv-x="507" d="M135 0v270h211v-270h-211z" />
<glyph unicode="/" d="M158 35l575 1425l185 -65l-576 -1426z" />
<glyph unicode="0" d="M39 659q0 200 33 339.5t99 221.5t156 118t214 36q126 0 216 -36t155.5 -118.5t97.5 -222t32 -340.5q0 -191 -32.5 -323.5t-99 -210.5t-156 -112t-213.5 -34q-123 0 -213 34t-156.5 112t-99.5 211.5t-33 324.5zM252 657q0 -145 17 -241t55 -150.5t90 -76t129 -21.5 q103 0 163 40.5t91.5 148.5t31.5 302q0 205 -29.5 319t-90 160t-166.5 46t-167 -45t-92.5 -161t-31.5 -321z" />
<glyph unicode="1" d="M109 1063l432 289h186v-1352h-199v1122l-327 -217z" />
<glyph unicode="2" d="M104 0v182l363 363q63 64 95.5 98.5t74 84t61 85t33.5 79t14 87.5q0 107 -65.5 153t-204.5 46q-65 0 -152 -10t-141 -20l-55 -9l-14 182q215 53 405 53q220 0 326 -90t106 -280q0 -78 -17 -144t-56.5 -129t-85 -116t-119.5 -126l-301 -299h610v-190h-877z" />
<glyph unicode="3" d="M98 27l23 180q223 -37 403 -37q135 2 201 55t66 162q0 204 -252 211h-273v182h273q78 0 149.5 62t71.5 147q0 103 -61.5 148t-190.5 45q-79 0 -172.5 -9t-147.5 -17l-53 -9l-18 176q221 51 401 51q244 0 345.5 -85.5t101.5 -272.5q0 -51 -13.5 -95.5t-29 -72t-45 -56 t-44 -38.5t-43.5 -29q-8 -6 -12 -8q43 -18 72.5 -34.5t59 -42.5t47 -58.5t28 -80t10.5 -108.5q0 -210 -107 -313t-339 -103q-93 0 -205.5 12.5t-179.5 24.5z" />
<glyph unicode="4" d="M53 225v164l379 963h219l-370 -936h397v354h199v-354h151v-191h-151v-237h-199v237h-625z" />
<glyph unicode="5" d="M90 39l23 180q252 -49 430 -49q117 0 187.5 70t70.5 194q0 234 -254 234q-65 0 -134.5 -16t-106.5 -32l-36 -16l-157 33l43 717h800v-193h-620l-35 -370q17 7 45 17.5t98 28t121 17.5q218 0 329.5 -97.5t111.5 -312.5q0 -225 -120 -344.5t-337 -119.5q-93 0 -207.5 14.5 t-183.5 29.5z" />
<glyph unicode="6" d="M66 678q0 195 35 331t105 215.5t164 114.5t222 35q76 0 170 -11t150 -21l55 -11l-19 -180q-184 33 -356 33q-165 0 -243.5 -97t-78.5 -305q19 8 50.5 19.5t111 31t137.5 19.5q227 0 339 -103.5t112 -320.5q0 -220 -122.5 -335.5t-350.5 -115.5q-253 0 -367 173t-114 528z M268 608q1 -82 9.5 -147.5t28.5 -122t51.5 -93.5t79 -58t110.5 -21q266 0 266 262q0 242 -258 242q-63 -3 -134.5 -18.5t-112.5 -29.5z" />
<glyph unicode="7" d="M100 1161v193h848v-248l-512 -1135l-186 56l493 1087v47h-643z" />
<glyph unicode="8" d="M41 344q0 74 14 129.5t45 97t65 69.5t89 62q-103 62 -147 132t-44 186q0 173 128 263.5t358 90.5t361.5 -90.5t131.5 -265.5q0 -123 -44 -189t-156 -127q55 -31 91.5 -58.5t68 -66.5t46.5 -90.5t15 -119.5q0 -107 -38.5 -184t-110 -121t-161.5 -64.5t-204 -20.5 q-508 0 -508 367zM254 385q0 -217 295 -217q147 0 224 53t77 170q0 88 -51 136t-150 79h-205q-95 -29 -142.5 -81t-47.5 -140zM276 991q0 -77 41 -125.5t127 -83.5h205q91 36 135.5 84.5t44.5 124.5q0 103 -68 148t-210 45q-140 0 -207.5 -44.5t-67.5 -148.5z" />
<glyph unicode="9" d="M57 932q0 211 129 326.5t349 115.5q128 0 220.5 -48t148.5 -141.5t82 -222t26 -298.5q0 -195 -34.5 -329.5t-104 -212.5t-162.5 -111.5t-222 -33.5q-76 0 -172 11.5t-153 23.5l-58 11l19 180q192 -33 364 -33q163 0 239.5 94t78.5 289l-45 -12q-46 -12 -121 -25.5 t-133 -13.5q-219 0 -335 108.5t-116 321.5zM262 932q0 -248 262 -248q58 0 129.5 12t113.5 24l42 13q-2 104 -16 183.5t-44.5 142.5t-84.5 96t-129 33q-127 0 -200 -66.5t-73 -189.5z" />
<glyph unicode=":" horiz-adv-x="397" d="M106 0v270h209v-270h-209zM106 637v270h209v-270h-209z" />
<glyph unicode=";" horiz-adv-x="436" d="M35 -240h180l141 504h-211zM131 637v270h209v-270h-209z" />
<glyph unicode="&#x3c;" d="M129 532v201l711 412v-205l-523 -303l523 -318v-204q-77 40 -356.5 207.5t-354.5 209.5z" />
<glyph unicode="=" d="M59 285v178h949v-178h-949zM59 690v178h949v-178h-949z" />
<glyph unicode="&#x3e;" d="M129 115v204l522 318l-522 303v205l711 -412v-201q-75 -42 -354.5 -209.5t-356.5 -207.5z" />
<glyph unicode="?" horiz-adv-x="790" d="M14 1401q235 57 346 57q229 0 335 -85.5t106 -287.5q0 -84 -28 -155t-70.5 -117.5t-92 -90.5t-92 -76.5t-70.5 -72.5t-28 -81v-78h-205v84q0 55 20.5 103t54 83.5t73 69t79.5 66.5t73.5 67.5t54 79.5t20.5 96q0 106 -52 150t-186 44q-44 0 -122.5 -11.5t-134.5 -22.5 l-56 -11zM213 0v270h209v-270h-209z" />
<glyph unicode="@" horiz-adv-x="2017" d="M98 535q0 247 63.5 429.5t186 296.5t292.5 169t392 55q454 0 670.5 -214.5t216.5 -645.5v-35q0 -149 -17 -257.5t-46.5 -176t-77.5 -107.5t-102 -54.5t-128 -14.5q-96 0 -154 22t-94 82q-199 -102 -342 -102q-65 0 -116 12.5t-100 46.5t-81 90.5t-51.5 148.5t-19.5 216 q0 135 18.5 230t63 169t125.5 110.5t200 36.5q36 0 92 -12.5t94 -24.5l38 -12v31h192v-410q0 -109 2 -180.5t9 -123.5t15 -79.5t25.5 -43.5t35 -19.5t48.5 -3.5q47 0 75.5 13t53 55.5t35 129.5t10.5 228v37q0 359 -160.5 515t-529.5 156q-374 0 -555.5 -184.5t-181.5 -578.5 q0 -172 26.5 -298.5t81.5 -217.5t143.5 -146t207 -80.5t278.5 -25.5q36 0 109.5 5t128.5 10l55 5l8 -186q-203 -21 -301 -21q-133 0 -242.5 14t-207.5 46t-172.5 83t-134.5 126t-98.5 173.5t-58.5 227t-20 285.5zM786 494q0 -98 15 -164.5t42.5 -100t58 -46.5t71.5 -13 q109 0 264 68q-16 99 -16 303v284q-115 35 -187 35q-77 0 -125.5 -19.5t-75.5 -66.5t-37 -111.5t-10 -168.5z" />
<glyph unicode="A" horiz-adv-x="1239" d="M53 0l365 1421h407l361 -1419h-201l-92 317h-553l-88 -319h-199zM383 510h469l-182 727h-101z" />
<glyph unicode="B" horiz-adv-x="1257" d="M170 0v1421h522q426 0 426 -354q0 -140 -41 -216t-131 -122q104 -38 157.5 -113t53.5 -217q0 -399 -444 -399h-543zM367 184h338q122 0 184.5 53t62.5 177q0 213 -254 213h-331v-443zM367 807h327q115 0 168 57t53 172q0 106 -56 153.5t-175 47.5h-317v-430z" />
<glyph unicode="C" horiz-adv-x="1095" d="M96 709q0 155 15 268.5t51 204.5t96 147t150 85.5t213 29.5q81 0 179.5 -13t157.5 -25l58 -13l-6 -179q-232 35 -365 35q-85 0 -144.5 -20t-98.5 -58.5t-60.5 -106t-30 -150.5t-8.5 -205q0 -85 3.5 -148t13 -122t26.5 -99.5t43 -74t62.5 -53t85.5 -30t112 -10.5 q54 0 144 9t153 17l64 9l6 -180q-233 -50 -395 -50q-127 0 -219 31.5t-151 88t-93.5 149.5t-48 202.5t-13.5 260.5z" />
<glyph unicode="D" horiz-adv-x="1304" d="M170 0v1421h492q129 0 224 -31.5t156.5 -87.5t98.5 -143.5t52 -189t15 -234.5q0 -137 -14 -243t-50.5 -201.5t-97 -157t-157.5 -97.5t-227 -36h-492zM367 188h295q84 0 146 29t99 77t59.5 121t30 148t7.5 172q0 95 -7.5 165.5t-29.5 136.5t-59.5 106.5t-99 65 t-146.5 24.5h-295v-1045z" />
<glyph unicode="E" horiz-adv-x="1148" d="M170 0v1421h874v-190h-677v-426h555v-187h-555v-428h677v-190h-874z" />
<glyph unicode="F" horiz-adv-x="1122" d="M170 0v1421h874v-190h-677v-504h555v-188h-555v-539h-197z" />
<glyph unicode="G" horiz-adv-x="1236" d="M98 711q0 188 27 319.5t90 227t170 141t264 45.5q96 0 213.5 -14.5t187.5 -29.5l70 -14l-8 -174q-250 37 -436 37q-90 0 -153.5 -20t-106.5 -58.5t-68 -105t-35 -150.5t-10 -204q0 -119 9 -201.5t32.5 -151t65.5 -107.5t105.5 -60t154.5 -21q30 0 67 2.5t68 6t58 6.5 t43.5 5.5t17.5 2.5v362h-199v178h395v-706q-291 -50 -465 -50q-129 0 -224.5 32t-159 91t-102.5 151.5t-55 203.5t-16 256z" />
<glyph unicode="H" horiz-adv-x="1392" d="M170 0v1421h199v-606h653v606h201v-1421h-201v625h-653v-625h-199z" />
<glyph unicode="I" horiz-adv-x="526" d="M164 0v1421h198v-1421h-198z" />
<glyph unicode="J" horiz-adv-x="634" d="M66 39q63 0 97.5 6t61 27.5t36 61.5t9.5 110v1177h199q0 -217 1 -596t1 -598q0 -81 -10 -140.5t-33 -101t-53 -67t-79 -39.5t-101.5 -19t-128.5 -5v184z" />
<glyph unicode="K" horiz-adv-x="1218" d="M170 0v1421h199v-639l217 13l317 626h232l-371 -710l389 -711h-233l-330 602l-221 -12v-590h-199z" />
<glyph unicode="L" horiz-adv-x="1032" d="M170 0v1421h199v-1231h585v-190h-784z" />
<glyph unicode="M" horiz-adv-x="1738" d="M170 0v1421h334l366 -1138l369 1138h330v-1421h-199v1180h-31l-364 -1127h-211l-365 1127h-30v-1180h-199z" />
<glyph unicode="N" horiz-adv-x="1423" d="M170 0v1421h336l508 -1179h41v1179h198v-1421h-327l-516 1180h-41v-1180h-199z" />
<glyph unicode="O" horiz-adv-x="1329" d="M98 702q0 146 16.5 258.5t56.5 205.5t104.5 153t161.5 92.5t227 32.5t227 -32.5t162 -92t104.5 -152.5t56.5 -205.5t17 -259.5q0 -150 -16.5 -261.5t-56 -201.5t-104.5 -146.5t-162 -86t-228 -29.5q-162 0 -272.5 45.5t-175 140t-91.5 224.5t-27 315zM303 702 q0 -141 15 -234.5t54.5 -163.5t111 -102t180.5 -32q89 0 151.5 21t103.5 60.5t64 106.5t32 147.5t9 196.5q0 140 -15.5 235.5t-54.5 169.5t-110.5 109t-179.5 35q-87 0 -150 -24t-103.5 -67t-64.5 -112.5t-33.5 -151.5t-9.5 -194z" />
<glyph unicode="P" horiz-adv-x="1230" d="M170 0v1421h516q236 0 351.5 -116t115.5 -353q0 -240 -117 -369.5t-350 -129.5h-317v-453h-199zM369 643h317q133 0 198.5 81t65.5 228q0 143 -64 211t-200 68h-317v-588z" />
<glyph unicode="Q" horiz-adv-x="1329" d="M98 702q0 146 16.5 258.5t56.5 205.5t104.5 153t161.5 92.5t227 32.5t227 -32.5t162 -92t104.5 -152.5t56.5 -205.5t17 -259.5q0 -253 -51.5 -409.5t-173.5 -233.5l170 -278l-185 -86l-182 297q-81 -15 -145 -15q-162 0 -272.5 45.5t-175 140t-91.5 224.5t-27 315z M303 702q0 -141 15 -234.5t54.5 -163.5t111 -102t180.5 -32q89 0 151.5 21t103.5 60.5t64 106.5t32 147.5t9 196.5q0 140 -15.5 235.5t-54.5 169.5t-110.5 109t-179.5 35q-87 0 -150 -24t-103.5 -67t-64.5 -112.5t-33.5 -151.5t-9.5 -194z" />
<glyph unicode="R" horiz-adv-x="1269" d="M170 0v1421h530q238 0 351.5 -106t113.5 -338q0 -162 -59 -262t-182 -150l250 -565h-220l-227 512h-31h-327v-512h-199zM369 700h333q138 0 198.5 71t60.5 202q0 132 -64.5 196t-196.5 64h-331v-533z" />
<glyph unicode="S" horiz-adv-x="1089" d="M104 1059q0 194 122 290.5t333 96.5q70 0 169.5 -12t163.5 -24l64 -11l-16 -180q-262 32 -381 32q-254 0 -254 -188q0 -26 3.5 -47.5t8 -39t17 -33t22.5 -27t32.5 -23.5t40 -20.5t51.5 -20.5t59.5 -20.5t72.5 -22.5q70 -22 117.5 -41t93 -43.5t73 -52.5t49.5 -66t31 -86 t9 -110q0 -221 -113 -325.5t-333 -104.5q-68 0 -176.5 11.5t-182.5 23.5l-74 12l21 182q265 -35 410 -35q124 0 185.5 53.5t61.5 175.5q0 98 -53.5 141t-212.5 89q-82 26 -136 46t-104.5 47t-80 56t-52.5 69t-32 90.5t-9 117.5z" />
<glyph unicode="T" horiz-adv-x="999" d="M-12 1231v190h1024v-190h-410v-1231h-201v1231h-413z" />
<glyph unicode="U" horiz-adv-x="1310" d="M147 442v979h199v-979q0 -145 78.5 -205.5t226.5 -60.5q152 0 232 61t80 205v979h200v-979q0 -243 -128 -351.5t-384 -108.5q-251 0 -377.5 109t-126.5 351z" />
<glyph unicode="V" horiz-adv-x="1226" d="M53 1421h207l303 -1231h103l301 1231h207l-355 -1421h-409z" />
<glyph unicode="W" horiz-adv-x="1869" d="M66 1421h206l246 -1218h49l256 1210h226l258 -1210h49l241 1218h207l-307 -1421h-330l-233 1124l-225 -1124h-332z" />
<glyph unicode="X" horiz-adv-x="1189" d="M51 0l414 705l-414 716h223l322 -563l319 563h224l-408 -716l408 -705h-224l-319 555l-322 -555h-223z" />
<glyph unicode="Y" horiz-adv-x="1144" d="M33 1421h221l319 -590l316 590h223l-438 -813v-608h-199v608z" />
<glyph unicode="Z" horiz-adv-x="1167" d="M123 0v219l674 973v39h-674v190h921v-221l-673 -973v-37h673v-190h-921z" />
<glyph unicode="[" horiz-adv-x="614" d="M74 1534h461v-188h-263v-1409h263v-189h-459z" />
<glyph unicode="\" horiz-adv-x="1705" d="M430 1425l213 13l625 -1426l-213 -12z" />
<glyph unicode="]" horiz-adv-x="614" d="M-43 -63h262v1409h-262v188h461l-2 -1786h-459v189z" />
<glyph unicode="^" horiz-adv-x="1333" d="M33 899l370 711h287l373 -711h-287l-225 440l-232 -440h-286z" />
<glyph unicode="_" horiz-adv-x="1064" d="M55 -10h877v-176h-877v176z" />
<glyph unicode="`" horiz-adv-x="1116" d="M231 1370l72 180l471 -190l-69 -172z" />
<glyph unicode="a" horiz-adv-x="1073" d="M94 299q0 152 80 222.5t248 84.5l287 25v74q0 77 -39.5 116t-112.5 39q-68 0 -166 -7t-163 -15l-64 -7l-8 173q255 40 411 40q169 0 252.5 -80t83.5 -257v-463q1 -49 26 -70.5t75 -28.5l-7 -165q-104 0 -159.5 16.5t-100.5 56.5q-20 -9 -54.5 -21.5t-128.5 -33.5 t-173 -21q-137 0 -212 84.5t-75 237.5zM291 303q0 -76 32.5 -117t92.5 -41q58 0 131.5 13t117.5 26l44 13v282l-265 -20q-79 -6 -116 -44.5t-37 -111.5z" />
<glyph unicode="b" horiz-adv-x="1112" d="M166 2v1456h192v-475q17 7 45 17t101 27t129 17q210 0 298.5 -118t88.5 -400q0 -159 -25 -262t-84.5 -168t-151.5 -92t-233 -27q-51 0 -141 6.5t-155 12.5zM358 164q121 -10 168 -10q63 0 109 9t78.5 29.5t53.5 48.5t33 72.5t16.5 94t4.5 118.5q0 185 -48 262.5 t-163 77.5q-51 0 -114 -11t-100 -21l-38 -11v-659z" />
<glyph unicode="c" horiz-adv-x="892" d="M92 526q0 278 99.5 398t328.5 120q45 0 119 -8t125 -16l51 -8l-8 -168q-162 18 -240 18q-84 0 -137.5 -17t-85 -58.5t-43.5 -102.5t-12 -158q0 -108 10.5 -172.5t41 -110.5t85 -63.5t143.5 -17.5q35 0 95 4t102 8l43 4l6 -168q-199 -33 -299 -33q-237 0 -330.5 124.5 t-93.5 424.5z" />
<glyph unicode="d" horiz-adv-x="1118" d="M92 512q0 276 101 404t325 128q29 0 70.5 -3.5t74 -7.5t63 -8.5t34.5 -4.5v414h192v-1434h-192v59q-17 -9 -46 -22t-105.5 -35t-137.5 -22q-74 0 -131 15.5t-105 52.5t-78.5 97.5t-47.5 152t-17 214.5zM289 510q0 -105 15 -175.5t44 -108t64.5 -52.5t85.5 -16 q53 1 118.5 15.5t104.5 28.5l39 15v633q-2 0 -46.5 5.5t-95 10t-88.5 4.5q-131 0 -186 -86t-55 -274z" />
<glyph unicode="e" horiz-adv-x="1038" d="M92 504q0 540 436 540q214 0 319 -114.5t105 -358.5l-12 -141h-651q0 -141 57 -207.5t191 -66.5q70 0 164 4.5t153 9.5l59 4l5 -154q-234 -43 -408 -43q-226 1 -322 128t-96 399zM287 582h473q0 158 -54 224t-178 66q-122 0 -181 -68.5t-60 -221.5z" />
<glyph unicode="f" horiz-adv-x="690" d="M49 848v174h123v80q0 218 62.5 297.5t222.5 79.5q30 0 84 -4.5t93 -9.5l38 -5l-2 -160q-107 5 -170 5q-77 0 -105 -43t-28 -162v-78h280v-174h-280v-848h-195v848h-123z" />
<glyph unicode="g" horiz-adv-x="1073" d="M88 -178q0 79 36.5 134.5t121.5 119.5q-64 42 -64 145q0 19 18.5 59.5t37.5 71.5l18 31q-71 37 -113.5 108t-42.5 199q0 94 29.5 163t84 110.5t126 61t160.5 19.5q44 0 96.5 -6.5t83.5 -13.5l31 -6l303 6v-160h-166q53 -63 53 -174q0 -102 -25 -170.5t-78 -107.5 t-125.5 -55.5t-178.5 -16.5q-55 0 -95 8q-30 -79 -30 -106q0 -39 14.5 -55t60.5 -22.5t156 -6.5q120 0 195.5 -13.5t126 -48.5t70.5 -92.5t20 -148.5q0 -178 -122.5 -262.5t-342.5 -84.5q-245 0 -352 67.5t-107 246.5zM281 -160q0 -86 58.5 -121.5t209.5 -35.5 q137 0 201.5 38t64.5 123q0 49 -10.5 77t-41 43.5t-69 20t-110.5 5.5l-209 10q-53 -40 -73.5 -74t-20.5 -86zM295 690q0 -98 44.5 -142t154.5 -44q116 0 165.5 41t49.5 145q0 108 -47.5 148.5t-163.5 40.5q-106 0 -154.5 -43.5t-48.5 -145.5z" />
<glyph unicode="h" horiz-adv-x="1153" d="M166 0v1475h192v-494q19 7 50 17.5t109.5 28t135.5 17.5q106 0 174.5 -28.5t107.5 -93.5t54 -156t15 -231v-535h-193v532q0 74 -4 123.5t-16 92.5t-33.5 66.5t-55.5 36.5t-84 13t-115 -12t-105 -24l-40 -11v-817h-192z" />
<glyph unicode="i" horiz-adv-x="505" d="M156 0v1022h194v-1022h-194zM156 1221v215h194v-215h-194z" />
<glyph unicode="j" horiz-adv-x="524" d="M-66 -322q80 46 121.5 75.5t71.5 68t38.5 80.5t8.5 110v1010h195v-1012q0 -101 -15 -168t-57.5 -124.5t-106 -101.5t-172.5 -99zM174 1233v213h195v-213h-195z" />
<glyph unicode="k" horiz-adv-x="1032" d="M166 0v1458h192v-840l140 13l270 391h219l-315 -475l323 -547h-219l-274 442l-144 -12v-430h-192z" />
<glyph unicode="l" horiz-adv-x="514" d="M160 0v1458h194v-1458h-194z" />
<glyph unicode="m" horiz-adv-x="1757" d="M166 0v1022h190v-61q104 59 219 73q45 7 84 7q13 0 25 -1q138 -6 209 -86q230 90 364 90q105 0 172.5 -26.5t107.5 -90.5t55.5 -156t15.5 -236v-535h-193v465q0 62 -1 102t-4 83.5t-8.5 70t-15 53.5t-23.5 41.5t-34 27t-46 17t-60 4.5q-54 0 -117.5 -15.5t-99 -29.5 t-39.5 -18q20 -52 20 -271v-530h-192v526q0 101 -6.5 159.5t-27 102t-58.5 60t-101 16.5q-50 0 -111 -15t-97 -31l-36 -15v-803h-192z" />
<glyph unicode="n" horiz-adv-x="1159" d="M166 0v1022h192v-59q19 9 50.5 22.5t110 36t134.5 22.5q107 0 175.5 -28.5t108 -93.5t54.5 -156t15 -231v-535h-195v532q0 75 -4 124t-15.5 92t-33 66.5t-55 36.5t-82.5 13q-51 0 -117 -15t-106 -31l-40 -15v-803h-192z" />
<glyph unicode="o" horiz-adv-x="1081" d="M92 520q0 266 103.5 395t347.5 129q236 0 341 -131t105 -393q0 -135 -21 -231t-71 -168.5t-138 -108t-216 -35.5q-130 0 -218 34.5t-139 106t-72.5 168.5t-21.5 234zM289 520q0 -101 10 -165t37.5 -112t77.5 -68.5t129 -20.5q63 0 107 15.5t72 42.5t44 74t21.5 101.5 t5.5 132.5q0 185 -57.5 267.5t-192.5 82.5q-145 0 -199.5 -78.5t-54.5 -271.5z" />
<glyph unicode="p" horiz-adv-x="1114" d="M166 -446v1468h192v-61q16 9 44 23t102.5 37t134.5 23q199 0 291 -121.5t92 -400.5q0 -206 -49 -326t-146 -169.5t-258 -49.5q-107 0 -211 23v-446h-192zM358 170q144 -16 199 -16q151 0 208.5 82.5t57.5 287.5q0 185 -54.5 264.5t-162.5 79.5q-49 0 -111 -17t-99 -33 l-38 -17v-631z" />
<glyph unicode="q" horiz-adv-x="1099" d="M92 496q0 135 24 233t77.5 170.5t144.5 108.5t221 36q49 0 143 -5.5t163 -10.5l69 -6v-1471h-193v474q-10 -5 -29 -13t-77 -21.5t-115 -13.5q-227 0 -327.5 131.5t-100.5 387.5zM287 498q0 -172 54.5 -258t178.5 -86q50 0 105.5 13t85.5 27l30 13v655q-123 8 -182 8 q-151 0 -211.5 -89t-60.5 -283z" />
<glyph unicode="r" horiz-adv-x="733" d="M166 0v1022h192v-121q16 12 45.5 31t117 59t171.5 56v-205q-84 -16 -167.5 -47.5t-124.5 -54.5l-42 -23v-717h-192z" />
<glyph unicode="s" horiz-adv-x="1005" d="M106 735q0 83 31 144.5t86 96.5t120 51.5t142 16.5q68 0 162.5 -11t155.5 -21l61 -11l-4 -163q-235 32 -362 32q-98 0 -147.5 -29.5t-49.5 -101.5q0 -57 46 -82t188 -49q208 -33 285 -95.5t77 -209.5q0 -173 -103 -249.5t-300 -76.5q-61 0 -154.5 11.5t-157.5 23.5 l-63 11l8 165q246 -34 350 -34q121 0 173 31t52 112q0 63 -43 88t-182 47q-83 14 -137.5 28t-102.5 36.5t-74.5 54t-41.5 77t-15 107.5z" />
<glyph unicode="t" horiz-adv-x="735" d="M47 848v174h137v307h193v-307h301v-174h-301v-447q0 -147 21.5 -194t105.5 -47l174 10l10 -168q-137 -25 -209 -25q-169 0 -232 79.5t-63 299.5v492h-137z" />
<glyph unicode="u" horiz-adv-x="1144" d="M150 489v533h194v-530q0 -82 3.5 -132t14 -94t32 -66t55.5 -34t86 -12q51 0 114 15t100 31l37 15v807h195v-1022h-195v59q-18 -9 -48 -22.5t-106 -36.5t-132 -23q-109 0 -177.5 27t-107 92t-52 156t-13.5 237z" />
<glyph unicode="v" horiz-adv-x="987" d="M39 1022h201l221 -860h67l224 860h198l-276 -1022h-361z" />
<glyph unicode="w" horiz-adv-x="1544" d="M45 1022h193l180 -848h39l213 830h204l213 -830h39l181 848h192l-227 -1022h-320l-182 743l-182 -743h-318z" />
<glyph unicode="x" horiz-adv-x="948" d="M43 0l305 510l-305 512h209l221 -371l223 371h207l-305 -512l305 -510h-209l-221 371l-221 -371h-209z" />
<glyph unicode="y" horiz-adv-x="989" d="M39 1022h192l232 -836h61l234 836h192q-161 -596 -288 -1047l-113 -419h-193l121 444h-160z" />
<glyph unicode="z" horiz-adv-x="980" d="M111 0v174l526 676h-526v174h759v-174l-526 -676h526v-174h-759z" />
<glyph unicode="{" horiz-adv-x="649" d="M29 557v164q114 28 157 76t43 133q0 26 -7 123t-7 137q0 189 95.5 270.5t314.5 89.5l2 -188q-122 -7 -163.5 -47.5t-41.5 -136.5q0 -35 7 -130.5t7 -123.5q0 -125 -45 -185t-160 -98q113 -37 159 -102t46 -189q0 -36 -6.5 -121t-7.5 -118q0 -96 42 -139t163 -50l-2 -188 q-216 8 -313 91t-97 265q0 44 7 136t7 114q0 83 -43.5 133.5t-156.5 83.5z" />
<glyph unicode="|" d="M432 -332v1827h199v-1827h-199z" />
<glyph unicode="}" horiz-adv-x="649" d="M14 -86q122 7 163.5 47.5t41.5 136.5q0 35 -7 130.5t-7 123.5q0 125 45 185t160 98q-113 37 -159 102t-46 189q0 36 6.5 121t7.5 118q0 96 -42 139t-163 50l2 188q216 -8 313 -91t97 -265q0 -44 -7 -136t-7 -114q0 -83 43.5 -133.5t156.5 -83.5v-164q-114 -28 -157 -76 t-43 -133q0 -26 7 -123t7 -137q0 -189 -95.5 -270.5t-314.5 -89.5z" />
<glyph unicode="~" horiz-adv-x="1705" />
<glyph unicode="&#xa2;" horiz-adv-x="894" d="M63 510q0 422 367 444v232h166v-238l188 -20l-6 -170q-178 12 -256 12q-146 0 -203 -56.5t-57 -203.5q0 -150 56.5 -203t211.5 -53q35 0 97.5 3t107.5 6l45 3l6 -170q-106 -14 -190 -20v-238h-166v232q-188 9 -277.5 110t-89.5 330z" />
<glyph unicode="&#xa3;" horiz-adv-x="1167" d="M233 0v180h142v525h-94v176h94v118q0 119 19.5 197t60.5 121t94 59.5t131 16.5q35 0 105 -10.5t123 -20.5l53 -10v-193q-131 35 -199 35q-82 0 -119 -20.5t-55 -85.5t-21 -207h299v-179h-299q0 -87 -1 -261t-1 -261h283l153 33l31 -176l-166 -35q-106 0 -317 -1t-316 -1z " />
<glyph unicode="&#xa5;" horiz-adv-x="1105" d="M14 1352h222l319 -512l315 512h224l-334 -557h248v-166h-342l-11 -39v-98h353v-166h-353v-326h-198v326h-359v166h359v98l-11 39h-348v166h252z" />
<glyph unicode="&#xa6;" d="M430 -332v807h199v-807h-199zM430 725v811h199v-811h-199z" />
<glyph unicode="&#xa7;" d="M176 512q0 116 98 227q-90 66 -90 234q0 156 91.5 224.5t267.5 68.5q57 0 137 -7t131 -13l51 -7l-4 -65q-217 26 -315 26q-141 0 -214 -53t-73 -170q0 -42 6.5 -74t17.5 -55.5t32 -42t42 -30t57 -22t67 -16.5t81 -14q73 -12 120 -23.5t92.5 -32.5t71 -50t41 -74 t15.5 -107q0 -64 -23.5 -135t-54.5 -123q72 -63 72 -192q0 -324 -354 -324q-55 0 -141 7t-144 13l-59 7l6 65q225 -28 338 -28q139 0 210.5 62t71.5 196q0 28 -4.5 51t-10 41t-19.5 33t-24.5 25t-33.5 19t-38 14.5t-46 11.5t-50 9t-58 9q-57 9 -93.5 16.5t-78.5 20t-67.5 27 t-51.5 37.5t-39.5 52.5t-22 70t-8.5 91.5zM248 516q0 -42 6.5 -74t17.5 -55.5t32 -42t42 -30t57 -22t67 -16.5t81 -14q159 -25 217 -51q24 36 41.5 100.5t17.5 118.5q0 50 -14 86.5t-35 59t-60.5 39t-76 25t-96.5 17.5q-158 25 -219 54q-31 -35 -54.5 -92t-23.5 -103z" />
<glyph unicode="&#xa8;" horiz-adv-x="1705" d="M139 1237v233h199v-233h-199zM541 1237v233h198v-233h-198z" />
<glyph unicode="&#xa9;" d="M20 889q0 149 67.5 274t188 198t267.5 73q148 0 268.5 -73t188 -198t67.5 -274t-67.5 -273.5t-188 -197t-268.5 -72.5t-268 72.5t-187.5 197t-67.5 273.5zM86 889q0 -200 130.5 -338.5t326.5 -138.5t327 138.5t131 338.5t-131 339.5t-327 139.5t-326.5 -139.5 t-130.5 -339.5zM319 887q0 59 5.5 104.5t20.5 86.5t39.5 67t64.5 41.5t94 15.5q35 0 72.5 -3.5t58.5 -6.5l20 -4l-2 -66q-83 15 -149 15q-42 0 -71 -11.5t-46 -30.5t-26.5 -52.5t-12 -68t-2.5 -87.5q0 -127 32.5 -186.5t125.5 -59.5q25 0 62.5 4t62.5 8l24 4l2 -65 q-88 -17 -151 -17q-66 0 -111 22t-69 65t-34 97t-10 128z" />
<glyph unicode="&#xaa;" horiz-adv-x="1060" d="M283 954q0 74 37.5 112t115.5 44l209 14v47q0 65 -24 89t-82 24q-31 0 -84.5 -3.5t-90.5 -6.5l-38 -4l-4 63q141 17 217 17q89 0 129.5 -42.5t40.5 -138.5v-274q7 -24 24 -34t51 -13l-4 -57q-38 1 -61.5 11t-48.5 34q-129 -45 -244 -45q-64 0 -103.5 44.5t-39.5 118.5z M350 950q0 -94 82 -94q41 0 94 9t86 17l33 9v174l-199 -12q-52 -4 -74 -28t-22 -75z" />
<glyph unicode="&#xab;" horiz-adv-x="1705" d="M451 520v74l342 264v-80l-277 -217l277 -239v-84q-272 231 -342 282zM874 520v74l343 264v-80l-277 -217l277 -239v-84q-273 231 -343 282z" />
<glyph unicode="&#xad;" horiz-adv-x="901" d="M135 481v189h631v-189h-631z" />
<glyph unicode="&#xae;" d="M20 889q0 149 67.5 274t188 198t267.5 73q148 0 268.5 -73t188 -198t67.5 -274t-67.5 -273.5t-188 -197t-268.5 -72.5t-268 72.5t-187.5 197t-67.5 273.5zM86 889q0 -200 130.5 -338.5t326.5 -138.5t327 138.5t131 338.5t-131 339.5t-327 139.5t-326.5 -139.5 t-130.5 -339.5zM334 565v645h186q130 0 183 -41.5t53 -142.5q0 -155 -121 -186l133 -275h-72l-135 269h-162v-269h-65zM399 899h164q69 0 98 27.5t29 99.5q0 67 -39 93t-125 26h-127v-246z" />
<glyph unicode="&#xaf;" horiz-adv-x="1705" />
<glyph unicode="&#xb0;" d="M205 1155q0 132 81.5 213.5t213.5 81.5t213.5 -81.5t81.5 -213.5t-81.5 -212.5t-213.5 -80.5t-213.5 80.5t-81.5 212.5zM324 1155q0 -80 48.5 -129t127.5 -49q80 0 130 49.5t50 128.5t-50 129.5t-130 50.5q-79 0 -127.5 -50t-48.5 -130z" />
<glyph unicode="&#xb1;" d="M66 102v179h966v-179h-966zM66 639v178h389v258h180v-258h397v-178h-397v-254h-180v254h-389z" />
<glyph unicode="&#xb4;" horiz-adv-x="1705" d="M219 1360l471 190l72 -180l-473 -182z" />
<glyph unicode="&#xb6;" horiz-adv-x="1333" d="M55 1047q0 170 107 278.5t274 108.5h774v-191h-153v-1243h-193v1243h-221v-1243h-192v664h-15q-168 0 -274.5 106.5t-106.5 276.5z" />
<glyph unicode="&#xb8;" horiz-adv-x="1705" d="M791 -342l4 53q18 -4 57 -4t48 14.5t9 59.5q0 43 -8.5 54t-48.5 11h-49v156h67v-98q63 -1 86 -27.5t23 -95.5q0 -74 -26 -102.5t-99 -28.5q-24 0 -63 8z" />
<glyph unicode="&#xba;" horiz-adv-x="1077" d="M295 1073q0 143 58.5 210t176.5 67t175 -67t57 -210q0 -144 -57 -213t-175 -69t-176.5 69t-58.5 213zM365 1073q0 -117 38.5 -167t126.5 -50t125 50t37 167q0 116 -37 163.5t-125 47.5q-89 0 -127 -47.5t-38 -163.5z" />
<glyph unicode="&#xbb;" horiz-adv-x="1705" d="M492 238v84l276 239l-276 217v80l342 -264v-74q-31 -23 -116.5 -93.5t-155.5 -129.5zM915 238v84l277 239l-277 217v80l342 -264v-74q-31 -23 -116.5 -93.5t-155.5 -129.5z" />
<glyph unicode="&#xc0;" horiz-adv-x="1236" d="M57 0l365 1421h407l361 -1419h-201l-92 317h-553l-88 -319h-199zM313 1780l72 180l471 -191l-70 -172zM387 510h469l-182 727h-101z" />
<glyph unicode="&#xc1;" horiz-adv-x="1236" d="M57 0l365 1421h407l361 -1419h-201l-92 317h-553l-88 -319h-199zM342 1769l471 191l72 -180l-473 -183zM387 510h469l-182 727h-101z" />
<glyph unicode="&#xc2;" horiz-adv-x="1236" d="M57 0l365 1421h407l361 -1419h-201l-92 317h-553l-88 -319h-199zM283 1602l260 331h155l263 -331h-197l-141 176l-144 -176h-196zM387 510h469l-182 727h-101z" />
<glyph unicode="&#xc3;" horiz-adv-x="1236" d="M57 0l365 1421h407l361 -1419h-201l-92 317h-553l-88 -319h-199zM307 1763q115 111 195 111q43 0 82.5 -17t64 -37.5t56 -37.5t59.5 -17q38 0 125 82l45 -35q-104 -112 -170 -112q-41 0 -79.5 17t-63 38t-57 38t-64.5 17q-53 0 -142 -84zM387 510h469l-182 727h-101z" />
<glyph unicode="&#xc4;" horiz-adv-x="1236" d="M57 0l365 1421h407l361 -1419h-201l-92 317h-553l-88 -319h-199zM322 1647v233h198v-233h-198zM387 510h469l-182 727h-101zM723 1647v233h199v-233h-199z" />
<glyph unicode="&#xc5;" horiz-adv-x="1236" d="M57 0l365 1421h407l361 -1419h-201l-92 317h-553l-88 -319h-199zM387 510h469l-182 727h-101zM430 1737q0 82 55 137t138 55q82 0 137 -55t55 -137q0 -83 -55 -138t-137 -55q-83 0 -138 55t-55 138zM500 1737q0 -54 35.5 -90.5t89.5 -36.5q52 0 87.5 36.5t35.5 90.5 q0 53 -35.5 89t-87.5 36q-54 0 -89.5 -36t-35.5 -89z" />
<glyph unicode="&#xc6;" horiz-adv-x="1839" d="M88 0l432 1421h1231v-190h-678v-412h555v-188h-555v-441h678v-190h-874v319h-488l-98 -319h-203zM440 510h437v694h-224z" />
<glyph unicode="&#xc7;" horiz-adv-x="1099" d="M96 709q0 155 15 268.5t51 204.5t96 147t150 85.5t213 29.5q81 0 179.5 -13t157.5 -25l58 -13l-6 -179q-232 35 -365 35q-85 0 -144.5 -20t-98.5 -58.5t-60.5 -106t-30 -150.5t-8.5 -205q0 -85 3.5 -148t13 -122t26.5 -99.5t43 -74t62.5 -53t85.5 -30t112 -10.5 q54 0 144 9t153 17l64 9l6 -180q-233 -50 -395 -50q-127 0 -219 31.5t-151 88t-93.5 149.5t-48 202.5t-13.5 260.5zM510 -342l4 53q18 -4 57 -4t48.5 14.5t9.5 59.5q0 43 -9 54t-49 11h-49v156h68v-98q63 -1 85.5 -27.5t22.5 -95.5q0 -74 -26 -102.5t-99 -28.5q-24 0 -63 8z " />
<glyph unicode="&#xc8;" horiz-adv-x="1171" d="M211 0v1434h838v-70h-764v-592h641v-70h-641v-632h764v-70h-838zM414 1845l32 64l394 -197l-31 -55z" />
<glyph unicode="&#xc9;" horiz-adv-x="1171" d="M176 0v1421h875v-190h-678v-426h555v-187h-555v-428h678v-190h-875zM375 1769l471 191l72 -180l-474 -183z" />
<glyph unicode="&#xca;" horiz-adv-x="1171" d="M176 0v1421h875v-190h-678v-426h555v-187h-555v-428h678v-190h-875zM297 1602l260 331h156l262 -331h-197l-141 176l-143 -176h-197z" />
<glyph unicode="&#xcb;" horiz-adv-x="1171" d="M176 0v1421h875v-190h-678v-426h555v-187h-555v-428h678v-190h-875zM336 1647v233h199v-233h-199zM737 1647v233h199v-233h-199z" />
<glyph unicode="&#xcc;" horiz-adv-x="462" d="M-57 1780l71 180l471 -191l-69 -172zM164 0v1421h198v-1421h-198z" />
<glyph unicode="&#xcd;" horiz-adv-x="462" d="M-70 1769l471 191l72 -180l-473 -183zM164 0v1421h198v-1421h-198z" />
<glyph unicode="&#xce;" horiz-adv-x="473" d="M-102 1602l260 331h155l262 -331h-196l-141 176l-144 -176h-196zM168 0v1421h199v-1421h-199z" />
<glyph unicode="&#xcf;" horiz-adv-x="462" d="M-68 1647v233h199v-233h-199zM164 0v1421h198v-1421h-198zM334 1647v233h198v-233h-198z" />
<glyph unicode="&#xd0;" horiz-adv-x="1304" d="M41 608v191h623v-191h-623zM170 0v1421h492q129 0 224 -31.5t156.5 -87.5t98.5 -143.5t52 -189t15 -234.5q0 -137 -14 -243t-50.5 -201.5t-97 -157t-157.5 -97.5t-227 -36h-492zM367 188h295q84 0 146 29t99 77t59.5 121t30 148t7.5 172q0 95 -7.5 165.5t-29.5 136.5 t-59.5 106.5t-99 65t-146.5 24.5h-295v-1045z" />
<glyph unicode="&#xd1;" horiz-adv-x="1406" d="M156 0v1421h336l507 -1179h41v1179h199v-1421h-328l-516 1180h-41v-1180h-198zM387 1763q115 111 195 111q43 0 82.5 -17t64 -37.5t56 -37.5t59.5 -17q38 0 125 82l45 -35q-104 -112 -170 -112q-41 0 -79.5 17t-63 38t-57 38t-64.5 17q-53 0 -142 -84z" />
<glyph unicode="&#xd2;" horiz-adv-x="1343" d="M106 702q0 146 16.5 258.5t56.5 205.5t104.5 153t161.5 92.5t227 32.5t227 -32.5t162 -92t104.5 -152.5t56.5 -205.5t17 -259.5q0 -150 -16.5 -261.5t-56 -201.5t-104.5 -146.5t-162 -86t-228 -29.5q-162 0 -272.5 45.5t-175 140t-91.5 224.5t-27 315zM311 702 q0 -141 15 -234.5t54.5 -163.5t111 -102t180.5 -32q89 0 151.5 21t103.5 60.5t64 106.5t32 147.5t9 196.5q0 140 -15.5 235.5t-54.5 169.5t-110.5 109t-179.5 35q-87 0 -150 -24t-103.5 -67t-64.5 -112.5t-33.5 -151.5t-9.5 -194zM383 1780l72 180l471 -191l-70 -172z" />
<glyph unicode="&#xd3;" horiz-adv-x="1343" d="M106 702q0 146 16.5 258.5t56.5 205.5t104.5 153t161.5 92.5t227 32.5t227 -32.5t162 -92t104.5 -152.5t56.5 -205.5t17 -259.5q0 -150 -16.5 -261.5t-56 -201.5t-104.5 -146.5t-162 -86t-228 -29.5q-162 0 -272.5 45.5t-175 140t-91.5 224.5t-27 315zM311 702 q0 -141 15 -234.5t54.5 -163.5t111 -102t180.5 -32q89 0 151.5 21t103.5 60.5t64 106.5t32 147.5t9 196.5q0 140 -15.5 235.5t-54.5 169.5t-110.5 109t-179.5 35q-87 0 -150 -24t-103.5 -67t-64.5 -112.5t-33.5 -151.5t-9.5 -194zM371 1769l471 191l71 -180l-473 -183z" />
<glyph unicode="&#xd4;" horiz-adv-x="1343" d="M106 702q0 146 16.5 258.5t56.5 205.5t104.5 153t161.5 92.5t227 32.5t227 -32.5t162 -92t104.5 -152.5t56.5 -205.5t17 -259.5q0 -150 -16.5 -261.5t-56 -201.5t-104.5 -146.5t-162 -86t-228 -29.5q-162 0 -272.5 45.5t-175 140t-91.5 224.5t-27 315zM311 702 q0 -141 15 -234.5t54.5 -163.5t111 -102t180.5 -32q89 0 151.5 21t103.5 60.5t64 106.5t32 147.5t9 196.5q0 140 -15.5 235.5t-54.5 169.5t-110.5 109t-179.5 35q-87 0 -150 -24t-103.5 -67t-64.5 -112.5t-33.5 -151.5t-9.5 -194zM334 1602l260 331h156l262 -331h-197 l-141 176l-144 -176h-196z" />
<glyph unicode="&#xd5;" horiz-adv-x="1343" d="M106 702q0 146 16.5 258.5t56.5 205.5t104.5 153t161.5 92.5t227 32.5t227 -32.5t162 -92t104.5 -152.5t56.5 -205.5t17 -259.5q0 -150 -16.5 -261.5t-56 -201.5t-104.5 -146.5t-162 -86t-228 -29.5q-162 0 -272.5 45.5t-175 140t-91.5 224.5t-27 315zM311 702 q0 -141 15 -234.5t54.5 -163.5t111 -102t180.5 -32q89 0 151.5 21t103.5 60.5t64 106.5t32 147.5t9 196.5q0 140 -15.5 235.5t-54.5 169.5t-110.5 109t-179.5 35q-87 0 -150 -24t-103.5 -67t-64.5 -112.5t-33.5 -151.5t-9.5 -194zM358 1763q115 111 195 111q43 0 82.5 -17 t64 -37.5t56 -37.5t59.5 -17q38 0 125 82l45 -35q-104 -112 -170 -112q-41 0 -79.5 17t-63 38t-57 38t-64.5 17q-52 0 -141 -84z" />
<glyph unicode="&#xd6;" horiz-adv-x="1343" d="M106 702q0 146 16.5 258.5t56.5 205.5t104.5 153t161.5 92.5t227 32.5t227 -32.5t162 -92t104.5 -152.5t56.5 -205.5t17 -259.5q0 -150 -16.5 -261.5t-56 -201.5t-104.5 -146.5t-162 -86t-228 -29.5q-162 0 -272.5 45.5t-175 140t-91.5 224.5t-27 315zM311 702 q0 -141 15 -234.5t54.5 -163.5t111 -102t180.5 -32q89 0 151.5 21t103.5 60.5t64 106.5t32 147.5t9 196.5q0 140 -15.5 235.5t-54.5 169.5t-110.5 109t-179.5 35q-87 0 -150 -24t-103.5 -67t-64.5 -112.5t-33.5 -151.5t-9.5 -194zM373 1647v233h198v-233h-198zM774 1647v233 h199v-233h-199z" />
<glyph unicode="&#xd7;" horiz-adv-x="1333" d="M360 184l377 387l-377 383l129 127l373 -385l375 385l129 -127l-377 -383l379 -387l-129 -125l-377 383l-375 -383z" />
<glyph unicode="&#xd8;" horiz-adv-x="1343" d="M106 702q0 146 17 258.5t57 205.5t105 153t162 92.5t227 32.5q126 0 219 -35l113 240l180 -68l-125 -264q96 -89 137 -240.5t41 -374.5q0 -150 -16.5 -261.5t-56 -201.5t-104.5 -146.5t-161 -86t-227 -29.5q-118 0 -223 31l-121 -258l-176 78l127 272q-95 85 -135 232 t-40 370zM313 702q0 -137 16.5 -226t59.5 -144l418 895q-44 15 -78 20q-69 3 -117 -4q-72 -8 -124 -36t-85.5 -72t-53.5 -111t-28 -143.5t-8 -178.5zM535 188q59 -18 139 -18q88 0 150.5 21t103.5 60.5t64.5 106.5t32.5 148t9 196q0 274 -78 388z" />
<glyph unicode="&#xd9;" horiz-adv-x="1314" d="M154 442v979h198v-979q0 -145 78.5 -205.5t226.5 -60.5q152 0 232 61t80 205v979h200v-979q0 -243 -128 -351.5t-384 -108.5q-251 0 -377 109t-126 351zM375 1780l71 180l472 -191l-70 -172z" />
<glyph unicode="&#xda;" horiz-adv-x="1314" d="M154 442v979h198v-979q0 -145 78.5 -205.5t226.5 -60.5q152 0 232 61t80 205v979h200v-979q0 -243 -128 -351.5t-384 -108.5q-251 0 -377 109t-126 351zM362 1769l472 191l71 -180l-473 -183z" />
<glyph unicode="&#xdb;" horiz-adv-x="1314" d="M154 442v979h198v-979q0 -145 78.5 -205.5t226.5 -60.5q152 0 232 61t80 205v979h200v-979q0 -243 -128 -351.5t-384 -108.5q-251 0 -377 109t-126 351zM326 1602l260 331h155l263 -331h-197l-141 176l-144 -176h-196z" />
<glyph unicode="&#xdc;" horiz-adv-x="1314" d="M154 442v979h198v-979q0 -145 78.5 -205.5t226.5 -60.5q152 0 232 61t80 205v979h200v-979q0 -243 -128 -351.5t-384 -108.5q-251 0 -377 109t-126 351zM367 1647v233h198v-233h-198zM768 1647v233h199v-233h-199z" />
<glyph unicode="&#xdd;" horiz-adv-x="1105" d="M14 1421h222l319 -590l315 590h224l-439 -813v-608h-198v608zM233 1769l472 191l71 -180l-473 -183z" />
<glyph unicode="&#xde;" horiz-adv-x="1155" d="M111 0v1421h200v-221h316q237 0 354 -115t117 -350q0 -240 -119 -372t-352 -132h-316v-231h-200zM311 424h316q135 0 200.5 81t65.5 230q0 142 -64.5 209.5t-201.5 67.5h-316v-588z" />
<glyph unicode="&#xdf;" horiz-adv-x="1705" d="M436 0v1090q0 212 64.5 288t249.5 76q211 0 300 -64.5t89 -211.5q0 -87 -31 -132t-100 -73q-16 -6 -35 -13.5t-29.5 -11t-23.5 -9t-19 -8.5t-13.5 -8t-10.5 -8.5t-6 -9t-4 -11t-1 -13.5q0 -20 22.5 -37.5t149.5 -93.5q28 -17 67.5 -40.5t58.5 -35t46 -29t39 -27 t27.5 -23.5t21.5 -25.5t10.5 -25.5t4.5 -30q0 -96 -7.5 -165.5t-27.5 -132.5t-54.5 -104t-88.5 -72t-130.5 -44.5t-179.5 -13.5l-159 8l8 69q116 -8 151 -8q80 0 141 10t104.5 27t73.5 48.5t48 65t27.5 86t12.5 103t3 123.5q0 24 -54 63.5t-194 118.5q-98 55 -136.5 81.5 t-50.5 47t-12 56.5q0 26 5.5 44t13.5 29.5t26.5 22t33.5 16.5t46 17.5t54 21.5q66 28 80 51.5t14 94.5q0 115 -70.5 160.5t-240.5 45.5q-77 0 -120.5 -12t-72 -48.5t-38 -96.5t-9.5 -164v-1063h-74z" />
<glyph unicode="&#xe0;" horiz-adv-x="1097" d="M72 299q0 152 79.5 222.5t247.5 84.5l287 25v74q0 77 -39 116t-112 39q-68 0 -166.5 -7t-162.5 -15l-65 -7l-8 173q256 40 412 40q169 0 252.5 -80t83.5 -257v-463q1 -50 25.5 -71t74.5 -28l-6 -165q-104 0 -159.5 16.5t-100.5 56.5q-20 -9 -54.5 -21.5t-129 -33.5 t-173.5 -21q-137 0 -211.5 84.5t-74.5 237.5zM209 1370l72 180l471 -190l-70 -172zM268 303q0 -76 32.5 -117t92.5 -41q58 0 131.5 13t117.5 26l44 13v282l-264 -20q-154 -12 -154 -156z" />
<glyph unicode="&#xe1;" horiz-adv-x="1097" d="M72 299q0 -153 74.5 -237.5t211.5 -84.5q79 0 168.5 19t139.5 38l49 19q45 -40 100.5 -56.5t159.5 -16.5l6 165q-50 7 -74.5 28t-25.5 71v463q0 177 -83.5 257t-252.5 80q-69 0 -172 -10t-171 -20l-69 -10l8 -173q242 29 394 29q73 0 112 -39t39 -116v-74l-287 -25 q-168 -14 -247.5 -84.5t-79.5 -222.5zM268 303q0 144 154 156l264 20v-282q-162 -52 -293 -52q-60 0 -92.5 41t-32.5 117zM319 1360l472 190l71 -180l-473 -182z" />
<glyph unicode="&#xe2;" horiz-adv-x="1097" d="M72 299q0 -153 74.5 -237.5t211.5 -84.5q79 0 168.5 19t139.5 38l49 19q45 -40 100.5 -56.5t159.5 -16.5l6 165q-50 7 -74.5 28t-25.5 71v463q0 177 -83.5 257t-252.5 80q-69 0 -172 -10t-171 -20l-69 -10l8 -173q242 29 394 29q73 0 112 -39t39 -116v-74l-287 -25 q-168 -14 -247.5 -84.5t-79.5 -222.5zM164 1192l260 332h156l262 -332h-197l-141 176l-144 -176h-196zM268 303q0 144 154 156l264 20v-282q-162 -52 -293 -52q-60 0 -92.5 41t-32.5 117z" />
<glyph unicode="&#xe3;" horiz-adv-x="1097" d="M72 299q0 -153 74.5 -237.5t211.5 -84.5q79 0 168.5 19t139.5 38l49 19q45 -40 100.5 -56.5t159.5 -16.5l6 165q-50 7 -74.5 28t-25.5 71v463q0 177 -83.5 257t-252.5 80q-69 0 -172 -10t-171 -20l-69 -10l8 -173q242 29 394 29q73 0 112 -39t39 -116v-74l-287 -25 q-168 -14 -247.5 -84.5t-79.5 -222.5zM188 1354q114 110 195 110q43 0 82.5 -17t64 -37t56 -37t59.5 -17q38 0 125 82l45 -35q-105 -113 -170 -113q-41 0 -79.5 17.5t-63 38t-57 38t-64.5 17.5q-52 0 -141 -84zM268 303q0 144 154 156l264 20v-282q-162 -52 -293 -52 q-60 0 -92.5 41t-32.5 117z" />
<glyph unicode="&#xe4;" horiz-adv-x="1097" d="M72 299q0 -153 74.5 -237.5t211.5 -84.5q79 0 168.5 19t139.5 38l49 19q45 -40 100.5 -56.5t159.5 -16.5l6 165q-50 7 -74.5 28t-25.5 71v463q0 177 -83.5 257t-252.5 80q-69 0 -172 -10t-171 -20l-69 -10l8 -173q242 29 394 29q73 0 112 -39t39 -116v-74l-287 -25 q-168 -14 -247.5 -84.5t-79.5 -222.5zM199 1237v233h198v-233h-198zM268 303q0 144 154 156l264 20v-282q-162 -52 -293 -52q-60 0 -92.5 41t-32.5 117zM600 1237v233h199v-233h-199z" />
<glyph unicode="&#xe5;" horiz-adv-x="1097" d="M72 299q0 -153 74.5 -237.5t211.5 -84.5q79 0 168.5 19t139.5 38l49 19q45 -40 100.5 -56.5t159.5 -16.5l6 165q-50 7 -74.5 28t-25.5 71v463q0 177 -83.5 257t-252.5 80q-69 0 -172 -10t-171 -20l-69 -10l8 -173q242 29 394 29q73 0 112 -39t39 -116v-74l-287 -25 q-168 -14 -247.5 -84.5t-79.5 -222.5zM268 303q0 144 154 156l264 20v-282q-162 -52 -293 -52q-60 0 -92.5 41t-32.5 117zM309 1327q0 82 55 137.5t138 55.5q82 0 137 -55.5t55 -137.5q0 -83 -55 -137.5t-137 -54.5q-83 0 -138 54.5t-55 137.5zM379 1327q0 -54 35.5 -90.5 t89.5 -36.5q52 0 87.5 36.5t35.5 90.5q0 53 -35.5 89t-87.5 36q-54 0 -89.5 -36t-35.5 -89z" />
<glyph unicode="&#xe6;" horiz-adv-x="1695" d="M109 299q0 85 22.5 142t71 92t112.5 52t160 25l250 21v74q0 76 -41 115.5t-113 39.5q-68 0 -165.5 -5t-161.5 -10l-64 -5l-8 170q254 34 410 34q201 0 272 -122q102 122 305 122q213 0 317.5 -114.5t104.5 -358.5l-12 -141h-651q2 -142 58 -208t189 -66q71 0 165.5 4.5 t153.5 9.5l58 4l4 -154q-233 -43 -407 -43q-201 0 -305 107l-60 -27q-34 -15 -77 -30t-131.5 -32.5t-170.5 -17.5q-140 0 -213 84t-73 238zM305 303q0 -76 32.5 -117t92.5 -41q108 0 318 60q-27 105 -27 274l-260 -20q-80 -6 -118 -42.5t-38 -113.5zM918 582h471 q0 158 -53.5 224t-176.5 66t-182 -69t-59 -221z" />
<glyph unicode="&#xe7;" horiz-adv-x="892" d="M92 526q0 278 99.5 398t328.5 120q45 0 119 -8t125 -16l51 -8l-8 -168q-162 18 -240 18q-84 0 -137.5 -17t-85 -58.5t-43.5 -102.5t-12 -158q0 -108 10.5 -172.5t41 -110.5t85 -63.5t143.5 -17.5q35 0 95 4t102 8l43 4l6 -168q-199 -33 -299 -33q-237 0 -330.5 124.5 t-93.5 424.5zM436 -342l4 53q18 -4 58 -4q39 0 48 14.5t9 59.5q0 43 -8.5 54t-48.5 11h-49v156h67v-98q63 -1 86 -27.5t23 -95.5q0 -74 -26 -102.5t-99 -28.5q-25 0 -64 8z" />
<glyph unicode="&#xe8;" horiz-adv-x="1017" d="M90 504q0 540 436 540q214 0 319 -114.5t105 -358.5l-12 -141h-651q0 -141 57 -207.5t191 -66.5q70 0 164 4.5t153 9.5l59 4l4 -154q-233 -43 -407 -43q-226 1 -322 128t-96 399zM193 1370l71 180l471 -190l-69 -172zM285 582h473q0 158 -54 224t-178 66 q-122 0 -181 -68.5t-60 -221.5z" />
<glyph unicode="&#xe9;" horiz-adv-x="1017" d="M90 504q0 540 436 540q214 0 319 -114.5t105 -358.5l-12 -141h-651q0 -141 57 -207.5t191 -66.5q70 0 164 4.5t153 9.5l59 4l4 -154q-233 -43 -407 -43q-226 1 -322 128t-96 399zM266 1360l471 190l72 -180l-473 -182zM285 582h473q0 158 -54 224t-178 66 q-122 0 -181 -68.5t-60 -221.5z" />
<glyph unicode="&#xea;" horiz-adv-x="1017" d="M90 504q0 540 436 540q214 0 319 -114.5t105 -358.5l-12 -141h-651q0 -141 57 -207.5t191 -66.5q70 0 164 4.5t153 9.5l59 4l4 -154q-233 -43 -407 -43q-226 1 -322 128t-96 399zM205 1192l260 332h156l262 -332h-197l-141 176l-144 -176h-196zM285 582h473 q0 158 -54 224t-178 66q-122 0 -181 -68.5t-60 -221.5z" />
<glyph unicode="&#xeb;" horiz-adv-x="1017" d="M90 504q0 540 436 540q214 0 319 -114.5t105 -358.5l-12 -141h-651q0 -141 57 -207.5t191 -66.5q70 0 164 4.5t153 9.5l59 4l4 -154q-233 -43 -407 -43q-226 1 -322 128t-96 399zM248 1237v233h198v-233h-198zM285 582h473q0 158 -54 224t-178 66q-122 0 -181 -68.5 t-60 -221.5zM649 1237v233h199v-233h-199z" />
<glyph unicode="&#xec;" horiz-adv-x="534" d="M-86 1370l72 180l471 -190l-70 -172zM174 0v1022h195v-1022h-195z" />
<glyph unicode="&#xed;" horiz-adv-x="534" d="M29 1360l471 190l71 -180l-473 -182zM174 0v1022h195v-1022h-195z" />
<glyph unicode="&#xee;" horiz-adv-x="534" d="M-72 1192l260 332h156l262 -332h-196l-142 176l-143 -176h-197zM174 0v1022h195v-1022h-195z" />
<glyph unicode="&#xef;" horiz-adv-x="534" d="M-33 1237v233h199v-233h-199zM174 0v1022h195v-1022h-195zM369 1237v233h198v-233h-198z" />
<glyph unicode="&#xf0;" />
<glyph unicode="&#xf1;" horiz-adv-x="1175" d="M178 0h193v803q16 7 44 17t97.5 27t120.5 17q49 0 82.5 -13t55 -36.5t33 -66.5t15.5 -92t4 -124v-532h195v535q0 140 -15 230.5t-54 156t-107.5 94t-175.5 28.5q-56 0 -130 -20t-120 -40l-45 -21v59h-193v-1022zM297 1354q114 110 195 110q43 0 82.5 -17t64 -37t56 -37 t59.5 -17q38 0 125 82l45 -35q-105 -113 -170 -113q-41 0 -79.5 17.5t-63 38t-57.5 38t-65 17.5q-52 0 -141 -84z" />
<glyph unicode="&#xf2;" horiz-adv-x="1097" d="M158 520q0 266 103 395t347 129q236 0 341.5 -131t105.5 -393q0 -135 -21.5 -231t-71.5 -168.5t-138 -108t-216 -35.5q-129 0 -217.5 34.5t-139 106t-72 168t-21.5 234.5zM209 1370l72 180l471 -190l-70 -172zM354 520q0 -101 10 -165t37.5 -112t77.5 -68.5t129 -20.5 q63 0 107 15.5t72 42.5t44 74t21.5 101.5t5.5 132.5q0 185 -57.5 267.5t-192.5 82.5q-145 0 -199.5 -78.5t-54.5 -271.5z" />
<glyph unicode="&#xf3;" horiz-adv-x="1097" d="M158 520q0 -138 21.5 -234.5t72 -168t139 -106t217.5 -34.5q128 0 216 35.5t138 108t71.5 168.5t21.5 231q0 262 -105.5 393t-341.5 131q-244 0 -347 -129t-103 -395zM279 1360l471 190l71 -180l-473 -182zM354 520q0 193 54.5 271.5t199.5 78.5q135 0 192.5 -82.5 t57.5 -267.5q0 -78 -5.5 -132.5t-21.5 -101.5t-44 -74t-72 -42.5t-107 -15.5q-79 0 -129 20.5t-77.5 68.5t-37.5 112t-10 165z" />
<glyph unicode="&#xf4;" horiz-adv-x="1097" d="M158 520q0 -138 21.5 -234.5t72 -168t139 -106t217.5 -34.5q128 0 216 35.5t138 108t71.5 168.5t21.5 231q0 262 -105.5 393t-341.5 131q-244 0 -347 -129t-103 -395zM201 1192l260 332h155l263 -332h-197l-141 176l-144 -176h-196zM354 520q0 193 54.5 271.5t199.5 78.5 q135 0 192.5 -82.5t57.5 -267.5q0 -78 -5.5 -132.5t-21.5 -101.5t-44 -74t-72 -42.5t-107 -15.5q-79 0 -129 20.5t-77.5 68.5t-37.5 112t-10 165z" />
<glyph unicode="&#xf5;" horiz-adv-x="1097" d="M158 520q0 -138 21.5 -234.5t72 -168t139 -106t217.5 -34.5q128 0 216 35.5t138 108t71.5 168.5t21.5 231q0 262 -105.5 393t-341.5 131q-244 0 -347 -129t-103 -395zM225 1354q114 110 195 110q43 0 82.5 -17t64 -37t56 -37t59.5 -17q38 0 125 82l45 -35 q-105 -113 -170 -113q-41 0 -79.5 17.5t-63 38t-57 38t-64.5 17.5q-53 0 -142 -84zM354 520q0 193 54.5 271.5t199.5 78.5q135 0 192.5 -82.5t57.5 -267.5q0 -78 -5.5 -132.5t-21.5 -101.5t-44 -74t-72 -42.5t-107 -15.5q-79 0 -129 20.5t-77.5 68.5t-37.5 112t-10 165z" />
<glyph unicode="&#xf6;" horiz-adv-x="1097" d="M158 520q0 -138 21.5 -234.5t72 -168t139 -106t217.5 -34.5q128 0 216 35.5t138 108t71.5 168.5t21.5 231q0 262 -105.5 393t-341.5 131q-244 0 -347 -129t-103 -395zM240 1237v233h198v-233h-198zM354 520q0 193 54.5 271.5t199.5 78.5q135 0 192.5 -82.5t57.5 -267.5 q0 -78 -5.5 -132.5t-21.5 -101.5t-44 -74t-72 -42.5t-107 -15.5q-79 0 -129 20.5t-77.5 68.5t-37.5 112t-10 165zM641 1237v233h199v-233h-199z" />
<glyph unicode="&#xf7;" d="M160 678v215h655v-215h-655zM274 768v190h437v-190h-437zM395 170v227h195v-227h-195z" />
<glyph unicode="&#xf8;" horiz-adv-x="1077" d="M123 535q0 191 42.5 301t132.5 158t245 48q97 0 170 -24l82 196l61 -22l-82 -201q91 -53 135.5 -165.5t44.5 -295.5q0 -121 -10.5 -205t-37 -152.5t-73 -108.5t-118 -61t-172.5 -21t-174 18l-86 -213l-62 20l86 213q-105 48 -144.5 167t-39.5 348zM199 535 q0 -201 27 -303.5t108 -145.5l354 868q-71 23 -145 23q-134 0 -207 -39.5t-105 -133.5t-32 -269zM395 61q57 -14 148 -14q75 0 129.5 12.5t91.5 41t60 64.5t35 95.5t16 120t4 149.5q0 300 -134 394z" />
<glyph unicode="&#xf9;" horiz-adv-x="1046" d="M168 489v533h194v-530q0 -82 3.5 -132t14 -94t32 -66t55.5 -34t86 -12q51 0 114 15t101 31l37 15v807h194v-1022h-194v59q-18 -9 -48 -22.5t-106.5 -36.5t-132.5 -23q-109 0 -177.5 27t-107 92t-52 156t-13.5 237zM227 1370l72 180l471 -190l-70 -172z" />
<glyph unicode="&#xfa;" horiz-adv-x="1046" d="M168 489q0 -146 13.5 -237t52 -156t107 -92t177.5 -27q56 0 128 20.5t116 40.5l43 21v-59h194v1022h-194v-807q-15 -7 -41 -17t-93 -27t-118 -17q-52 0 -86 12t-55.5 34t-32 66t-14 94t-3.5 132v530h-194v-533zM297 1360l471 190l72 -180l-473 -182z" />
<glyph unicode="&#xfb;" horiz-adv-x="1046" d="M168 489q0 -146 13.5 -237t52 -156t107 -92t177.5 -27q56 0 128 20.5t116 40.5l43 21v-59h194v1022h-194v-807q-15 -7 -41 -17t-93 -27t-118 -17q-52 0 -86 12t-55.5 34t-32 66t-14 94t-3.5 132v530h-194v-533zM219 1192l260 332h156l262 -332h-197l-141 176l-143 -176 h-197z" />
<glyph unicode="&#xfc;" horiz-adv-x="1046" d="M168 489q0 -146 13.5 -237t52 -156t107 -92t177.5 -27q56 0 128 20.5t116 40.5l43 21v-59h194v1022h-194v-807q-15 -7 -41 -17t-93 -27t-118 -17q-52 0 -86 12t-55.5 34t-32 66t-14 94t-3.5 132v530h-194v-533zM258 1237v233h199v-233h-199zM659 1237v233h199v-233h-199z " />
<glyph unicode="&#xfd;" horiz-adv-x="983" d="M25 1022h192l232 -836h61l233 836h193q-137 -509 -289 -1047l-112 -419h-193l121 444h-160zM244 1360l471 190l71 -180l-473 -182z" />
<glyph unicode="&#xfe;" horiz-adv-x="1101" d="M205 -446v1904h194v-475q16 7 44 17t100.5 27t128.5 17q210 0 298.5 -118t88.5 -400q0 -159 -24.5 -262t-83.5 -168t-151 -92t-233 -27q-29 0 -89 4t-79 5v-432h-194zM399 164q119 -10 166 -10q93 0 151.5 20t90.5 68.5t43.5 113.5t11.5 170q0 185 -48 262.5t-165 77.5 q-50 0 -112.5 -11t-100.5 -21l-37 -11v-659z" />
<glyph unicode="&#xff;" horiz-adv-x="983" d="M61 1024l318 -1024h125l-148 -471h76l469 1495h-76l-303 -958h-84l-301 958h-76zM281 1307v127h71v-127h-71zM629 1307v127h71v-127h-71z" />
<glyph unicode="&#x152;" horiz-adv-x="1933" d="M123 707q0 157 16.5 272.5t54.5 206t100.5 146t153 84t214.5 28.5q126 0 272 -23h866v-192h-670v-410h547v-190h-547v-436h670v-193h-862q-157 -23 -276 -23q-129 0 -222.5 30.5t-154.5 86.5t-97 148t-50.5 202.5t-14.5 262.5zM328 709q0 -121 9 -203.5t32 -150 t64.5 -105.5t104.5 -58t154 -20q55 0 242 16v1043q-216 18 -248 18q-108 0 -176.5 -28t-109.5 -95.5t-56.5 -165.5t-15.5 -251z" />
<glyph unicode="&#x153;" horiz-adv-x="1794" d="M121 520q0 266 103 395t347 129q251 0 351 -163q100 163 335 163q214 0 319 -114.5t105 -358.5l-12 -141h-651q0 -142 56.5 -208t191.5 -66q70 0 164 4.5t153 9.5l59 4l5 -154q-234 -43 -408 -43q-229 0 -326 148q-50 -75 -132.5 -111.5t-209.5 -36.5q-129 0 -217.5 34.5 t-139 106t-72 168t-21.5 234.5zM317 520q0 -101 10 -165t37.5 -112t77.5 -68.5t129 -20.5q63 0 107 15.5t72 42.5t44 74t21.5 101.5t5.5 132.5q0 185 -57.5 267.5t-192.5 82.5q-145 0 -199.5 -78.5t-54.5 -271.5zM1016 582h473q0 158 -54 224t-178 66q-122 0 -181.5 -69.5 t-59.5 -220.5z" />
<glyph unicode="&#x178;" horiz-adv-x="1105" d="M51 1434h84l420 -736l414 736h86l-463 -818v-616h-74v616zM342 1716v127h72v-127h-72zM690 1716v127h72v-127h-72z" />
<glyph unicode="&#x2c6;" horiz-adv-x="1705" d="M502 1192l260 332h156l262 -332h-197l-141 176l-144 -176h-196z" />
<glyph unicode="&#x2dc;" horiz-adv-x="1705" d="M160 1354q114 110 194 110q43 0 82.5 -17t64 -37t56 -37t59.5 -17q38 0 125 82l45 -35q-105 -113 -170 -113q-41 0 -79.5 17.5t-63 38t-57 38t-64.5 17.5q-52 0 -141 -84z" />
<glyph unicode="&#x2000;" horiz-adv-x="980" />
<glyph unicode="&#x2001;" horiz-adv-x="1960" />
<glyph unicode="&#x2002;" horiz-adv-x="980" />
<glyph unicode="&#x2003;" horiz-adv-x="1960" />
<glyph unicode="&#x2004;" horiz-adv-x="653" />
<glyph unicode="&#x2005;" horiz-adv-x="490" />
<glyph unicode="&#x2006;" horiz-adv-x="326" />
<glyph unicode="&#x2007;" horiz-adv-x="326" />
<glyph unicode="&#x2008;" horiz-adv-x="245" />
<glyph unicode="&#x2009;" horiz-adv-x="392" />
<glyph unicode="&#x200a;" horiz-adv-x="108" />
<glyph unicode="&#x2010;" horiz-adv-x="901" d="M135 481v189h631v-189h-631z" />
<glyph unicode="&#x2011;" horiz-adv-x="901" d="M135 481v189h631v-189h-631z" />
<glyph unicode="&#x2012;" horiz-adv-x="901" d="M135 481v189h631v-189h-631z" />
<glyph unicode="&#x2013;" horiz-adv-x="1705" />
<glyph unicode="&#x2014;" horiz-adv-x="1705" />
<glyph unicode="&#x2018;" horiz-adv-x="348" d="M2 1022l111 467h184l-94 -467h-201z" />
<glyph unicode="&#x2019;" horiz-adv-x="348" d="M49 1079l94 467h201l-111 -467h-184z" />
<glyph unicode="&#x201c;" horiz-adv-x="1705" />
<glyph unicode="&#x2022;" d="M506 0v164h82v-164h-82z" />
<glyph unicode="&#x202f;" horiz-adv-x="392" />
<glyph unicode="&#x2039;" horiz-adv-x="1705" />
<glyph unicode="&#x205f;" horiz-adv-x="490" />
<glyph unicode="&#x20ac;" horiz-adv-x="1163" d="M88 434v156h115v86v86h-115v156h125q28 247 140.5 354.5t361.5 107.5q81 0 171.5 -10t140.5 -20l50 -9l-8 -178q-199 23 -330 23q-158 0 -227 -61.5t-90 -209.5h512v-153h-524q-2 -27 -2 -86t2 -86h524v-156h-512q21 -141 91 -201.5t230 -60.5q53 0 134.5 6t136.5 12 l55 5l6 -181q-198 -37 -360 -37q-130 0 -220.5 27.5t-148.5 86t-88.5 141t-44.5 202.5h-125z" />
<glyph unicode="&#x2122;" d="M14 1208v64h410v-64h-170v-528h-68v528h-172zM496 678v594h102l172 -496l178 496h103v-594h-66v528l-180 -506h-72l-172 506v-528h-65z" />
<glyph unicode="&#x25fc;" horiz-adv-x="1024" d="M0 0v1024h1024v-1024h-1024z" />
</font>
</defs>
</svg>
