<?xml version="1.0" encoding="utf-8"?>
<!-- Generator: Adobe Illustrator 16.0.0, SVG Export Plug-In . SVG Version: 6.00 Build 0)  -->
<!DOCTYPE svg PUBLIC "-//W3C//DTD SVG 1.1 Tiny//EN" "http://www.w3.org/Graphics/SVG/1.1/DTD/svg11-tiny.dtd">
<svg version="1.1" baseProfile="tiny" id="Layer_1" xmlns="http://www.w3.org/2000/svg" xmlns:xlink="http://www.w3.org/1999/xlink"
	 x="0px" y="0px" width="36px" height="36px" viewBox="0 0 36 36" overflow="scroll" xml:space="preserve">
<g>
	<path fill="#FFFFFF" d="M18,1.1C7.881,1.1,0.25,7.24,0.25,15.384c0,5.268,2.587,9.475,7.296,11.876v7.517
		c0,0.194,0.108,0.373,0.283,0.466c0.08,0.043,0.167,0.063,0.255,0.063c0.104,0,0.207-0.03,0.295-0.088l8.613-5.589l0.021,0.001
		c0.328,0.017,0.654,0.033,0.986,0.033c10.12,0,17.75-6.139,17.75-14.281S28.12,1.1,18,1.1z M18,28.61
		c-0.312,0-0.619-0.016-0.927-0.033l-0.199-0.01c-0.111-0.014-0.227,0.023-0.326,0.088L8.621,33.8v-6.862
		c0-0.2-0.116-0.385-0.299-0.473c-5.782-2.804-6.996-7.573-6.996-11.081C1.325,7.843,8.495,2.155,18,2.155
		s16.675,5.688,16.675,13.229C34.675,22.923,27.505,28.61,18,28.61z M26.053,9.898H9.946c-0.297,0-0.538,0.236-0.538,0.527
		s0.241,0.527,0.538,0.527h16.107c0.299,0,0.539-0.236,0.539-0.527S26.352,9.898,26.053,9.898z M26.053,15.033H9.946
		c-0.297,0-0.538,0.236-0.538,0.528s0.241,0.527,0.538,0.527h16.107c0.299,0,0.539-0.235,0.539-0.527S26.352,15.033,26.053,15.033z
		 M18,20.168H9.946c-0.297,0-0.538,0.235-0.538,0.526c0,0.292,0.241,0.527,0.538,0.527H18c0.297,0,0.538-0.235,0.538-0.527
		C18.538,20.403,18.298,20.168,18,20.168z"/>
</g>
</svg>
