<?xml version="1.0" encoding="utf-8"?>
<!-- Generator: Adobe Illustrator 16.0.0, SVG Export Plug-In . SVG Version: 6.00 Build 0)  -->
<!DOCTYPE svg PUBLIC "-//W3C//DTD SVG 1.1 Tiny//EN" "http://www.w3.org/Graphics/SVG/1.1/DTD/svg11-tiny.dtd">
<svg version="1.1" baseProfile="tiny" id="Layer_1" xmlns="http://www.w3.org/2000/svg" xmlns:xlink="http://www.w3.org/1999/xlink"
	 x="0px" y="0px" width="42px" height="42px" viewBox="0 0 42 42" overflow="scroll" xml:space="preserve">
<g>
	<path fill="#FD4A4A" d="M4.916,32.419c-2.572,0-4.666,2.093-4.666,4.665c0,2.574,2.094,4.666,4.666,4.666
		c2.574,0,4.666-2.092,4.666-4.666C9.581,34.512,7.488,32.419,4.916,32.419z M4.916,39.296c-1.219,0-2.21-0.991-2.21-2.21
		s0.991-2.211,2.21-2.211c1.219,0,2.211,0.991,2.211,2.211C7.126,38.305,6.134,39.296,4.916,39.296z M4.916,0.25
		c-0.678,0-1.227,0.548-1.227,1.226c0,0.678,0.549,1.229,1.227,1.229c18.957,0,34.377,15.422,34.377,34.379
		c0,0.681,0.55,1.229,1.229,1.229c0.678,0,1.228-0.548,1.228-1.229C41.75,16.772,25.225,0.25,4.916,0.25z M4.917,7.983
		c-0.678,0-1.227,0.551-1.227,1.229c0,0.68,0.549,1.229,1.227,1.229c14.689,0,26.642,11.954,26.642,26.644
		c0,0.681,0.55,1.229,1.227,1.229c0.678,0,1.228-0.548,1.229-1.229C34.015,21.039,20.962,7.983,4.917,7.983z M4.916,15.719
		c-0.678,0-1.227,0.551-1.227,1.229c0,0.678,0.549,1.228,1.227,1.228c10.425,0,18.908,8.481,18.908,18.908
		c0,0.681,0.55,1.229,1.228,1.229c0.68,0,1.228-0.548,1.228-1.229C26.278,25.304,16.695,15.719,4.916,15.719z M4.916,24.314
		c-0.678,0-1.227,0.549-1.227,1.227c0,0.681,0.549,1.229,1.227,1.229c5.687,0,10.313,4.626,10.313,10.313
		c0,0.681,0.549,1.229,1.227,1.229c0.679,0,1.229-0.548,1.229-1.229C17.685,30.042,11.956,24.314,4.916,24.314z"/>
</g>
</svg>
