<?xml version="1.0" encoding="utf-8"?>
<!-- Generator: Adobe Illustrator 16.0.0, SVG Export Plug-In . SVG Version: 6.00 Build 0)  -->
<!DOCTYPE svg PUBLIC "-//W3C//DTD SVG 1.1 Tiny//EN" "http://www.w3.org/Graphics/SVG/1.1/DTD/svg11-tiny.dtd">
<svg version="1.1" baseProfile="tiny" id="Layer_1" xmlns="http://www.w3.org/2000/svg" xmlns:xlink="http://www.w3.org/1999/xlink"
	 x="0px" y="0px" width="50px" height="50px" viewBox="0 0 50 50" overflow="scroll" xml:space="preserve">
<g>
	<path fill="#FD4A4A" d="M49.181,21.507c-0.046-0.111-0.112-0.21-0.194-0.294L38.232,10.419c-0.351-0.351-0.917-0.351-1.268,0
		c-0.351,0.353-0.351,0.921,0,1.272l9.226,9.26H26.844c-0.496,0-0.896,0.402-0.896,0.9c0,0.497,0.4,0.899,0.896,0.899H46.19
		l-9.226,9.26c-0.351,0.352-0.351,0.921,0,1.272c0.175,0.175,0.403,0.264,0.634,0.264c0.229,0,0.459-0.089,0.634-0.264
		l10.754-10.795c0.082-0.083,0.148-0.183,0.194-0.293C49.271,21.975,49.271,21.728,49.181,21.507z M33.117,26.35
		c-0.496,0-0.896,0.401-0.896,0.899v14.395h-8.963V7.457c0-0.392-0.253-0.738-0.625-0.857L8.417,2.059h23.804v14.395
		c0,0.497,0.399,0.899,0.896,0.899s0.896-0.402,0.896-0.899V1.159c0-0.498-0.399-0.899-0.896-0.899H2.645
		c-0.029,0-0.054,0.013-0.082,0.016C2.513,0.28,2.469,0.292,2.422,0.305C2.338,0.327,2.262,0.358,2.19,0.402
		c-0.023,0.014-0.051,0.014-0.073,0.03c-0.028,0.021-0.049,0.047-0.075,0.07C2.027,0.516,2.011,0.528,1.996,0.544
		C1.928,0.618,1.873,0.699,1.832,0.789c-0.008,0.019-0.013,0.037-0.02,0.054C1.774,0.944,1.749,1.05,1.749,1.159v41.383
		c0,0.113,0.026,0.22,0.064,0.32c0.013,0.034,0.031,0.061,0.047,0.093c0.033,0.063,0.071,0.123,0.119,0.177
		c0.026,0.029,0.051,0.055,0.081,0.08c0.052,0.046,0.11,0.084,0.173,0.117c0.033,0.019,0.063,0.037,0.099,0.05
		c0.016,0.006,0.027,0.017,0.042,0.022l19.717,6.298c0.088,0.026,0.18,0.041,0.271,0.041c0.188,0,0.374-0.06,0.53-0.173
		c0.231-0.169,0.367-0.438,0.367-0.727v-5.397h9.858c0.496,0,0.896-0.402,0.896-0.901V27.249
		C34.013,26.751,33.612,26.35,33.117,26.35z M21.466,47.61L3.541,41.886V2.389l17.925,5.725V47.61z"/>
</g>
</svg>
