<?xml version="1.0" encoding="utf-8"?>
<!-- Generator: Adobe Illustrator 16.0.0, SVG Export Plug-In . SVG Version: 6.00 Build 0)  -->
<!DOCTYPE svg PUBLIC "-//W3C//DTD SVG 1.1 Tiny//EN" "http://www.w3.org/Graphics/SVG/1.1/DTD/svg11-tiny.dtd">
<svg version="1.1" baseProfile="tiny" id="Layer_1" xmlns="http://www.w3.org/2000/svg" xmlns:xlink="http://www.w3.org/1999/xlink"
	 x="0px" y="0px" width="72px" height="72px" viewBox="0 0 72 72" overflow="scroll" xml:space="preserve">
<circle fill="#E7B904" cx="36" cy="36" r="35.75"/>
<g>
	<path fill-rule="evenodd" d="M71.75,36c0-2.979-0.745-5.958-0.745-5.958L36,36l35.005,5.958C71.005,41.958,71.75,38.979,71.75,36z
		 M0.25,36c0,2.979,0.745,5.958,0.745,5.958L36,36L0.995,30.042C0.995,30.042,0.25,33.021,0.25,36z M36,71.75
		c2.979,0,5.958-0.745,5.958-0.745L36,36l-5.958,35.005C30.042,71.005,33.021,71.75,36,71.75z M36,0.25
		c-2.979,0-5.958,0.745-5.958,0.745L36,36l5.958-35.005C41.958,0.995,38.979,0.25,36,0.25z M61.279,61.279
		c2.106-2.107,3.687-4.74,3.687-4.74L36,36l20.539,28.966C56.539,64.966,59.172,63.386,61.279,61.279z M10.721,10.721
		c-2.107,2.106-3.687,4.739-3.687,4.739L36,36L15.46,7.034C15.46,7.034,12.828,8.614,10.721,10.721z M10.721,61.279
		c2.106,2.106,4.739,3.687,4.739,3.687L36,36L7.034,56.539C7.034,56.539,8.614,59.172,10.721,61.279z M61.279,10.721
		c-2.107-2.107-4.74-3.687-4.74-3.687L36,36l28.966-20.54C64.966,15.46,63.386,12.828,61.279,10.721z"/>
</g>
</svg>
