<?xml version="1.0" encoding="utf-8"?>
<!-- Generator: Adobe Illustrator 19.0.0, SVG Export Plug-In . SVG Version: 6.00 Build 0)  -->
<svg version="1.1" id="Layer_1" xmlns="http://www.w3.org/2000/svg" xmlns:xlink="http://www.w3.org/1999/xlink" x="0px" y="0px"
	 viewBox="0 0 100 100" style="enable-background:new 0 0 100 100;" xml:space="preserve">
<style type="text/css">
	.st0{fill-rule:evenodd;clip-rule:evenodd;}
</style>
<g id="XMLID_3_">
	<path id="XMLID_4_" class="st0" d="M33.1,97.3c2.6,0,5-1,6.8-2.7l0,0l33.8-37.1c2.1-1.9,3.3-4.6,3.3-7.5c0-2.8-1.2-5.5-3.3-7.5
		L40,5.4l0,0c-1.8-1.7-4.2-2.7-6.8-2.7C27.5,2.7,23,7.3,23,12.9c0,3,1.3,5.6,3.3,7.4l0,0L51.9,50L26.3,79.7l0,0
		c-2,1.8-3.3,4.5-3.3,7.4C23,92.7,27.5,97.3,33.1,97.3z"/>
</g>
</svg>
