<?xml version="1.0" encoding="utf-8"?>
<!-- Generator: Adobe Illustrator 19.0.0, SVG Export Plug-In . SVG Version: 6.00 Build 0)  -->
<svg version="1.1" id="Layer_1" xmlns="http://www.w3.org/2000/svg" xmlns:xlink="http://www.w3.org/1999/xlink" x="0px" y="0px"
	 viewBox="0 0 100 100" style="enable-background:new 0 0 100 100;" xml:space="preserve">
<style type="text/css">
	.st0{fill-rule:evenodd;clip-rule:evenodd;}
</style>
<g>
	<path class="st0" d="M93.5,88.6c-2.2,0-3.9-1.7-3.9-3.9l0-0.4c0,0,0-0.1,0-0.1C89.5,73.5,83.2,64.4,74.1,60
		c-0.4-0.6-0.9-1.1-1.3-1.6c-0.4,0.1-0.7,0.2-1.1,0.2c-3,0-5.4-2.4-5.4-5.4l0-0.5c0-0.3,0.1-0.6,0.2-0.9c-0.1-0.1-0.2-0.2-0.4-0.3
		l0.6-0.6c0.5-1.5,1.7-2.7,3.2-3.2l0.4-0.4c4.6-2.7,7.7-7.7,7.7-13.4c0-7.3-5.1-13.5-11.9-15.2c-0.1-0.2-0.3-0.4-0.4-0.7
		c-0.5,0.2-1,0.3-1.5,0.3c-2,0-3.7-1.7-3.7-3.7l0-0.3c0-2,1.6-3.6,3.5-3.7l0.1-0.1c12.2,0.9,21.9,10.9,21.9,23.4
		c0,7.4-3.5,14-8.9,18.3c0,0.2,0.1,0.3,0.1,0.5l0,0C88.9,58.2,97.1,70.1,97.3,84c0,0.1,0.1,0.2,0.1,0.3l0,0.4
		C97.4,86.9,95.7,88.6,93.5,88.6z M53.2,52.5C65.3,57.9,73.7,70,73.9,84c0,0.1,0.1,0.2,0.1,0.3l0,0.4c0,2.2-1.7,3.9-3.9,3.9
		c-2.2,0-3.9-1.7-3.9-3.9l0-0.4c0,0,0-0.1,0-0.1C66,69.7,54.4,57.9,40,57.3c-0.4,0-0.7,0.1-1.1,0.1c-0.4,0-0.7-0.1-1.1-0.1
		C23.1,58,11.5,69.9,11.5,84.7c0,0,0,0,0,0h-0.1l0,0c0,2.2-1.7,3.9-3.9,3.9c-2.2,0-3.9-1.7-3.9-3.9l0-0.4c0-0.3,0.1-0.5,0.2-0.8
		c0.4-13.9,8.8-25.8,20.8-31.1c-5.5-4.3-9.2-11-9.2-18.5c0-13,10.5-23.6,23.5-23.6c13,0,23.5,10.5,23.5,23.6
		C62.4,41.5,58.7,48.2,53.2,52.5z M38.8,18.2c-8.6,0-15.6,7-15.6,15.7c0,8.7,7,15.7,15.6,15.7s15.6-7,15.6-15.7
		C54.4,25.2,47.4,18.2,38.8,18.2z"/>
</g>
</svg>
