<?xml version="1.0" encoding="utf-8"?>
<!-- Generator: Adobe Illustrator 15.1.0, SVG Export Plug-In . SVG Version: 6.00 Build 0)  -->
<!DOCTYPE svg PUBLIC "-//W3C//DTD SVG 1.1//EN" "http://www.w3.org/Graphics/SVG/1.1/DTD/svg11.dtd">
<svg version="1.1" xmlns="http://www.w3.org/2000/svg" xmlns:xlink="http://www.w3.org/1999/xlink" x="0px" y="0px" width="36px"
	 height="36px" viewBox="82 82 36 36" enable-background="new 82 82 36 36" xml:space="preserve">
<g id="Layer_6" display="none">
	<rect x="82.166" y="82.166" display="inline" width="35.834" height="35.834"/>
</g>
<g id="Layer_6_copy" display="none">
	<rect x="82.166" y="82.166" display="inline" fill="#0063B1" width="35.834" height="35.834"/>
</g>
<g id="branch" display="none">
	<g display="inline">
		<path fill="#FFFFFF" d="M105.835,92.931c-0.043-0.188-0.146-0.366-0.312-0.511c-0.165-0.142-0.368-0.229-0.578-0.261l-3.371-0.652
			l0.976,0.647l-1.541,4.827l-0.866-3.586l-0.868,3.586l-1.539-4.827l0.975-0.647l-3.372,0.652
			c-0.209,0.032-0.412,0.119-0.577,0.261c-0.165,0.144-0.269,0.322-0.312,0.511l-1,4.391l1.886,0.654
			c0.626,0.651,2.378,1.13,4.479,1.175h0.327h0.327c2.102-0.045,3.853-0.524,4.479-1.175l1.887-0.654L105.835,92.931z"/>
		<polygon fill="#FFFFFF" points="100.143,91.997 99.365,92.275 100.143,93.396 100.92,92.275 		"/>
		<path fill="#FFFFFF" d="M103.027,87.673c0-1.993-0.819-3.554-2.885-3.554c-2.066,0-2.886,1.562-2.886,3.554
			c-0.215,0.112-0.357,0.377-0.145,0.944c0.107,0.285,0.296,0.523,0.456,0.648c0.588,1.465,1.746,2.597,2.576,2.597
			c0.829,0,1.987-1.132,2.574-2.597c0.161-0.125,0.349-0.363,0.457-0.648C103.386,88.051,103.244,87.786,103.027,87.673z"/>
		<path fill="#FFFFFF" d="M111.674,103.606c-0.173-0.671-0.797-1.107-1.464-1.064l-0.734-1.618h-9.062v-1.168h-0.542v1.168h-9.063
			l-0.733,1.618c-0.667-0.043-1.291,0.394-1.465,1.064c-0.197,0.76,0.261,1.537,1.022,1.733c0.762,0.196,1.538-0.262,1.735-1.023
			c0.173-0.671-0.163-1.353-0.767-1.641l0.629-1.21h8.642v1.168c-0.656,0.127-1.152,0.703-1.152,1.397
			c0,0.785,0.637,1.423,1.424,1.423l0,0l0,0c0.786,0,1.423-0.638,1.423-1.423c0-0.694-0.495-1.271-1.152-1.397v-1.168h8.642
			l0.629,1.21c-0.604,0.288-0.94,0.97-0.768,1.641c0.197,0.762,0.974,1.22,1.734,1.023
			C111.413,105.144,111.871,104.366,111.674,103.606z M90.842,104.182c-0.122,0.471-0.603,0.754-1.073,0.632
			c-0.471-0.12-0.754-0.602-0.633-1.072s0.603-0.754,1.073-0.634C90.679,103.229,90.963,103.711,90.842,104.182z M101.023,104.031
			c0,0.485-0.396,0.881-0.881,0.881l0,0l0,0c-0.486,0-0.882-0.396-0.882-0.881c0-0.486,0.395-0.881,0.882-0.881l0,0l0,0
			C100.628,103.15,101.023,103.545,101.023,104.031z M110.516,104.813c-0.471,0.122-0.952-0.161-1.073-0.632
			c-0.121-0.47,0.162-0.952,0.633-1.074c0.472-0.12,0.953,0.163,1.073,0.634C111.271,104.212,110.987,104.693,110.516,104.813z"/>
		<g>
			<path fill="#FFFFFF" d="M92.355,112.025c-0.028-0.125-0.098-0.243-0.208-0.34c-0.11-0.095-0.245-0.153-0.384-0.174l-2.516-0.488
				c0.395-0.308,0.787-0.829,1.032-1.438c0.106-0.083,0.232-0.242,0.304-0.432c0.141-0.378,0.046-0.554-0.097-0.628
				c0-1.327-0.546-2.368-1.921-2.368c-1.375,0-1.921,1.041-1.921,2.368c-0.144,0.074-0.238,0.25-0.097,0.628
				c0.071,0.189,0.197,0.349,0.303,0.432c0.245,0.609,0.637,1.131,1.032,1.438l-2.516,0.488c-0.139,0.021-0.273,0.079-0.384,0.174
				c-0.109,0.097-0.179,0.215-0.208,0.34l-0.666,2.925l1.255,0.436c0.417,0.433,1.583,0.751,2.983,0.781h0.218h0.218
				c1.399-0.03,2.566-0.349,2.983-0.781l1.255-0.436L92.355,112.025z"/>
			<path fill="#FFFFFF" d="M115.511,112.025c-0.028-0.125-0.098-0.243-0.207-0.34c-0.11-0.095-0.246-0.153-0.385-0.174l-2.517-0.488
				c0.396-0.308,0.788-0.829,1.032-1.438c0.107-0.083,0.232-0.242,0.305-0.432c0.141-0.378,0.046-0.554-0.098-0.628
				c0-1.327-0.545-2.368-1.921-2.368c-1.375,0-1.921,1.041-1.921,2.368c-0.145,0.074-0.238,0.25-0.097,0.628
				c0.07,0.189,0.196,0.349,0.303,0.432c0.245,0.609,0.638,1.131,1.032,1.438l-2.516,0.488c-0.14,0.021-0.273,0.079-0.385,0.174
				c-0.108,0.097-0.18,0.215-0.207,0.34l-0.666,2.925l1.256,0.436c0.417,0.433,1.584,0.751,2.982,0.781h0.218h0.218
				c1.399-0.03,2.565-0.349,2.982-0.781l1.256-0.436L115.511,112.025z"/>
			<path fill="#FFFFFF" d="M103.933,112.025c-0.028-0.125-0.097-0.243-0.208-0.34c-0.109-0.095-0.244-0.153-0.385-0.174
				l-2.515-0.488c0.396-0.308,0.787-0.829,1.031-1.438c0.107-0.083,0.233-0.242,0.304-0.432c0.143-0.378,0.048-0.554-0.097-0.628
				c0-1.327-0.546-2.368-1.921-2.368c-1.375,0-1.922,1.041-1.922,2.368c-0.144,0.074-0.238,0.25-0.097,0.628
				c0.072,0.189,0.198,0.349,0.304,0.432c0.245,0.609,0.637,1.131,1.032,1.438l-2.516,0.488c-0.14,0.021-0.274,0.079-0.384,0.174
				c-0.109,0.097-0.179,0.215-0.208,0.34l-0.666,2.925l1.256,0.436c0.417,0.433,1.583,0.751,2.983,0.781h0.218h0.218
				c1.399-0.03,2.565-0.349,2.982-0.781l1.256-0.436L103.933,112.025z"/>
		</g>
	</g>
</g>
<g id="Layer_5" display="none">
	<rect x="82.166" y="82.166" display="inline" fill="#16A086" width="35.834" height="35.834"/>
</g>
<g id="Config" display="none">
	<path display="inline" fill="#FFFFFF" d="M114.843,102.719l-1.203-1.292c0.002-0.011,0.001-0.022,0-0.039
		c0.025-0.288,0.044-0.578,0.055-0.868c0.003-0.084-0.001-0.174,0.001-0.257c0.002-0.223-0.001-0.438-0.011-0.653
		c-0.004-0.094-0.01-0.182-0.017-0.275c-0.005-0.143-0.012-0.285-0.022-0.435l1.206-1.282c0.575-0.613,1.62-1.427,1.3-2.201
		l-1.32-3.204c-0.32-0.775-1.633-0.612-2.472-0.642l-1.761-0.063c-0.133-0.16-0.275-0.311-0.414-0.464
		c-0.005-0.006-0.012-0.015-0.018-0.023c-0.049-0.051-0.091-0.107-0.141-0.158c-0.074-0.081-0.16-0.159-0.237-0.238
		c-0.11-0.112-0.223-0.227-0.337-0.335c-0.188-0.181-0.385-0.351-0.58-0.52c-0.008-0.008-0.021-0.015-0.027-0.021
		c-0.011-0.01-0.021-0.022-0.031-0.032l-0.057-1.764c-0.025-0.835,0.139-2.15-0.632-2.471l-3.204-1.333
		c-0.771-0.321-1.591,0.724-2.2,1.294l-1.292,1.205c-0.289-0.029-0.576-0.044-0.863-0.055c-0.081-0.003-0.162-0.002-0.248-0.001
		c-0.186-0.002-0.372-0.007-0.563,0c-0.24,0.008-0.481,0.022-0.721,0.043c-0.031,0.001-0.062,0.001-0.086,0.003
		c-0.017,0.003-0.03,0.001-0.047,0.004l-1.283-1.208c-0.612-0.572-1.427-1.619-2.201-1.3l-3.204,1.32
		c-0.775,0.319-0.611,1.635-0.642,2.472l-0.063,1.763c-0.019,0.015-0.039,0.035-0.056,0.053c-0.21,0.176-0.417,0.356-0.618,0.545
		c-0.074,0.073-0.146,0.146-0.218,0.22c-0.143,0.139-0.286,0.282-0.422,0.43c-0.07,0.077-0.135,0.154-0.203,0.232
		c-0.093,0.101-0.183,0.2-0.272,0.306l-1.765,0.054c-0.835,0.026-2.15-0.138-2.471,0.632l-1.333,3.204
		c-0.321,0.771,0.722,1.587,1.292,2.198l1.206,1.291c-0.02,0.2-0.029,0.399-0.04,0.601c0,0.019-0.003,0.038-0.002,0.057
		c-0.017,0.342-0.024,0.685-0.013,1.025c0.005,0.149,0.017,0.297,0.026,0.445c0.009,0.122,0.011,0.244,0.022,0.364
		c-0.001,0.014,0,0.025,0.001,0.034l-1.207,1.287c-0.572,0.611-1.621,1.424-1.302,2.198l1.32,3.203
		c0.32,0.776,1.637,0.614,2.474,0.645l1.762,0.06c0.012,0.018,0.026,0.027,0.039,0.045c0.178,0.215,0.366,0.425,0.562,0.636
		c0.069,0.074,0.141,0.138,0.211,0.21c0.144,0.146,0.289,0.29,0.438,0.432c0.074,0.063,0.151,0.13,0.226,0.197
		c0.104,0.093,0.206,0.187,0.31,0.271l0.054,1.765c0.026,0.835-0.137,2.153,0.633,2.475l3.204,1.333
		c0.772,0.322,1.587-0.723,2.198-1.293l1.292-1.202c0.014,0,0.028-0.002,0.042-0.001c0.166,0.019,0.331,0.024,0.496,0.033
		c0.05,0.004,0.098,0.004,0.145,0.01c0.078,0.003,0.152,0.009,0.227,0.012c0.088,0.002,0.176-0.001,0.265-0.001
		c0.216,0.005,0.431,0.001,0.645-0.009c0.093-0.004,0.188-0.012,0.279-0.017c0.146-0.007,0.285-0.014,0.429-0.022l1.285,1.205
		c0.612,0.575,1.423,1.621,2.197,1.301l3.204-1.319c0.775-0.32,0.615-1.634,0.645-2.474l0.061-1.759
		c0.151-0.127,0.297-0.258,0.437-0.386c0.02-0.022,0.044-0.039,0.065-0.057c0.048-0.047,0.101-0.086,0.143-0.131
		c0.086-0.075,0.159-0.159,0.236-0.234c0.111-0.111,0.23-0.225,0.343-0.343c0.164-0.176,0.33-0.36,0.489-0.553
		c0.018-0.017,0.033-0.031,0.049-0.054c0.013-0.013,0.021-0.021,0.028-0.029l1.763-0.057c0.836-0.026,2.153,0.138,2.475-0.633
		l1.334-3.205C116.458,104.148,115.412,103.329,114.843,102.719z M107.192,100.143c0,3.893-3.155,7.049-7.049,7.049
		c-3.893,0-7.049-3.156-7.049-7.049c0-3.894,3.156-7.049,7.049-7.049C104.037,93.093,107.192,96.249,107.192,100.143z"/>
</g>
<g id="Layer_4" display="none">
	<rect x="82.166" y="82.166" display="inline" fill="#00B5F4" width="35.834" height="35.834"/>
</g>
<g id="user_roles" display="none">
	<g display="inline">
		<path fill="#FFFFFF" d="M109.226,102.072c-0.069-0.307-0.239-0.597-0.508-0.832c-0.269-0.232-0.599-0.371-0.939-0.424
			l-5.486-1.061l1.588,1.053l-2.506,7.854l-1.41-5.835l-1.412,5.835l-2.503-7.854l1.586-1.053l-5.485,1.061
			c-0.342,0.053-0.67,0.191-0.94,0.425c-0.269,0.234-0.438,0.524-0.508,0.831l-1.626,7.144l3.068,1.064
			c1.018,1.059,3.869,1.838,7.289,1.912h0.532h0.531c3.42-0.074,6.271-0.854,7.29-1.912l3.067-1.064L109.226,102.072z"/>
		<polygon fill="#FFFFFF" points="99.964,100.553 98.699,101.006 99.964,102.828 101.229,101.006 		"/>
		<path fill="#FFFFFF" d="M104.658,93.519c0-3.243-1.334-5.783-4.694-5.783c-3.361,0-4.695,2.541-4.695,5.783
			c-0.351,0.183-0.582,0.614-0.237,1.536c0.174,0.463,0.481,0.851,0.741,1.054c0.958,2.384,2.841,4.225,4.19,4.225
			c1.349,0,3.232-1.841,4.189-4.225c0.262-0.203,0.567-0.591,0.742-1.054C105.24,94.132,105.01,93.702,104.658,93.519z"/>
		<path fill="#FFFFFF" d="M88.671,107.587c-1.566-0.185-2.8-0.608-3.314-1.142l-1.989-0.69l1.054-4.632
			c0.046-0.199,0.156-0.388,0.33-0.539c0.174-0.151,0.388-0.242,0.609-0.275l3.853-0.882c-0.58-0.496-1.142-1.273-1.502-2.171
			c-0.169-0.131-0.368-0.383-0.481-0.683c-0.224-0.598-0.075-0.877,0.154-0.996c0-2.102,0.864-3.749,3.043-3.749h0
			c2.179,0,3.043,1.647,3.043,3.749c0.228,0.119,0.378,0.398,0.154,0.996c-0.113,0.3-0.312,0.552-0.481,0.683
			c-0.359,0.898-0.923,1.675-1.502,2.171l1.703,0.39l-1.326,0.257c-0.489,0.076-0.94,0.283-1.307,0.599
			c-0.381,0.332-0.64,0.758-0.748,1.232L88.671,107.587z M115.505,101.123c-0.046-0.199-0.156-0.388-0.329-0.539
			c-0.175-0.151-0.388-0.242-0.609-0.275l-3.854-0.882c0.58-0.496,1.143-1.273,1.504-2.171c0.168-0.131,0.366-0.383,0.48-0.684
			c0.224-0.598,0.073-0.876-0.154-0.996c0-2.102-0.865-3.749-3.044-3.749l0,0c-2.18,0-3.044,1.647-3.044,3.749
			c-0.228,0.119-0.378,0.398-0.153,0.996c0.113,0.301,0.312,0.552,0.48,0.684c0.36,0.897,0.923,1.675,1.503,2.171l-1.704,0.39
			l1.326,0.257c0.489,0.077,0.941,0.283,1.304,0.597c0.384,0.335,0.643,0.761,0.751,1.234l1.293,5.683
			c1.566-0.185,2.801-0.608,3.314-1.142l1.989-0.69L115.505,101.123z"/>
	</g>
</g>
<g id="Layer_7">
	<rect x="82" y="82" width="36" height="36"/>
</g>
<g id="Layer_7_copy" display="none">
	<rect x="82" y="82" display="inline" fill="#0063B1" width="36" height="36"/>
</g>
<g id="question_mangt">
	<g>
		<path fill="#FFFFFF" d="M100.198,92.702c-1.354,0-2.487,0.471-3.393,1.242c-0.905,0.768-1.436,1.392-1.587,3.274h2.764
			c0.059-0.941,0.284-1.157,0.674-1.516c0.388-0.357,0.873-0.582,1.45-0.582c0.578,0,1.049,0.164,1.414,0.537
			c0.367,0.373,0.551,0.832,0.551,1.395s-0.178,1.027-0.527,1.408l-1.666,1.666c-0.488,0.487-0.59,0.878-0.734,1.175
			c-0.145,0.297-0.003,0.748-0.003,1.357v1.146h1.882v-0.783c0-0.607,0.271-1.08,0.547-1.414c0.105-0.121,0.314-0.271,0.49-0.445
			c0.174-0.176,0.422-0.379,0.672-0.617c0.252-0.234,0.471-0.429,0.623-0.581c0.154-0.153,0.381-0.412,0.672-0.778
			c0.502-0.609,0.756-1.369,0.756-2.285c0-1.325-0.424-2.355-1.273-3.094C102.654,93.07,101.553,92.702,100.198,92.702z"/>
		<path fill="#FFFFFF" d="M100.026,104.883c-0.479,0-0.891,0.17-1.235,0.504c-0.342,0.334-0.512,0.734-0.512,1.197
			c0,0.465,0.174,0.861,0.525,1.188c0.35,0.328,0.764,0.492,1.242,0.492c0.48,0,0.891-0.168,1.234-0.502
			c0.342-0.334,0.514-0.734,0.514-1.197c0-0.467-0.174-0.859-0.527-1.189C100.92,105.049,100.506,104.883,100.026,104.883z"/>
		<path fill="#FFFFFF" d="M100.082,84.042c-8.837,0-16,7.162-16,16c0,8.835,7.162,15.999,16,15.999c8.836,0,16-7.164,16-15.999
			C116.082,91.204,108.918,84.042,100.082,84.042z M100.082,113.219c-7.277,0-13.176-5.9-13.176-13.177
			c0-7.278,5.898-13.176,13.176-13.176s13.178,5.898,13.178,13.176C113.26,107.318,107.359,113.219,100.082,113.219z"/>
	</g>
</g>
</svg>
