<?xml version="1.0" encoding="utf-8"?>
<!-- Generator: Adobe Illustrator 15.1.0, SVG Export Plug-In . SVG Version: 6.00 Build 0)  -->
<!DOCTYPE svg PUBLIC "-//W3C//DTD SVG 1.1//EN" "http://www.w3.org/Graphics/SVG/1.1/DTD/svg11.dtd">
<svg version="1.1" xmlns="http://www.w3.org/2000/svg" xmlns:xlink="http://www.w3.org/1999/xlink" x="0px" y="0px" width="200px"
	 height="200px" viewBox="0 0 200 200" enable-background="new 0 0 200 200" xml:space="preserve">
<g id="Layer_6" display="none">
	<rect display="inline" fill="#0063B1" width="200" height="200"/>
</g>
<g id="branch" display="none">
	<g display="inline">
		<path fill="#FFFFFF" d="M132.105,60.081c-0.24-1.051-0.824-2.046-1.743-2.85c-0.92-0.796-2.051-1.28-3.224-1.456l-18.816-3.64
			l5.443,3.614l-8.595,26.941l-4.84-20.015L95.489,82.69L86.9,55.749l5.44-3.614l-18.818,3.64c-1.169,0.177-2.298,0.662-3.225,1.456
			c-0.92,0.803-1.5,1.798-1.74,2.85l-5.578,24.509l10.524,3.651c3.496,3.633,13.272,6.306,25.004,6.558h1.823h1.825
			c11.729-0.252,21.504-2.925,25.002-6.558l10.531-3.651L132.105,60.081z"/>
		<polygon fill="#FFFFFF" points="100.331,54.868 95.992,56.423 100.331,62.675 104.673,56.423 		"/>
		<path fill="#FFFFFF" d="M116.436,30.738c0-11.123-4.577-19.84-16.105-19.84c-11.53,0-16.108,8.717-16.108,19.84
			c-1.201,0.627-1.992,2.105-0.808,5.269c0.596,1.59,1.649,2.921,2.542,3.616c3.284,8.177,9.746,14.495,14.374,14.495
			c4.629,0,11.091-6.318,14.373-14.496c0.898-0.695,1.945-2.025,2.547-3.617C118.433,32.843,117.643,31.366,116.436,30.738z"/>
		<path fill="#FFFFFF" d="M164.693,119.662c-0.967-3.746-4.449-6.173-8.173-5.94l-4.098-9.03h-50.578v-6.52h-3.028v6.52h-50.58
			l-4.094,9.03c-3.726-0.233-7.207,2.194-8.175,5.94c-1.097,4.245,1.458,8.58,5.704,9.678c4.251,1.096,8.586-1.46,9.682-5.71
			c0.968-3.748-0.91-7.555-4.281-9.155l3.51-6.758h48.233v6.519c-3.663,0.71-6.431,3.929-6.431,7.8c0,4.388,3.557,7.943,7.945,7.943
			l0,0l0,0c4.39,0,7.943-3.556,7.943-7.943c0-3.871-2.766-7.09-6.429-7.797v-6.521h48.234l3.508,6.758
			c-3.37,1.601-5.244,5.408-4.279,9.155c1.096,4.25,5.429,6.805,9.677,5.71C163.234,128.242,165.791,123.91,164.693,119.662z
			 M48.425,122.876c-0.678,2.625-3.368,4.209-5.992,3.531c-2.627-0.677-4.21-3.366-3.534-5.99c0.677-2.627,3.365-4.211,5.992-3.533
			C47.514,117.561,49.099,120.25,48.425,122.876z M105.25,122.035c0,2.711-2.211,4.915-4.919,4.915l0,0l0,0
			c-2.714,0-4.92-2.204-4.92-4.915c0-2.712,2.205-4.919,4.92-4.919l0,0l0,0C103.039,117.116,105.25,119.323,105.25,122.035z
			 M158.229,126.407c-2.626,0.678-5.314-0.906-5.988-3.531c-0.682-2.623,0.903-5.314,3.532-5.992
			c2.625-0.678,5.313,0.907,5.988,3.533C162.441,123.045,160.858,125.73,158.229,126.407z"/>
		<g>
			<path fill="#FFFFFF" d="M56.865,166.654c-0.153-0.698-0.544-1.36-1.158-1.896c-0.613-0.533-1.365-0.853-2.145-0.972l-14.04-2.724
				c2.201-1.713,4.392-4.628,5.758-8.03c0.595-0.466,1.297-1.352,1.694-2.408c0.79-2.105,0.26-3.088-0.542-3.506
				c0-7.407-3.047-13.215-10.722-13.215c-7.677,0-10.724,5.807-10.724,13.215c-0.802,0.418-1.329,1.4-0.542,3.506
				c0.396,1.058,1.1,1.942,1.696,2.408c1.362,3.402,3.554,6.317,5.757,8.03l-14.04,2.724c-0.776,0.119-1.529,0.438-2.148,0.972
				c-0.611,0.537-0.998,1.198-1.157,1.896l-3.717,16.324l7.007,2.429c2.329,2.418,8.837,4.197,16.649,4.363h1.217h1.214
				c7.811-0.166,14.323-1.945,16.65-4.363l7.007-2.429L56.865,166.654z"/>
			<path fill="#FFFFFF" d="M186.11,166.654c-0.16-0.698-0.549-1.36-1.159-1.896c-0.617-0.533-1.37-0.853-2.146-0.972l-14.041-2.724
				c2.204-1.713,4.396-4.628,5.76-8.03c0.598-0.466,1.297-1.352,1.696-2.408c0.789-2.105,0.259-3.088-0.543-3.506
				c0-7.407-3.047-13.215-10.722-13.215c-7.679,0-10.722,5.807-10.722,13.215c-0.803,0.418-1.332,1.4-0.543,3.506
				c0.396,1.058,1.099,1.942,1.693,2.408c1.37,3.402,3.562,6.317,5.762,8.03l-14.04,2.724c-0.779,0.119-1.529,0.438-2.146,0.972
				c-0.61,0.537-1.002,1.198-1.159,1.896l-3.718,16.322l7.011,2.431c2.325,2.418,8.838,4.196,16.649,4.363h1.214h1.214
				c7.809-0.167,14.32-1.945,16.648-4.363l7.009-2.431L186.11,166.654z"/>
			<path fill="#FFFFFF" d="M121.489,166.654c-0.16-0.698-0.546-1.36-1.16-1.896c-0.615-0.533-1.367-0.853-2.15-0.972l-14.037-2.724
				c2.208-1.713,4.396-4.628,5.76-8.03c0.598-0.466,1.297-1.352,1.692-2.408c0.793-2.105,0.266-3.088-0.539-3.506
				c0-7.407-3.048-13.215-10.724-13.215c-7.678,0-10.724,5.807-10.724,13.215c-0.802,0.418-1.329,1.4-0.542,3.506
				c0.399,1.058,1.102,1.942,1.693,2.408c1.366,3.402,3.558,6.317,5.762,8.03l-14.041,2.724c-0.779,0.119-1.531,0.438-2.148,0.972
				c-0.61,0.537-0.998,1.198-1.159,1.896l-3.715,16.322l7.01,2.431c2.327,2.418,8.837,4.196,16.648,4.363h1.214h1.217
				c7.811-0.167,14.322-1.945,16.648-4.363l7.012-2.431L121.489,166.654z"/>
		</g>
	</g>
</g>
<g id="Layer_5" display="none">
	<rect display="inline" fill="#16A086" width="200" height="200"/>
</g>
<g id="Config" display="none">
	<path display="inline" fill="#FFFFFF" d="M182.377,114.71l-6.711-7.207c0.009-0.063,0.006-0.125-0.001-0.219
		c0.146-1.608,0.24-3.228,0.303-4.849c0.015-0.467-0.004-0.968,0.005-1.435c0.013-1.243-0.005-2.445-0.061-3.645
		c-0.023-0.525-0.051-1.014-0.085-1.537c-0.028-0.801-0.068-1.591-0.129-2.428l6.73-7.159c3.21-3.42,9.039-7.96,7.255-12.282
		l-7.37-17.881c-1.783-4.328-9.109-3.42-13.794-3.583l-9.826-0.354c-0.743-0.889-1.543-1.733-2.312-2.591
		c-0.03-0.031-0.065-0.082-0.102-0.127c-0.274-0.286-0.504-0.599-0.781-0.881c-0.415-0.454-0.896-0.885-1.326-1.327
		c-0.62-0.626-1.241-1.264-1.879-1.87c-1.048-1.007-2.151-1.956-3.24-2.898c-0.044-0.046-0.114-0.084-0.152-0.115
		c-0.06-0.058-0.111-0.124-0.172-0.181l-0.316-9.845c-0.145-4.661,0.771-12-3.526-13.789L127,11.064
		c-4.303-1.792-8.873,4.041-12.283,7.221l-7.203,6.725c-1.614-0.162-3.219-0.246-4.822-0.308c-0.449-0.018-0.901-0.009-1.38-0.006
		c-1.034-0.009-2.077-0.04-3.141,0.001c-1.342,0.042-2.685,0.126-4.023,0.243c-0.172,0.009-0.343,0.009-0.479,0.021
		c-0.096,0.019-0.168,0.004-0.265,0.023l-7.164-6.745c-3.415-3.193-7.96-9.04-12.282-7.258l-17.881,7.369
		c-4.328,1.782-3.413,9.125-3.584,13.797l-0.35,9.841c-0.106,0.081-0.214,0.193-0.313,0.292c-1.175,0.979-2.33,1.991-3.45,3.043
		c-0.414,0.406-0.812,0.816-1.215,1.227c-0.796,0.774-1.594,1.574-2.358,2.396c-0.391,0.428-0.753,0.859-1.132,1.295
		c-0.519,0.562-1.026,1.116-1.52,1.709l-9.85,0.301c-4.661,0.145-12-0.771-13.789,3.528l-7.446,17.885
		c-1.791,4.305,4.032,8.859,7.213,12.269l6.726,7.205c-0.109,1.115-0.158,2.224-0.22,3.353c0.001,0.104-0.017,0.214-0.014,0.318
		c-0.092,1.912-0.137,3.821-0.07,5.724c0.03,0.835,0.093,1.656,0.145,2.489c0.049,0.675,0.063,1.36,0.126,2.032
		c-0.004,0.073,0.003,0.142,0.008,0.191l-6.739,7.184c-3.194,3.408-9.046,7.941-7.265,12.262l7.368,17.881
		c1.784,4.33,9.132,3.429,13.803,3.598l9.836,0.335c0.066,0.097,0.145,0.153,0.216,0.254c0.997,1.198,2.045,2.367,3.137,3.544
		c0.383,0.413,0.79,0.769,1.179,1.174c0.801,0.813,1.609,1.617,2.443,2.401c0.411,0.355,0.844,0.729,1.26,1.111
		c0.582,0.515,1.146,1.037,1.728,1.506l0.302,9.849c0.146,4.661-0.766,12.018,3.535,13.808l17.885,7.445
		c4.306,1.793,8.858-4.034,12.268-7.216l7.21-6.711c0.079,0.003,0.155-0.008,0.235-0.007c0.928,0.104,1.847,0.14,2.77,0.186
		c0.275,0.022,0.543,0.025,0.806,0.053c0.432,0.014,0.846,0.048,1.265,0.063c0.494,0.011,0.985-0.005,1.479-0.003
		c1.204,0.028,2.406,0.003,3.597-0.052c0.521-0.018,1.052-0.058,1.564-0.087c0.81-0.034,1.591-0.074,2.389-0.122l7.176,6.721
		c3.418,3.212,7.94,9.048,12.262,7.264l17.883-7.368c4.327-1.785,3.435-9.118,3.598-13.805l0.339-9.818
		c0.844-0.703,1.655-1.436,2.439-2.15c0.109-0.128,0.236-0.217,0.356-0.319c0.273-0.259,0.566-0.476,0.803-0.726
		c0.476-0.422,0.886-0.888,1.319-1.308c0.621-0.628,1.28-1.257,1.911-1.915c0.916-0.982,1.838-2.013,2.73-3.085
		c0.102-0.095,0.181-0.176,0.269-0.302c0.074-0.066,0.12-0.109,0.162-0.161l9.84-0.316c4.663-0.146,12.02,0.766,13.81-3.534
		l7.445-17.886C191.395,122.69,185.557,118.12,182.377,114.71z M139.681,100.33c0,21.729-17.615,39.344-39.344,39.344
		s-39.344-17.615-39.344-39.344c0-21.729,17.615-39.344,39.344-39.344S139.681,78.601,139.681,100.33z"/>
</g>
<g id="Layer_4">
	<rect fill="#00B5F4" width="200" height="200"/>
</g>
<g id="user_roles">
	<g>
		<path fill="#FFFFFF" d="M151.031,111.103c-0.392-1.714-1.339-3.331-2.836-4.639c-1.505-1.298-3.341-2.08-5.245-2.368
			l-30.616-5.924l8.857,5.879l-13.983,43.834l-7.874-32.561l-7.878,32.562l-13.977-43.835l8.854-5.878l-30.616,5.925
			c-1.905,0.287-3.74,1.068-5.247,2.367c-1.497,1.307-2.445,2.927-2.834,4.639l-9.077,39.872l17.124,5.941
			c5.685,5.909,21.597,10.257,40.683,10.67h2.969h2.967c19.086-0.412,34.997-4.761,40.683-10.67l17.125-5.941L151.031,111.103z"/>
		<polygon fill="#FFFFFF" points="99.334,102.623 92.276,105.15 99.334,115.324 106.394,105.15 		"/>
		<path fill="#FFFFFF" d="M125.536,63.36c0-18.096-7.446-32.278-26.202-32.278c-18.758,0-26.201,14.183-26.201,32.278
			c-1.961,1.023-3.25,3.425-1.323,8.572c0.971,2.584,2.685,4.75,4.138,5.883c5.345,13.308,15.857,23.583,23.387,23.583
			s18.042-10.274,23.385-23.583c1.456-1.133,3.165-3.3,4.14-5.883C128.785,66.785,127.498,64.384,125.536,63.36z"/>
		<path fill="#FFFFFF" d="M36.308,141.882c-8.74-1.032-15.629-3.396-18.496-6.373l-11.103-3.854l5.885-25.853
			c0.253-1.109,0.869-2.159,1.839-3.005c0.977-0.842,2.167-1.351,3.401-1.536l21.503-4.926c-3.235-2.766-6.376-7.105-8.385-12.115
			c-0.943-0.732-2.053-2.137-2.684-3.814c-1.25-3.335-0.415-4.892,0.858-5.557c0-11.732,4.824-20.927,16.986-20.927h0.003
			c12.16,0,16.986,9.195,16.986,20.927c1.272,0.665,2.108,2.222,0.86,5.557c-0.632,1.677-1.742,3.082-2.685,3.814
			c-2.009,5.01-5.151,9.348-8.386,12.115l9.508,2.18l-7.402,1.432c-2.731,0.426-5.249,1.578-7.294,3.346
			c-2.125,1.855-3.571,4.233-4.173,6.874L36.308,141.882z M186.074,105.803c-0.255-1.109-0.869-2.161-1.84-3.006
			c-0.974-0.842-2.164-1.352-3.4-1.536l-21.501-4.925c3.233-2.768,6.375-7.105,8.386-12.115c0.944-0.734,2.052-2.138,2.683-3.815
			c1.25-3.335,0.415-4.892-0.857-5.558c0-11.731-4.829-20.926-16.989-20.926l0,0c-12.162,0-16.988,9.195-16.988,20.926
			c-1.271,0.666-2.107,2.222-0.857,5.558c0.63,1.677,1.74,3.081,2.683,3.815c2.011,5.009,5.152,9.348,8.387,12.115l-9.509,2.179
			l7.401,1.432c2.729,0.426,5.249,1.578,7.276,3.327c2.144,1.873,3.586,4.252,4.188,6.89l7.221,31.719
			c8.74-1.032,15.631-3.396,18.497-6.373l11.103-3.854L186.074,105.803z"/>
	</g>
</g>
</svg>
