<?xml version="1.0" encoding="utf-8"?>
<!-- Generator: Adobe Illustrator 19.0.0, SVG Export Plug-In . SVG Version: 6.00 Build 0)  -->
<svg version="1.1" id="Layer_1" xmlns="http://www.w3.org/2000/svg" xmlns:xlink="http://www.w3.org/1999/xlink" x="0px" y="0px"
	 viewBox="0 0 100 100" style="enable-background:new 0 0 100 100;" xml:space="preserve">
<style type="text/css">
	.st0{fill-rule:evenodd;clip-rule:evenodd;}
</style>
<g id="XMLID_111_">
	<path id="XMLID_112_" class="st0" d="M50,94.8c-24.7,0-44.8-20-44.8-44.7c0-24.7,20-44.8,44.8-44.8c24.7,0,44.7,20,44.7,44.8
		C94.8,74.7,74.7,94.8,50,94.8z M75,23.8c-0.1,0-0.3,0-0.4,0c0-0.2-0.1-0.3-0.1-0.5c0,0,0-0.1,0.1-0.1c-0.1-0.1-0.3-0.2-0.4-0.4
		c0,0,0,0,0,0c0,0.1-0.1,0.1-0.1,0.2c0,0.1,0,0.2,0,0.3c0,0.2,0,0.4,0,0.5c0.1,0.4,0.2,0.2,0.4,0.4c0,0.1-0.1,0.1-0.1,0.2
		c0,0.1,0,0.2-0.1,0.2c-0.1,0.1-0.3,0.3-0.4,0.4c-0.1,0.1-0.2,0.1-0.3,0.2c0,0.1,0,0.1,0.1,0.2c-0.1,0-0.2,0.1-0.3,0.1
		c-0.1,0-0.1,0-0.2-0.1c-0.2-0.1-0.4-0.1-0.5,0c0.1,0.2,0.4,0.3,0.7,0.3c0.1,0,0.1,0,0.2,0c0.1,0,0.2,0.1,0.4,0
		c0.1-0.2,0.4-0.3,0.6-0.4c0.1-0.1,0.1-0.2,0.1-0.3c0,0,0.1-0.1,0.1-0.1c0.1-0.1,0.1-0.1,0.2-0.2c0-0.2-0.1-0.3-0.2-0.4
		c0-0.3,0.4-0.3,0.7-0.3c-0.1-0.1-0.2-0.2-0.3-0.3C75.1,23.8,75.1,23.8,75,23.8z M76.2,24.8c0,0-0.1,0-0.1,0c0,0,0,0,0,0
		c0,0,0-0.1,0-0.1c-0.1-0.1-0.1-0.1-0.2-0.2c0,0.2,0,0.4,0,0.4c0,0.1,0.3,0.2,0.5,0.1C76.3,24.9,76.2,24.8,76.2,24.8z M86,55.2
		c0.1-0.8,0.2-1.5,0.3-2.3c0,0,0,0,0,0c-0.1-0.1-0.1-0.1-0.2-0.2c-0.1-0.1-0.2,0-0.3,0c-0.1,0-0.1,0-0.2,0c0-0.1,0-0.2,0-0.3
		c-0.2,0-0.3,0-0.4,0.1c0.1,0.1,0,0.2,0,0.3c0,0.1,0,0.1,0,0.2c-0.1,0.3-0.5,0.8-0.3,1.2c0.1,0,0.2,0,0.2,0c0,0.1,0,0.2,0.1,0.3
		c0,0,0,0,0.1,0c0.1,0.4,0,0.7,0.5,0.7C85.9,55.1,85.9,55.1,86,55.2z M14.9,58.8c0.1-0.3,0-0.5,0.3-0.6c0,0,0.1-0.1,0.1-0.1
		c0.1,0,0.1,0,0.1,0.1c0,0,0,0,0.1-0.1c0-0.1,0-0.2,0.1-0.2c0.1,0.1,0.4,0,0.5-0.1c0-0.1-0.2-0.2-0.1-0.3c0-0.1,0.1-0.1,0.2,0
		c0,0,0,0,0,0c0,0-0.1,0-0.1-0.1c0,0-0.1,0.1-0.2,0.1c-0.1-0.2-0.2-0.3-0.5-0.2c0,0,0,0.1,0,0.1c-0.1,0-0.2,0.1-0.3,0.2
		c0.1,0.1,0.2,0.1,0.2,0.3c-0.1,0-0.2,0.1-0.3,0.1c0,0,0,0,0,0c0-0.1-0.1-0.2-0.1-0.2c0,0,0,0,0,0c0,0,0,0.1,0,0.1
		c-0.1,0-0.2-0.1-0.2-0.2c0,0,0,0,0,0c0.1,0.4,0.2,0.8,0.3,1.3C14.8,58.8,14.8,58.8,14.9,58.8z M16.4,44.3
		C16.4,44.3,16.4,44.3,16.4,44.3C16.4,44.3,16.4,44.3,16.4,44.3C16.4,44.3,16.4,44.3,16.4,44.3z M15.7,37.9
		C15.7,37.9,15.7,38,15.7,37.9C15.7,37.9,15.7,37.9,15.7,37.9C15.7,37.9,15.7,37.9,15.7,37.9z M25.8,23.8
		C25.8,23.8,25.8,23.8,25.8,23.8c-0.2,0-0.2,0-0.3,0c0,0,0,0,0,0c0,0,0,0,0,0C25.6,23.8,25.7,23.8,25.8,23.8
		C25.7,23.8,25.7,23.8,25.8,23.8c-0.1-0.1-0.3-0.1-0.3-0.2c0.1,0,0.2,0,0.2,0c0-0.1-0.4-0.1-0.4-0.2c0,0,0,0,0,0c0,0,0,0,0,0
		c0.1,0,0.3,0.1,0.3,0c0,0-0.1-0.1-0.2-0.1c0,0,0,0-0.1,0c0,0,0,0,0,0c-0.1,0.1-0.3,0.2-0.4,0.4c0.1,0,0.2,0.1,0.3,0.1
		c0.1,0,0.1,0.1,0.2,0.1c0,0,0.3,0,0.3,0C25.8,23.9,25.9,23.9,25.8,23.8C25.8,23.8,25.8,23.8,25.8,23.8z M24.2,24.4
		C24.1,24.5,24.1,24.5,24.2,24.4C24.1,24.5,24.2,24.5,24.2,24.4C24.2,24.5,24.2,24.4,24.2,24.4z M34.3,17.3
		C34.3,17.3,34.3,17.3,34.3,17.3c0.1,0.1,0.2,0.1,0.2,0.1c0,0,0,0,0,0c0,0,0,0,0,0C34.4,17.4,34.3,17.4,34.3,17.3
		C34.3,17.3,34.2,17.3,34.3,17.3c-0.1,0.1-0.2,0.1-0.3,0.1c0,0,0.1,0,0.1,0c0,0,0,0.1,0,0.1c0,0-0.1,0.1-0.2,0.1
		c-0.1,0-0.1,0.1-0.2,0.1c0,0,0,0,0,0c0.1,0,0.1,0,0.2-0.1c0,0,0.1-0.1,0.1-0.1c0,0,0.1,0,0.1,0c0.1,0,0.2,0,0.3,0c0,0,0,0.1,0,0.1
		c0.1,0.1,0.2,0.1,0.3,0.2c0,0.1,0,0.2-0.1,0.2c0,0-0.1,0-0.1-0.1c-0.1,0-0.1,0-0.2,0.1c-0.1,0-0.2,0-0.2,0c-0.1,0-0.2,0-0.3,0
		c0,0,0,0,0,0c0,0,0.1,0,0.1,0.1c0,0,0,0-0.1,0.1c0.1,0,0.2,0,0.3,0c0.1,0,0.1,0,0.2,0c0,0,0.1,0,0.1,0c0,0,0,0,0,0
		c-0.1,0-0.1,0.1-0.1,0.1c0,0,0,0,0,0.1c0,0,0,0,0,0c-0.1,0-0.2,0-0.3,0c0.1,0,0.2,0.1,0.4,0c0.1-0.1,0-0.1,0.2-0.2
		c0,0.1,0.1,0.1,0.1,0.2c0,0,0,0.1,0,0.1c0,0,0.1,0,0.1-0.1c0.1,0,0.2-0.1,0.3-0.1c0.1,0,0.2,0,0.2,0.1c0,0.1-0.1,0.2-0.2,0.2
		c0,0,0,0-0.1,0c-0.1,0-0.1,0-0.2,0c-0.1,0-0.2,0.1-0.3,0.1c-0.1,0-0.1,0-0.2,0c0,0,0,0,0,0c0,0,0.2,0.1,0.2,0.2c0,0-0.1,0-0.1,0
		c0,0,0.1,0,0.1,0c0,0,0,0.1,0,0.2c0,0,0,0,0,0c0.1,0,0.2,0,0.2,0c0,0,0,0,0,0c0,0,0,0,0,0c0-0.1,0.3,0,0.4,0c0.1,0,0.1,0,0.1,0
		c0.1,0,0.2,0.2,0.2,0.3c0,0-0.2,0.1-0.2,0.1c0,0,0,0-0.1,0c0,0.1-0.1,0.2-0.2,0.3c0,0-0.1,0-0.1,0c-0.1,0-0.2,0-0.3,0
		c-0.1,0-0.1-0.1-0.2-0.1c0,0,0,0,0,0c0-0.1,0.3,0,0.3,0c0,0,0.1,0,0.1-0.1c0,0,0,0-0.1,0c0,0-0.1,0-0.1,0c0,0-0.1,0-0.1,0
		c-0.1,0-0.4,0.1-0.3,0.2c0,0,0,0,0,0c-0.1,0-0.2,0-0.3,0c0,0,0.1,0.1,0.2,0.1c0,0,0,0,0,0c-0.1,0-0.2,0.1-0.2,0.1c0,0,0,0,0,0.1
		c0,0-0.1,0.1-0.1,0.2c-0.1,0-0.2,0-0.3,0c0,0,0,0,0,0c0,0,0,0,0,0c0,0,0.1,0,0.1,0.1c0,0.1-0.3,0.1-0.1,0.2c0,0,0,0,0.1,0
		c0-0.1,0-0.1,0.1-0.2c0,0,0.1,0,0.1-0.1c0.1,0,0.1,0,0.1,0c0.1,0,0.2,0,0.3,0.1c0,0,0,0,0,0c-0.1,0-0.1,0.2-0.2,0.2
		c-0.1,0-0.2,0-0.2,0c0,0,0,0,0,0c0.1,0,0.2,0,0.2,0.1c0,0,0,0,0,0c0,0,0-0.1,0.1-0.1c0,0,0,0,0.1-0.1c0,0,0-0.1,0.1-0.1
		c0.1,0,0.1,0,0.2,0.1c0.1,0,0.1,0,0.2,0.1c0,0-0.1,0.1-0.1,0.2c0,0-0.1,0-0.1,0c0,0.1,0.1,0.1,0.1,0.1c0,0,0,0,0,0
		c0,0,0.1-0.1,0.1-0.1c0,0,0-0.1,0.1-0.1c0.1,0,0.3,0,0.4,0c0.1,0.1,0.1,0.1,0.3,0.1c0.1,0,0.1,0,0.2,0c0,0,0,0,0,0c0,0,0,0,0,0
		c0,0,0,0,0,0c0,0,0,0,0,0.1c0.1,0,0.1,0,0.1,0.1c0,0,0,0,0,0c0,0,0.1-0.1,0.1-0.1c0,0.1,0,0.1,0.1,0.2c0,0,0,0.1,0,0.1c0,0,0,0,0,0
		c0,0,0,0,0,0c0-0.1,0-0.1,0.1-0.2c0,0,0,0,0,0c0.2,0.1,0.2,0.1,0.2,0.3c0,0,0,0,0,0c0,0,0,0,0.1,0c0,0,0,0,0,0.1
		c0.2,0,0.1,0.1,0.1,0.1c0,0,0.1,0,0.1,0c0,0,0,0,0.1,0c0,0,0,0,0,0c0.1,0,0.2,0.1,0.2,0.2c0,0,0,0-0.1,0.1c0,0-0.1,0-0.1,0
		c-0.1,0-0.3-0.2-0.3-0.2c0,0,0,0,0,0c0,0.1,0.2,0.2,0.1,0.2c0,0,0,0-0.1,0c-0.1,0.1-0.2,0.1-0.4,0.1c-0.1,0-0.2,0-0.3-0.1
		c0,0,0-0.1-0.1-0.1c0,0,0,0-0.1,0c0,0,0-0.1-0.1-0.1c0,0-0.1,0-0.1,0c-0.1,0-0.1-0.1-0.2-0.1c0,0,0,0-0.1,0.1
		c-0.1,0-0.2-0.1-0.4-0.1c-0.2,0-0.2,0.1-0.4,0.1c-0.2-0.1-0.4-0.1-0.5-0.2c0,0-0.2,0-0.2,0c0,0-0.1,0-0.1,0c0,0.1,0.1,0.1,0.2,0.1
		c0,0,0.1,0,0.1,0c0.1,0,0.3,0,0.3,0.1c0,0.1-0.1,0.1-0.2,0.1c0,0,0,0,0,0c0,0,0,0,0,0c0,0,0.1-0.1,0.2-0.1c0.1,0,0.1,0,0.2,0
		c0-0.1,0.1-0.1,0.3-0.1c0.1,0,0.1-0.1,0.3-0.1c0,0,0.1,0,0.1,0c0,0,0.1,0.1,0.1,0.1c0,0.1-0.2,0.2-0.2,0.3c-0.1,0-0.1,0.1-0.2,0.1
		c0,0,0,0,0,0c-0.1,0-0.3,0.1-0.4,0.1c0.1,0,0.1,0,0.2,0.1c0.1,0.1-0.3,0.3-0.2,0.4c0,0,0,0,0,0c0,0,0,0,0,0c0,0,0.1-0.1,0.2-0.1
		c0,0,0,0,0.1,0.1c0.2,0,0.3-0.1,0.4-0.2c0.1,0,0.1,0,0.2,0c0,0,0,0,0.1,0c0,0,0.1,0,0.1,0.1c0,0-0.2,0.1-0.2,0.1
		c-0.1,0,0,0.1-0.1,0.2c0,0-0.1,0-0.1,0c-0.1,0-0.1,0-0.2,0.1c0,0,0,0,0,0c0.1,0,0.2-0.1,0.2,0c0,0,0,0,0,0c0.1,0,0.2,0,0.2,0
		c0.1,0,0.1-0.1,0.1-0.1c0.1-0.1,0.1-0.1,0.1-0.2c0.1-0.1,0.2-0.2,0.3-0.3c0,0,0,0,0,0c0,0,0,0,0,0.1c0.1,0,0.3-0.1,0.4-0.1
		c0.1,0,0.2,0,0.2,0c0.1,0,0.2,0,0.3-0.1c0.1,0,0.2-0.1,0.2-0.1c0,0,0-0.1,0.1-0.1c0,0.1,0,0.1,0,0.2c0,0,0,0-0.1,0
		c-0.1,0-0.2,0.1-0.1,0.2c0,0,0.1,0,0.1,0.1c0,0,0,0,0,0c0,0-0.1,0-0.1,0c0,0,0,0,0,0c0,0,0,0,0,0c0,0,0,0,0.1,0
		c-0.1,0.1-0.4,0.2-0.3,0.3c0,0,0.1,0.1,0.1,0.1c0,0,0,0,0,0c-0.1,0-0.2,0-0.2,0.1c0,0,0.1,0.1,0.1,0.1c0,0.1-0.2,0.1-0.2,0.1
		c0,0,0.1,0,0.1,0.1c0,0-0.1,0.1-0.1,0.1c0,0,0.1,0.1,0.1,0.1c0,0,0,0,0,0c0,0,0,0,0,0c-0.1,0-0.1,0-0.1,0.1c0,0,0,0,0,0
		c0,0.1-0.1,0-0.1,0.1c0,0,0,0,0,0c0,0,0,0-0.1,0c0,0.1-0.2,0.2-0.2,0.2c0,0,0,0.1-0.1,0.1c0,0-0.1,0-0.1,0.1
		c-0.1,0-0.1,0.1-0.2,0.1c-0.1,0-0.1,0-0.2,0.1c-0.1,0,0,0.1-0.1,0.2c-0.1,0-0.2,0-0.2-0.1c0,0,0,0,0,0c0,0.1,0.1,0.1,0.1,0.2
		c0,0-0.1,0.1-0.2,0c-0.1-0.1-0.1,0-0.2,0c0,0,0.2,0.1,0.2,0.1c0,0-0.2,0.1-0.3,0.1c-0.1,0-0.1,0-0.2-0.1c-0.1,0-0.1,0-0.2,0
		c-0.1,0-0.3,0-0.3-0.1c0,0,0,0,0,0c0,0,0,0,0,0.1c0,0,0.3,0.1,0.2,0.2c0,0,0,0-0.1,0c0,0,0,0,0,0c0,0,0.1,0,0.1,0
		c0.1,0.1-0.1,0.2-0.1,0.2c0,0,0,0,0,0.1c0,0.1-0.2,0.1-0.2,0.1c0,0.1,0,0.1,0,0.2c0,0-0.1,0.1-0.1,0.1c0,0,0,0.1,0,0.2
		c0,0,0,0,0.1,0c0,0.1-0.1,0.1-0.1,0.1c0,0,0,0,0,0c0,0,0,0.1,0,0.1c0,0,0,0.1-0.1,0.1c0,0.1-0.1,0.2-0.1,0.3c0,0-0.1,0.1-0.1,0.1
		c0,0-0.1,0-0.1-0.1c-0.1,0-0.3,0-0.3,0c0,0.1,0.2,0.1,0.2,0.1c0,0-0.1,0.1-0.1,0.1c0,0,0,0.1,0,0.1c0,0.1-0.2,0-0.3,0c0,0,0,0,0,0
		c0,0,0,0,0,0c0,0.1-0.1,0.2-0.2,0.2c0,0,0,0,0,0c-0.1,0-0.1-0.1-0.1-0.1c0,0,0,0,0,0c0,0.1-0.1,0.1-0.2,0.1c0,0,0,0.1,0,0.2
		c0,0,0,0,0,0c-0.1,0-0.1,0-0.1,0c-0.1,0,0-0.1,0-0.1c0,0,0,0,0,0c0,0,0.1-0.1,0.1-0.1c0-0.1,0-0.1,0.1-0.2c-0.1,0-0.2,0-0.3,0
		c0,0,0.1,0.1,0,0.1c0,0,0,0,0,0c0,0,0,0,0,0c0,0.1-0.1,0.1-0.2,0.2c0,0-0.1,0-0.1,0.1c0,0.1,0.4,0.1,0.2,0.2c0,0,0,0-0.1,0
		c-0.1,0,0,0.1-0.1,0.1c0,0-0.2,0-0.2,0c0,0,0,0,0,0c0,0,0,0,0,0c0,0-0.1,0-0.1-0.1c0,0,0,0,0,0c0,0.1,0,0.1,0.1,0.2c0,0,0,0,0,0
		c0,0,0,0,0,0c-0.1,0-0.1,0-0.1-0.1c0,0,0,0,0,0c0,0,0,0,0,0c0,0.1,0,0.1-0.2,0.2c0,0,0,0,0,0c0,0,0,0,0,0c0.1,0,0.2,0,0.3,0
		c0.1,0.1,0,0.2,0,0.3c0,0-0.1,0-0.1,0.1c-0.2,0-0.2-0.1-0.4,0c0,0,0,0,0.1,0c0,0.1,0.2,0.1,0.3,0.1c0,0,0,0,0.1,0c0,0,0,0,0,0.1
		c0,0,0,0,0.1,0c0,0,0,0.1,0,0.1c0,0,0.1,0,0.1,0.1c-0.1,0-0.1,0-0.2,0c-0.1,0-0.1,0.1-0.2,0.1c0,0-0.1,0-0.1,0.1
		c0.1,0,0.1,0,0.2,0.1c0,0,0.1,0,0.1,0c0,0,0,0,0.1,0.1c0,0,0.1,0,0.1,0.1c0,0,0.1,0.1,0.1,0.1c0,0-0.1,0-0.1,0c-0.1,0-0.1,0-0.2,0
		c-0.1,0-0.1,0-0.2,0c0,0,0,0,0,0c0,0,0,0,0.1,0c0,0,0.1,0,0.1,0c0.1,0,0.2,0,0.3,0c0,0,0,0.1,0,0.1c0,0-0.1,0-0.1,0
		c0,0,0,0.1,0,0.1c0,0-0.1,0-0.1,0c0,0,0,0,0,0c0,0,0.1,0,0.1,0.1c0,0,0,0,0,0.1c-0.1,0-0.1,0-0.2,0c0,0,0,0,0,0
		c0,0,0.1,0.1,0.2,0.1c0,0,0,0,0,0c0,0,0,0,0,0c-0.1,0-0.2,0-0.3-0.1c0,0,0,0,0,0c-0.1,0.1,0,0.1,0.1,0.2c0,0,0,0,0,0.1c0,0,0,0,0,0
		c0,0-0.1,0-0.2,0.1c-0.1,0-0.1,0.1-0.2,0.1c0,0,0,0.1,0.1,0.1c0,0,0.1,0,0.2,0.1c0,0,0,0,0,0c0,0,0,0,0,0c-0.1,0-0.3-0.1-0.4,0
		c0.1,0.1,0.2,0.1,0.4,0.1c0,0.1,0.1,0.1,0.1,0.2c0,0.1-0.1,0.2-0.2,0.2c0,0,0,0,0,0c0,0,0.1,0,0.2,0c0,0,0,0,0,0c0,0,0,0.1-0.1,0.1
		c0,0,0,0.2,0,0.2c0,0,0,0,0,0c-0.1,0-0.2-0.1-0.3,0c0,0,0,0,0,0.1c0,0.1,0.2,0,0.3,0.1c0,0,0,0,0,0c-0.1,0.1,0,0.1-0.1,0.2
		c0,0-0.1,0-0.1,0c0,0,0,0,0,0c0,0,0.1,0,0.1,0c-0.1,0-0.2,0-0.3,0c0,0.1,0.1,0.1,0.2,0.1c0.1,0,0.1,0,0.1-0.1c0,0,0.1,0,0.1,0
		c0,0.1-0.4,0.2-0.6,0.3c0,0.1,0.1,0.1,0.2,0.1c0,0,0.1,0,0.1-0.1c0,0.1,0.1,0.1,0.1,0.2c0,0,0,0,0,0c0,0-0.1,0-0.2,0
		c-0.1,0-0.1,0-0.2,0c-0.1,0-0.2-0.1-0.3,0c-0.1,0-0.1,0.2-0.2,0.2c0,0,0,0,0,0c-0.1,0-0.1-0.1-0.1-0.1c-0.1,0-0.2,0.1-0.2,0.1
		c-0.1-0.1,0.2-0.2,0.1-0.3c0,0,0,0,0,0c0-0.1,0.1-0.1,0.1-0.2c0,0-0.1,0-0.1,0.1c0,0-0.1,0.1-0.2,0.1c-0.1-0.1,0-0.1,0-0.2
		c0,0-0.1-0.1-0.1,0c-0.1,0,0,0.1-0.1,0.2c0,0,0,0,0,0c0,0,0,0-0.1-0.1c0,0-0.1,0-0.1,0c0,0,0,0,0,0c0,0,0.1-0.1,0.1-0.1
		c0,0,0-0.1,0-0.1c0,0,0.1,0,0.1-0.1c0,0-0.1,0-0.1-0.1c0,0,0,0,0-0.1c0,0-0.1,0.1-0.1,0.1c0,0-0.1,0-0.1,0c0,0-0.1,0.1-0.1,0.1
		c0-0.1,0.1-0.1,0.2-0.2c0,0,0,0,0,0c0,0,0-0.1-0.1-0.1c-0.1,0-0.2,0.1-0.1,0.1c0,0.1-0.1,0.1-0.2,0.1c0,0.1-0.1,0-0.1,0
		c0,0-0.1,0-0.1,0.1c-0.1,0-0.1,0-0.1,0c0,0,0,0,0,0c0,0,0,0,0,0c0,0,0,0,0,0c0,0,0,0,0,0c0,0,0,0-0.1,0c0,0-0.1,0-0.1,0
		c0,0,0,0,0,0c0,0,0,0,0,0c-0.1,0-0.3,0-0.4,0c0.1,0,0.2-0.1,0.2-0.1c0,0,0-0.1,0-0.1c0,0,0,0,0,0c-0.1,0-0.1,0.1-0.1,0.1
		c0,0,0,0,0,0c-0.1-0.1,0.1-0.1,0-0.2c-0.1-0.1-0.3,0-0.4-0.1c0.1,0,0.2,0,0.2-0.1c0,0,0,0,0,0c-0.1,0-0.1,0-0.2,0.1c0,0,0,0-0.1,0
		c0,0,0,0,0,0c-0.1,0.1-0.2,0-0.3,0c0,0,0.1,0,0.1-0.1c0,0-0.1,0-0.1-0.1c0-0.1,0.2-0.1,0.2-0.2c-0.1,0-0.2,0.1-0.3,0.1
		c0-0.1,0.1-0.1,0.1-0.1c0,0,0,0,0.1,0c0,0,0,0,0,0c0,0-0.1,0-0.2,0.1c0,0-0.1,0-0.1,0c0,0,0,0,0,0c0,0,0.1,0,0.1-0.1
		c0,0,0-0.1,0-0.1c-0.1,0-0.1,0-0.2,0c-0.1,0-0.1,0-0.2,0c-0.1,0-0.1-0.1-0.1-0.2c0.1-0.1,0.1-0.2,0.2-0.3c0,0,0.1-0.1,0.1-0.1
		c0,0,0,0,0,0c-0.1,0.1-0.1,0.2-0.3,0.2c0,0,0,0,0,0c0,0,0-0.1,0-0.1c0,0,0,0,0,0c-0.1,0-0.1,0-0.2,0c-0.1-0.1,0.1-0.1,0.1-0.2
		c0-0.1-0.1-0.1-0.2-0.1c-0.1,0-0.2,0.1-0.2,0.1c0,0,0,0,0,0c0.1-0.1,0.2-0.2,0.3-0.2c-0.1,0-0.1,0-0.2,0c-0.1,0-0.1,0.1-0.3,0.1
		c0-0.1,0-0.1-0.1-0.2c0,0,0,0,0,0c0.1,0,0.1,0,0.1,0c0,0,0,0,0,0c0,0,0,0,0,0c0-0.1-0.1-0.1-0.1-0.1c0.1,0,0.1,0,0.2,0
		c0.1,0,0.2-0.1,0.4-0.1c0,0,0.1,0,0.1,0c0,0-0.1,0-0.1-0.1c0,0,0,0-0.1,0c-0.1,0.1-0.2,0.1-0.4,0.2c-0.1,0-0.2,0-0.3,0
		c0,0,0.1,0,0.1-0.1c0.1,0,0.2-0.1,0.3-0.1c0,0,0.1,0,0.1-0.1c0,0-0.1-0.1-0.1-0.1c0,0,0,0,0,0c0,0,0.1-0.1,0.2-0.1
		c0.1,0,0.1,0.1,0.1,0.1c0.1,0.1,0.2,0.1,0.4,0.1c0,0,0,0,0,0c0,0-0.1-0.1-0.1-0.1c0,0-0.1,0-0.1,0c0,0-0.1-0.2-0.1-0.2
		c-0.1,0-0.1,0-0.2,0c-0.1,0-0.1-0.1-0.1-0.1c0,0,0,0,0-0.1c0,0-0.1,0-0.1-0.1c0,0,0,0,0,0c0,0,0,0.1,0,0.2c0,0.1,0,0.1,0,0.2
		c0,0,0,0,0,0.1c0,0,0,0,0,0c0,0-0.1-0.1-0.1-0.1c0,0,0,0,0,0c0,0-0.1,0.1-0.1,0.1c0,0,0,0,0,0.1c0,0.1-0.1,0.1-0.2,0.2
		c0,0-0.1,0.1-0.1,0.1c0,0,0,0,0,0c0,0,0-0.1,0-0.2c0.1-0.1-0.1-0.3,0.2-0.4c0,0,0-0.1-0.1-0.1c-0.1,0-0.2,0-0.2,0c0,0,0,0,0,0
		c0,0,0-0.1,0.1-0.1c0,0,0,0,0-0.1c0,0-0.1,0-0.1,0c0,0-0.1,0-0.1-0.1c0.1-0.1,0.2-0.1,0.3-0.2c0,0,0,0,0,0c0,0,0,0,0,0c0,0,0,0,0,0
		c-0.1,0-0.2,0.1-0.3,0.1c0,0,0,0,0,0c0,0,0.1-0.2-0.1-0.2c0,0.1-0.2,0.1-0.2,0c0,0,0,0,0,0c0.1,0,0.2-0.1,0.2-0.2
		c-0.1,0-0.2,0.1-0.3,0c0,0,0,0,0-0.1c0,0,0.1-0.1,0.2-0.1c0.2-0.1,0.3-0.2,0.5-0.3c0,0,0,0,0,0c0.1,0,0.1,0,0.2-0.1c0,0,0,0,0,0
		c0.1,0,0.2-0.1,0.2-0.1c0.1,0,0.3,0,0.4-0.1c0,0,0.1-0.1,0.1-0.1c0,0-0.1,0-0.1,0c0,0-0.1,0-0.1,0c-0.1,0-0.1,0-0.2,0
		c-0.1,0-0.1,0-0.2,0.1c-0.1,0-0.2,0.1-0.2,0.1c-0.1,0.1-0.1,0.1-0.2,0.2c0,0-0.1,0-0.1,0C25,27,24.9,27,24.8,27.1
		c0,0-0.1,0.1-0.2,0.1c-0.1,0-0.1,0-0.1,0c0,0,0.1,0,0.1-0.1c0,0-0.1,0-0.1,0c-0.1,0,0-0.1,0.1-0.2c0.1,0,0.1,0,0.2,0
		c0,0,0.2-0.1,0.2-0.1c-0.1,0-0.3,0-0.3-0.1c0,0,0,0,0,0c0.1-0.1,0.4,0,0.5-0.1c0.1,0,0-0.1-0.1-0.1c0,0,0,0-0.1,0c0,0-0.3,0-0.3,0
		c0,0,0-0.1-0.1-0.1c0,0-0.1,0-0.2,0c0.1,0,0.1,0,0.2-0.1c0.3-0.1,0.6-0.1,0.8-0.1c0.1,0,0.1,0,0.2,0c-0.1-0.1-0.1-0.1-0.2-0.1
		c0,0-0.1,0-0.1,0c0,0-0.1,0-0.1,0c0,0-0.1,0-0.1,0c-0.2,0-0.6,0.1-0.7,0.1c0,0,0.1-0.1,0.1-0.1c0,0,0.1,0,0.1,0
		c0.1,0,0.1-0.1,0.2-0.1c0,0,0.1-0.1,0.2-0.1c0.1,0,0.1,0,0.2,0c0.1,0,0.3,0,0.4,0c0,0-0.1,0-0.1-0.1c0-0.1,0.1-0.1,0.1-0.1
		c0,0,0,0,0,0c-0.1,0-0.1,0-0.2,0c0,0,0,0,0,0c0.1,0,0,0.1-0.1,0.1c0,0-0.1,0-0.1,0c-0.1,0-0.2,0-0.2,0c0,0,0,0,0-0.1
		c-0.1,0-0.2,0.1-0.3,0.1c0,0-0.1,0-0.1,0c-0.1,0-0.1,0.2-0.3,0.2c0,0,0,0,0,0c0,0,0.1-0.1,0.1-0.1c0.1-0.1,0-0.2,0.2-0.2
		c0.1,0,0.2,0,0.3,0c0,0,0,0,0,0c-0.1,0-0.3,0-0.3-0.1c0,0,0,0,0,0c0,0,0,0,0,0c0.1,0,0.2,0,0.3,0c0.1,0,0.1,0,0.2,0
		c0.1,0,0.1,0,0.2,0c0.1,0,0.2,0,0.3,0c0,0,0,0,0,0c0-0.1-0.3-0.1-0.3-0.2c0-0.1,0.1-0.1,0.1-0.1c0,0-0.1,0-0.2,0c0,0,0,0,0,0
		c0,0,0,0,0,0c0,0,0,0,0,0c-0.1,0-0.1,0-0.2,0.1c-0.1,0-0.2,0-0.2,0c0,0-0.1,0-0.1,0c-0.1,0-0.1,0-0.2,0c0,0-0.1,0-0.2,0
		c0.2-0.1,0.2-0.2,0.4-0.2c0.1,0,0.2,0,0.2,0c0.1,0,0.2-0.1,0.3-0.1c0,0,0.1,0,0.1,0c0.1,0,0.1-0.1,0-0.1c-0.1,0-0.1,0.1-0.2,0.1
		c0,0,0.1-0.1,0.1-0.1c0,0,0,0,0-0.1c0,0,0,0,0,0c0,0,0.1-0.1,0.1-0.1c0.1,0,0.2,0,0.3-0.1c0,0,0,0,0,0c0,0,0,0,0,0c0,0,0,0-0.1,0
		c0,0,0,0-0.1-0.1c-0.1,0-0.1,0.1-0.2,0.1c0,0,0,0,0,0c0,0,0.1,0,0.1-0.1c0,0,0-0.1,0-0.1c0,0,0,0,0.1,0c0,0,0,0,0,0c0,0,0,0-0.1,0
		c0,0,0-0.1,0-0.1c0,0,0.1,0,0.1,0c0,0,0,0-0.1-0.1c0,0,0,0,0.1,0c0,0,0-0.1,0-0.1c0,0,0.1-0.1,0.1-0.1c0,0-0.1,0-0.1,0
		c-0.1,0-0.1,0.1-0.2,0.1c0,0,0,0,0,0c0,0,0,0,0,0c0,0,0,0,0,0c0,0,0,0,0,0c-0.1,0-0.1,0-0.1,0.1c0,0,0,0-0.1,0
		c-0.1,0-0.2,0-0.3-0.1C25,24.1,24.9,24,24.8,24c0,0-0.1,0-0.1,0c0,0,0,0,0,0c0,0,0,0-0.1,0c0,0,0,0-0.1,0.1c0.1,0,0.2,0.1,0.3,0.1
		c0.1,0.1,0.1,0.1,0.2,0.1c0.1,0,0.3,0.1,0.3,0.2c0,0.1-0.2,0.2-0.3,0.2c-0.1,0-0.1,0-0.2,0c-0.1,0-0.1,0-0.2,0.1
		c-0.1,0-0.3-0.1-0.3-0.1c0,0,0.1-0.1,0.1-0.1c0.1,0,0.1,0,0.1,0c0,0,0,0,0,0c0,0-0.1,0-0.1,0c0,0,0,0,0,0c0,0,0,0,0,0
		c0,0-0.1,0-0.1,0c-0.1,0-0.1,0-0.2,0c0,0-0.1,0-0.1,0c-1,1-1.9,2.1-2.8,3.2c0,0,0.1,0,0.1,0c0.1,0.1,0.3,0.2,0.4,0.4c0,0,0,0,0,0
		c-0.1,0-0.2,0-0.3,0.1c0,0,0,0.1,0,0.1c0.3,0,0.5-0.1,0.7,0c0,0.1,0,0.1-0.1,0.2c0.2,0,0.3,0,0.4-0.1c0.1,0.1,0.2,0.2,0.4,0.3
		c0,0,0,0,0,0c0,0-0.1,0.2-0.1,0.2c-0.2,0.1-0.2-0.1-0.5,0c0,0,0,0,0,0c0.1,0,0.2,0.1,0.2,0.3c-0.2,0-0.3,0.1-0.3,0.2
		c-0.1,0-0.2-0.1-0.2-0.2c0,0,0,0,0,0c0,0.1,0,0.2,0,0.3c0,0.1,0,0.2,0.1,0.3c0,0,0,0,0,0c-0.1,0-0.3-0.1-0.3-0.1
		c0-0.1,0-0.1-0.1-0.2c-0.1,0-0.1,0.1-0.2,0.1c0-0.1-0.1-0.1-0.1-0.2c0-0.1,0-0.1,0.1-0.2c-0.1-0.1-0.2,0-0.3-0.1
		c-0.2-0.1-0.3-0.2-0.5-0.3c-0.1,0.1-0.1,0.2-0.2,0.3c0,0,0.1,0.1,0.1,0.1c0,0,0,0,0,0c-0.1,0-0.1,0-0.2,0c0,0,0,0,0,0
		c0,0-0.1,0.1-0.1,0.1c0,0,0,0,0,0.1c0.1,0,0.1,0,0.2,0c0.1,0.2,0.2,0.4,0.3,0.5c0,0,0,0,0,0c0,0,0.1,0,0.1-0.1
		c0.1,0,0.2,0.2,0.3,0.2c0.1,0,0.2,0.1,0.3,0.1c0,0,0,0,0,0c0,0-0.1,0-0.1,0c0,0,0,0,0,0.1c0.2,0.3,0.5,0.2,0.4,0.7c0,0,0,0,0,0
		c-0.1-0.1-0.2-0.3-0.3-0.4c0,0.3,0.2,0.3,0.2,0.6c0,0,0,0,0,0c-0.1,0-0.1,0-0.2,0c0.1,0.1,0.1,0.2,0.2,0.3
		c-0.2-0.1-0.3-0.2-0.4-0.3c-0.5,0-0.6-0.3-0.8-0.5c0,0.1,0,0.1,0,0.2c-0.2-0.1-0.2-0.2-0.5-0.2c0,0.3,0.4,0.4,0.7,0.6
		c0.2,0.2,0.4,0.4,0.5,0.7c-0.3-0.1-0.6-0.2-0.9-0.3c-0.2,0-0.3,0-0.5-0.1c-0.1-0.1-0.1-0.1-0.2-0.2c-0.1,0-0.1,0-0.2,0
		c0,0-0.1,0-0.1-0.1c-0.1,0-0.1,0-0.1,0c0,0,0,0,0,0c-0.2,0.3-0.3,0.5-0.5,0.8c0,0,0.1,0.1,0.1,0.1c-0.1,0.1-0.1,0.1,0,0.2
		c0.2,0,0.4,0.2,0.6,0.2c0.1,0,0.2-0.1,0.2-0.1c0,0,0,0,0,0.1c0,0.1,0,0.1,0,0.1c-0.3,0.1,0.1,0.8,0,1c-0.1,0-0.1,0-0.2,0
		c0,0.1,0,0.2,0,0.2c0,0,0,0,0,0c0.3-0.1,0.5-0.2,0.7,0.1c0,0.1,0,0.1,0,0.1c0,0,0,0.1,0.1,0.1c0.1-0.1,0.4-0.1,0.5-0.1
		c0-0.1,0.1-0.2,0.1-0.2c0.1,0,0.1,0.2,0.2,0.2c0,0,0,0,0,0c0-0.3,0.1-0.4,0.3-0.5c-0.2-0.3,0-0.2,0.2-0.3c0-0.1,0.1-0.1,0.1-0.2
		c0,0,0,0,0,0c0.2,0.1,0.5,0.7,0.7,0.9c0,0.1-0.1,0.1,0,0.2c0,0,0.1,0,0.1,0c0,0.4,0.3,0.2,0.4,0.5c-0.1,0-0.1,0-0.1,0.1
		c0.1,0.1,0.2,0.2,0.3,0.2c0,0.1,0,0.1,0,0.1c-0.1,0-0.3,0-0.4,0c0,0,0,0,0,0c0.1,0.1,0.1,0.3,0.2,0.3c0,0,0.1,0,0.1,0
		c0.1,0,0.4,0.3,0.4,0.4c0,0.1-0.1,0.1-0.1,0.2c0.1,0,0.2-0.1,0.4-0.1c0.2,0,0.3,0.2,0.5,0.2c0.2,0,0.3,0.1,0.5,0.1
		c-0.1,0.1-0.2,0.1-0.4,0.2c-0.2,0-0.2,0.2-0.4,0.2c-0.1,0-0.1,0-0.2,0c-0.1,0.1-0.1,0.2-0.1,0.3c0.1,0,0.3-0.1,0.4-0.1
		c0.3-0.1,0.5-0.5,0.9-0.2c0,0-0.1,0.1-0.1,0.1c0,0,0,0.1,0.1,0.1c0.1,0,0.2-0.1,0.2-0.1c0.1,0,0.3,0.1,0.3,0.3
		c0,0.1-0.1,0.2-0.1,0.3c0.1,0.1,0.1,0.2,0.2,0.2c0,0,0,0,0,0c-0.1,0.1-0.4,0.3-0.5,0.4c-0.2,0-0.4,0-0.6,0.1
		c-0.1,0.1-0.2,0.3-0.3,0.4c-0.2,0.2-0.5,0.2-0.9,0.2c-0.2,0-0.5,0-0.7,0c-0.2,0-0.5,0-0.7,0c-0.2,0-0.5,0-0.6,0
		c-0.3,0.1-0.2,0.4-0.4,0.5c-0.1,0.1-0.3,0-0.4,0.1c-0.4,0.2-0.9,0.8-1.1,1.3c0.3-0.2,0.4-0.5,0.7-0.7c0.3-0.2,0.8-0.3,1.1-0.5
		c0.4-0.1,0.8-0.1,0.9,0.2c0,0.1-0.4,0.3-0.5,0.3c0,0-0.1,0-0.1-0.1c-0.1,0-0.2,0-0.3,0.1c0,0,0,0,0,0c0.2,0,0.3,0.1,0.4,0.2
		c0.1,0,0.2-0.1,0.2-0.1c0,0,0,0,0,0c0,0,0.1,0,0.1,0c0,0,0,0,0.1,0c0,0-0.1,0.1-0.1,0.1c0,0.2-0.1,0.1-0.2,0.2c0.1,0,0.2,0,0.2,0
		c0,0.1,0,0.1,0,0.2c0,0,0,0,0.1,0c0,0.2,0.2,0.2,0.4,0.3c0,0,0,0,0,0c0,0-0.1,0-0.1,0c0,0,0,0,0,0c0,0,0,0,0,0c0,0,0,0,0,0
		c0.1,0,0.1,0.1,0.1,0.1c0,0,0.1,0,0.1,0c0,0,0.1,0,0.1,0.1c0.1,0,0.1-0.1,0.2,0c0,0,0,0,0,0c0,0,0,0,0,0c0,0,0,0,0,0.1
		c0,0,0.1,0,0.1,0c0.1,0,0.1-0.1,0.2-0.1c0,0.2,0.1,0.1,0.2,0.1c0,0,0.1,0.1,0.1,0.1c0,0,0,0,0,0c0,0,0,0-0.1,0c0,0,0,0,0,0
		c0.1,0,0.1,0,0.2,0c0,0-0.1,0-0.1,0c0,0,0,0-0.1,0c0,0,0,0,0,0c0,0,0,0,0,0c0,0-0.1,0-0.1,0c0,0,0,0,0,0c-0.2,0-0.4,0.1-0.6,0.2
		c0,0,0,0-0.1,0c0,0,0,0,0,0c0,0,0,0,0,0.1c0,0,0,0,0,0c0,0.1,0,0.1-0.1,0.1c-0.1,0-0.1,0-0.2,0c0,0,0,0,0-0.1c0,0,0,0,0,0
		c0,0,0,0-0.1,0.1c0,0,0,0,0,0c0,0,0,0,0,0c0,0,0,0-0.1,0c0,0.1,0,0.1,0,0.2c-0.2,0-0.2,0.2-0.3,0.2c0,0,0,0,0,0c0,0,0,0,0,0.1
		c-0.1,0-0.1,0-0.2,0c0,0,0,0.1,0,0.1c0,0,0,0-0.1,0c0,0-0.1-0.1-0.1-0.1c0,0,0,0,0,0c0-0.1-0.1-0.3,0-0.4c0,0,0,0,0.1-0.1
		c0,0-0.1,0.1-0.1,0.1c0,0,0,0,0,0c0,0,0,0,0,0c0.1,0,0.1-0.1,0.2-0.1c0,0,0,0,0.1,0c0,0,0,0,0,0c0,0,0,0,0,0c0,0,0,0,0,0
		c0.1-0.1,0.5-0.3,0.6-0.3c0,0,0,0.1,0,0.1c0,0,0,0,0.1,0c0,0,0,0,0-0.1c0.1,0,0.2-0.1,0.3-0.1c0,0,0,0,0,0c-0.2,0-0.5,0-0.6,0
		c0,0,0,0,0-0.1c0.1,0,0.2-0.1,0.2-0.2c0,0,0,0,0,0c0,0-0.1,0-0.1,0c0-0.1,0-0.1-0.1-0.1c0,0,0,0.1,0,0.1c0,0,0,0.1-0.1,0.1
		c-0.2,0-0.3,0.2-0.5,0.2c0,0-0.1,0-0.1-0.1c0,0,0,0,0,0.1c0,0-0.1,0.1-0.1,0.1c-0.1,0-0.2-0.1-0.2,0c0,0,0,0,0,0c0,0,0,0.1,0,0.1
		c0,0,0,0,0,0.1c0,0,0,0,0.1,0c0,0,0,0,0,0c-0.1,0-0.1,0.1-0.2,0.1c0,0,0,0,0,0.1c0,0,0,0-0.1,0c-0.1,0-0.1,0.1-0.1,0.1
		c0,0,0-0.1,0-0.1c-0.1,0-0.1,0.1-0.2,0c0,0,0,0.1,0,0.1c0,0-0.1,0-0.1,0c0,0,0,0,0,0c0,0,0-0.1,0-0.1c0,0,0,0,0,0c0,0,0,0,0,0
		c0,0.1-0.1,0.2-0.2,0.3c0,0,0,0-0.1,0c0,0,0,0.1,0,0.1c0,0,0,0-0.1,0c0,0,0,0,0-0.1c0,0,0,0,0,0c0,0.1,0,0.1,0,0.1c0,0,0,0,0,0
		c0,0,0,0-0.1,0c0,0,0,0,0,0c0,0-0.1,0-0.1,0c0,0,0,0.1,0,0.1c-0.1,0-0.2,0.3-0.3,0.4c0,0.1,0,0.1,0.1,0.1c0,0,0,0,0,0
		c-0.1,0-0.2,0-0.2,0.1c0.1,0,0.2,0.1,0.2,0.3c0,0,0,0,0.1,0c0,0,0.1,0,0.1-0.1c0,0,0,0,0,0c0,0,0,0,0,0.1c-0.1,0-0.2,0-0.3,0.1
		c0,0,0-0.1,0-0.1c0,0,0,0,0,0c0,0.1-0.1,0.1-0.2,0.1c0,0,0,0,0,0c0-0.1,0-0.1,0-0.1c0,0-0.1,0-0.1,0c0,0.1,0,0.1,0,0.2
		c-0.5,0-0.8,0.1-1,0.3c0-0.1,0-0.1,0.1-0.2c0,0.1-0.1,0.1-0.1,0.2c0,0,0,0-0.1,0c0,0,0,0,0,0c0,0,0.1,0.1,0.1,0.1
		c0,0.2-0.1,0.3-0.1,0.4c0,0,0,0-0.1,0c0,0.1-0.1,0.2-0.2,0.3c0,0,0,0,0,0c0,0,0,0,0,0c0-0.1,0-0.1,0-0.1c-0.2,0-0.2-0.1-0.3-0.2
		c0,0,0.1-0.1,0.1-0.1c0,0,0,0,0,0c0,0-0.1,0.1-0.1,0.1c0,0.1,0.1,0.4,0.2,0.4c0,0.1,0,0.1,0,0.2c0,0.1-0.1,0.1-0.1,0.2
		c0,0.1-0.1,0.2-0.1,0.2c0,0,0,0,0,0c0,0.1,0,0.1-0.1,0.2c0,0,0,0,0,0c0,0,0,0,0-0.1c0-0.1,0.1-0.2,0.2-0.3c0,0,0,0-0.1,0
		c0,0,0,0,0,0c0,0,0,0,0,0c0,0,0,0,0-0.1c0,0,0,0-0.1,0c0-0.1,0,0,0-0.1c0,0-0.1,0-0.1,0.1c0,0,0,0-0.1,0c0,0,0,0,0-0.1c0,0,0,0,0,0
		c0,0,0.1,0,0.1,0c0,0,0,0,0,0c-0.1,0-0.1-0.1-0.1,0c0,0,0,0,0,0c0,0,0,0,0-0.1c0,0,0,0,0,0c0,0,0,0,0.1,0c0,0,0,0,0,0c0,0,0,0,0,0
		c0,0-0.1,0-0.1,0c0,0,0,0,0,0c0.1,0,0.1,0,0.1-0.1c0,0,0,0-0.1,0c0,0,0,0,0,0c0,0,0,0,0-0.1c0,0,0.1,0,0.1,0c0,0,0,0-0.1,0
		c0,0,0,0,0-0.1c0,0,0,0-0.1,0c0,0,0,0,0,0.1c0,0,0,0,0,0c0,0,0,0,0,0.1c0,0,0,0,0,0c0,0,0,0,0,0c0,0,0,0.1,0,0.1c0,0,0,0-0.1,0
		c0.1,0.2,0,0.1,0,0.3c0,0,0,0.1,0.1,0.2c0,0,0,0,0,0c0,0,0,0,0,0c0,0-0.1,0-0.1-0.1c0,0,0,0,0,0c0,0.1,0.1,0.1,0.1,0.2
		c-0.1,0-0.2-0.1-0.2-0.2c0,0,0,0,0,0.1c-0.1,0-0.1-0.1-0.2-0.1c0,0,0,0,0,0c0.1,0,0.4,0.2,0.4,0.2c0,0.1,0,0.1-0.1,0.1c0,0,0,0,0,0
		c0,0-0.1-0.1-0.1-0.1c0.1,0.1,0.1,0.1,0.2,0.2c0,0,0,0,0,0c0,0,0.1,0,0.1,0.1c0,0,0,0,0,0c0,0,0,0-0.1,0c0,0,0,0,0,0.1c0,0,0,0,0,0
		c0,0-0.1,0-0.1-0.1c0,0,0.1,0,0.1,0.1c0,0,0,0,0,0c0,0,0,0,0.1,0.1c0,0,0,0.1,0,0.1c-0.1,0-0.1,0-0.1,0c0-0.1-0.1-0.1-0.1-0.1
		c0,0,0,0,0,0c0,0,0,0,0,0c0.1,0,0.2,0.1,0.2,0.2c0.1,0,0.2,0,0.2,0.1c0,0,0,0,0,0c0,0,0,0,0,0.1c0,0,0,0-0.1,0
		c0,0.1,0.1,0.1,0.1,0.2c0,0,0,0,0,0c0,0,0,0,0-0.1c0,0-0.1,0-0.1,0c0,0,0,0,0,0.1c0,0,0,0,0,0c0,0,0,0,0,0c0,0-0.1,0-0.1,0
		c0,0,0,0,0,0.1c0,0-0.1,0-0.1,0c0,0,0,0,0,0c0,0,0-0.1,0-0.1c0,0,0,0,0,0c0,0.1,0,0.1,0,0.2c0.1,0,0.2,0,0.3,0c0,0,0,0,0,0
		c0,0,0,0.1,0,0.1c0,0,0,0,0,0c0,0,0,0,0,0c0,0,0,0,0,0c0,0,0-0.1,0.1-0.1c0,0,0,0,0,0c0,0,0.1,0.1,0.1,0.1c0,0,0,0,0,0
		c0,0,0,0-0.1,0c0,0-0.1,0.1-0.1,0.1c-0.1,0-0.1-0.1-0.2-0.1c0,0,0,0,0,0c0,0,0,0,0,0c-0.1,0-0.1,0-0.2-0.1c0,0,0,0,0,0
		c0.1,0,0.2,0,0.2,0.1c0,0,0,0,0,0c-0.1,0,0,0.1-0.1,0.1c0,0-0.1,0-0.1-0.1c0,0,0,0.1,0,0.1c0,0,0,0,0.1,0c0,0,0.1,0,0.1-0.1
		c0,0,0,0,0.1,0.1c0,0,0,0,0,0c0,0-0.1,0.1-0.1,0.1c-0.1,0-0.2,0-0.3,0c-0.1,0.1-0.2,0.2-0.3,0.3c-0.1,0.1-0.3,0-0.4,0.1
		c-0.1,0.1-0.1,0.2-0.2,0.3c-0.1,0.2-0.3,0.2-0.5,0.3c0,0.1-0.2,0.2-0.2,0.4c0,0.1-0.1,0.3-0.1,0.4c-0.1,0.4,0.3,0.7,0.4,1
		c0,0.1,0,0.2,0.1,0.3c0,0.1,0.1,0.3,0.2,0.4c0.1,0.3-0.1,0.7-0.2,0.9c0,0,0,0,0,0c0,0,0-0.1,0-0.1c-0.1,0-0.2,0-0.2,0
		c-0.1-0.1-0.1-0.3-0.2-0.3c-0.2,0-0.1-0.1-0.2-0.2c0,0-0.1,0-0.1-0.1c0,0,0-0.1,0-0.1c0,0-0.1,0-0.1,0c-0.1-0.1-0.1-0.2-0.2-0.3
		c0.1,0,0.1,0,0.1-0.1c0,0,0-0.1,0-0.1c-0.1,0-0.1,0.1-0.1,0c0,0,0,0,0,0c0-0.2,0.1-0.3,0.1-0.5c0-0.1-0.1-0.1-0.2-0.1
		c-0.1,0-0.2-0.2-0.3-0.3c0,0.6-0.1,1.1-0.1,1.7c0,0.5,0.1,0.9,0.1,1.4c0.1,0,0.1-0.1,0.2-0.1c0.1,0,0.2,0,0.3,0
		c0.3,0,0.6,0,0.8,0.1c0,0,0.1,0,0.1,0c0.1,0.1,0.2,0.1,0.3,0.2c0.2,0.1,0.5,0.1,0.7,0.2c0.1,0.1,0.1,0.1,0.2,0.2
		c0.2,0.1,0.6,0.1,0.7,0.2c0,0,0,0.1-0.1,0.1c0,0,0,0,0,0c0.3,0,0.4,0.1,0.6,0.2c0,0,0,0,0,0c-0.2,0-0.3,0.1-0.5,0.1
		c-0.1,0-0.3,0-0.4,0c-0.2,0-0.4,0.1-0.6,0.1c0,0,0,0,0,0c0,0,0.1-0.1,0.1-0.1c0.1,0,0.1-0.1,0.1-0.2c-0.1-0.1-0.4-0.1-0.5-0.2
		c0-0.1,0-0.2-0.1-0.3c-0.1-0.1-0.3,0-0.4,0c-0.2,0-0.3-0.2-0.5-0.2c-0.2-0.1-0.4,0-0.6-0.1c0.1,0,0.1,0,0.2-0.1c0,0,0,0,0,0
		c0,0,0,0,0,0c-0.4-0.1-0.4,0.1-0.7,0.2c0,0,0,0-0.1,0c0.1,1.9,0.3,3.7,0.6,5.5c0.1,0,0.1-0.1,0.2,0c0.2,0,0.3-0.1,0.5-0.1
		c0.1,0,0.1,0,0.1,0c0.1,0,0.1-0.1,0.2-0.1c0.1,0,0.2,0,0.2,0.1c0.1,0,0.2,0,0.3,0c0.2,0.1,0.4,0.3,0.5,0.6
		c-0.1,0.1-0.1,0.1-0.2,0.2c0,0,0,0,0,0c0,0,0,0-0.1-0.1c0,0.1,0,0.1,0,0.1c0.1,0,0.1,0,0.2-0.1c0.1-0.1,0.2-0.3,0.4-0.3
		c0.1,0,0.1,0.1,0.2,0.2c0,0,0,0,0,0.1c-0.1,0-0.3,0-0.3,0.1c0,0.1,0.1,0.2,0.1,0.4c-0.1,0.1-0.1,0.2-0.2,0.4
		c0.1,0.1,0.1,0.3,0.2,0.3c0.1,0,0.2-0.1,0.2-0.1c0.1-0.1-0.1-0.5-0.2-0.6c0,0,0,0,0.1-0.1c0,0,0,0,0,0c0.1,0,0.7-0.2,0.7-0.3
		c0,0,0,0-0.1,0c0,0-0.1,0-0.1,0c0,0,0-0.1-0.1-0.1c0-0.1,0.1-0.1,0.2-0.1c0,0.1,0.1,0.2,0.1,0.3c0.2,0,0.5,0,0.5,0.2
		c0,0.1,0,0.1,0.1,0.2c0.2,0.1,0.5,0,0.7,0c0.2,0,0.3,0.3,0.7,0.2c0.1,0,0.2-0.2,0.3-0.2c0.2-0.1,0.6-0.1,0.8,0c0,0,0,0,0,0
		c0,0,0,0,0,0c0,0,0,0,0,0c-0.1,0-0.2,0-0.2,0c0,0,0,0,0,0.1c0.1,0.1,0.2,0.1,0.3,0.3c0,0,0,0,0,0c0-0.1,0-0.1,0.1-0.1
		c0.1,0,0.2,0,0.2,0.1c0,0,0,0.1,0.1,0.1c0.1,0.1,0.2,0.1,0.2,0.1c0,0,0,0,0,0c-0.2,0.1-0.1,0.2-0.4,0.3c0,0,0,0,0,0
		c0.1,0,0.2,0,0.3,0c0.1,0,0.2-0.1,0.3,0c0.2,0,0.6,0.3,0.7,0.4c0,0.1,0,0.3,0.1,0.4c0,0,0,0,0,0c0,0,0-0.1,0-0.1
		c0.2,0,0.5,0.2,0.5,0.4c0,0,0,0,0.1-0.1c0,0,0,0,0,0c0.1,0,0.3,0.1,0.4,0.1c0,0,0-0.1,0-0.1c0.2-0.1,0.6,0,0.7,0.1
		c0.2,0,0.3,0.1,0.5,0.2c0.1,0.1,0.5,0.5,0.6,0.5c0,0,0.1,0,0.1,0c0.1,0,0.1,0.1,0.1,0.2c0.1,0.3,0.1,0.8,0.5,0.8
		c0,0.1,0.1,0.2,0,0.2c-0.1,0.1-0.2,0.2-0.3,0.4c-0.1,0.1-0.3,0.2-0.4,0.3c-0.1,0.1-0.1,0.3-0.2,0.4c0,0,0,0,0,0
		c0.2,0.1,0.3-0.1,0.4-0.2c0,0.1,0.1,0.2,0.1,0.3c0.2,0,0.4,0,0.6,0c0,0.1,0,0.1,0,0.2c0,0,0,0,0,0c0.1-0.2,0.3-0.2,0.4-0.3
		c0.1-0.1,0.1-0.2,0.2-0.3c0.1,0,0.2,0,0.3,0c0.1,0,0.1,0.1,0.2,0.1c0.2,0.1,0.5,0.1,0.6,0.3c0,0,0,0,0,0c0,0,0,0,0.1-0.1
		c0.1,0,0.3,0.2,0.3,0.3c0,0.2-0.1,0.1-0.1,0.3c0.1-0.1,0.3-0.3,0.6-0.3c0.1,0,0.3,0.1,0.4,0.2c0.1,0,0.3,0,0.4,0.1
		c0.2,0,0.4-0.1,0.6,0c0.4,0.2,0.7,0.6,1,0.8c0.2,0.1,0.4,0,0.6,0.1c0.1,0,0.3,0.8,0.3,1.1c-0.1,0.6-0.4,0.9-0.7,1.2
		c-0.1,0-0.1,0.1-0.2,0.1c-0.1,0.1,0,0.1-0.1,0.2c-0.1,0.2-0.3,0.5-0.4,0.6c0,0,0,0,0,0c0,0,0-0.1-0.1-0.1c0,0,0,0-0.1,0
		c0,0.2-0.1,0.4-0.1,0.6c0,0.2,0,0.5,0.1,0.7c0,0.2-0.1,0.4-0.1,0.5c0,0.1,0,0.2,0,0.3c-0.2,0.1-0.3,0.2-0.3,0.5c0,0.1,0,0.2,0,0.3
		c0,0.1-0.1,0.1-0.2,0.2c0,0.1-0.1,0.2-0.1,0.3c-0.1,0.1-0.2,0.2-0.2,0.4c0,0.1,0,0.1,0,0.2c-0.2,0-0.4,0.1-0.4,0.4
		c-0.2,0-0.5,0.1-0.7,0c-0.1,0-0.3,0-0.4,0c0,0.2-0.1,0.1-0.2,0.2c0,0.1-0.1,0.1-0.1,0.2c-0.1,0-0.1-0.1-0.2,0
		c-0.1,0-0.7,0.4-0.8,0.5c-0.1,0.1-0.1,0.2-0.3,0.2c0,0,0,0,0,0.1c0.2,0.1,0,0.3,0,0.4c0,0.1,0.1,0.1,0.1,0.2
		c0.1,0.8-0.3,0.8-0.6,1.2c-0.1,0.2-0.1,0.3-0.2,0.5c-0.1,0.2-0.3,0.4-0.4,0.5c0.1-0.3,0.4-0.4,0.3-0.7c0,0,0,0,0,0
		c-0.1,0-0.2,0-0.2,0c0,0,0,0,0,0c0,0.1-0.1,0.2-0.1,0.3c0,0.1-0.1,0.1-0.2,0.2c6.6,6.4,15.5,10.4,25.4,10.4
		c17.8,0,32.7-12.9,35.7-29.8c0,0,0-0.1,0-0.1c-0.1,0-0.1-0.1-0.2-0.1c-0.1-0.1,0-0.2,0-0.3c0-0.1-0.1-0.1-0.1-0.2
		c-0.1-0.2-0.1-0.4-0.1-0.6c0,0,0,0,0,0c-0.1,0-0.1,0.1-0.2,0c0,0,0,0,0,0c0-0.1,0-0.2-0.1-0.3c0,0-0.1,0-0.1,0
		c-0.1-0.2-0.2-0.3-0.3-0.4c0,0-0.1,0-0.1,0c-0.1-0.2,0.1-0.6,0.1-0.8c0,0,0,0-0.1-0.1c0-0.1,0.1-0.5,0.2-0.6c0,0-0.1,0-0.1,0
		c0-0.2,0-0.4,0-0.6c-0.1-0.2-0.2-0.4-0.3-0.6c0-0.3-0.1-0.5-0.1-0.8c-0.2,0-0.2-0.3-0.3-0.4c0,0,0,0,0,0c0,0.4-0.2,0.3-0.4,0.5
		c-0.1,0.1-0.1,0.3-0.2,0.2c0,0,0-0.1,0-0.1c-0.1,0-0.1,0-0.1,0.1c0,0,0,0,0,0c0,0,0,0,0,0c0,0,0-0.1,0-0.1c-0.1,0-0.1,0.1-0.2,0.1
		c0,0,0,0-0.1,0c0-0.2,0.1-0.3,0.1-0.5c0-0.3-0.1-0.6-0.2-0.8c0,0,0,0,0,0c0,0,0,0.1,0,0.1c-0.1,0-0.1-0.1-0.2-0.1c0,0,0.1,0,0.1,0
		c0,0,0,0,0,0c0-0.1-0.1-0.3-0.2-0.3c-0.1,0-0.1,0-0.2,0c0,0,0-0.1,0-0.1c0,0-0.1,0-0.1,0c-0.3-0.1-0.3-0.8-0.5-1
		c-0.1,0-0.1,0.1-0.2,0.1c0-0.1-0.1-0.1-0.1-0.2c0,0,0,0,0,0c0,0,0,0.1,0,0.1c0,0.1,0.1,0.2,0,0.3c-0.1,0-0.1,0-0.1,0.1
		c0,0,0,0-0.1,0c0-0.1-0.1-0.1-0.1-0.2c0,0,0,0,0,0c0,0.1,0,0.1-0.1,0.2c0,0,0,0-0.1,0c0,0,0-0.1,0-0.1c0,0,0,0,0,0
		c0,0,0,0.1-0.1,0.1c0,0-0.1,0-0.1,0c0,0,0,0.1,0,0.1c0,0-0.1,0-0.1,0c0-0.1,0-0.1-0.1-0.2c0,0,0,0,0,0c0,0,0,0.1-0.1,0.1
		c0,0,0,0-0.1,0c0-0.1,0-0.1-0.1-0.1c0,0-0.1,0.1-0.1,0.1C80.1,49,80,49,79.9,49.1c0,0.1,0,0.1,0.1,0.2c-0.1,0.1-0.2,0.3-0.3,0.4
		c-0.1,0.1-0.3,0.1-0.4,0.1c-0.1,0.2-0.3,0.3-0.4,0.5c-0.1,0-0.1,0-0.2,0.1c-0.1,0.1-0.1,0.2-0.2,0.3c-0.1,0-0.2,0.1-0.3,0.1
		C78,50.8,78,51,77.9,51.1c-0.1,0.1-0.2,0-0.3,0.1c0,0.1-0.1,0.2-0.1,0.2c-0.1-0.1-0.2,0-0.3,0c0,0.1-0.1,0.1-0.1,0.2
		c0,0.2,0.1,0.4,0,0.6c0.2,0.3-0.1,0.6-0.2,0.9c0,0.2,0.1,0.3,0,0.5c-0.1,0-0.2,0-0.2,0c0,0.1-0.1,0.2-0.1,0.3c0,0,0.1,0,0.1,0.1
		c-0.1,0-0.2,0.1-0.3,0.1c0,0.1,0,0.1-0.1,0.2c0,0.1-0.2,0.2-0.3,0.2c-0.1-0.1-0.2-0.2-0.2-0.3c0-0.2-0.1-0.3-0.1-0.5
		c-0.1-0.2-0.2-0.5-0.3-0.7c-0.1-0.1-0.1-0.2-0.2-0.2c0-0.1-0.1-0.2-0.1-0.3c-0.1-0.2-0.1-0.4-0.2-0.6c-0.1-0.3-0.3-0.6-0.4-0.9
		c0-0.3-0.1-0.6-0.1-0.9c0-0.2-0.1-0.4-0.1-0.6c0-0.1,0.1-0.2,0.1-0.3c0-0.1-0.1-0.1-0.1-0.2c0-0.1,0-0.3,0-0.4c-0.1,0-0.2,0-0.2,0
		c0,0,0,0.1,0,0.1c0.2,0.2-0.2,0.4-0.4,0.4c-0.1,0-0.1,0-0.2,0.1c-0.2,0-0.7-0.6-0.8-0.7c0,0,0,0,0,0c0.2-0.1,0.3,0.1,0.5-0.1
		c0,0,0.1-0.1,0.1-0.1c-0.3,0.1-0.7,0-0.8-0.2c0-0.1-0.1-0.1-0.1-0.2c-0.1-0.1-0.2,0-0.3-0.1c0-0.1-0.1-0.2-0.1-0.3
		c-0.1,0-0.1,0-0.2,0c0-0.2,0-0.2-0.1-0.3c-0.2,0-0.8,0.3-1,0c-0.1,0-0.2,0.1-0.3,0.1c-0.1,0-0.3,0-0.4,0c-0.1,0-0.3,0.1-0.5,0.1
		c-0.1,0-0.2-0.1-0.3-0.1c-0.2,0-0.4,0-0.6,0c0,0-0.1-0.1-0.1-0.1c-0.1,0-0.2,0-0.4,0c-0.1,0-0.2-0.1-0.3-0.1c0-0.1-0.1-0.2-0.1-0.3
		c0-0.1,0-0.2,0-0.2c-0.1,0-0.1,0-0.1-0.1c-0.2,0-0.3,0-0.5,0.1c0,0.1-0.2,0.2-0.3,0.2c-0.1,0-0.2-0.1-0.3-0.1
		c-0.2-0.1-0.3-0.1-0.5-0.1c-0.1-0.1-0.1-0.2-0.2-0.2c-0.1-0.1-0.3-0.1-0.4-0.2c-0.1-0.1-0.2-0.4-0.3-0.5c0,0,0-0.1,0-0.1
		c0-0.1-0.2-0.2-0.2-0.3c-0.1,0-0.3,0.1-0.3,0c0,0,0-0.1,0-0.1c0,0,0,0,0,0c-0.1,0-0.1,0.1-0.2,0.2c-0.1,0-0.3,0-0.3,0.1
		c0,0.1,0,0.1,0,0.2c0,0,0,0-0.1,0c0,0-0.1,0.1-0.1,0.1c0,0,0,0,0.1,0c0.1,0,0.1,0,0.2,0c0.1,0.3,0.2,0.5,0.3,0.8c0.1,0,0.1,0,0.2,0
		c0,0.1,0,0,0,0.1c0.1,0.1,0.3,0.1,0.3,0.2c0,0.1,0,0.1-0.1,0.1c0,0,0,0.1,0.1,0.1c-0.1,0.2,0,0.2,0,0.3c0.1,0,0.1,0,0.1,0
		c0,0.1,0.1,0.4,0.2,0.4c0.1,0,0.1,0,0.1-0.1c-0.1-0.2,0-0.5,0.1-0.6c0,0,0,0,0.1,0c0,0.1,0,0,0.1,0.1c0,0,0,0.4,0,0.4
		c0,0.1-0.2,0.2-0.1,0.3c0.1,0,0.1,0,0.1,0.1c0.1,0,0.2,0,0.3,0c0,0,0,0,0-0.1c0.1,0.1,0.6,0.1,0.7,0c0,0,0,0,0,0c0,0,0.1,0,0.1,0
		c0-0.1,0-0.1,0.1-0.1c0-0.1,0.1-0.1,0.1-0.2c0.1-0.2,0.3-0.2,0.4-0.4c0.1-0.1,0.1-0.2,0.2-0.2c0,0,0,0,0,0c0,0.2,0,0.2-0.1,0.3
		c0,0,0.1,0,0.1,0c0,0.1,0,0.2,0,0.3c0,0.1,0.2,0.3,0.3,0.3c0.1,0.1,0.2,0.1,0.4,0.2c0.1,0,0.2,0,0.2,0c0.1,0.1,0.2,0.2,0.3,0.3
		c0.1,0.1,0.2,0.1,0.2,0.2c-0.1,0.1-0.1,0.2-0.2,0.3c-0.1,0.1-0.1,0.1-0.2,0.2c-0.1,0.1-0.1,0.2-0.1,0.3c-0.1,0-0.2,0-0.2,0
		c-0.1,0.2,0,0.4,0,0.6c-0.2,0-0.4,0.1-0.5,0.2c0,0.1,0,0.1-0.1,0.2c-0.1,0.1-0.2,0-0.4,0.1C67,50.5,67,50.7,67,50.8
		c0,0-0.1,0-0.1,0.1c-0.1,0-0.2,0-0.3,0c-0.2,0.1-0.3,0.1-0.5,0.2c-0.1,0-0.3,0.1-0.3,0.2c0,0.1,0,0.2-0.1,0.2
		c-0.3,0.2-0.7,0.2-1.1,0.4c-0.1,0-0.1,0.2-0.2,0.2c-0.1,0-0.2,0-0.3,0c-0.2,0.1-0.3,0.2-0.5,0.2c-0.1,0-0.3,0-0.4,0
		c-0.1,0.1-0.2,0.1-0.2,0.2c-0.2,0.2-0.6,0.2-0.8-0.1c0-0.1,0-0.2,0-0.3c-0.1-0.2-0.2-0.5-0.2-0.7c0-0.1,0-0.1,0-0.2
		c0-0.1,0-0.2,0-0.3c-0.1-0.2-0.2-0.4-0.3-0.5c0,0-0.1-0.1-0.1-0.1c-0.1-0.3-0.2-0.5-0.4-0.8c-0.1-0.1-0.3-0.2-0.4-0.3
		c-0.1-0.1-0.1-0.2-0.2-0.3c-0.1-0.2,0-0.5-0.1-0.6c-0.1-0.2-0.2-0.3-0.3-0.5c-0.1-0.1-0.3-0.2-0.5-0.3c0.1-0.3-0.1-0.4-0.2-0.6
		c-0.2-0.2-0.3-0.4-0.4-0.7c-0.1-0.1-0.1-0.2-0.2-0.2c-0.1,0-0.1,0-0.2,0c0-0.2,0.1-0.4,0.1-0.6c0,0-0.1,0-0.1,0
		c-0.1-0.3-0.2-0.5-0.3-0.8c0.1-0.1,0.2-0.3,0.2-0.5c0-0.1,0-0.1,0-0.2c0.1-0.2,0.2-0.6,0.4-0.8c-0.1-0.2,0-0.3-0.1-0.5
		c0-0.1,0.1-0.1,0.1-0.2c0,0,0-0.1-0.1-0.1c0.1-0.1,0.1-0.1,0.2-0.2c0,0,0,0,0-0.1c0,0,0,0-0.1-0.1c0,0,0,0,0,0
		c0,0.1-0.1,0.1-0.2,0.2c-0.2,0-0.2-0.1-0.4-0.1c-0.1,0.1-0.2,0.1-0.2,0.2c-0.1,0-0.3,0.1-0.5,0.1c-0.1,0-0.2-0.2-0.3-0.2
		c-0.1-0.1-0.3-0.1-0.5-0.1c0,0.1,0,0.2-0.1,0.3c0,0,0,0-0.1,0c-0.1-0.1-0.3,0-0.4,0c0-0.1-0.1-0.2-0.1-0.2c0,0-0.1,0.1-0.1,0.1
		c-0.1,0-0.1-0.1-0.2-0.1c0,0-0.1,0.1-0.1,0.1c0,0,0,0,0,0c0,0,0,0,0-0.1c0,0,0,0,0-0.1c0,0,0,0,0,0c-0.1,0-0.2,0-0.3,0
		c0,0,0,0,0-0.1c0,0,0.1,0,0.1,0c0,0,0,0,0,0c0,0-0.1-0.1-0.1-0.1c0-0.1,0-0.1,0-0.2c-0.1,0-0.2-0.1-0.3-0.1c0,0,0,0,0-0.1
		c0,0,0-0.1,0-0.1c0,0,0.1,0.1,0.1,0.1c0.1,0,0.1,0,0-0.1c0,0-0.1-0.1-0.1-0.1c0.1,0,0.1,0,0.1-0.1c0,0,0,0,0,0c0,0-0.1,0-0.1,0
		c0-0.1,0-0.1,0-0.1c0,0,0-0.1-0.1-0.1c0,0,0,0,0.1-0.1c0,0,0.1,0,0.1-0.1c0,0,0,0,0,0c-0.1,0-0.2,0-0.4,0.1c0-0.1,0-0.2,0-0.3
		c0.1,0,0,0,0.1-0.1c0.1-0.1,0.2-0.1,0.4-0.1c0,0.1,0.1,0.1,0.2,0.1c0,0,0,0,0,0c0,0,0,0-0.1,0c0,0,0,0,0,0c0,0,0.1,0,0.1,0
		c0,0,0,0,0,0.1c0.2,0,0.3,0,0.5,0c0,0,0,0,0,0c0,0,0,0,0,0c0,0-0.1,0-0.1,0c0,0,0,0,0-0.1c0.1,0,0.3,0,0.4,0c0,0,0,0,0,0
		c-0.1,0-0.1,0-0.2,0c0-0.1-0.1-0.1-0.1-0.1c0,0,0-0.1,0.1-0.1c0.1,0,0.3,0,0.4,0c0,0,0.1,0,0.1,0c0.2,0,0.3,0.1,0.4,0
		c0,0,0,0,0-0.1c0.2-0.1,0.4-0.3,0.7-0.3c0.3-0.1,0.5,0.1,0.8,0c0.1,0.1,0.1,0.2,0.2,0.2c0.1,0,0.2,0,0.2,0c0.1,0.1,0.1,0.2,0.2,0.2
		c0.2-0.1,0.2,0.1,0.4,0.1c0.1,0,0.4,0.1,0.5,0.1c0.1,0,0.1,0,0.2-0.1c0.2,0,0.3,0.1,0.5,0c0.3-0.1,0.6-0.2,0.5-0.6
		c0-0.1,0-0.1-0.1-0.2c-0.1-0.2-0.4-0.2-0.5-0.3c0,0,0-0.1,0-0.1c-0.1,0-0.2-0.1-0.2-0.2c-0.1-0.1-0.2-0.2-0.4-0.3
		c-0.1,0-0.1,0-0.2-0.1c-0.1,0-0.1-0.1-0.1-0.1c0,0-0.1,0-0.1,0c-0.1-0.1-0.2-0.2-0.2-0.3c0.1,0,0.2,0,0.3-0.1
		c0-0.1,0.1-0.2,0.1-0.3c0.1,0,0.1,0,0.2,0c-0.1-0.1-0.2-0.2-0.3-0.2c0,0,0,0,0,0c0.2,0,0.4-0.1,0.6-0.2c0,0,0-0.1,0-0.1
		c-0.1,0-0.3,0-0.4,0.1c0,0,0,0,0,0c-0.1,0-0.2,0-0.3,0c0,0-0.1,0.1-0.1,0.1c-0.2,0-0.3,0.1-0.5,0.1c-0.1,0-0.1,0.1-0.1,0.1
		c0,0,0,0-0.1,0c0,0,0,0-0.1-0.1c0,0,0,0,0,0c0,0.1-0.1,0.1-0.1,0.2c-0.2,0-0.3,0-0.4,0c0,0,0,0,0,0c0.2,0.1,0.4,0.2,0.5,0.4
		c0.1,0,0.2,0,0.3-0.1c0.1,0,0.2,0,0.3,0c0,0.1-0.1,0.1-0.1,0.2c-0.1,0-0.1,0-0.2,0c-0.1,0-0.1-0.1-0.2,0c0,0-0.1,0.1-0.1,0.1
		c-0.1,0-0.1,0-0.2,0c-0.2,0.1-0.1,0.2-0.5,0.1c0,0,0,0,0,0C58.2,38,58,38,57.7,38c0,0,0,0,0,0c0.1-0.1,0.4-0.2,0.5-0.3
		c0,0,0-0.1-0.1-0.1c-0.3,0-0.5,0.1-0.6-0.1c0,0,0,0,0,0c0,0,0.1-0.1,0.1-0.1c0,0,0,0,0,0c0,0-0.1-0.1-0.1-0.1c0,0,0,0,0,0
		c0,0,0,0,0,0.1c-0.6,0-0.4,0.3-0.7,0.4c-0.1,0.1-0.3,0-0.2,0.2c0,0,0,0,0.1,0.1c0,0.1-0.1,0.1-0.1,0.2c-0.3,0-0.3,0.3-0.4,0.5
		c0,0.1,0,0.1,0,0.2c0,0-0.1,0-0.2,0.1c0,0.1,0,0.2-0.1,0.3c-0.1,0-0.1,0.1-0.1,0.1c0,0,0,0,0,0.1c0.1,0,0.3,0.3,0.4,0.4
		c0.1,0.1,0.2,0,0.3,0.1c0,0.1-0.1,0.1-0.1,0.1c-0.2,0-0.2-0.1-0.4,0c-0.1,0-0.2,0-0.2,0c0,0,0,0.1-0.1,0.1c-0.1,0-0.2,0.1-0.3,0.1
		c-0.1,0.1-0.1,0.1-0.2,0.2c0,0,0-0.1,0-0.1c0,0,0.1-0.1,0.1-0.1c0,0,0,0,0,0c-0.1,0-0.2,0-0.2-0.1c0,0,0,0,0,0c0-0.2-0.3,0-0.4-0.2
		c-0.1,0-0.1,0.1-0.2,0.1c0,0,0,0-0.1,0c-0.1,0.1-0.1,0.1-0.3,0.1c0,0,0,0,0,0c0.1,0.1,0.2,0.2,0.3,0.3c0,0,0,0,0,0c0,0,0,0,0,0
		c0,0,0,0-0.1-0.1c0,0-0.1-0.1-0.1-0.1c0,0,0,0,0,0c0,0.1,0.1,0.1,0.1,0.1c0,0,0,0,0,0c0,0,0,0-0.1,0c0-0.1-0.1-0.1-0.2-0.1
		c0,0,0,0,0,0c0,0.1,0.1,0.1,0.2,0.2c0,0,0,0,0,0c0,0-0.1,0-0.1,0c0-0.2-0.1-0.1-0.2-0.3c0,0,0,0,0,0c0,0,0,0,0,0c0,0,0,0,0,0
		c0,0-0.1,0.1-0.1,0.1c0,0,0,0,0,0.1c0,0,0,0.1-0.1,0.1c0.1,0.2,0.2,0.3,0.3,0.4c0,0,0,0,0,0c0,0,0,0,0,0c0,0,0,0,0,0
		c0,0,0-0.1,0-0.1c-0.1,0-0.1,0-0.1,0c0,0,0,0,0,0c0,0,0,0.1,0.1,0.1c0,0-0.1,0-0.1,0.1c0,0,0,0,0,0c0.1,0,0.6,0.3,0.6,0.3
		c0,0,0,0,0,0c0,0.1,0,0.1,0.1,0.2c0,0,0,0-0.1,0c0,0,0,0,0,0c0-0.1-0.1-0.2-0.2-0.2c-0.1,0-0.1,0-0.2,0.1c0,0,0,0.1,0.1,0.2
		c0,0,0.1,0,0.1,0c0,0.1,0,0,0,0.1c-0.1,0-0.1,0-0.1,0.1c0,0,0,0-0.1,0c0,0,0,0,0-0.1c0,0,0,0,0,0c0,0-0.1,0-0.1,0c0,0,0,0,0,0
		c0.1,0.1,0.1,0.2,0.1,0.4c-0.1,0-0.1-0.1-0.2,0c0,0,0,0.1,0,0.1c0,0,0,0,0,0c0-0.1-0.1-0.2-0.2-0.2c0,0-0.1,0-0.1,0.1
		c0,0-0.1,0-0.1-0.1c0-0.1,0-0.1,0-0.2c-0.1-0.1-0.1-0.1-0.2-0.2c0-0.1,0.1-0.1,0.1-0.2c0.1,0,0.2-0.1,0.2,0c0.2,0,0.3,0.2,0.5,0.1
		c0,0,0,0,0,0c-0.1,0-0.2-0.1-0.3-0.1c-0.2,0-0.3,0-0.5,0c-0.1-0.1-0.1-0.2-0.2-0.2c0,0,0,0,0,0c0.1,0,0.1,0,0.2-0.1c0,0,0,0,0,0
		c0,0,0,0,0,0c-0.2,0-0.3-0.1-0.4-0.2c0,0,0-0.1,0-0.1c-0.1-0.1-0.2-0.1-0.3-0.2c0,0,0,0,0,0c0-0.1,0-0.1-0.1-0.1c0,0,0-0.1,0.1-0.1
		c0,0,0-0.3,0-0.3c0.1,0,0.1,0,0.1-0.1c-0.1,0-0.1-0.1-0.2-0.1c0-0.1-0.1-0.1-0.1-0.2c-0.2-0.1-0.4-0.2-0.6-0.3
		c-0.1-0.1-0.1-0.1-0.2-0.2c0,0-0.2-0.1-0.2-0.1c-0.1,0-0.1,0.1-0.2,0c-0.1-0.1-0.3-0.2-0.4-0.4c0,0,0,0,0,0c0,0,0.1,0,0.2,0
		c-0.4-0.1-0.1-0.4-0.5-0.5c0,0.1,0,0.1-0.1,0.2c0,0-0.1,0.1-0.1,0.1c0-0.1-0.1-0.2-0.1-0.4c0.1,0,0.1,0,0.1-0.1c0,0,0,0,0-0.1
		c-0.1,0-0.1,0-0.2,0c0,0,0,0,0,0.1c-0.1,0-0.3,0.1-0.3,0.1c0,0,0,0.1,0,0.1c0,0,0,0,0.1,0c0,0.1,0,0.1,0.1,0.2
		c0,0.1-0.1,0.1-0.1,0.1c0.1,0.3,0.2,0.4,0.4,0.5c0.1,0,0.1,0.1,0.2,0.1c0.1,0.1,0,0.2,0.1,0.3c0.1,0.1,0.2,0.3,0.4,0.4
		c0.1,0.1,0.5,0,0.6,0.1c0,0,0,0,0,0c-0.1,0-0.1,0.1-0.1,0.1c0,0,0,0,0,0.1c0.4,0.1,0.8,0.3,1,0.6c0,0.1,0,0.1-0.1,0.2
		c-0.1,0-0.1-0.1-0.2-0.1c0-0.1,0-0.1,0-0.1c-0.1-0.1-0.3,0-0.3-0.2c-0.2,0-0.3,0.2-0.3,0.4c0.1,0,0.2,0.1,0.3,0.1
		c0,0.1,0,0.1,0,0.2c0,0,0,0,0,0.1c-0.1,0-0.2,0-0.2,0.1c0,0.1,0,0.1,0,0.2c-0.1,0-0.1,0.1-0.2,0.2c0,0-0.1,0-0.1,0c0,0,0,0-0.1,0
		c0,0,0-0.1,0-0.1c0.1,0,0.1-0.1,0.1-0.2c0,0,0,0,0,0c0,0,0.1,0,0.1,0c0,0,0,0,0,0c0,0-0.2-0.6-0.2-0.6c0,0-0.1,0-0.1,0
		c-0.1,0-0.1-0.1-0.2-0.1c0,0,0-0.1,0-0.1c0,0-0.1-0.1-0.1-0.1c-0.1,0-0.1,0-0.2,0c0,0,0,0,0,0c0,0,0,0,0,0c0,0,0,0-0.1-0.1
		c0,0,0,0,0,0c0,0-0.1,0-0.1,0c-0.1-0.3-0.3-0.2-0.5-0.3c-0.2-0.1-0.4-0.4-0.7-0.5c-0.3-0.2-0.3-0.7-0.6-0.9c-0.2-0.1-0.4-0.1-0.6,0
		c0,0-0.1,0.1-0.1,0.1c-0.1,0-0.1,0-0.2,0.1c-0.2,0.1-0.3,0.3-0.7,0.4c-0.2,0-0.2-0.1-0.3-0.2c-0.1,0-0.1,0-0.2,0
		c-0.2,0-0.2-0.2-0.5,0c-0.4,0.3,0,0.4-0.1,0.7c-0.1,0.1-0.3,0.1-0.4,0.2c0,0,0,0.1,0,0.1c-0.2,0.1-0.4,0-0.6,0.2c0,0,0,0,0,0.1
		c0,0,0,0,0,0c-0.2,0.1-0.5,0.4-0.5,0.6c0,0.1,0.1,0.1,0.1,0.2c0,0,0.1,0,0.1,0.1c0,0,0,0,0,0c-0.2,0.1-0.4,0.2-0.4,0.5
		c0,0,0,0.1,0,0.1c-0.2,0-0.3,0-0.4,0.2c-0.1,0.1-0.1,0.2-0.2,0.2c0,0,0,0-0.1,0c-0.1,0-0.1,0-0.2,0.1c-0.2,0-0.5,0-0.7,0
		c0,0-0.1,0.1-0.1,0.1c-0.2,0.1-0.2,0-0.2,0.2c0,0,0,0,0,0c0,0,0,0,0,0c0,0,0,0,0,0c0,0,0,0,0,0.1c-0.2,0-0.3-0.1-0.3-0.2
		c0,0,0,0-0.1,0c0-0.2-0.2-0.3-0.4-0.3c-0.1,0-0.1,0.1-0.2,0.1c-0.1,0-0.1,0-0.1,0c-0.1,0-0.2,0-0.3,0.1c0,0,0,0,0,0
		c0-0.1,0-0.2,0.1-0.2c0-0.1,0-0.2,0-0.2c0,0,0,0,0,0c0-0.1,0-0.2,0-0.2c0,0,0,0,0,0c0,0-0.1,0-0.2,0c0,0,0,0,0-0.1c0,0,0,0,0,0
		c0.1,0,0.1,0,0.2-0.1c0,0,0,0,0-0.1c0,0,0,0,0,0c0,0.1-0.1,0.1-0.1,0.1c0,0,0,0-0.1-0.1c0-0.1,0.1-0.2,0.1-0.3
		c0.2-0.1,0.3-0.9,0.2-1.2c0,0,0.1-0.3,0.1-0.3c0-0.1-0.1-0.2-0.2-0.2c0,0,0-0.1,0-0.1c0.1-0.1,0.1-0.1,0.3-0.1c0,0,0.1,0,0.1,0
		c0,0,0-0.1,0.1-0.1c0.2-0.1,0.3,0,0.5,0.1c0.2,0,0.3-0.1,0.4-0.1c0,0,0.4,0.1,0.5,0.1c0.2,0,0.6,0.1,0.7,0c0.2,0.1,0.3,0.1,0.5,0.1
		c0.1-0.2,0.1-0.4,0.2-0.6c0,0,0,0,0.1,0c0,0,0,0,0,0c0,0,0,0,0,0c0-0.1,0-0.3,0.1-0.4c0,0,0,0,0,0c0,0.1,0.1,0.1,0.1,0.2
		c0-0.1-0.1-0.2-0.2-0.3c0-0.1,0-0.1,0.1-0.2c-0.1-0.2-0.1-0.1-0.3-0.2c-0.1-0.1-0.1-0.1-0.2-0.2c0,0,0-0.1,0-0.1
		c-0.1,0-0.2-0.1-0.2-0.2c0,0,0-0.1,0-0.1c0,0,0,0,0,0c0,0-0.1,0-0.1,0c-0.2-0.1-0.4-0.2-0.6-0.2c0,0,0,0,0,0c0,0-0.1,0-0.1-0.1
		c0.1,0,0.1,0,0.2,0c0,0,0,0,0,0c0,0,0,0,0,0c0,0-0.1,0-0.1,0c0.1,0,0.1,0,0.1-0.1c-0.1,0-0.1,0-0.2,0c0,0,0-0.1,0-0.1
		c0.1,0,0.2-0.1,0.3-0.1c0,0,0,0,0,0c0,0,0.1,0,0.2,0c0,0,0,0,0-0.1c0.1,0,0.1,0,0.2,0c0,0.1,0.1,0.1,0.1,0.2c0.1,0,0.3,0,0.4-0.1
		c0,0,0,0,0,0.1c0.1,0,0.1,0,0.2,0c-0.1-0.1,0-0.2,0-0.3c-0.1,0-0.1-0.2-0.2-0.3c0.1,0,0.2,0,0.3,0c0,0.1,0,0.1,0,0.2
		c0.2-0.1,0.4,0.1,0.6-0.1c0,0-0.1,0-0.1,0c0,0,0,0,0-0.1c0.1-0.1,0.3-0.1,0.5-0.2c0.1-0.1,0.1-0.3,0.1-0.5c0.1,0,0.1-0.1,0.2-0.1
		c0.1,0,0.1,0,0.2,0c0.1,0,0.2-0.1,0.2-0.2c0.1,0,0.2,0.1,0.3,0c0,0-0.1-0.1-0.1-0.1c0.1-0.1,0.2-0.2,0.3-0.3
		c0.1-0.1,0.1-0.3,0.2-0.4c0,0,0.1,0,0.1,0c0,0,0.1,0.1,0.1,0.1c0,0,0,0,0,0.1c0,0,0,0-0.1,0c0,0.1,0,0.1,0,0.2c0.1,0,0.2,0.1,0.2,0
		c0-0.1,0.1-0.1,0.1-0.2c-0.1,0-0.1,0-0.1,0c0-0.1,0-0.1,0-0.1c0,0-0.1,0-0.1,0c0-0.1,0-0.1,0-0.2c0.1,0,0.4-0.2,0.6-0.1
		c0,0,0.1,0.1,0.1,0.1c0,0,0,0,0,0c0,0,0,0,0,0c0,0-0.1,0-0.1-0.1c0,0,0-0.1,0-0.1c0.1,0,0.2-0.1,0.4-0.1c0,0.1,0,0.1,0,0.2
		c0,0,0,0,0,0c0,0,0,0,0,0c0,0,0,0,0,0c0,0,0-0.1,0-0.1c0,0,0.1,0,0.1,0c0-0.1,0-0.1,0-0.2c0.1,0,0.2,0,0.2,0c0,0-0.1,0-0.1,0
		c0,0,0,0,0,0c0,0,0,0,0,0c0,0,0,0-0.1-0.1c0,0,0,0,0,0c-0.1,0-0.1,0-0.1,0c0.1,0,0.1,0,0.2-0.1c0-0.1-0.1-0.1-0.1-0.2
		c0-0.1,0-0.3,0-0.3c-0.1,0-0.1,0-0.1-0.1c0,0,0,0,0,0c0,0,0,0-0.1,0c0-0.1,0.1-0.1,0.1-0.2c0-0.1-0.1-0.3,0-0.4c0,0,0.1,0.1,0.2,0
		c0.1,0,0.1-0.1,0.1-0.2c0,0,0,0.1,0.1,0.1c0,0,0,0,0.1,0c0-0.1,0-0.1,0-0.2c0.1,0,0.3,0,0.4,0c0,0.1,0,0.2,0,0.2c0.1,0,0.1,0,0.2,0
		c0,0,0,0.2-0.1,0.2c0,0-0.1,0-0.1,0c0,0,0,0-0.1-0.1c0,0-0.1,0-0.1,0c0.1,0.1-0.1,0.2-0.1,0.3c0,0-0.1,0-0.1,0c0,0,0,0,0,0
		c-0.1,0.1-0.1,0.2-0.1,0.3c0.1,0,0.3,0.2,0.2,0.3c0.1,0,0.1,0,0.1,0.1c0.1,0,0.1,0,0.2,0c0.1,0,0.1,0,0.2,0c0,0,0,0,0,0.1
		c0,0.1-0.1,0.1-0.1,0.1c0,0,0,0,0,0c0,0,0.1,0,0.1,0c0,0,0,0,0,0c0,0,0,0,0,0.1c0,0,0.1,0,0.1,0c0-0.1,0.6-0.3,0.6-0.3
		c0.1,0.2,0.2,0.1,0.3,0.2c0,0.1,0,0.1,0,0.2c0.1,0,0.2,0.1,0.3,0.1c0-0.1,0-0.1,0-0.2c0.5,0,0.8-0.3,1.2-0.4c0.1,0,0.4-0.1,0.4,0
		c0,0,0.1,0.1,0.1,0.2c0.2,0.1,0.4,0,0.5-0.1c0-0.1,0-0.2,0-0.2c0.2,0,0.4,0.1,0.5,0c0-0.1,0-0.1,0-0.1c0,0,0,0,0,0c0,0,0,0,0,0
		c0-0.1-0.2-0.6-0.1-0.8c0,0,0.1-0.1,0.1-0.1c0-0.1,0-0.1,0-0.2c0-0.1,0.1-0.1,0.1-0.2c0.2,0,0.2-0.1,0.4-0.1c0,0,0,0,0,0.1
		c0.1,0,0.1,0.1,0.2,0.1c0,0.1,0,0.1,0.1,0.2c0.1,0.1,0.4,0,0.5-0.1c-0.1-0.3,0-0.4,0.1-0.6c0,0,0,0-0.1,0c0,0-0.1,0.1-0.1,0.1
		c-0.1,0-0.1,0-0.2-0.1c0-0.1,0-0.2,0-0.2c0,0,0,0-0.1,0c0-0.1,0-0.1-0.1-0.2c0.1,0,0,0,0-0.1c0.2,0,0.3-0.1,0.4-0.1
		c0.1,0,0.1,0,0.1,0c0,0,0,0,0-0.1c0.1,0,0.1,0,0.2,0c0,0,0,0,0.1-0.1c0.1,0,0.2,0,0.3,0c0.2,0,0.4,0.1,0.6,0.1
		c0.1,0,0.1-0.1,0.2-0.1c0,0,0,0,0,0c0-0.1,0-0.1-0.1-0.2c0,0,0,0,0-0.1c0,0,0,0,0.1,0c0,0,0.1,0.1,0.1,0c0,0,0,0,0-0.1
		c0.1,0,0.1,0,0.1,0c0.1-0.1,0.1-0.1,0.2-0.2c0.1,0,0.2,0.1,0.3,0.1c0,0,0,0,0.1,0c-0.2-0.4-0.5,0-0.7-0.3c0,0,0.1-0.2,0-0.2
		c0,0,0,0,0,0.1c-0.1,0-0.3,0.1-0.4,0.2c0,0-0.1,0-0.1-0.1c-0.1,0-0.1,0-0.1,0.1c-0.1,0-0.1,0-0.2-0.1c0,0,0-0.1,0-0.1
		c0,0.1,0,0.1-0.1,0.1c-0.1,0.1-0.2,0-0.2,0.1c0,0,0,0,0,0c0,0-0.1-0.1-0.1-0.1c0,0.1-0.2,0.1-0.2,0.1c0,0,0,0,0,0
		c-0.1,0-0.2,0.1-0.2,0.1c-0.1,0-0.1,0-0.2,0c0,0,0,0,0,0c-0.1,0-0.2,0.1-0.3,0.1c-0.1,0-0.1-0.1-0.1-0.1c0,0,0-0.1,0-0.1
		c-0.1,0-0.2,0-0.2,0.1c0,0,0-0.1,0-0.1c-0.1,0-0.1,0-0.2-0.1c-0.2-0.1-0.2-0.3-0.2-0.5c0-0.1,0-0.1,0-0.2c0-0.1-0.1-0.1-0.1-0.2
		c0-0.1,0-0.2,0-0.3c0,0-0.1-0.1-0.1-0.1c0-0.2,0.1-0.2,0.2-0.3c0,0,0-0.1,0-0.1c0.1,0,0.1,0,0.2,0c0.2-0.1,0.1-0.3,0.2-0.4
		c0,0,0,0,0,0c0,0,0,0.1,0.1,0.1c0,0,0,0,0,0c0.1-0.1,0.7-0.8,0.9-0.8c0.1,0,0.1,0,0.2,0c0-0.1,0-0.1,0-0.1c0,0,0-0.1-0.1-0.1
		c0-0.1,0-0.2,0-0.2c0,0,0-0.1,0-0.1c-0.2,0-0.3-0.1-0.4-0.2c-0.1,0-0.4,0.1-0.4,0c-0.1,0-0.1-0.1-0.2-0.1c-0.2,0.1-0.2,0.3-0.3,0.3
		c-0.1,0.1-0.1,0-0.3,0.1c0,0,0.1,0.1,0.1,0.1c0,0.1-0.1,0.2-0.2,0.2c0,0,0,0,0,0c0,0.1,0.1,0.1,0.2,0.2c0,0,0,0,0,0
		c-0.1,0.1-0.2,0.2-0.3,0.3c-0.1,0.1-0.3,0.2-0.4,0.3c0,0-0.1,0-0.1-0.1c-0.1,0-0.1,0.1-0.2,0.2C52,28,52,28,51.9,28.2
		c-0.1,0-0.1,0-0.2,0c0,0.1,0,0.1,0,0.2c0,0-0.1,0.1-0.1,0.1c-0.1,0-0.1,0-0.2-0.1c0,0.2,0.1,0.3,0,0.5c0,0-0.1,0-0.1,0
		c0,0.1,0.1,0.5,0,0.6c0,0,0,0,0,0c0.1,0,0.1,0,0.2,0.1c0,0,0.1,0,0.1,0c0.1,0.1,0.2,0.3,0.3,0.3c0,0.1,0.1,0.1,0.1,0.2
		c0,0-0.1,0-0.1,0c0,0-0.3,0.3-0.4,0.2c-0.1,0-0.5-0.2-0.5-0.1c0,0,0,0,0,0.1c0,0,0,0,0,0c0.2-0.1,0.3,0.1,0.4,0.1
		c0.1,0,0.2-0.1,0.4-0.1c0,0,0,0,0,0c0,0,0,0,0,0c0,0,0,0,0,0c0,0,0,0,0,0c0,0-0.1,0-0.1,0c0,0,0,0.1,0,0.1c-0.1,0-0.1,0.1-0.2,0.2
		c0,0-0.1,0-0.1,0c0,0,0,0,0,0c0,0,0-0.1,0-0.1c-0.1,0,0,0.3-0.3,0.2c0,0,0,0,0,0.1c-0.1,0-0.2,0-0.2,0c0,0.1,0.2,0.3,0.1,0.4
		c0,0-0.1,0-0.1,0c0,0,0,0.1,0,0.1c0,0,0,0,0.1,0c0,0.1,0,0.1,0,0.1c0,0.1-0.1,0.1-0.1,0.2c0,0.1,0,0.1,0,0.2
		c-0.1,0.2-0.2,0.3-0.2,0.5c0,0,0,0,0,0c0,0-0.1,0-0.1-0.1c-0.1,0-0.2,0-0.4,0c0,0,0,0,0,0.1c0,0,0,0-0.1,0c-0.1,0-0.1,0.1-0.1,0.2
		c0,0.1,0.1,0.1,0,0.1c0,0,0,0,0,0.1c-0.2,0-0.3,0-0.5,0c0-0.1,0-0.1,0.1-0.2c-0.1-0.1-0.2-0.2-0.2-0.3c0,0,0.1,0,0.1,0
		c0,0,0,0,0-0.1c0,0,0.1,0,0.1,0c0,0,0,0,0-0.1c-0.1-0.1-0.3-0.2-0.3-0.5c0,0,0,0-0.1,0c0-0.2,0-0.2-0.1-0.3c0-0.1,0.1-0.2,0.1-0.2
		c-0.1,0-0.1,0-0.1,0c0,0,0,0,0-0.1c0,0-0.1,0-0.1,0c0-0.1,0-0.3-0.1-0.3c0-0.1,0.1-0.1,0-0.2c0,0,0,0,0,0c-0.2,0.1-0.2,0-0.2-0.1
		c0,0,0-0.1,0-0.1c0,0,0,0-0.1,0c0,0.1,0,0.2-0.1,0.3c-0.1,0.1-0.1,0-0.2,0c-0.1,0-0.1,0.1-0.1,0.1c-0.2,0.1-0.3,0.2-0.5,0.4
		c-0.1,0-0.4,0.1-0.5,0.1c0-0.1,0-0.1-0.1-0.1c0,0,0,0,0,0.1c0,0,0,0-0.1,0c0,0,0,0,0.1-0.1c-0.2,0-0.3-0.1-0.4-0.2
		c0-0.1-0.1-0.1-0.1-0.2c0-0.1,0.1-0.1,0-0.2c0,0,0,0,0.1,0c0,0,0,0.1,0,0.1c0,0,0,0,0,0c0-0.1,0.1,0,0.1,0c0,0,0,0,0,0
		c0,0,0,0,0.1-0.1c0,0,0,0,0,0c-0.1,0-0.1,0-0.1,0c0,0,0,0,0-0.1c0.1,0,0.1-0.1,0.2-0.1c0,0,0,0,0,0c-0.1,0-0.1,0-0.1,0
		c0,0,0.1-0.1,0.1-0.1c0,0-0.1,0.1-0.1,0.1c0,0,0,0,0,0c0-0.1,0-0.1-0.1-0.1c0,0,0,0.1,0,0.1c0,0-0.1,0-0.1,0c0,0,0,0,0,0
		c0,0,0,0,0,0c0,0,0,0,0,0c0,0,0-0.1,0-0.1c0,0,0.1-0.1,0.1-0.1c0,0,0,0,0,0c0,0,0,0,0,0.1c0,0,0,0,0,0c0,0,0,0,0-0.1
		c0,0,0.1,0,0.1,0c0,0,0,0,0,0c0.1,0,0.1,0,0.2-0.1c-0.1,0-0.1,0-0.2,0c0,0,0,0-0.1-0.1c0,0,0,0,0,0c0.1,0,0.1-0.1,0.1-0.2
		c-0.2,0-0.2,0-0.3-0.1c0.1-0.1,0.1-0.1,0.2-0.2c0,0,0,0,0-0.1c-0.1,0-0.1,0-0.2,0c0,0,0,0,0,0c0-0.1,0.1-0.1,0.2-0.2c0,0,0,0,0,0
		c-0.1,0-0.1-0.1-0.1-0.2c0.1-0.1,0-0.2,0.1-0.3c0.1,0,0.2,0,0.3,0c0,0,0,0,0,0c-0.1,0-0.1,0-0.2-0.1c0,0,0,0,0-0.1
		c0.1,0,0.2-0.2,0.3-0.1c0.1,0,0.1-0.1,0.1-0.2c0.2,0,0.3,0.1,0.4,0c-0.1,0-0.2-0.1-0.2-0.2c0,0,0,0,0,0c0.2,0,0.4,0,0.5,0
		c0-0.1,0.2-0.4,0.3-0.3c0,0,0.1,0,0.1,0.1c0,0,0,0,0,0c0-0.1,0.2-0.1,0.2-0.2c0,0,0-0.1,0-0.1c0.1-0.1,0.3-0.3,0.4-0.4
		c0.1,0,0.1,0.1,0.2,0c0,0,0,0,0,0c0,0,0-0.1,0-0.1c0.1-0.1,0.2-0.2,0.3-0.3c0.1,0,0.1,0,0.2,0c0-0.1,0-0.1,0-0.2c0,0-0.1,0-0.1,0
		c0.1-0.2,0.1-0.3,0.3-0.3c0-0.1,0-0.1,0-0.2c0.1,0,0.1,0,0.2,0c0,0,0,0,0,0c0-0.1-0.1-0.1-0.2-0.2c0,0,0.1-0.1,0.1-0.1
		c0.1,0,0.2,0,0.2,0c0,0,0,0,0,0c0-0.1-0.1-0.1-0.1-0.2c0,0,0,0,0,0c0.1-0.1,0.3-0.1,0.4-0.2c-0.1,0-0.1,0-0.1-0.1
		c0.1,0,0.1-0.1,0.2-0.1c0.1,0,0.1,0,0.2,0c0-0.1,0.1-0.1,0.1-0.1c0,0,0,0,0-0.1c0,0-0.1-0.1-0.1-0.1c0.1,0,0.1-0.1,0.2-0.1
		c0,0,0,0,0,0c0,0.1,0.1,0.1,0.1,0.1c0,0,0,0,0,0c0,0,0.1-0.1,0.1-0.1c0-0.1,0-0.1,0-0.2c0.1,0,0.2,0,0.2-0.1c0,0,0,0,0,0
		c0,0-0.1-0.1-0.1-0.1c0,0,0.1-0.1,0.1-0.1c0.2-0.1,0.1-0.1,0.2-0.2c0.2-0.1,0.2,0.1,0.3-0.3c0,0,0.1,0.1,0.1,0.1
		c0.2-0.1,0.2,0,0.4,0c0.1-0.1,0.2-0.4,0.3-0.4c0,0,0,0,0,0c0,0,0,0,0,0c0,0.1-0.1,0.2-0.1,0.3c0.1-0.1,0.2-0.2,0.2-0.3
		c0.2,0,0.2-0.1,0.3-0.2c0,0,0,0,0,0c0.1,0.1,0.1,0.1,0.2,0.2c0.1-0.5,0.3-0.2,0.5-0.1c0-0.1,0.1-0.3,0.2-0.4c0.1,0,0.1,0,0.2,0
		c0.2-0.2,0.3-0.3,0.7-0.3c-0.1,0.2-0.3,0.2-0.3,0.6c0,0,0,0,0.1,0c0.1-0.2,0.3-0.5,0.5-0.6c0,0.1,0,0.3,0,0.4
		c0.2-0.1,0.3-0.2,0.3-0.4c0.1,0,0.3-0.1,0.3,0c-0.1,0.1-0.1,0.2-0.2,0.4c0.1,0,0.1,0,0.2,0c0-0.2,0.1-0.3,0.2-0.4
		c0.2,0.1,0.3,0.2,0.4,0.2c0.1,0,0.2,0,0.3,0c0,0,0.1,0,0.1,0.1c0,0,0,0.1,0,0.1c-0.2,0.2-0.5,0.1-0.8,0.1c0.1,0.1,0.3,0.2,0.4,0.3
		c0.2,0,0.4-0.1,0.5,0c0.1,0,0.1,0,0.2-0.1c0.1-0.1,0.2-0.1,0.3-0.2c0,0.3,0.2,0.3,0.5,0.4c0,0.1,0,0.1,0,0.2c0,0,0.1-0.1,0.1-0.1
		c0.3,0,0.5,0,0.8,0.1c0.2,0.1,0.3,0.1,0.5,0.2c0.1,0,0.2,0.1,0.3,0.1c0.2,0.1,0.3,0.3,0.5,0.4c0.2,0.1,0.4,0.1,0.5,0.2
		c0.2,0.1,0.3,0.2,0.5,0.3c0,0.2,0,0.2,0.1,0.3c0,0.3-0.2,0.4-0.3,0.5c-0.7,0.6-1.9,0-2.6-0.2c-0.1,0-0.2,0-0.3,0
		c-0.1-0.1-0.2-0.4-0.5-0.2c0.2,0.2,0.3,0.3,0.5,0.5c0.1,0.1,0.3,0.1,0.4,0.2c0.1,0.1,0.1,0.4-0.1,0.4c0,0.1,0.2,0.7,0.3,0.7
		c0.1,0.1,0.3,0,0.4,0.1c0,0.1,0,0.1,0.1,0.2c0.1,0,0.2,0,0.3,0c0.2,0.1,0.6,0.1,0.4-0.3c-0.1,0-0.2,0-0.3,0c-0.1,0-0.3-0.2-0.3-0.3
		c0.1-0.1,0.1-0.2,0.2-0.2c0.2,0.1,0.5,0.3,0.8,0.4c0.1,0,0.2,0,0.3,0c0,0,0.1,0,0.1,0c0.2-0.2-0.2-0.4-0.2-0.7
		c0.2-0.3,0.8-0.3,0.9-0.6c0.3,0,0.6,0.2,0.8,0.3c0,0,0,0,0,0c0-0.1,0-0.1,0-0.2c0.1-0.3,0.2-0.2,0-0.6c-0.1,0-0.2-0.1-0.2-0.1
		c0,0,0,0,0,0c0.1-0.1,0.1-0.2,0.2-0.3c0.1-0.2-0.2-0.3-0.2-0.5c0.1,0,0.2,0,0.3,0c0.1,0,0.3,0,0.4,0c0.2,0,0.4,0.4,0.4,0.5
		c-0.3,0-0.7,0-0.7,0.3c0.3,0.2,0.4,0.4,0.9,0.3c0.1,0,0.2,0,0.2,0c0.1-0.1,0.1-0.4,0.2-0.5c0.1,0,0.1,0,0.2-0.1
		c0.3-0.1,0.6-0.3,0.9-0.4c0.2-0.1,0.4-0.2,0.6-0.2c0,0,0,0.1,0,0.1c0,0,0,0,0,0c0.4-0.1,0.1-0.3,0.6-0.3c0,0.1,0,0.2,0,0.3
		c-0.1,0-0.1,0-0.2,0c0,0,0,0.1,0,0.1c0.2,0.1,0.3,0,0.5,0c0,0.1,0,0.1,0.1,0.1c0.1-0.1,0.1-0.3,0.2-0.3c0.1,0,0.4-0.1,0.5,0
		c0.1,0,0.2,0.1,0.3,0.1c0.1,0,0.1-0.1,0.2-0.1c0.2-0.2,0.4-0.2,0.6,0c0,0.1-0.1,0.1-0.1,0.2c0,0.1,0.2,0.2,0.3,0.1
		c0,0,0-0.2,0.1-0.2c0.2,0,0.4,0,0.4-0.3c-0.1-0.1-0.2-0.2-0.3-0.3c0,0,0,0,0,0c0.1,0,0.1-0.2,0.3-0.2c0.2-0.1,0.7,0.1,0.9,0.1
		c0.8,0.2,1.5,0.5,2.1,1c0,0,0.1,0,0.1,0c0.1-0.1,0.2-0.3,0.3-0.4c-0.2,0-0.4,0-0.4-0.2c0-0.1,0-0.2,0-0.2c-0.1-0.1-0.4-0.1-0.5-0.2
		c0.1-0.3,0.4-0.2,0.2-0.7c-0.1,0-0.1,0-0.2,0c-0.1-0.4,0.5-0.4,0.6-0.7c0.1-0.1,0.1-0.2,0.2-0.3c0,0,0-0.1,0-0.1
		c-1.1-0.8-2.2-1.6-3.3-2.3c-0.1,0-0.1,0.1-0.1,0.1c0,0,0.1,0,0.1,0.1c0,0-0.1,0.1-0.1,0.1c-0.1,0-0.1,0.1-0.2,0.1
		c-0.1,0.1-0.3,0-0.5,0c0,0,0,0-0.1,0.1c0,0,0,0.1,0,0.1c0,0,0.1,0,0.1,0.1c0,0,0,0,0,0c-0.1,0.1-0.2,0.1-0.3,0.2
		C68.1,20,68.1,20,68,20c0,0-0.1,0.1-0.1,0.1c0,0,0,0,0,0c0,0,0.1,0.1,0.1,0.1c0,0,0,0.1,0,0.1c-0.1,0.1-0.2,0.3-0.3,0.3
		c-0.2,0-0.3-0.1-0.5-0.2c-0.4-0.1-0.4,0.2-0.7-0.1c0,0,0,0,0,0c0.3-0.1,0.2-0.3,0.8-0.3c0,0,0-0.1,0-0.1c0,0-0.1-0.1-0.1-0.1
		c0,0,0,0,0,0c0.1-0.2,0.3-0.1,0.4-0.2c0-0.1-0.1-0.1-0.1-0.1c0,0,0,0,0.1-0.1c0-0.1,0.2-0.3,0.3-0.3c0,0,0.1,0,0.2,0
		c0.1-0.1,0.3-0.3,0.5-0.4C63,15.5,56.7,13.6,50,13.6C44.4,13.6,39,15,34.3,17.3z M34.5,19C34.5,19,34.5,19,34.5,19
		C34.5,19,34.5,19,34.5,19C34.5,19,34.5,19,34.5,19C34.5,19,34.5,19,34.5,19z M66,39.8C65.9,39.8,65.9,39.8,66,39.8
		c-0.1-0.1,0-0.1-0.1-0.2c0-0.1,0.1-0.2,0.1-0.3c-0.1-0.1-0.2-0.1-0.3-0.1c0-0.1-0.1-0.1-0.1-0.2c0,0-0.1,0-0.1,0
		c0-0.2-0.1-0.3-0.2-0.5c-0.1,0-0.2,0-0.3-0.1c0,0,0-0.1,0-0.1c0,0,0,0,0,0c0.2,0,0.4,0.1,0.5,0c0,0,0,0,0,0c-0.1,0-0.1-0.1-0.2-0.1
		c0-0.1,0.1-0.1,0.1-0.1c0,0,0-0.1,0.1-0.1c0.1,0,0.1,0,0.1,0c0.2,0,0.4,0,0.6,0.1c0,0,0,0,0,0c-0.1,0-0.2-0.1-0.2-0.1
		c0.1-0.2,0.2-0.2,0.1-0.5c0,0,0,0,0.1-0.1c0,0,0-0.1-0.1-0.1c-0.1,0-0.2,0-0.2-0.1c-0.1,0-0.1,0.1-0.2,0.1c-0.1,0-0.2-0.1-0.3-0.1
		c-0.2,0-0.4,0.2-0.6,0.3c-0.1,0-0.1,0-0.2,0c-0.1,0-0.2,0.2-0.3,0.2c0,0.1,0,0.1,0,0.1c0,0,0,0-0.1,0c-0.1,0.1-0.2,0.2-0.4,0.1
		c0,0,0,0,0,0c0,0.1-0.1,0.3-0.2,0.4c0,0.1-0.2,0.1-0.2,0.2c0,0,0,0,0,0c0,0,0.1,0,0.1,0.1c0.1,0.1,0.2,0.2,0.2,0.4c0,0,0,0,0,0
		c0-0.1,0-0.1,0-0.2c0,0,0,0,0,0c0,0,0,0,0,0c-0.1,0.1-0.1,0.3,0,0.4c0.1,0,0,0.1,0.1,0.2c0,0,0,0,0.1,0c0.1,0.1,0.1,0.2,0.2,0.3
		c0,0,0.1,0,0.1,0c0.1,0.1,0.2,0.2,0.2,0.3c0,0.1,0,0.1,0.1,0.2c0,0.1,0.1,0.1,0.1,0.2c0.1,0.1,0.3,0,0.3,0.2c0,0,0,0,0,0
		c0,0,0,0,0,0c-0.4-0.2-0.4,0.2-0.4,0.5c0,0,0,0-0.1,0c0,0,0,0.1,0,0.1c0,0,0,0,0,0c0,0,0,0,0-0.1c0,0,0,0,0,0
		c0,0.2-0.2,0.5-0.1,0.8c0.1,0,0.3,0.1,0.5,0.1c0.2,0.4,0.8,0.4,1.2,0.3c0.1,0,0.3,0,0.4-0.1c0.1-0.1,0-0.4,0-0.6c0,0,0-0.1,0-0.2
		c0-0.1,0.1-0.2,0.1-0.3c0-0.1-0.1-0.1-0.2-0.2c-0.1,0-0.1,0-0.2,0c0,0,0,0,0-0.1c0,0,0,0,0-0.1c0.1,0,0.1,0,0.2,0c0,0,0,0,0,0
		c0,0-0.1,0-0.1-0.1c0,0,0,0,0-0.1c0,0,0-0.1,0.1-0.1c-0.1,0-0.2,0-0.3,0c0-0.1,0-0.4,0.1-0.5c0,0,0,0.1,0.1,0.1c0.1,0,0.1,0,0.2,0
		c0,0,0,0,0-0.1c0,0,0,0,0.1,0c0,0,0,0.1,0,0.1c0,0,0,0,0,0c0,0,0.1,0,0.1,0c0.1,0,0.1,0,0.1,0c0,0,0-0.1,0-0.1c0.1,0,0.1,0,0.1,0
		c0,0,0.1,0,0.1-0.1c-0.1-0.1-0.2-0.1-0.3-0.2c0-0.1-0.1-0.2-0.1-0.3c-0.1,0-0.3,0-0.4,0c0,0.1,0,0.3,0,0.4c0,0,0,0,0,0
		C66,40,66,39.9,66,39.8C65.9,39.8,65.9,39.8,66,39.8z M55.3,39.9C55.3,39.9,55.3,39.9,55.3,39.9c-0.1-0.1-0.1-0.1-0.1-0.1
		c0,0,0,0,0,0C55.2,39.9,55.3,39.9,55.3,39.9C55.3,39.9,55.3,39.9,55.3,39.9z M67.2,20.7c0.1,0,0.2,0.1,0.3,0.1
		c-0.1,0.4-0.5,0.2-0.4,0.8c0.1,0.3,0.2,0.6,0.4,0.7c0.1,0.1,0.3,0.1,0.4,0.3c-0.2,0-0.4,0-0.6,0c-0.1,0-0.2,0.2-0.3,0.1
		c0,0-0.1-0.1-0.1-0.1c-0.2,0-0.3,0-0.4,0c0-0.2,0.1-0.2,0.2-0.2c0,0,0-0.1,0-0.1c-0.2-0.1-0.4-0.2-0.7-0.3c-0.1,0-0.2,0.2-0.4,0
		c0,0-0.1-0.1-0.1-0.1c0-0.2,0-0.2,0.1-0.3c0.1,0,0.1,0.1,0.2,0c0.1,0,0.3-0.3,0.3-0.4c-0.1,0-0.2-0.1-0.2-0.1c0,0,0,0,0,0
		c0.1-0.1,0.2-0.2,0.3-0.3c0.1,0,0.2,0,0.3,0C66.7,20.8,67,20.6,67.2,20.7z M55.1,15.4c-0.1,0.1-0.2,0.1-0.3,0.2
		c-0.1,0-0.2,0-0.4,0.1c-0.1,0.1-0.2,0.1-0.2,0.2c-0.4,0-0.8,0-1.2-0.1c0-0.1,0-0.1,0-0.2c0.3,0,0.3-0.2,0.4-0.4c0,0,0,0,0,0
		c-0.5,0-1.1,0.1-1.5-0.1c0,0,0,0,0,0c0.1-0.1,0.2-0.2,0.3-0.2c0.1-0.1,0.2-0.3,0.3-0.4c0.1,0.1,0.2,0.2,0.2,0.3
		c0.2,0.2,0.5-0.2,0.7,0.2c0,0,0,0,0,0c0.2-0.1,0.2-0.3,0.4-0.4c0,0.1-0.1,0.3,0,0.5c0.1,0,0.1,0,0.2,0c0.1-0.1,0.2-0.3,0.4-0.3
		c0,0,0.1,0,0.1,0c0,0.1,0.1,0.1,0.1,0.2c0.2,0,0.4-0.1,0.5,0c0.1,0,0.2,0,0.3,0.1c0,0.1,0.1,0.1,0.1,0.2c0,0,0,0,0,0
		C55.4,15.2,55.2,15.3,55.1,15.4z M52.2,15.7c0.1,0.1,0.2,0,0.3,0.1c0.1,0,0.3,0.2,0.4,0.3c-0.1,0-0.1,0.1-0.2,0.1
		c-0.1,0-0.3,0.1-0.4,0.1c-0.2,0.1-0.2,0.4-0.2,0.6C52,17,52,17.1,51.9,17.2c-0.1,0-0.2,0-0.2,0.1c-0.1,0.1-0.2,0.3-0.2,0.6
		c0,0-0.1,0.1-0.1,0.1c-0.2,0.1-0.9-0.5-1-0.6c0,0,0,0,0,0c0,0,0.1-0.1,0.1-0.1c0.3,0,0.6,0,0.8-0.2c0,0-0.1-0.1-0.1-0.1
		c-0.3,0-0.6,0.1-0.9,0.1c0-0.1-0.1-0.1-0.1-0.2c0,0,0,0,0,0c0.4-0.2,0.8-0.2,1.1-0.4c0,0,0,0,0,0c-0.2,0-0.5-0.1-0.6-0.3
		c-0.2,0.1-0.3,0.4-0.5,0.4c-0.3,0.1-0.8-0.4-0.9-0.5c0.1-0.1,0.2-0.1,0.3-0.2c0-0.1-0.1-0.2-0.2-0.2c-0.1,0-0.2,0.1-0.3,0.1
		c-0.1-0.1-0.2-0.2-0.2-0.4c0.1-0.1,0.2-0.2,0.4-0.2c0.1,0,0.1,0,0.2,0c0.1,0,0.2-0.1,0.3,0c0,0.1,0,0.3,0.1,0.3
		c0.1,0,0.2,0,0.3,0.1c0,0,0,0,0,0c0-0.1,0-0.2,0.1-0.3c0.1-0.1,0.2-0.1,0.3,0c0.1,0.1,0.3,0.5,0.5,0.5c0,0,0.1,0,0.1-0.1
		c0-0.1-0.2-0.4-0.2-0.6C51,15.1,51,15,51.1,15c0.1,0,0.2,0.1,0.3,0.1c0.1,0,0.2,0,0.2,0c0,0,0.1,0,0.1,0.1c0,0.1-0.1,0.3,0,0.4
		c0,0,0.1,0,0.1,0c0.1-0.1,0.1-0.2,0.2-0.2C52.1,15.5,52.2,15.6,52.2,15.7z M44.5,34.8C44.5,34.8,44.5,34.8,44.5,34.8
		c0.1,0,0.4,0,0.4,0.1c0,0,0,0,0,0c0,0,0,0.1,0,0.1c-0.1,0-0.2,0-0.2,0.1c-0.1,0-0.2,0.1-0.3,0.1c-0.1,0-0.2,0-0.3,0
		c-0.1,0-0.1,0-0.2,0c0,0-0.1-0.1-0.1,0c-0.1,0-0.2,0-0.4,0.1c0,0,0,0,0,0.1c-0.3,0-0.3-0.1-0.6,0c0,0.3-0.1,0.2-0.3,0.1
		c0,0-0.1,0-0.1,0c-0.1,0-0.2,0.1-0.3,0.2c0,0,0,0-0.1-0.1c0,0-0.1,0-0.1,0c0,0,0,0,0,0c0.2,0,0.5-0.3,0.5-0.4c0.1,0,0.1,0,0.1-0.1
		c0.2-0.1,0.3,0,0.5,0c0-0.1,0.1-0.2,0.1-0.2c-0.1,0-0.2,0.1-0.3,0.1c0,0,0,0,0,0c0,0,0,0,0,0c-0.1,0-0.2-0.1-0.3-0.1
		c-0.1,0-0.2,0-0.4,0c0,0-0.1-0.1-0.1-0.1c0,0,0,0,0,0c0-0.1,0.3-0.1,0.4-0.2c0-0.1,0-0.2,0-0.2c0,0,0,0,0,0c-0.1,0-0.1,0-0.2,0
		c0,0,0,0,0,0c0.1-0.2,0.4-0.2,0.7-0.2c0,0,0,0,0,0c-0.1-0.2,0-0.3,0-0.5c0,0,0,0,0,0c-0.1,0-0.1,0-0.2,0c0-0.1-0.1-0.1-0.1-0.2
		c0-0.1,0.1-0.2,0.2-0.2c-0.3-0.1-0.2,0-0.4,0c-0.1,0-0.1,0-0.2,0c0,0.1,0,0.1-0.1,0.1c-0.1,0-0.1,0-0.2-0.1c0-0.1,0.2-0.3,0.2-0.4
		c-0.1,0-0.1-0.1-0.1-0.2c0.1,0,0.1,0,0.1-0.1c0,0,0-0.1,0-0.1c0,0,0,0,0,0c-0.1,0.1-0.2,0.1-0.3,0.2c0,0,0,0,0,0
		c-0.1-0.1,0.1-0.3,0.1-0.4c0,0-0.1,0-0.1-0.1c0,0,0,0,0,0c0,0-0.1,0.1-0.1,0.1c0,0-0.1,0-0.1,0c0,0,0.2-0.3,0.2-0.3
		c0-0.1,0-0.1,0-0.2c0,0,0.1,0,0.1-0.1c0,0-0.1-0.1-0.1-0.1c0,0,0-0.1,0.1-0.1c0.1,0,0.1,0,0.2,0c0-0.1-0.1-0.1-0.1-0.2
		c0.1,0,0.1,0,0.2-0.1c0,0-0.1-0.1-0.1-0.1c0,0,0.1-0.1,0.1-0.1c0.1,0,0.1,0.1,0.2,0.1c0.2,0,0.4-0.1,0.6-0.1c0,0.1,0.1,0.1,0,0.1
		c-0.1,0.2-0.4,0.2-0.5,0.4c0,0,0,0,0,0c0.2,0,0.7-0.1,0.9,0c0,0,0,0,0,0.1c-0.1,0.2-0.2,0.6-0.5,0.6c0,0,0,0,0,0
		c0,0,0.1,0.1,0.1,0.1c0,0,0,0,0,0c-0.1,0.1-0.3,0.1-0.4,0.1c0,0,0,0,0,0c0.2,0.1,0.2,0,0.4,0c0.1,0,0.4,0.2,0.4,0.3
		c0.1,0.1,0,0.3,0.1,0.4c0.1,0.1,0.1,0,0.2,0.1c0.1,0.1,0.1,0.2,0.2,0.3c0,0.1,0,0.3,0,0.3c0.2,0.2,0.3,0.2,0.1,0.4c0,0,0.1,0,0.1,0
		c0.1-0.2,0.4-0.1,0.5,0c0,0.1,0,0.2,0,0.2C45,34.5,44.7,34.8,44.5,34.8z M42.2,32.5c0,0,0,0.1,0,0.1c0,0,0,0,0,0.1c0,0,0,0,0,0
		C42.1,32.6,42.1,32.5,42.2,32.5C42.1,32.5,42.1,32.5,42.2,32.5z M42.1,33.2c-0.1,0.1-0.1,0.2-0.3,0.2c0.1,0.1,0.2,0.4,0.2,0.6
		c0,0.1-0.1,0.2-0.1,0.3c-0.1,0-0.1,0-0.2,0c0,0,0,0,0,0.1c-0.1,0-0.2,0-0.3,0c-0.1,0.1-0.2,0.2-0.3,0.2c0,0-0.1,0-0.1,0
		c-0.1,0-0.2,0.1-0.4,0.1c0-0.1,0-0.1,0-0.2c-0.1,0-0.1,0-0.2,0c0,0,0-0.1,0-0.1c0,0,0.1,0,0.1,0c0,0,0,0,0,0c-0.1,0-0.1,0-0.2,0
		c0,0,0,0,0-0.1c0.1,0,0.2,0,0.3,0c0,0,0-0.1,0.1-0.1c0.1,0,0.2,0,0.2-0.1c-0.1,0-0.1,0-0.2,0c0,0,0,0,0,0c0,0,0-0.1,0.1-0.1
		c0,0,0,0,0-0.1c0.1-0.1,0.1-0.1,0.2-0.1c0,0,0,0,0-0.1c-0.1,0-0.4,0-0.5-0.1c0,0,0,0,0.1-0.1c0,0,0,0,0,0c0,0,0.1,0,0.1,0
		c0-0.1,0-0.1,0.1-0.1c0,0,0,0,0,0c-0.1,0-0.1,0-0.2,0c0,0,0,0,0-0.1c0-0.1,0.1-0.1,0.1-0.2c0.1,0.1,0.3,0.1,0.5,0.1
		c0,0,0-0.1,0-0.1c0.1,0,0.2-0.1,0.2-0.2c-0.1,0-0.2,0-0.3,0c0,0,0,0,0,0c0,0,0.1,0,0.1,0c0-0.2,0.1-0.3,0.3-0.3
		c0,0.1,0.1,0.1,0.1,0.1c0.2-0.1,0.4-0.1,0.6,0C42,32.9,42.1,33.1,42.1,33.2z M40.4,44.7c0-0.1,0.2-0.2,0.2-0.3c0-0.1,0-0.2,0-0.3
		c0-0.1,0.3-0.3,0.3-0.3c0.2-0.2,0.5-0.2,0.7-0.4c0.1-0.1,0.2-0.7,0.3-0.7c0,0,0.1,0,0.1-0.1c0.1,0.1,0.2,0.3,0.4,0.3
		c0.2,0.1,0.7-0.1,0.7-0.1c0,0.1,0.3,0.2,0.4,0.1c0.2,0,0.2-0.2,0.3-0.2c0,0,0.3-0.1,0.3-0.1c0,0,0.1,0,0.1,0.1
		c0.1-0.1,0.2-0.2,0.4-0.3c0.2-0.1,0.4,0,0.6-0.1c0.1,0,0.1-0.1,0.2-0.1c0.1,0,0.1,0.1,0.2,0c0.1,0,0.1-0.1,0.2-0.1
		c0.3-0.1,0.5,0.1,0.7,0.1c0.2,0,0.3-0.1,0.4-0.2c0.1,0,0.1,0.1,0.2,0.1c0.1,0,0.1-0.1,0.2-0.1c0.1,0,0.2,0.1,0.2,0.1
		c0.2,0.1,0.5-0.2,0.6-0.2c0,0,0.1,0,0.1,0c0.1,0,0.1,0.1,0.2,0.1c0,0.1,0,0.1,0.1,0.2c0,0,0,0,0,0c0.1-0.1,0.2-0.1,0.3-0.2
		c0,0.3-0.5,0.4,0,0.7c0,0.1,0,0.1,0,0.2c0,0.1-0.4,0.4-0.5,0.5c0,0.1,0.2,0.2,0.3,0.3c0.1,0,0.1,0,0.2,0c0,0,0,0.1,0,0.1
		c0.2,0.1,0.4,0.2,0.5,0.2c0.1,0,0.3,0,0.4,0c0.1,0,0.2,0,0.3,0.1c0,0,0.1,0.1,0.1,0.1c0.1,0,0.1,0,0.2,0c0.1,0.1,0.2,0.4,0.3,0.5
		c0.1,0.1,0.6,0.1,0.8,0.2c0.2,0.1,0.3,0.3,0.6,0.3c0.1,0,0.2-0.1,0.2-0.1c0.4-0.2,0-0.4,0.2-0.7c0.1-0.2,0.7-0.5,1.1-0.3
		c0.1,0.1,0.1,0.2,0.2,0.2c0.1,0,0.3,0.1,0.5,0.1c0.1,0,0.1,0,0.2,0c0.1,0,0.1,0.2,0.2,0.2c0.1,0,0.3,0,0.4,0c0.2,0,0.4,0.1,0.6,0.1
		c0,0,0,0,0.1,0.1c0.1,0,0.2,0,0.3,0c0.1,0,0.2,0.1,0.3,0.1c0.1,0,0.1-0.1,0.2-0.1c0.2-0.1,0.5-0.2,0.8-0.2c0,0.1,0.1,0.1,0.1,0.2
		c0.2,0,0.2,0.1,0.4,0c0.2,0.1,0.3,0,0.5,0c0.1,0.3,0.2,0.5,0.3,0.8c-0.2,0.2-0.1,0.5-0.3,0.7c0,0-0.1,0-0.1,0
		c-0.2-0.2-0.4-0.6-0.6-0.9c-0.1,0-0.1,0.1-0.1,0.1c0.1,0.3,0.3,0.5,0.4,0.7c0.1,0.2,0.2,0.4,0.2,0.6c0.2,0.3,0.3,0.6,0.5,0.9
		c0.1,0.1,0.1,0.1,0.2,0.2c0,0-0.1,0.1-0.1,0.1c0,0.1,0,0.3,0.1,0.3c0.1,0.1,0.2,0.1,0.2,0.1c0.1,0.1,0.3,0.4,0.4,0.6
		c0.1,0.3,0,0.8,0.1,1c0.1,0.1,0.4,0.2,0.5,0.4c0.1,0.3,0.2,1,0.5,1.2c0,0,0,0,0,0c0,0,0-0.1,0-0.2c0.1,0,0.1,0.2,0.2,0.2
		c0.1,0,0.1,0,0.2,0c0.1,0.1,0.2,0.3,0.4,0.4c0,0,0.1,0,0.2,0c0.1,0.1,0.1,0.2,0.1,0.3c0.1,0.1,0.5,0.2,0.5,0.4
		c-0.1,0.1-0.3,0.2-0.4,0.2c0,0,0,0,0,0c0,0,0,0,0,0c0.1,0,0.2,0,0.3,0c0.1,0.2,0.3,0.3,0.4,0.5c0.1,0,0.2,0,0.2,0
		c0.1-0.1,0.3-0.1,0.4-0.2c0.2,0,0.2,0.1,0.3,0.1c0.1-0.1,0.2-0.1,0.3-0.2c0,0,0,0,0,0c0.1,0,0.2,0,0.2,0c0.1,0,0.2-0.1,0.3-0.1
		c0.1,0,0.2,0.1,0.3,0c0.2-0.1,0.4-0.2,0.5-0.3c0.1,0,0.1,0.1,0.2,0.1c0,0,0,0,0,0c0,0.1,0,0.1-0.1,0.2c0,0.1,0,0.2,0,0.2
		c0,0.1-0.1,0.1-0.1,0.2c0,0.1,0,0.2,0,0.4c-0.1,0.1-0.2,0.3-0.2,0.4c-0.1,0.1-0.1,0.1-0.2,0.2c0,0,0,0.1,0,0.1
		c-0.1,0.2-0.2,0.3-0.3,0.5c0,0.1,0,0.1,0,0.2c-0.2,0.4-0.5,0.7-0.7,1c-0.1,0.1-0.2,0.3-0.4,0.4c-0.3,0.3-0.7,0.5-1,0.7
		c-0.3,0.3-0.6,0.7-0.9,1c0,0.1,0,0.1,0,0.1c-0.1,0-0.1,0.1-0.3,0.1c0,0.2-0.1,0.2-0.3,0.3c0,0.3-0.2,0.3-0.3,0.5c0,0.1,0,0.1,0,0.2
		c0,0-0.1,0-0.1,0.1c-0.1,0.1-0.2,0.5-0.1,0.6c0,0.1,0.2,0.2,0.3,0.3c0,0.1-0.1,0.2-0.1,0.3c0,0,0.1,0,0.1,0.1
		c-0.1,0.2,0,0.6,0.1,0.8c0.1,0.2,0.3,0.2,0.4,0.4c0,0.1-0.1,0.2-0.1,0.2c0,0.1,0.1,0.4,0.1,0.6c0,0.1-0.1,0.1-0.1,0.2
		c0.1,0.1,0.1,0.4,0.1,0.6c0,0,0.1,0,0.1,0c0,0,0,0,0,0c0,0.1-0.1,0.1-0.1,0.2c0,0,0,0.1,0,0.1c-0.1,0.2-0.3,0.4-0.5,0.6
		c-0.3,0.2-0.6,0.2-0.9,0.4c-0.2,0.1-0.4,0.4-0.6,0.6c-0.2,0.1-0.3,0.2-0.5,0.4c0,0.1,0,0.2,0,0.3c0.1,0,0.2,0.1,0.2,0.2
		c-0.1,0.1,0,0.4,0.1,0.5c0.1,0,0.1,0,0.1,0c0,0.2,0,0.4,0,0.5c0,0,0,0.1-0.1,0.1c0,0,0,0,0,0c0,0,0.1,0,0.1,0.1
		c-0.2,0.4-0.5,0.4-0.9,0.5c-0.2,0.1-0.2,0.2-0.3,0.3c0,0,0,0,0,0c0,0.1,0.1,0.1,0.1,0.1c0,0.2,0,0.6-0.1,0.7c0,0-0.1,0-0.1,0.1
		c0,0,0.1,0.1,0,0.2c-0.1,0.2-0.3,0.3-0.4,0.4c-0.4,0.6-0.8,1.1-1.4,1.6c-0.1,0.1-0.2,0.2-0.3,0.3c-0.1,0.1-0.5,0-0.6,0.1
		c0,0,0,0.1,0,0.1c-0.1,0-0.2,0-0.2-0.1c0,0.1-0.1,0.1-0.1,0.1c-0.1,0-0.3-0.2-0.4-0.1c0,0-0.1,0.1-0.1,0.1c-0.2,0-0.3-0.1-0.5,0
		c0,0-0.1,0.1-0.1,0.1c-0.1,0.1-0.3,0-0.5,0c-0.1,0-0.2,0.1-0.2,0.2c-0.1,0-0.2-0.1-0.2-0.1c0-0.1,0-0.1-0.1-0.1c-0.1,0-0.1,0-0.1,0
		c0,0,0-0.1-0.1-0.1c0,0,0,0-0.1,0c0,0,0,0,0,0.1c0,0,0,0,0,0c0,0,0,0,0,0c0-0.1,0-0.1,0.1-0.2c0-0.1-0.3-0.4-0.2-0.4
		c0,0,0.1,0,0.1,0c0.1-0.4-0.1-0.7-0.3-0.9c-0.2-0.3-0.2-0.6-0.4-0.9c-0.2-0.2-0.3-0.4-0.5-0.6c0-0.1-0.1-0.3-0.1-0.4
		c0,0,0-0.1,0-0.1c0-0.1-0.1-0.2-0.1-0.3c0-0.1,0.1-0.2,0-0.3c0-0.1-0.1-0.2-0.1-0.2c0-0.2-0.1-0.4-0.1-0.6c0.2-0.2-0.2-0.6-0.3-0.8
		c-0.2-0.3-0.3-0.6-0.5-0.9c-0.1-0.1-0.2-0.3-0.3-0.5c-0.1-0.2,0-0.6,0-0.9c0.3-0.2,0.2-0.7,0.3-1c0,0,0.1-0.1,0.1-0.1
		c0-0.1,0-0.1,0.1-0.2c0,0,0.1,0,0.1,0C50,63,50,62.7,50,62.6c0-0.1,0-0.3,0-0.4c-0.1-0.2-0.5-0.5-0.1-0.7c0-0.3-0.1-0.4-0.2-0.5
		c0-0.1,0-0.2-0.1-0.3c-0.1-0.1-0.1-0.2-0.2-0.3c-0.1-0.1,0-0.3-0.1-0.4c0-0.1-0.1-0.3-0.2-0.3c-0.2-0.1-0.3-0.3-0.5-0.4
		c-0.1-0.1-0.2-0.2-0.3-0.3c0,0,0,0,0-0.1c0-0.1-0.1,0-0.2-0.1c-0.1-0.1-0.1-0.2-0.2-0.3c0,0,0,0,0,0c0,0,0.1,0,0.1-0.1
		c-0.1-0.1-0.1,0-0.2-0.1c0,0-0.1-0.2-0.1-0.2c0.2-0.1,0.2-0.2,0.3-0.4c0.1,0,0.1,0,0.2,0c0,0,0,0,0,0c-0.1-0.1-0.1-0.1-0.2-0.2
		c0.1,0,0.1-0.1,0.1-0.2c0,0-0.1,0-0.1,0c0,0,0,0,0,0c0.1-0.1,0.2-0.2,0.2-0.4c0,0,0-0.1,0-0.1c0-0.1,0-0.1,0-0.2
		c0-0.1-0.1-0.2-0.1-0.3c0,0,0.1,0,0.1-0.1c0,0,0,0,0,0c0,0,0,0,0-0.1c-0.3,0-0.2-0.1-0.3-0.2c0-0.1-0.2-0.1-0.2-0.1
		c0,0,0,0.1,0,0.1c-0.2,0.1-0.3,0-0.5,0c-0.3,0.2-0.7,0-0.7-0.3c0,0,0-0.1,0.1-0.1c0,0,0,0,0,0c0,0-0.1,0-0.1,0c0,0,0-0.1-0.1-0.1
		c-0.1-0.1-0.4-0.3-0.5-0.3c-0.1,0-0.1,0.1-0.1,0.1c-0.3,0-0.6,0.1-0.9,0.1c-0.1,0-0.1,0.1-0.2,0.2c-0.1,0-0.2,0-0.4,0
		c-0.3,0.1-0.6,0.3-0.9,0.4c-0.1,0-0.3-0.2-0.4-0.2c0,0,0,0,0,0.1c-0.1,0-0.2,0-0.3-0.1c-0.2,0-0.4,0-0.6,0c-0.1,0-0.3,0.1-0.4,0.1
		c-0.1,0.1-0.3,0.1-0.4,0.2c-0.1,0-0.5-0.2-0.5-0.2c-0.3-0.1-0.4-0.3-0.7-0.5c-0.1-0.1-0.2-0.1-0.3-0.2c-0.2-0.1-0.3-0.3-0.5-0.3
		c0-0.1,0-0.1,0-0.1c-0.1,0-0.3-0.2-0.4-0.3c0,0,0,0,0,0c0,0,0.1-0.1,0.1-0.1c0,0,0,0,0,0c0,0-0.1,0-0.1,0c0,0,0-0.1,0-0.1
		c0-0.1-0.1-0.1-0.2-0.2c0,0,0-0.1,0-0.1c-0.1,0-0.3-0.1-0.4-0.2c0,0,0-0.1,0-0.1c-0.1,0-0.1,0-0.2,0c0,0,0-0.1,0-0.1
		c0,0-0.1,0-0.1-0.1c0-0.1,0.1-0.2,0.1-0.2c-0.1-0.1-0.2,0-0.3,0c-0.1,0-0.1-0.1-0.2-0.1c0,0,0,0,0-0.1c-0.1-0.1-0.1,0-0.2-0.1
		c0-0.1,0-0.3,0-0.4c0,0,0.1,0,0.1,0c0,0,0-0.1,0-0.1c-0.1-0.1-0.1-0.3-0.4-0.4c0,0,0,0,0,0c0.2-0.1,0.3-0.3,0.4-0.5
		c0-0.1,0-0.2,0-0.3c0.1-0.3,0.3-0.8,0-1.1c0.1-0.2,0.1-0.6-0.2-0.7c0,0,0,0-0.1,0.1c0-0.2,0-0.4,0.1-0.5c0.1-0.1,0.1-0.1,0.2-0.2
		c0.1-0.2,0.2-0.4,0.3-0.6c0.1-0.1,0.3-0.2,0.3-0.3c0-0.1,0-0.1,0-0.2c0-0.2,0.1-0.3,0.2-0.4c0.1-0.1,0.3-0.1,0.3-0.2
		c0.1-0.1,0.1-0.5,0.3-0.5c0.1-0.1,0.3-0.1,0.4-0.1c0.2-0.1,0.7-0.5,0.8-0.7C40.6,45.1,40.3,44.9,40.4,44.7z M38.6,26.9
		c0,0,0,0.1,0,0.1c0,0.2-0.2,0.2-0.4,0.2c-0.2,0.1-0.3,0.3-0.5,0.3c-0.1,0-0.3,0-0.4,0.1c-0.2,0.1-0.1,0.3-0.5,0.2
		c-0.1,0-0.3,0-0.4-0.1c-0.1,0-0.1-0.1-0.2-0.1c-0.2-0.1-0.7,0.1-0.9-0.1c0.1-0.1,0.3-0.2,0.4-0.3c-0.2,0-0.3-0.1-0.4-0.2
		c-0.1,0-0.4,0.1-0.5,0.1c0,0,0,0,0-0.1c0,0,0,0,0,0c0.1-0.1,0.6-0.1,0.7-0.2c0,0,0-0.1,0-0.1c0,0,0-0.1,0-0.1
		c-0.1,0-0.2-0.1-0.3-0.1c-0.2,0-0.5,0.2-0.6,0c0,0,0-0.1,0-0.1c0.1,0,0.3,0,0.4-0.1c0,0,0,0,0,0c0,0-0.1-0.1-0.1-0.1
		c0.1-0.2,0.3,0.1,0.5,0c0,0,0,0,0,0c0-0.1-0.1-0.1-0.1-0.2c0,0,0,0,0,0c0,0,0,0,0.1-0.1c0.2,0.1,0.5,0.1,0.6,0.3
		c0,0.1-0.1,0.2-0.1,0.2c0,0.1,0.1,0.1,0.1,0.2c0,0,0.1-0.1,0.1-0.1c0.1-0.1,0.2,0,0.2-0.1c0-0.1,0-0.2,0-0.3c0,0,0,0,0.1,0
		c0,0,0,0,0,0c0,0.1,0.1,0.2,0.2,0.3c0,0,0,0,0.1,0c0,0,0,0,0,0c0,0,0-0.1,0-0.1c0.1-0.1,0.2-0.1,0.3-0.1c0,0.1,0.1,0.2,0.3,0.2
		c0-0.1,0-0.1-0.1-0.2c0.2,0,0.5,0.1,0.7,0c0-0.1,0-0.1,0-0.2c0.1,0,0.2,0,0.2,0c0.1,0.2,0.2,0.2,0.4,0.2c0,0,0,0,0,0.1
		c0,0.1,0,0.1,0,0.2c0,0,0.1,0,0.1,0.1c0.1,0,0.3,0,0.3,0.1c0.1,0.1,0,0.4,0,0.5C38.7,26.9,38.6,26.9,38.6,26.9z M48,56.4
		c-0.1,0-0.1,0.2-0.2,0.2c0,0,0,0-0.1,0c0,0,0-0.1,0-0.1c0.1,0,0.1-0.1,0.1-0.2C48,56.4,48,56.4,48,56.4z M62.2,66.7
		c0,0,0.1,0,0.1,0c0.1-0.1,0.3-0.6,0.3-0.8c0-0.1-0.1-0.1-0.1-0.2c0,0,0-0.1,0.1-0.1c-0.1-0.1-0.2-0.4-0.2-0.5
		c0.1-0.2,0.2-0.2,0.2-0.5c0.1,0,0.1,0,0.2,0c0,0,0.1-0.1,0.1-0.1c0,0,0.1,0,0.2,0c0,0,0-0.1,0.1-0.1c0.1-0.1,0.2,0,0.3,0
		c0,0,0-0.1,0-0.1c0.1,0,0.1-0.1,0.2-0.1c0.1,0,0.1,0,0.1,0c0,0,0,0,0.1,0c0,0,0,0-0.1-0.1c0,0,0.1-0.1,0.1-0.1c0,0,0,0,0,0
		c0,0,0,0,0.1,0.1c0,0,0.1-0.1,0.1-0.1c0-0.1-0.1-0.1-0.1-0.1c0,0,0,0,0,0c0.1,0,0.1,0,0.1,0c0,0,0,0,0,0c0-0.1-0.1-0.1-0.1-0.2
		c0,0,0.1,0,0.1,0c0,0,0,0.1,0.1,0.1c0-0.1,0.1-0.1,0.1-0.1c0.1-0.1,0.1-0.3,0.1-0.4c0.1-0.1,0.1-0.1,0.2,0c0,0.1,0.1,0.1,0.2,0.2
		c0.1,0.1,0.1,0.6,0.2,0.8c0,0.1,0.1,0.1,0.1,0.2c0,0.1-0.1,0.2-0.1,0.3c-0.1,0-0.1-0.2-0.2-0.2c0,0,0,0,0,0c0,0,0,0,0,0
		c0,0.2,0.1,0.3,0.1,0.4c0,0.2-0.2,0.2-0.2,0.4c0,0.2,0,0.3,0,0.4c-0.2,0.7-0.4,1.4-0.6,2c-0.1,0.2-0.2,0.8-0.4,0.9
		c-0.1,0-0.2,0-0.3,0c-0.2,0-0.2,0.2-0.4,0.2c-0.1-0.2-0.4-0.1-0.5-0.3c0,0,0-0.1,0-0.2c0-0.1-0.2-0.1-0.1-0.3c0-0.1,0-0.1,0.1-0.2
		c-0.1-0.1-0.1-0.3-0.2-0.4C62.1,67.1,62.1,66.8,62.2,66.7z M58.3,43c-0.2,0-0.2,0.1-0.4,0.1c0,0,0,0,0,0.1c0,0-0.2-0.1-0.2-0.1
		c0-0.1,0-0.1-0.1-0.2c0,0,0.2-0.1,0.3-0.1c0,0,0-0.1,0-0.1c0.1,0,0.2,0,0.2,0c0.1-0.1,0.3-0.1,0.4-0.2C58.4,42.8,58.3,42.8,58.3,43
		C58.2,42.9,58.3,42.9,58.3,43z M54.5,43C54.5,43,54.5,43,54.5,43c-0.1-0.1-0.4-0.1-0.5-0.2c0,0,0-0.1,0-0.1c0,0,0,0,0,0
		c0,0,0,0,0-0.1c0,0,0,0,0,0c0,0,0.1,0,0.1,0.1c0,0,0,0,0.1,0c0,0,0,0,0,0c0,0,0,0,0,0c0.1,0,0,0,0.1,0c0.1,0,0.2,0,0.3,0
		c0.1,0,0.2,0.1,0.3,0c0,0,0,0,0,0c0,0,0,0,0,0.1c0,0,0,0,0,0c0.1,0,0.1,0,0.2-0.1c0,0.1,0,0.1,0,0.1C54.9,43,54.7,43,54.5,43z
		 M50.6,42.1c-0.1,0-0.1,0.1-0.1,0.1c-0.3-0.1-0.5-0.2-0.8-0.4c-0.1-0.1-0.2,0-0.3-0.1c0.1-0.2,0.2-0.1,0.4-0.2
		c0.2,0.1,0.3,0.1,0.6,0.1c0.1,0,0.2-0.1,0.2,0c0,0,0,0,0,0c0,0.1-0.2,0.3-0.1,0.4C50.6,42,50.7,42,50.6,42.1z M48.4,40.8
		c0,0.1-0.1,0.2-0.1,0.3c-0.1,0-0.1-0.1-0.2,0c0,0-0.1,0.1-0.1,0.1c-0.3-0.1-0.1-0.3-0.1-0.6c0-0.1-0.1-0.2-0.1-0.3c0,0,0,0,0,0
		c0.2,0,0.3,0,0.4-0.2c0.1,0,0.3,0.2,0.2,0.4c0,0-0.1,0.1-0.1,0.1C48.4,40.6,48.4,40.7,48.4,40.8z M48.1,40
		C48.1,40,48.1,39.9,48.1,40C48.1,39.9,48,39.9,48.1,40C48,39.9,48,39.9,48,39.9c0,0,0,0,0-0.1c0,0-0.1,0-0.1,0c0,0,0,0,0,0
		c0,0,0,0,0,0c0,0,0,0,0,0c-0.1,0-0.1,0-0.1,0c0,0,0,0,0,0c0,0-0.1,0-0.1-0.1c0,0,0,0,0,0c0,0,0,0,0-0.1c0.1-0.1,0.3-0.2,0.3-0.2
		c0,0,0-0.1,0-0.1c0,0,0,0,0,0c0,0,0,0,0,0C48.3,39.5,48.3,39.8,48.1,40C48.1,40,48.1,40,48.1,40z M35.8,20.2c0,0-0.1,0.1-0.1,0.1
		c0,0,0,0-0.1,0c0,0-0.1,0-0.1,0c-0.2,0-0.5,0-0.6,0c-0.1,0-0.2-0.1-0.2-0.1c0,0,0.3-0.1,0.4-0.1c0.3,0,0.4,0.1,0.6,0.1
		c0,0,0,0,0.1,0c0,0,0,0,0,0c0,0,0,0,0,0c-0.1,0-0.1,0.1-0.2,0.1C35.5,20.2,35.7,20.2,35.8,20.2C35.8,20.2,35.8,20.2,35.8,20.2z
		 M35.1,19.8c0,0-0.1,0.1-0.1,0.1c-0.1,0-0.1,0-0.2,0c-0.1,0-0.1,0-0.2,0.1c0,0,0,0,0,0c0,0,0.1,0,0.1-0.1c0.1-0.1,0.2-0.1,0.3-0.2
		c0.1,0,0.3,0,0.4-0.1c0,0,0,0,0,0C35.2,19.8,35.1,19.8,35.1,19.8z M34.3,19.7c0.1,0,0.1,0,0.2,0c0.1,0,0.2,0,0.2,0.1
		c-0.1,0-0.4,0.1-0.5,0.1C34.3,19.8,34.3,19.7,34.3,19.7z M34.9,18C34.9,18,34.9,18,34.9,18c-0.1,0-0.2-0.2-0.2-0.2
		c0,0,0.1-0.1,0.2-0.1c0.1,0,0.1,0.2,0.2,0.2c0,0,0.1-0.1,0.1-0.1c0,0,0,0.1,0,0.1C35.2,17.9,35,18,34.9,18z M34.8,18.3
		c-0.1,0-0.2-0.1-0.2-0.2c0,0,0.1,0,0.1,0C34.8,18.2,34.9,18.3,34.8,18.3z M34.6,18.2C34.6,18.2,34.6,18.2,34.6,18.2
		C34.6,18.2,34.6,18.2,34.6,18.2C34.6,18.2,34.6,18.2,34.6,18.2z M34.9,18.9c-0.1,0-0.3,0-0.3,0c0-0.1,0.1-0.1,0.2-0.2
		c0.2,0,0.2,0.1,0.3,0.1c0,0-0.1,0.1-0.1,0.1C35,18.8,35,18.8,34.9,18.9z M35.3,21.8C35.3,21.8,35.2,21.8,35.3,21.8
		c-0.1,0-0.1,0-0.1,0c0,0-0.1,0.1-0.1,0.1c0,0-0.1,0-0.1,0c0,0,0,0,0,0c0,0-0.1,0.1-0.1,0.1c0,0-0.2,0.1-0.2,0c0,0,0.1-0.1,0.1-0.2
		c0-0.1,0-0.1,0.1-0.2c0.1,0,0.1-0.1,0.2-0.1c0.1-0.1,0.2-0.1,0.2-0.2c0,0,0,0,0,0c0.1,0,0.3,0.1,0.3,0.2
		C35.4,21.7,35.4,21.7,35.3,21.8z M28.4,31c0-0.1,0.1-0.1,0.2-0.1c0,0,0,0,0,0c0,0,0,0,0,0C28.6,31,28.5,31,28.4,31
		C28.4,31,28.4,31,28.4,31z M26,40.2c0-0.1,0-0.1,0-0.2c0,0-0.1,0.1-0.1,0.1c0,0,0,0-0.1,0c0,0,0,0,0-0.1c0-0.1,0.1-0.1,0.1-0.2
		c0,0-0.1-0.1-0.1-0.1c0,0,0,0,0,0c-0.1,0.2-0.3,0.3-0.5,0.4c-0.1,0-0.1,0-0.2,0c0,0,0,0,0-0.1c0.2-0.1,0.3-0.2,0.4-0.3c0,0,0,0,0,0
		c-0.1,0-0.2,0-0.2,0c0,0,0,0.1-0.1,0.1c0,0,0,0-0.1,0c0,0,0,0,0,0c0,0,0-0.1,0-0.1c0,0-0.1,0-0.1,0c0,0.1-0.2,0.1-0.3,0.1
		c-0.2,0-0.3,0-0.5-0.1c-0.1,0-0.3,0-0.4,0c0-0.1-0.1-0.1,0-0.2c0.1-0.2,0.3-0.2,0.5-0.3c-0.1,0-0.1,0-0.2-0.1c0,0,0,0,0,0
		c0.1-0.2,0.2-0.1,0.3-0.2c0-0.1-0.1-0.1-0.1-0.2c0.1-0.3,0.4-0.8,0.7-1c0.1,0,0.2-0.1,0.3-0.1c0,0,0,0,0.1,0c0,0,0,0,0,0
		c0,0,0,0,0,0c-0.1,0-0.1,0-0.2,0.1c0.1,0.3-0.3,0.5-0.3,0.8c0.2,0,0.1-0.2,0.3-0.2c0.1,0,0.1,0,0.2,0.1c-0.1,0.1-0.1,0.1-0.2,0.2
		c0,0,0,0,0,0c0,0,0,0,0,0c0.1,0.1,0.3,0.2,0.5,0.2c0,0,0-0.1,0.1-0.1c0.2,0,0.3,0,0.5,0.1c0,0,0,0-0.1,0.1
		c-0.1,0.1-0.1,0.1-0.2,0.2c0,0,0,0,0,0c0,0.1,0.1,0.1,0.1,0.1c0.1,0,0.1,0,0.2-0.1c0,0,0,0,0.1,0c0,0,0,0,0,0
		c-0.1,0.1-0.1,0.1-0.3,0.2c0,0,0,0,0,0c0,0.1,0.1,0.2,0.1,0.2c0,0,0,0,0,0c0,0,0-0.1,0.1-0.1c0,0,0.1,0,0.1,0c0,0,0,0,0,0
		c0,0.1,0,0.2,0.2,0.2c0,0.1-0.1,0.3-0.1,0.4C26.2,40.3,26.1,40.2,26,40.2z M25.9,63.2c-0.1,0.1-0.5,0.2-0.7,0.2
		c-0.1-0.1-0.1-0.4,0-0.6c0.2,0,0.7,0,0.8,0.1C26,62.9,25.9,63.1,25.9,63.2z M25.6,24.3c0.1,0.1,0,0.2-0.1,0.2c0,0,0,0,0,0
		C25.4,24.4,25.6,24.4,25.6,24.3z M22.8,40.7c0-0.2,0.2-0.4,0.3-0.6c0.1,0,0.1,0.1,0.2,0.1c0,0.1-0.1,0.2-0.1,0.3
		c-0.1,0.1-0.2,0.1-0.2,0.2c0,0,0,0,0.1,0c0.2-0.1,0.2-0.4,0.4-0.1C23.4,40.9,22.9,41,22.8,40.7z M20.7,53.5c-0.1,0-0.2,0.1-0.3,0
		c0-0.1,0-0.1,0-0.2c0,0,0,0,0,0c0.2,0,0.5,0,0.6,0.1C21,53.5,20.9,53.4,20.7,53.5z M20.6,58.5c0,0,0-0.1,0-0.1c0,0,0,0-0.1,0
		c0,0,0,0,0,0c0.1,0,0.2,0,0.2,0c0,0,0,0,0.1,0c0,0,0,0,0,0c-0.1,0.1,0,0.2,0,0.3c-0.1,0-0.2,0-0.3,0c0,0,0,0,0,0c0,0,0,0,0,0
		C20.5,58.5,20.6,58.5,20.6,58.5z M19.4,53.3c0,0-0.1,0-0.1,0c-0.1,0-0.1,0.2-0.2,0.1c0,0-0.1-0.1-0.1-0.1c-0.2,0.1-0.2,0.2-0.3,0.3
		c-0.1,0-0.2-0.2-0.2-0.2c-0.1,0-0.2,0-0.3,0c-0.1,0-0.2,0-0.3,0c-0.1,0-0.1,0.1-0.1,0.1c-0.1-0.1-0.2-0.1-0.2-0.2c0,0,0,0,0,0
		c0,0,0,0,0.1-0.1c0.2,0.1,0.6,0.1,0.8,0c0,0,0,0,0,0c-0.2-0.1-0.1-0.2-0.1-0.3c0-0.1-0.2-0.1-0.3-0.1c0,0,0,0,0,0c0,0,0,0,0,0
		c0,0,0.1,0,0.1,0c0.2,0,0.3,0.1,0.5,0.1c0.1,0,0.1,0,0.2-0.1c0.1,0,0.1,0,0.2,0c0,0,0.1,0,0.1,0c0.1,0.1,0.2,0.1,0.4,0.1
		c0.1,0.3,0.5,0.3,0.7,0.5c0,0.1-0.1,0.1-0.1,0.2C19.7,53.3,19.6,53.2,19.4,53.3z M17,45.4c0,0.1,0.1,0.1,0.1,0.2c0,0,0,0,0,0
		C17,45.5,17,45.5,17,45.4z M17,45.3C17,45.3,17,45.4,17,45.3C17,45.4,17,45.4,17,45.3C17,45.4,17,45.3,17,45.3z M16.9,45.3
		C16.9,45.3,17,45.3,16.9,45.3C17,45.3,16.9,45.3,16.9,45.3C16.9,45.3,16.9,45.3,16.9,45.3z M16.5,53.5c-0.1,0-0.1,0.1-0.2,0.1
		c-0.1,0-0.4-0.2-0.4-0.2c0,0,0.1,0,0.1-0.1c0.3,0,0.6,0.1,0.7,0.2c0,0,0,0,0,0C16.6,53.5,16.6,53.5,16.5,53.5z M77.1,54.2
		c0-0.1,0.1-0.2,0-0.3c0.2,0.1,0.3,0.3,0.4,0.5c0.1,0,0.1,0.1,0.2,0.2c0,0.1,0.2,0.2,0.2,0.3c0,0.3-0.3,0.5-0.6,0.5
		c-0.1-0.1-0.2-0.3-0.2-0.5c0-0.1,0-0.3,0-0.4c0-0.1,0-0.1,0-0.2c0,0,0,0-0.1-0.1c0,0,0,0,0-0.1C77,54.2,77.1,54.2,77.1,54.2z
		 M48.2,31.6c0.1,0,0.1-0.2,0.2-0.2c0.1,0,0.2,0,0.2-0.1c0,0,0,0,0,0c0,0,0,0,0,0c-0.1,0.1,0,0.1,0,0.3c-0.1,0-0.1,0.1-0.1,0.1
		c-0.2,0-0.4,0-0.6,0c0,0.1-0.1,0.1-0.2,0.2c0,0-0.1-0.1-0.1-0.1c0-0.1,0.1-0.2,0.1-0.2C48,31.6,48.1,31.6,48.2,31.6z M49.1,32.3
		c0,0.1,0.1,0.1,0.2,0.2c0-0.1,0-0.2,0.1-0.2c0,0,0.1,0,0.1,0c0,0.2,0,0.3-0.1,0.3c0,0,0,0,0,0c0,0,0.1,0,0.1,0.1c0,0,0,0,0,0
		c0,0.1-0.1,0.1-0.2,0.2c0,0,0-0.1-0.1-0.1c-0.1,0-0.2,0-0.2,0C48.9,32.5,49,32.5,49.1,32.3C49.1,32.3,49.1,32.3,49.1,32.3z
		 M19.2,42.6C19.2,42.6,19.2,42.6,19.2,42.6C19.3,42.6,19.3,42.6,19.2,42.6C19.3,42.6,19.3,42.7,19.2,42.6
		C19.3,42.7,19.3,42.7,19.2,42.6C19.3,42.7,19.3,42.6,19.2,42.6z M19.3,42.7C19.3,42.7,19.3,42.7,19.3,42.7
		C19.3,42.7,19.3,42.7,19.3,42.7C19.3,42.7,19.3,42.7,19.3,42.7z M16.9,45.2C16.9,45.2,16.9,45.2,16.9,45.2
		C16.9,45.2,16.9,45.2,16.9,45.2C16.9,45.2,16.9,45.2,16.9,45.2z M16.9,45.3C16.9,45.3,16.9,45.3,16.9,45.3
		C16.9,45.3,16.9,45.3,16.9,45.3C16.9,45.3,16.9,45.3,16.9,45.3z M16.9,45.3C16.9,45.2,16.9,45.2,16.9,45.3
		C16.9,45.2,16.9,45.2,16.9,45.3C16.9,45.3,16.9,45.3,16.9,45.3z M16.9,45.2C16.9,45.2,16.9,45.2,16.9,45.2
		C16.9,45.2,16.9,45.2,16.9,45.2C16.9,45.2,16.9,45.2,16.9,45.2z"/>
</g>
</svg>
