<?xml version="1.0" encoding="utf-8"?>
<!-- Generator: Adobe Illustrator 19.0.0, SVG Export Plug-In . SVG Version: 6.00 Build 0)  -->
<svg version="1.1" id="Layer_1" xmlns="http://www.w3.org/2000/svg" xmlns:xlink="http://www.w3.org/1999/xlink" x="0px" y="0px"
	 viewBox="0 0 100 100" style="enable-background:new 0 0 100 100;" xml:space="preserve">
<style type="text/css">
	.st0{fill-rule:evenodd;clip-rule:evenodd;}
</style>
<g>
	<path class="st0" d="M93.3,92.6c0,2.4-1.9,4.3-4.3,4.3c-2.4,0-4.3-1.9-4.3-4.3l0-0.1h-0.1c-2-16.5-16-29.3-33-29.9
		c-0.4,0-0.7,0.1-1.1,0.1c-0.4,0-0.7,0-1.1-0.1c-17.1,0.5-31,13.4-33,29.9h-0.1l0,0.1c0,2.4-1.9,4.3-4.3,4.3c-2.4,0-4.3-1.9-4.3-4.3
		l0-0.4c0-0.6,0.1-1.1,0.3-1.6C10.1,75.8,20,63.4,33.5,57.6c-7.9-5.4-13.1-14.4-13.1-24.7c0-16.5,13.5-29.9,30.1-29.9
		s30.1,13.4,30.1,29.9c0,10.2-5.2,19.3-13.1,24.6C81.1,63.4,91.1,76,93.1,91.1c0.1,0.4,0.2,0.8,0.2,1.2L93.3,92.6z M72,33
		c0-11.8-9.6-21.3-21.5-21.3C38.6,11.6,29,21.2,29,33c0,11.8,9.6,21.3,21.5,21.3C62.4,54.3,72,44.7,72,33z"/>
</g>
</svg>
