<?xml version="1.0" encoding="utf-8"?>
<!-- Generator: Adobe Illustrator 15.1.0, SVG Export Plug-In . SVG Version: 6.00 Build 0)  -->
<!DOCTYPE svg PUBLIC "-//W3C//DTD SVG 1.1//EN" "http://www.w3.org/Graphics/SVG/1.1/DTD/svg11.dtd">
<svg version="1.1" xmlns="http://www.w3.org/2000/svg" xmlns:xlink="http://www.w3.org/1999/xlink" x="0px" y="0px" width="36px"
	 height="36px" viewBox="0 0 36 36" enable-background="new 0 0 36 36" xml:space="preserve">
<g id="Layer_1" display="none">
	<path display="inline" fill-rule="evenodd" clip-rule="evenodd" d="M17.019,3.487c4.715-0.369,8.358,1.592,10.829,3.797
		c2.503,2.234,4.403,5.404,4.711,9.844c0.326,4.708-1.45,8.22-3.727,10.757c-2.348,2.617-5.606,4.381-9.844,4.711
		c-4.534,0.354-8.194-1.426-10.758-3.727c-2.66-2.387-4.423-5.393-4.781-9.773C3.059,14.329,4.98,10.72,7.105,8.268
		C9.241,5.803,12.61,3.832,17.019,3.487z M12.027,6.088C10.448,6.882,9.25,7.72,8.16,8.901c-1.98,2.145-3.845,5.75-3.586,9.773
		c0.262,4.066,1.902,7.003,4.219,9.14c2.255,2.082,5.842,3.889,9.773,3.656c3.828-0.227,6.946-1.877,9.141-4.219
		c2.106-2.246,3.937-5.305,3.727-9.703c-0.183-3.817-2.011-7.19-4.148-9.211c-2.181-2.062-5.774-3.918-9.844-3.656
		C15.354,4.816,13.615,5.29,12.027,6.088z"/>
	<path display="inline" fill-rule="evenodd" clip-rule="evenodd" d="M9.069,17.444c5.977,0,11.953,0,17.93,0
		c0,0.398,0,0.797,0,1.195c-6,0-12,0-18,0c0-0.328,0-0.656,0-0.984C8.993,17.555,8.987,17.456,9.069,17.444z"/>
</g>
<g id="Layer_2">
	<path fill-rule="evenodd" clip-rule="evenodd" d="M17.019,3.487c4.715-0.369,8.358,1.592,10.829,3.797
		c2.503,2.234,4.403,5.404,4.711,9.844c0.326,4.708-1.45,8.22-3.727,10.757c-2.348,2.617-5.606,4.381-9.844,4.711
		c-4.534,0.354-8.194-1.426-10.758-3.727c-2.66-2.387-4.423-5.393-4.781-9.773C3.059,14.329,4.98,10.72,7.105,8.268
		C9.241,5.803,12.61,3.832,17.019,3.487z M12.027,6.088C10.448,6.882,9.25,7.72,8.16,8.901c-1.98,2.145-3.845,5.75-3.586,9.773
		c0.262,4.066,1.902,7.003,4.219,9.14c2.255,2.082,5.842,3.889,9.773,3.656c3.828-0.227,6.946-1.877,9.141-4.219
		c2.106-2.246,3.937-5.305,3.727-9.703c-0.183-3.817-2.011-7.19-4.148-9.211c-2.181-2.062-5.774-3.918-9.844-3.656
		C15.354,4.816,13.615,5.29,12.027,6.088z"/>
	<path fill-rule="evenodd" clip-rule="evenodd" d="M9.069,17.444c5.977,0,11.953,0,17.93,0c0,0.398,0,0.797,0,1.195c-6,0-12,0-18,0
		c0-0.328,0-0.656,0-0.984C8.993,17.555,8.987,17.456,9.069,17.444z"/>
	<path fill-rule="evenodd" clip-rule="evenodd" d="M17.4,26.97c0-5.977,0-11.953,0-17.93c0.398,0,0.797,0,1.195,0c0,6,0,12,0,18
		c-0.328,0-0.656,0-0.984,0C17.511,27.046,17.412,27.052,17.4,26.97z"/>
</g>
</svg>
