<?xml version="1.0" encoding="utf-8"?>
<!-- Generator: Adobe Illustrator 15.1.0, SVG Export Plug-In . SVG Version: 6.00 Build 0)  -->
<!DOCTYPE svg PUBLIC "-//W3C//DTD SVG 1.1//EN" "http://www.w3.org/Graphics/SVG/1.1/DTD/svg11.dtd">
<svg version="1.1" id="Layer_1" xmlns="http://www.w3.org/2000/svg" xmlns:xlink="http://www.w3.org/1999/xlink" x="0px" y="0px"
	 width="36px" height="36px" viewBox="0 0 36 36" enable-background="new 0 0 36 36" xml:space="preserve">
<g id="Layer_6" display="none">
	<rect x="82.166" y="82.166" display="inline" width="35.834" height="35.834"/>
</g>
<g id="branch" display="none">
	<g display="inline">
		<path fill="#FFFFFF" d="M105.835,92.932c-0.043-0.188-0.146-0.367-0.312-0.512c-0.166-0.143-0.369-0.229-0.578-0.261l-3.371-0.652
			l0.976,0.647l-1.541,4.826l-0.866-3.586l-0.867,3.586l-1.539-4.826l0.975-0.647l-3.372,0.652
			c-0.209,0.032-0.412,0.118-0.577,0.261c-0.164,0.145-0.269,0.322-0.312,0.512l-1,4.391l1.886,0.654
			c0.626,0.65,2.378,1.129,4.479,1.174h0.328h0.326c2.102-0.045,3.854-0.523,4.479-1.174l1.887-0.654L105.835,92.932z"/>
		<polygon fill="#FFFFFF" points="100.143,91.997 99.365,92.275 100.143,93.396 100.92,92.275 		"/>
		<path fill="#FFFFFF" d="M103.027,87.673c0-1.993-0.819-3.554-2.885-3.554c-2.066,0-2.887,1.563-2.887,3.554
			c-0.215,0.112-0.357,0.377-0.145,0.944c0.106,0.285,0.296,0.523,0.455,0.648c0.588,1.465,1.746,2.596,2.576,2.596
			s1.987-1.131,2.574-2.596c0.161-0.125,0.35-0.363,0.457-0.648C103.387,88.051,103.244,87.786,103.027,87.673z"/>
		<path fill="#FFFFFF" d="M111.674,103.605c-0.173-0.67-0.797-1.106-1.464-1.063l-0.733-1.618h-9.063v-1.168h-0.542v1.168h-9.063
			l-0.732,1.618c-0.667-0.043-1.291,0.394-1.465,1.063c-0.197,0.761,0.261,1.537,1.021,1.733c0.762,0.196,1.538-0.262,1.735-1.022
			c0.173-0.672-0.163-1.354-0.767-1.642l0.629-1.21h8.642v1.168c-0.656,0.127-1.151,0.703-1.151,1.397
			c0,0.784,0.637,1.423,1.424,1.423l0,0l0,0c0.785,0,1.422-0.639,1.422-1.423c0-0.694-0.494-1.271-1.151-1.397v-1.168h8.642
			l0.629,1.21c-0.604,0.288-0.939,0.97-0.768,1.642c0.197,0.762,0.975,1.22,1.734,1.022
			C111.413,105.145,111.871,104.366,111.674,103.605z M90.842,104.182c-0.121,0.471-0.604,0.754-1.072,0.633
			c-0.472-0.121-0.754-0.603-0.633-1.072c0.12-0.471,0.602-0.754,1.072-0.635C90.68,103.229,90.963,103.711,90.842,104.182z
			 M101.023,104.031c0,0.484-0.396,0.881-0.881,0.881l0,0l0,0c-0.486,0-0.883-0.396-0.883-0.881c0-0.486,0.395-0.881,0.883-0.881
			l0,0l0,0C100.628,103.15,101.023,103.545,101.023,104.031z M110.516,104.813c-0.471,0.123-0.951-0.16-1.072-0.631
			s0.162-0.953,0.633-1.074c0.472-0.121,0.953,0.162,1.072,0.634C111.271,104.212,110.986,104.693,110.516,104.813z"/>
		<g>
			<path fill="#FFFFFF" d="M92.355,112.025c-0.028-0.125-0.099-0.243-0.209-0.34c-0.109-0.096-0.244-0.153-0.383-0.175l-2.517-0.487
				c0.396-0.309,0.787-0.83,1.032-1.438c0.105-0.083,0.232-0.242,0.304-0.433c0.142-0.377,0.046-0.553-0.097-0.627
				c0-1.327-0.547-2.368-1.922-2.368s-1.92,1.041-1.92,2.368c-0.145,0.074-0.238,0.25-0.098,0.627
				c0.071,0.189,0.197,0.35,0.303,0.433c0.246,0.608,0.637,1.131,1.032,1.438l-2.516,0.487c-0.14,0.021-0.273,0.079-0.384,0.175
				c-0.109,0.097-0.18,0.215-0.209,0.34l-0.666,2.925l1.256,0.436c0.416,0.433,1.582,0.751,2.982,0.781h0.219h0.218
				c1.399-0.03,2.565-0.349,2.983-0.781l1.254-0.436L92.355,112.025z"/>
			<path fill="#FFFFFF" d="M115.512,112.025c-0.029-0.125-0.099-0.243-0.207-0.34c-0.111-0.096-0.246-0.153-0.386-0.175
				l-2.517-0.487c0.396-0.309,0.787-0.83,1.031-1.438c0.107-0.083,0.232-0.242,0.305-0.433c0.142-0.377,0.047-0.553-0.098-0.627
				c0-1.327-0.545-2.368-1.92-2.368s-1.922,1.041-1.922,2.368c-0.145,0.074-0.238,0.25-0.097,0.627
				c0.069,0.189,0.196,0.35,0.303,0.433c0.245,0.608,0.638,1.131,1.032,1.438l-2.516,0.487c-0.141,0.021-0.273,0.079-0.385,0.175
				c-0.109,0.097-0.181,0.215-0.207,0.34l-0.666,2.925l1.256,0.436c0.416,0.433,1.584,0.751,2.981,0.781h0.218h0.219
				c1.398-0.03,2.564-0.349,2.981-0.781l1.256-0.436L115.512,112.025z"/>
			<path fill="#FFFFFF" d="M103.934,112.025c-0.029-0.125-0.098-0.243-0.209-0.34c-0.108-0.096-0.244-0.153-0.385-0.175
				l-2.515-0.487c0.396-0.309,0.786-0.83,1.03-1.438c0.107-0.083,0.233-0.242,0.305-0.433c0.143-0.377,0.048-0.553-0.098-0.627
				c0-1.327-0.545-2.368-1.92-2.368s-1.922,1.041-1.922,2.368c-0.145,0.074-0.238,0.25-0.098,0.627
				c0.072,0.189,0.197,0.35,0.305,0.433c0.244,0.608,0.637,1.131,1.031,1.438l-2.516,0.487c-0.141,0.021-0.274,0.079-0.385,0.175
				c-0.108,0.097-0.179,0.215-0.207,0.34l-0.666,2.925l1.256,0.436c0.416,0.433,1.582,0.751,2.982,0.781h0.219h0.217
				c1.399-0.03,2.565-0.349,2.982-0.781l1.256-0.436L103.934,112.025z"/>
		</g>
	</g>
</g>
<g id="Layer_6_copy" display="none">
	<rect x="82.166" y="82.166" display="inline" fill="#0063B1" width="35.834" height="35.834"/>
</g>
<g id="branch_copy" display="none">
	<g display="inline">
		<path fill="#FFFFFF" d="M105.835,92.932c-0.043-0.188-0.146-0.367-0.312-0.512c-0.166-0.143-0.369-0.229-0.578-0.261l-3.371-0.652
			l0.976,0.647l-1.541,4.826l-0.866-3.586l-0.867,3.586l-1.539-4.826l0.975-0.647l-3.372,0.652
			c-0.209,0.032-0.412,0.118-0.577,0.261c-0.164,0.145-0.269,0.322-0.312,0.512l-1,4.391l1.886,0.654
			c0.626,0.65,2.378,1.129,4.479,1.174h0.328h0.326c2.102-0.045,3.854-0.523,4.479-1.174l1.887-0.654L105.835,92.932z"/>
		<polygon fill="#FFFFFF" points="100.143,91.997 99.365,92.275 100.143,93.396 100.92,92.275 		"/>
		<path fill="#FFFFFF" d="M103.027,87.673c0-1.993-0.819-3.554-2.885-3.554c-2.066,0-2.887,1.563-2.887,3.554
			c-0.215,0.112-0.357,0.377-0.145,0.944c0.106,0.285,0.296,0.523,0.455,0.648c0.588,1.465,1.746,2.596,2.576,2.596
			s1.987-1.131,2.574-2.596c0.161-0.125,0.35-0.363,0.457-0.648C103.387,88.051,103.244,87.786,103.027,87.673z"/>
		<path fill="#FFFFFF" d="M111.674,103.605c-0.173-0.67-0.797-1.106-1.464-1.063l-0.733-1.618h-9.063v-1.168h-0.542v1.168h-9.063
			l-0.732,1.618c-0.667-0.043-1.291,0.394-1.465,1.063c-0.197,0.761,0.261,1.537,1.021,1.733c0.762,0.196,1.538-0.262,1.735-1.022
			c0.173-0.672-0.163-1.354-0.767-1.642l0.629-1.21h8.642v1.168c-0.656,0.127-1.151,0.703-1.151,1.397
			c0,0.784,0.637,1.423,1.424,1.423l0,0l0,0c0.785,0,1.422-0.639,1.422-1.423c0-0.694-0.494-1.271-1.151-1.397v-1.168h8.642
			l0.629,1.21c-0.604,0.288-0.939,0.97-0.768,1.642c0.197,0.762,0.975,1.22,1.734,1.022
			C111.413,105.145,111.871,104.366,111.674,103.605z M90.842,104.182c-0.121,0.471-0.604,0.754-1.072,0.633
			c-0.472-0.121-0.754-0.603-0.633-1.072c0.12-0.471,0.602-0.754,1.072-0.635C90.68,103.229,90.963,103.711,90.842,104.182z
			 M101.023,104.031c0,0.484-0.396,0.881-0.881,0.881l0,0l0,0c-0.486,0-0.883-0.396-0.883-0.881c0-0.486,0.395-0.881,0.883-0.881
			l0,0l0,0C100.628,103.15,101.023,103.545,101.023,104.031z M110.516,104.813c-0.471,0.123-0.951-0.16-1.072-0.631
			s0.162-0.953,0.633-1.074c0.472-0.121,0.953,0.162,1.072,0.634C111.271,104.212,110.986,104.693,110.516,104.813z"/>
		<g>
			<path fill="#FFFFFF" d="M92.355,112.025c-0.028-0.125-0.099-0.243-0.209-0.34c-0.109-0.096-0.244-0.153-0.383-0.175l-2.517-0.487
				c0.396-0.309,0.787-0.83,1.032-1.438c0.105-0.083,0.232-0.242,0.304-0.433c0.142-0.377,0.046-0.553-0.097-0.627
				c0-1.327-0.547-2.368-1.922-2.368s-1.92,1.041-1.92,2.368c-0.145,0.074-0.238,0.25-0.098,0.627
				c0.071,0.189,0.197,0.35,0.303,0.433c0.246,0.608,0.637,1.131,1.032,1.438l-2.516,0.487c-0.14,0.021-0.273,0.079-0.384,0.175
				c-0.109,0.097-0.18,0.215-0.209,0.34l-0.666,2.925l1.256,0.436c0.416,0.433,1.582,0.751,2.982,0.781h0.219h0.218
				c1.399-0.03,2.565-0.349,2.983-0.781l1.254-0.436L92.355,112.025z"/>
			<path fill="#FFFFFF" d="M115.512,112.025c-0.029-0.125-0.099-0.243-0.207-0.34c-0.111-0.096-0.246-0.153-0.386-0.175
				l-2.517-0.487c0.396-0.309,0.787-0.83,1.031-1.438c0.107-0.083,0.232-0.242,0.305-0.433c0.142-0.377,0.047-0.553-0.098-0.627
				c0-1.327-0.545-2.368-1.92-2.368s-1.922,1.041-1.922,2.368c-0.145,0.074-0.238,0.25-0.097,0.627
				c0.069,0.189,0.196,0.35,0.303,0.433c0.245,0.608,0.638,1.131,1.032,1.438l-2.516,0.487c-0.141,0.021-0.273,0.079-0.385,0.175
				c-0.109,0.097-0.181,0.215-0.207,0.34l-0.666,2.925l1.256,0.436c0.416,0.433,1.584,0.751,2.981,0.781h0.218h0.219
				c1.398-0.03,2.564-0.349,2.981-0.781l1.256-0.436L115.512,112.025z"/>
			<path fill="#FFFFFF" d="M103.934,112.025c-0.029-0.125-0.098-0.243-0.209-0.34c-0.108-0.096-0.244-0.153-0.385-0.175
				l-2.515-0.487c0.396-0.309,0.786-0.83,1.03-1.438c0.107-0.083,0.233-0.242,0.305-0.433c0.143-0.377,0.048-0.553-0.098-0.627
				c0-1.327-0.545-2.368-1.92-2.368s-1.922,1.041-1.922,2.368c-0.145,0.074-0.238,0.25-0.098,0.627
				c0.072,0.189,0.197,0.35,0.305,0.433c0.244,0.608,0.637,1.131,1.031,1.438l-2.516,0.487c-0.141,0.021-0.274,0.079-0.385,0.175
				c-0.108,0.097-0.179,0.215-0.207,0.34l-0.666,2.925l1.256,0.436c0.416,0.433,1.582,0.751,2.982,0.781h0.219h0.217
				c1.399-0.03,2.565-0.349,2.982-0.781l1.256-0.436L103.934,112.025z"/>
		</g>
	</g>
</g>
<g id="Layer_5" display="none">
	<rect x="82.166" y="82.166" display="inline" fill="#16A086" width="35.834" height="35.834"/>
</g>
<g id="Config" display="none">
	<path display="inline" fill="#FFFFFF" d="M114.843,102.719l-1.202-1.292c0.002-0.011,0-0.021,0-0.038
		c0.024-0.289,0.043-0.578,0.055-0.869c0.002-0.084-0.002-0.174,0-0.256c0.002-0.224,0-0.438-0.01-0.654
		c-0.004-0.094-0.011-0.182-0.018-0.274c-0.005-0.144-0.012-0.285-0.021-0.435l1.205-1.282c0.575-0.613,1.621-1.427,1.301-2.201
		l-1.32-3.204c-0.32-0.775-1.633-0.611-2.473-0.643l-1.76-0.063c-0.134-0.16-0.275-0.311-0.414-0.464
		c-0.006-0.006-0.013-0.015-0.019-0.022c-0.049-0.052-0.091-0.107-0.142-0.158c-0.073-0.081-0.159-0.159-0.236-0.238
		c-0.109-0.111-0.223-0.227-0.337-0.335c-0.188-0.181-0.386-0.351-0.58-0.521c-0.009-0.008-0.021-0.015-0.026-0.021
		c-0.012-0.01-0.021-0.022-0.031-0.032l-0.058-1.764c-0.024-0.835,0.14-2.15-0.632-2.471l-3.204-1.334
		c-0.771-0.32-1.591,0.725-2.2,1.295l-1.291,1.205c-0.289-0.029-0.576-0.045-0.863-0.056c-0.082-0.003-0.162-0.002-0.248-0.001
		c-0.187-0.002-0.373-0.007-0.563,0c-0.239,0.008-0.481,0.022-0.721,0.043c-0.031,0.001-0.062,0.001-0.087,0.004
		c-0.016,0.002-0.029,0-0.047,0.004l-1.282-1.209c-0.612-0.572-1.427-1.619-2.201-1.3l-3.204,1.32
		c-0.775,0.319-0.611,1.635-0.643,2.472l-0.063,1.764c-0.02,0.015-0.039,0.035-0.056,0.053c-0.21,0.176-0.417,0.355-0.618,0.545
		c-0.074,0.072-0.146,0.146-0.218,0.22c-0.144,0.14-0.286,0.282-0.423,0.431c-0.069,0.076-0.135,0.153-0.202,0.231
		c-0.093,0.101-0.183,0.2-0.272,0.306l-1.765,0.055c-0.835,0.025-2.149-0.139-2.472,0.632l-1.332,3.204
		c-0.321,0.771,0.722,1.587,1.291,2.197l1.207,1.291c-0.021,0.201-0.029,0.399-0.041,0.602c0,0.02-0.002,0.038-0.002,0.057
		c-0.017,0.342-0.023,0.686-0.013,1.025c0.005,0.148,0.017,0.297,0.026,0.445c0.009,0.121,0.011,0.244,0.021,0.363
		c0,0.014,0,0.025,0.002,0.034l-1.207,1.287c-0.572,0.61-1.621,1.424-1.303,2.198l1.32,3.203c0.32,0.775,1.637,0.613,2.475,0.645
		l1.762,0.061c0.012,0.018,0.025,0.026,0.039,0.045c0.178,0.215,0.365,0.425,0.562,0.636c0.069,0.073,0.142,0.138,0.211,0.21
		c0.144,0.146,0.289,0.29,0.438,0.432c0.074,0.063,0.15,0.131,0.226,0.197c0.104,0.093,0.206,0.188,0.31,0.271l0.055,1.765
		c0.025,0.835-0.137,2.153,0.633,2.476l3.204,1.332c0.772,0.322,1.587-0.723,2.198-1.293l1.291-1.201
		c0.015,0,0.028-0.002,0.043-0.002c0.166,0.02,0.33,0.024,0.496,0.033c0.049,0.004,0.098,0.004,0.145,0.01
		c0.078,0.004,0.152,0.01,0.227,0.012c0.088,0.003,0.176,0,0.266,0c0.216,0.005,0.431,0,0.645-0.01
		c0.094-0.004,0.188-0.012,0.279-0.017c0.146-0.007,0.285-0.014,0.429-0.022l1.285,1.205c0.612,0.575,1.423,1.621,2.197,1.301
		l3.204-1.318c0.775-0.32,0.615-1.634,0.645-2.475l0.061-1.758c0.151-0.127,0.297-0.259,0.438-0.387
		c0.02-0.021,0.044-0.039,0.064-0.057c0.049-0.047,0.102-0.086,0.144-0.131c0.086-0.075,0.159-0.159,0.236-0.234
		c0.11-0.111,0.229-0.225,0.343-0.343c0.164-0.177,0.33-0.36,0.488-0.554c0.019-0.017,0.033-0.03,0.05-0.054
		c0.013-0.013,0.021-0.021,0.028-0.028l1.763-0.058c0.836-0.026,2.153,0.138,2.476-0.633l1.334-3.205
		C116.458,104.148,115.412,103.329,114.843,102.719z M107.191,100.143c0,3.894-3.154,7.049-7.049,7.049
		c-3.893,0-7.049-3.155-7.049-7.049s3.156-7.049,7.049-7.049C104.037,93.093,107.191,96.249,107.191,100.143z"/>
</g>
<g id="Layer_4" display="none">
	<rect x="82.166" y="82.166" display="inline" fill="#00B5F4" width="35.834" height="35.834"/>
</g>
<g id="user_roles" display="none">
	<g display="inline">
		<path fill="#FFFFFF" d="M109.227,102.072c-0.069-0.307-0.24-0.598-0.509-0.832c-0.269-0.232-0.599-0.371-0.938-0.424l-5.486-1.062
			l1.588,1.054l-2.506,7.854l-1.41-5.835l-1.412,5.835l-2.503-7.854l1.587-1.054l-5.486,1.062c-0.342,0.053-0.67,0.19-0.939,0.425
			c-0.27,0.233-0.438,0.524-0.508,0.831l-1.626,7.144l3.067,1.064c1.019,1.059,3.869,1.838,7.289,1.911h0.532h0.531
			c3.42-0.073,6.271-0.854,7.29-1.911l3.066-1.064L109.227,102.072z"/>
		<polygon fill="#FFFFFF" points="99.964,100.553 98.699,101.006 99.964,102.828 101.229,101.006 		"/>
		<path fill="#FFFFFF" d="M104.658,93.52c0-3.244-1.334-5.783-4.694-5.783s-4.694,2.541-4.694,5.783
			c-0.352,0.183-0.582,0.613-0.237,1.535c0.174,0.463,0.481,0.852,0.741,1.055c0.957,2.384,2.84,4.225,4.189,4.225
			s3.232-1.841,4.189-4.225c0.262-0.203,0.566-0.592,0.742-1.055C105.24,94.132,105.01,93.702,104.658,93.52z"/>
		<path fill="#FFFFFF" d="M88.671,107.587c-1.565-0.185-2.8-0.608-3.313-1.142l-1.989-0.69l1.054-4.632
			c0.046-0.199,0.156-0.389,0.33-0.539s0.389-0.242,0.609-0.275l3.853-0.882c-0.58-0.495-1.142-1.272-1.502-2.171
			c-0.169-0.131-0.368-0.383-0.481-0.683c-0.224-0.599-0.074-0.878,0.154-0.996c0-2.103,0.864-3.749,3.043-3.749l0,0
			c2.18,0,3.043,1.646,3.043,3.749c0.229,0.118,0.379,0.397,0.154,0.996c-0.113,0.3-0.313,0.552-0.48,0.683
			c-0.359,0.898-0.924,1.676-1.502,2.171l1.703,0.39l-1.326,0.258c-0.49,0.076-0.94,0.283-1.308,0.599
			c-0.381,0.332-0.64,0.759-0.748,1.232L88.671,107.587z M115.505,101.123c-0.046-0.199-0.155-0.389-0.329-0.539
			c-0.175-0.15-0.388-0.242-0.609-0.275l-3.854-0.882c0.58-0.495,1.143-1.272,1.504-2.171c0.168-0.131,0.366-0.383,0.48-0.684
			c0.224-0.598,0.072-0.877-0.154-0.996c0-2.102-0.865-3.749-3.044-3.749l0,0c-2.181,0-3.044,1.647-3.044,3.749
			c-0.229,0.119-0.378,0.398-0.152,0.996c0.112,0.301,0.311,0.552,0.479,0.684c0.36,0.896,0.923,1.676,1.503,2.171l-1.704,0.39
			l1.326,0.258c0.489,0.076,0.94,0.283,1.304,0.597c0.385,0.335,0.643,0.761,0.751,1.234l1.293,5.683
			c1.565-0.186,2.802-0.607,3.313-1.143l1.99-0.689L115.505,101.123z"/>
	</g>
</g>
<g id="Layer_7">
	<rect fill="#0063B1" width="36" height="36"/>
</g>
<g id="question_mangt">
	<g>
		<path fill="#FFFFFF" d="M18.197,10.702c-1.354,0-2.486,0.471-3.393,1.241c-0.904,0.769-1.436,1.393-1.587,3.274h2.765
			c0.059-0.94,0.283-1.157,0.674-1.516c0.388-0.357,0.873-0.582,1.449-0.582c0.578,0,1.049,0.164,1.414,0.537
			c0.367,0.373,0.551,0.832,0.551,1.395c0,0.563-0.178,1.027-0.526,1.408l-1.666,1.666c-0.487,0.487-0.59,0.878-0.733,1.175
			c-0.146,0.297-0.004,0.748-0.004,1.357v1.146h1.883v-0.783c0-0.607,0.271-1.08,0.547-1.414c0.104-0.121,0.313-0.271,0.49-0.445
			c0.174-0.176,0.422-0.379,0.672-0.617c0.252-0.234,0.471-0.429,0.623-0.581c0.153-0.153,0.381-0.412,0.672-0.778
			c0.502-0.608,0.756-1.369,0.756-2.285c0-1.324-0.424-2.354-1.273-3.094C20.654,11.07,19.553,10.702,18.197,10.702z"/>
		<path fill="#FFFFFF" d="M18.025,22.883c-0.479,0-0.891,0.17-1.234,0.504c-0.342,0.334-0.512,0.734-0.512,1.197
			c0,0.465,0.174,0.861,0.525,1.188c0.35,0.328,0.764,0.492,1.241,0.492c0.479,0,0.892-0.168,1.233-0.502
			c0.343-0.334,0.515-0.734,0.515-1.197c0-0.467-0.174-0.858-0.526-1.188C18.92,23.049,18.506,22.883,18.025,22.883z"/>
		<path fill="#FFFFFF" d="M18.082,2.042c-8.837,0-16,7.162-16,16c0,8.835,7.162,15.999,16,15.999c8.836,0,16-7.164,16-15.999
			C34.082,9.204,26.918,2.042,18.082,2.042z M18.082,31.219c-7.277,0-13.176-5.9-13.176-13.177c0-7.278,5.898-13.176,13.176-13.176
			S31.26,10.764,31.26,18.042C31.26,25.318,25.359,31.219,18.082,31.219z"/>
	</g>
</g>
</svg>
