<?xml version="1.0" encoding="utf-8"?>
<!-- Generator: Adobe Illustrator 16.0.0, SVG Export Plug-In . SVG Version: 6.00 Build 0)  -->
<!DOCTYPE svg PUBLIC "-//W3C//DTD SVG 1.1 Tiny//EN" "http://www.w3.org/Graphics/SVG/1.1/DTD/svg11-tiny.dtd">
<svg version="1.1" baseProfile="tiny" id="Layer_1" xmlns="http://www.w3.org/2000/svg" xmlns:xlink="http://www.w3.org/1999/xlink"
	 x="0px" y="0px" width="42px" height="42px" viewBox="0 0 42 42" overflow="scroll" xml:space="preserve">
<g>
	<path fill="#FFFFFF" d="M21,41.256C9.831,41.256,0.744,32.17,0.744,21C0.744,9.831,9.831,0.744,21,0.744
		c11.17,0,20.256,9.086,20.256,20.256C41.256,32.17,32.17,41.256,21,41.256z"/>
	<path fill="#231F20" d="M21,1.238c10.896,0,19.762,8.865,19.762,19.762S31.896,40.762,21,40.762S1.238,31.896,1.238,21
		S10.104,1.238,21,1.238 M21,0.25C9.54,0.25,0.25,9.54,0.25,21S9.54,41.75,21,41.75S41.75,32.46,41.75,21S32.46,0.25,21,0.25
		L21,0.25z"/>
</g>
<path d="M26.518,20.669l-7.906-7.831c-0.186-0.185-0.484-0.185-0.671,0c-0.187,0.185-0.186,0.48,0,0.664L25.51,21l-7.569,7.496
	c-0.186,0.185-0.186,0.48,0,0.664c0.091,0.092,0.215,0.141,0.334,0.141c0.118,0,0.242-0.047,0.333-0.141l7.907-7.83
	C26.701,21.148,26.701,20.85,26.518,20.669z"/>
</svg>
