<?xml version="1.0" encoding="utf-8"?>
<!-- Generator: Adobe Illustrator 16.0.0, SVG Export Plug-In . SVG Version: 6.00 Build 0)  -->
<!DOCTYPE svg PUBLIC "-//W3C//DTD SVG 1.1 Tiny//EN" "http://www.w3.org/Graphics/SVG/1.1/DTD/svg11-tiny.dtd">
<svg version="1.1" baseProfile="tiny" id="Layer_1" xmlns="http://www.w3.org/2000/svg" xmlns:xlink="http://www.w3.org/1999/xlink"
	 x="0px" y="0px" width="16px" height="21px" viewBox="0 0 16 21" overflow="scroll" xml:space="preserve">
<g>
	<path fill="#5B6F75" d="M15.209,8.087C14.76,7.926,14.26,8.15,14.093,8.583C13.724,9.556,11.29,10.604,8,10.604
		c-3.202,0-5.6-0.993-6.064-1.951c-0.203-0.42-0.724-0.602-1.159-0.406c-0.435,0.196-0.623,0.699-0.42,1.119
		C1.205,11.115,4.276,12.283,8,12.283c1.775,0,3.499-0.279,4.868-0.797c1.508-0.567,2.5-1.372,2.862-2.329
		C15.89,8.73,15.658,8.248,15.209,8.087z M15.209,12.367c-0.449-0.161-0.949,0.063-1.116,0.497C13.724,13.835,11.29,14.885,8,14.885
		c-3.202,0-5.6-0.994-6.064-1.953c-0.203-0.419-0.724-0.6-1.159-0.403c-0.435,0.195-0.623,0.699-0.42,1.118
		C1.205,15.395,4.276,16.563,8,16.563c1.775,0,3.499-0.281,4.868-0.798c1.508-0.566,2.5-1.37,2.862-2.329
		C15.89,13.003,15.658,12.521,15.209,12.367z M15.209,16.641c-0.449-0.162-0.949,0.063-1.116,0.495
		C13.724,18.108,11.29,19.157,8,19.157c-3.202,0-5.6-0.993-6.064-1.951c-0.203-0.419-0.724-0.601-1.159-0.404
		c-0.435,0.194-0.623,0.697-0.42,1.117C1.205,19.667,4.276,20.835,8,20.835c1.775,0,3.499-0.278,4.868-0.796
		c1.508-0.567,2.5-1.372,2.862-2.329C15.89,17.283,15.658,16.802,15.209,16.641z M8,8.01c4.492,0,7.875-1.685,7.875-3.923
		c0-2.238-3.383-3.923-7.875-3.923c-4.492,0-7.875,1.685-7.875,3.923C0.125,6.325,3.508,8.01,8,8.01z M8,1.842
		c3.745,0,6.136,1.329,6.136,2.245c0,0.917-2.391,2.245-6.136,2.245c-3.746,0-6.137-1.329-6.137-2.245
		C1.863,3.171,4.254,1.842,8,1.842z"/>
</g>
</svg>
