<?xml version="1.0" encoding="utf-8"?>
<!-- Generator: Adobe Illustrator 16.0.0, SVG Export Plug-In . SVG Version: 6.00 Build 0)  -->
<!DOCTYPE svg PUBLIC "-//W3C//DTD SVG 1.1 Tiny//EN" "http://www.w3.org/Graphics/SVG/1.1/DTD/svg11-tiny.dtd">
<svg version="1.1" baseProfile="tiny" id="Layer_1" xmlns="http://www.w3.org/2000/svg" xmlns:xlink="http://www.w3.org/1999/xlink"
	 x="0px" y="0px" width="26px" height="26px" viewBox="0 0 26 26" overflow="scroll" xml:space="preserve">
<path fill-rule="evenodd" fill="#32393A" d="M13,0.125c7.11,0,12.875,5.764,12.875,12.875c0,7.111-5.765,12.876-12.875,12.876
	C5.889,25.876,0.125,20.111,0.125,13C0.125,5.889,5.889,0.125,13,0.125z"/>
<path fill="#999C9D" d="M15.596,17.939v1.111c0,0.046-0.034,0.084-0.077,0.084h-3.797c-0.042,0-0.077-0.038-0.077-0.084v-1.111
	c0-0.047,0.035-0.084,0.077-0.084h1.094v-5.923h-1.104c-0.044,0-0.078-0.038-0.078-0.083v-1.137c0-0.047,0.034-0.084,0.078-0.084
	h2.59c0.043,0,0.077,0.037,0.077,0.084v7.144h1.14C15.562,17.855,15.596,17.893,15.596,17.939z M12.146,8.553
	c0-0.707,0.533-1.279,1.19-1.279c0.657,0,1.191,0.572,1.191,1.279c0,0.707-0.534,1.28-1.191,1.28
	C12.679,9.833,12.146,9.259,12.146,8.553z"/>
</svg>
