<?xml version="1.0" encoding="utf-8"?>
<!-- Generator: Adobe Illustrator 16.0.0, SVG Export Plug-In . SVG Version: 6.00 Build 0)  -->
<!DOCTYPE svg PUBLIC "-//W3C//DTD SVG 1.1 Tiny//EN" "http://www.w3.org/Graphics/SVG/1.1/DTD/svg11-tiny.dtd">
<svg version="1.1" baseProfile="tiny" id="Layer_1" xmlns="http://www.w3.org/2000/svg" xmlns:xlink="http://www.w3.org/1999/xlink"
	 x="0px" y="0px" width="16px" height="16px" viewBox="0 0 16 16" overflow="scroll" xml:space="preserve">
<path fill="#FFFFFF" d="M15.739,15.074l-3.83-3.829c1.027-1.181,1.649-2.722,1.649-4.405c0-3.706-3.015-6.718-6.717-6.718
	c-3.706,0-6.716,3.015-6.716,6.718c0,3.702,3.014,6.719,6.716,6.719c1.685,0,3.225-0.623,4.406-1.65l3.828,3.83
	c0.09,0.09,0.212,0.14,0.331,0.14c0.118,0,0.24-0.046,0.333-0.14C15.921,15.557,15.921,15.255,15.739,15.074z M1.064,6.84
	c0-3.186,2.592-5.775,5.774-5.775c3.185,0,5.774,2.593,5.774,5.775c0,3.184-2.589,5.778-5.774,5.778
	C3.656,12.618,1.064,10.025,1.064,6.84z"/>
</svg>
