<?xml version="1.0" encoding="utf-8"?>
<!-- Generator: Adobe Illustrator 16.0.0, SVG Export Plug-In . SVG Version: 6.00 Build 0)  -->
<!DOCTYPE svg PUBLIC "-//W3C//DTD SVG 1.1 Tiny//EN" "http://www.w3.org/Graphics/SVG/1.1/DTD/svg11-tiny.dtd">
<svg version="1.1" baseProfile="tiny" id="Layer_1" xmlns="http://www.w3.org/2000/svg" xmlns:xlink="http://www.w3.org/1999/xlink"
	 x="0px" y="0px" width="96px" height="96px" viewBox="0 0 96 96" overflow="scroll" xml:space="preserve">
<g>
	<path fill="#005399" d="M48,0.25C21.67,0.25,0.25,21.67,0.25,48c0,26.329,21.42,47.75,47.75,47.75
		c26.329,0,47.75-21.421,47.75-47.75C95.75,21.67,74.329,0.25,48,0.25z M48,94.126C22.565,94.126,1.874,73.436,1.874,48
		C1.874,22.565,22.565,1.874,48,1.874c25.436,0,46.126,20.692,46.126,46.126C94.126,73.436,73.436,94.126,48,94.126z M70.112,38.068
		c-0.437,0-0.862,0.042-1.282,0.102v-4.737c0-5.5-4.592-9.974-10.232-9.974H39.384c-5.642,0-10.232,4.477-10.232,9.974v4.765
		c-0.479-0.079-0.967-0.129-1.468-0.129c-3.983,0-7.226,3.16-7.226,7.044c0,2.914,2.219,5.327,5.094,5.736v14.899
		c0,1.911,1.595,3.466,3.556,3.466h5.673v1.888c0,0.463,0.386,0.84,0.862,0.84c0.475,0,0.861-0.377,0.861-0.84v-1.888h24.792v1.888
		c0,0.463,0.387,0.84,0.861,0.84c0.479,0,0.862-0.377,0.862-0.84v-1.888h5.859c1.962,0,3.556-1.555,3.556-3.466V50.82
		c2.783-0.486,4.904-2.858,4.904-5.708C77.339,41.229,74.098,38.068,70.112,38.068z M30.876,33.433c0-4.574,3.816-8.293,8.508-8.293
		h19.214c4.692,0,8.509,3.72,8.509,8.293v5.161c-3.383,1.203-5.811,4.361-5.811,8.069v5.693H36.502v-5.693
		c0-3.64-2.339-6.752-5.626-8.003V33.433z M61.296,54.037v5.434H36.502v-5.434H61.296z M71.385,49.235
		c-1.771,0-3.209-1.404-3.209-3.13c0-1.289,1.073-2.337,2.396-2.337c0.476,0,0.861-0.376,0.861-0.84c0-0.463-0.386-0.84-0.861-0.84
		c-2.272,0-4.12,1.803-4.12,4.018c0,2.428,1.86,4.42,4.26,4.744v14.898c0,0.982-0.822,1.786-1.832,1.786H29.107
		c-1.009,0-1.833-0.802-1.833-1.786V50.831c2.31-0.4,4.072-2.36,4.072-4.726c0-2.216-1.85-4.018-4.122-4.018
		c-0.476,0-0.862,0.377-0.862,0.84c0,0.464,0.386,0.84,0.862,0.84c1.322,0,2.397,1.048,2.397,2.337c0,1.726-1.441,3.13-3.211,3.13
		c-2.332,0-4.229-1.848-4.229-4.123c0-2.958,2.468-5.364,5.503-5.364c3.911,0,7.095,3.101,7.095,6.915v13.647
		c0,0.465,0.386,0.84,0.862,0.84h26.515c0.479,0,0.862-0.375,0.862-0.84V53.2c0-0.002,0.001-0.003,0.001-0.005
		s-0.001-0.003-0.001-0.005v-6.527c0-3.813,3.18-6.915,7.093-6.915c3.034,0,5.502,2.405,5.502,5.364
		C75.614,47.386,73.719,49.235,71.385,49.235z"/>
</g>
</svg>
