<?xml version="1.0" encoding="utf-8"?>
<!-- Generator: Adobe Illustrator 16.0.0, SVG Export Plug-In . SVG Version: 6.00 Build 0)  -->
<!DOCTYPE svg PUBLIC "-//W3C//DTD SVG 1.1 Tiny//EN" "http://www.w3.org/Graphics/SVG/1.1/DTD/svg11-tiny.dtd">
<svg version="1.1" baseProfile="tiny" id="Layer_1" xmlns="http://www.w3.org/2000/svg" xmlns:xlink="http://www.w3.org/1999/xlink"
	 x="0px" y="0px" width="42px" height="42px" viewBox="0 0 42 42" overflow="scroll" xml:space="preserve">
<g>
	<path fill="#FFFFFF" d="M21,0.744C32.17,0.744,41.256,9.83,41.256,21S32.17,41.256,21,41.256S0.744,32.17,0.744,21
		S9.83,0.744,21,0.744z"/>
	<path fill="#231F20" d="M21,40.762C10.104,40.762,1.238,31.896,1.238,21S10.104,1.238,21,1.238S40.762,10.104,40.762,21
		S31.896,40.762,21,40.762 M21,41.75c11.46,0,20.75-9.29,20.75-20.75S32.46,0.25,21,0.25S0.25,9.54,0.25,21S9.54,41.75,21,41.75
		L21,41.75z"/>
</g>
<path d="M15.482,21.331l7.906,7.831c0.186,0.184,0.484,0.184,0.671,0c0.187-0.186,0.186-0.48,0-0.664L16.49,21l7.569-7.496
	c0.186-0.185,0.186-0.48,0-0.664c-0.091-0.092-0.215-0.141-0.335-0.141c-0.117,0-0.241,0.047-0.332,0.141l-7.907,7.83
	C15.299,20.852,15.299,21.15,15.482,21.331z"/>
</svg>
