<?xml version="1.0" encoding="utf-8"?>
<!-- Generator: Adobe Illustrator 16.0.0, SVG Export Plug-In . SVG Version: 6.00 Build 0)  -->
<!DOCTYPE svg PUBLIC "-//W3C//DTD SVG 1.1 Tiny//EN" "http://www.w3.org/Graphics/SVG/1.1/DTD/svg11-tiny.dtd">
<svg version="1.1" baseProfile="tiny" id="Layer_1" xmlns="http://www.w3.org/2000/svg" xmlns:xlink="http://www.w3.org/1999/xlink"
	 x="0px" y="0px" width="17px" height="16px" viewBox="0 0 17 16" overflow="scroll" xml:space="preserve">
<g>
	<path fill="none" d="M225.499-312.389l-5.698-1.083L217-318.5l-2.802,5.028l-5.697,1.083l3.966,4.191l-0.72,5.697l5.253-2.438
		l5.253,2.438l-0.721-5.697L225.499-312.389z M217-307.024l-3.398,1.524l0.466-3.561l-2.566-2.619l3.687-0.677L217-315.5
		l1.813,3.143l3.687,0.677l-2.566,2.619l0.466,3.561L217-307.024z"/>
</g>
<g>
	<path fill-rule="evenodd" fill="#FFFFFF" d="M16.75,6.167l-5.531-1.051L8.5,0.235l-2.72,4.88L0.25,6.167l3.85,4.069l-0.699,5.53
		L8.5,13.398l5.099,2.367l-0.699-5.53L16.75,6.167z M8.5,11.375l-3.299,1.479l0.452-3.456L3.162,6.854l3.579-0.658L8.5,3.146
		l1.76,3.05l3.578,0.658l-2.491,2.543l0.452,3.456L8.5,11.375z"/>
</g>
</svg>
